<svg xmlns="http://www.w3.org/2000/svg" width="100" height="100" viewBox="0 0 100 100">
  <g id="Grupo_1068705" data-name="Grupo 1068705" transform="translate(-426 -8003)">
    <circle id="Elipse_8595" data-name="Elipse 8595" cx="50" cy="50" r="50" transform="translate(426 8003)" fill="#01c3fd"/>
    <g id="window" transform="translate(450.714 8027.714)">
      <circle id="Elipse_8683" data-name="Elipse 8683" cx="0.5" cy="0.5" r="0.5" transform="translate(38.286 4.286)"/>
      <circle id="Elipse_8684" data-name="Elipse 8684" cx="0.5" cy="0.5" r="0.5" transform="translate(41.286 4.286)"/>
      <circle id="Elipse_8685" data-name="Elipse 8685" cx="0.5" cy="0.5" r="0.5" transform="translate(44.286 4.286)"/>
      <path id="Trazado_804726" data-name="Trazado 804726" d="M47.807,0H2.766A2.766,2.766,0,0,0,0,2.766V47.807a2.766,2.766,0,0,0,2.766,2.766H47.807a2.766,2.766,0,0,0,2.766-2.766V2.766A2.766,2.766,0,0,0,47.807,0ZM2.766,1.58H47.807a1.185,1.185,0,0,1,1.185,1.185V7.9H1.58V2.766A1.185,1.185,0,0,1,2.766,1.58ZM47.807,48.992H2.766A1.185,1.185,0,0,1,1.58,47.807V9.482H48.992V47.807a1.185,1.185,0,0,1-1.185,1.185Z"/>
      <path id="Trazado_804727" data-name="Trazado 804727" d="M56.708,35.491,30.632,40.762a.79.79,0,0,0-.632.79V59.8a.79.79,0,0,0,.632.79l26.076,5.334a.715.715,0,0,0,.158,0,.79.79,0,0,0,.79-.79V36.266a.79.79,0,0,0-.948-.79ZM56.076,49.9H42.058v-9.83L56.076,37.23Zm-15.6-9.51V49.9h-8.9V42.184Zm-8.9,11.09h8.9v9.482l-8.9-1.8Zm10.478,9.806V51.477H56.076V64.152Z" transform="translate(-18.147 -21.45)"/>
    </g>
  </g>
</svg>
