<svg xmlns="http://www.w3.org/2000/svg" xmlns:xlink="http://www.w3.org/1999/xlink" width="234.072" height="237.425" viewBox="0 0 234.072 237.425">
  <defs>
    <clipPath id="clip-path">
      <rect id="Rectángulo_376361" data-name="Rectángulo 376361" width="234.072" height="237.425" fill="none"/>
    </clipPath>
    <clipPath id="clip-path-5">
      <rect id="Rectángulo_376356" data-name="Rectángulo 376356" width="44.107" height="44.102" fill="none"/>
    </clipPath>
    <clipPath id="clip-path-6">
      <rect id="Rectángulo_376357" data-name="Rectángulo 376357" width="34.462" height="43.965" fill="none"/>
    </clipPath>
  </defs>
  <g id="Grupo_1069120" data-name="Grupo 1069120" transform="translate(-1071.929 -1515)">
    <g id="Grupo_1068771" data-name="Grupo 1068771" transform="translate(1071.929 1515)" clip-path="url(#clip-path)">
      <g id="Grupo_1068760" data-name="Grupo 1068760">
        <g id="Grupo_1068759" data-name="Grupo 1068759" clip-path="url(#clip-path)">
          <path id="Trazado_804754" data-name="Trazado 804754" d="M212.042,163.624a71.554,71.554,0,1,1-71.56-71.561,71.517,71.517,0,0,1,71.56,71.561" transform="translate(-25.409 -33.941)" fill="#6262f4"/>
          <path id="Trazado_804755" data-name="Trazado 804755" d="M186.226,107.942c-.167,4.281-1.838,8.717-5.324,11.207-5.457,3.9-13.517,1.636-18.172-3.2-2.581-2.685-4.662-6.194-8.176-7.433-5.284-1.855-10.913,2.61-13.119,7.755-3.025,7.075-2.121,15.793-6.892,21.825a15.423,15.423,0,0,1-14.2,5.359,18.176,18.176,0,0,1-12.618-8.781c-2.535-4.287-3.364-9.357-5.272-13.955a20.179,20.179,0,0,0-3.446-5.647,71.581,71.581,0,0,1,86.455-14.49,29.614,29.614,0,0,1,.761,7.358" transform="translate(-36.502 -33.941)" fill="#4848d8"/>
          <path id="Trazado_804756" data-name="Trazado 804756" d="M110.213,206.509a10.276,10.276,0,0,1,8.063-7.753c6.666-1.17,13.733,4.407,19.9,1.611,4.619-2.1,6.213-7.852,9.921-11.314,5.394-5.035,14.98-3.785,19.655,1.923s4.446,14.542.3,20.646c-3.441,5.063-8.963,8.253-13.392,12.477-2.746,2.619-5.1,5.667-8.142,7.937s-7.065,3.7-10.652,2.463c-4.348-1.5-6.546-6.167-8.984-10.067-4.665-7.459-19.132-6.511-16.664-17.923" transform="translate(-40.529 -68.535)" fill="#4848d8"/>
          <path id="Trazado_804757" data-name="Trazado 804757" d="M256.442,217.313a71.6,71.6,0,0,1-59.265,63.056c-.634-5.5-2.864-10.912-4.6-16.254-2.339-7.219-3.641-15.7.68-21.935A14.731,14.731,0,0,1,212.117,238c2.962,1.734,5.22,4.488,8.17,6.234s7.265,2.15,9.409-.535c1.516-1.89,1.378-4.621.766-6.966s-1.624-4.638-1.631-7.064a8.975,8.975,0,0,1,8.833-8.649c2.282.052,4.443,1,6.712,1.227,4.517.467,8.534-1.849,12.065-4.938" transform="translate(-70.201 -80.117)" fill="#4848d8"/>
          <path id="Trazado_804758" data-name="Trazado 804758" d="M248.928,170.492c-.611-2.455-.346-5.289,1.366-7.145,1.55-1.682,3.935-2.247,6.171-2.731q7.546-1.633,15.1-3.272a70.653,70.653,0,0,1,5.808,18.824c-4.212,2.881-8.936,4.932-14.013,4.788-6.378-.191-12.877-4.275-14.427-10.464" transform="translate(-91.662 -58.008)" fill="#4848d8"/>
          <path id="Trazado_804759" data-name="Trazado 804759" d="M108.492,245.124c-1.273,1.636-3.544,2.022-5.56,2.523a27.569,27.569,0,0,0-7.8,3.3,71.661,71.661,0,0,1-24.217-72.189c5.779,1.234,10.826,6.154,11.61,12.077.761,5.762-1.993,11.339-3.047,17.049a29.71,29.71,0,0,0,2.835,19c1.913,3.688,4.845,7.121,8.815,8.36,2.593.813,5.381.622,8.1.657s5.6.38,7.755,2.046,3.181,5.035,1.51,7.185" transform="translate(-25.409 -65.901)" fill="#4848d8"/>
          <path id="Trazado_804760" data-name="Trazado 804760" d="M119.441,250.249c-.418,0-.83,0-1.244-.006a.252.252,0,0,1,0-.5h0c.413.005.828.008,1.239.006q1.07,0,2.132-.023h.006a.252.252,0,0,1,.005.5q-1.068.022-2.143.022m-6.636-.2h-.016c-1.125-.068-2.261-.153-3.376-.256a.252.252,0,0,1,.046-.5c1.109.1,2.24.188,3.36.255a.252.252,0,0,1-.015.5m14.164-.071a.252.252,0,0,1-.018-.5c1.125-.08,2.253-.177,3.353-.289a.257.257,0,0,1,.276.225.251.251,0,0,1-.225.276c-1.1.112-2.239.21-3.369.291h-.018m-22.9-.811a.228.228,0,0,1-.035,0c-1.116-.159-2.24-.338-3.343-.53a.252.252,0,0,1,.087-.5c1.1.193,2.217.369,3.327.528a.252.252,0,0,1-.035.5m31.609-.162a.252.252,0,0,1-.038-.5q.777-.118,1.55-.249.886-.147,1.768-.311a.252.252,0,0,1,.092.5q-.886.164-1.778.313-.776.13-1.557.249a.254.254,0,0,1-.038,0m-40.236-1.429a.245.245,0,0,1-.056-.006c-1.092-.248-2.2-.517-3.287-.8a.252.252,0,0,1-.18-.307.255.255,0,0,1,.307-.181c1.084.283,2.185.552,3.272.8a.251.251,0,0,1-.056.5m48.842-.246a.252.252,0,0,1-.058-.5c1.076-.254,2.174-.534,3.261-.829a.252.252,0,1,1,.132.486c-1.093.3-2.2.576-3.277.833a.237.237,0,0,1-.059.007m-57.31-2.048a.263.263,0,0,1-.076-.011c-1.079-.34-2.159-.7-3.21-1.069a.252.252,0,1,1,.167-.475c1.046.367,2.121.726,3.195,1.064a.251.251,0,0,1-.076.491m65.75-.326a.252.252,0,0,1-.078-.491c1.06-.346,2.128-.713,3.174-1.091a.249.249,0,0,1,.322.151.253.253,0,0,1-.152.323c-1.05.379-2.123.748-3.188,1.1a.256.256,0,0,1-.078.012m-74-2.655a.244.244,0,0,1-.1-.019c-1.047-.427-2.094-.875-3.111-1.329a.252.252,0,1,1,.205-.46c1.012.452,2.054.9,3.1,1.324a.251.251,0,0,1-.1.484m82.2-.4a.252.252,0,0,1-.1-.484c1.029-.431,2.063-.885,3.075-1.348a.252.252,0,0,1,.21.458c-1.017.465-2.056.921-3.09,1.355a.261.261,0,0,1-.1.02m-90.176-3.251a.248.248,0,0,1-.114-.028c-1-.51-2.011-1.042-2.991-1.579a.252.252,0,0,1,.242-.442c.976.535,1.977,1.064,2.977,1.573a.252.252,0,0,1-.114.476m98.1-.466a.252.252,0,0,1-.116-.475c1-.519,1.993-1.056,2.957-1.6a.252.252,0,0,1,.246.439c-.968.542-1.967,1.082-2.97,1.6a.256.256,0,0,1-.116.028M63.1,234.371a.247.247,0,0,1-.132-.038c-.96-.59-1.919-1.2-2.852-1.818a.252.252,0,0,1,.278-.42c.929.613,1.883,1.221,2.839,1.809a.252.252,0,0,1-.133.467m113.353-.53a.252.252,0,0,1-.134-.465c.945-.594,1.893-1.21,2.818-1.833a.252.252,0,0,1,.28.419c-.929.625-1.881,1.244-2.831,1.841a.249.249,0,0,1-.134.039M55.826,229.474a.25.25,0,0,1-.148-.048c-.907-.665-1.813-1.353-2.695-2.043a.252.252,0,1,1,.31-.4c.878.687,1.78,1.371,2.683,2.033a.252.252,0,0,1-.15.455m127.852-.592a.252.252,0,0,1-.151-.453c.89-.665,1.785-1.357,2.661-2.056a.252.252,0,0,1,.314.393c-.88.7-1.78,1.4-2.674,2.066a.251.251,0,0,1-.15.05M48.972,224a.248.248,0,0,1-.165-.062c-.848-.735-1.7-1.494-2.52-2.255a.252.252,0,0,1,.342-.37c.821.758,1.664,1.513,2.508,2.245a.252.252,0,0,1-.165.442m141.5-.652a.252.252,0,0,1-.167-.441c.83-.732,1.667-1.5,2.487-2.266a.252.252,0,1,1,.345.367c-.824.774-1.665,1.54-2.5,2.277a.254.254,0,0,1-.167.063m-147.89-5.357a.25.25,0,0,1-.18-.076c-.787-.8-1.57-1.628-2.329-2.451a.252.252,0,0,1,.371-.341c.755.819,1.535,1.64,2.318,2.439a.253.253,0,0,1-.18.429m154.221-.706a.252.252,0,0,1-.182-.426c.778-.809,1.551-1.637,2.3-2.462a.252.252,0,0,1,.374.338c-.749.828-1.525,1.66-2.307,2.472a.248.248,0,0,1-.181.078m-160.1-5.8a.252.252,0,0,1-.193-.09c-.718-.863-1.432-1.748-2.122-2.632a.251.251,0,1,1,.4-.309c.687.879,1.4,1.76,2.112,2.619a.252.252,0,0,1-.194.413m165.92-.761a.249.249,0,0,1-.16-.057.252.252,0,0,1-.035-.354c.71-.869,1.414-1.756,2.09-2.64a.252.252,0,1,1,.4.307c-.681.887-1.387,1.779-2.1,2.652a.251.251,0,0,1-.194.092m-171.251-6.2a.25.25,0,0,1-.206-.107c-.65-.924-1.29-1.864-1.9-2.794a.252.252,0,0,1,.421-.277c.608.926,1.245,1.861,1.892,2.781a.252.252,0,0,1-.206.4m176.521-.813a.252.252,0,0,1-.208-.395c.632-.915,1.261-1.857,1.869-2.8a.252.252,0,0,1,.424.273c-.612.95-1.243,1.9-1.878,2.815a.251.251,0,0,1-.207.109M26.629,197.159a.251.251,0,0,1-.217-.124c-.569-.968-1.13-1.957-1.667-2.939a.252.252,0,1,1,.442-.241c.534.978,1.092,1.962,1.659,2.925a.252.252,0,0,1-.089.345.249.249,0,0,1-.128.035M212.58,196.3a.252.252,0,0,1-.218-.378c.554-.962,1.1-1.952,1.635-2.946a.252.252,0,0,1,.445.237c-.533,1-1.086,1.994-1.643,2.96a.253.253,0,0,1-.218.126M22.5,189.428a.252.252,0,0,1-.227-.143c-.485-1.006-.963-2.036-1.42-3.065a.252.252,0,0,1,.46-.2c.455,1.023.931,2.051,1.414,3.051a.252.252,0,0,1-.226.362m194.146-.912a.251.251,0,0,1-.227-.359c.479-1.019.946-2.053,1.388-3.072a.252.252,0,0,1,.462.2c-.443,1.023-.913,2.061-1.4,3.087a.25.25,0,0,1-.227.144M19.016,181.386a.253.253,0,0,1-.235-.162c-.4-1.044-.794-2.111-1.164-3.17a.252.252,0,0,1,.475-.167c.369,1.055.759,2.117,1.159,3.156a.252.252,0,0,1-.235.342m201.042-.959a.269.269,0,0,1-.088-.015.253.253,0,0,1-.148-.325c.392-1.045.773-2.115,1.133-3.176a.252.252,0,1,1,.477.161c-.362,1.067-.744,2.141-1.138,3.193a.253.253,0,0,1-.236.163M16.2,173.088a.251.251,0,0,1-.241-.181c-.318-1.08-.62-2.176-.9-3.254a.252.252,0,0,1,.487-.126c.278,1.073.58,2.163.9,3.239a.251.251,0,0,1-.17.312.236.236,0,0,1-.071.011M222.8,172.081a.259.259,0,0,1-.069-.01.25.25,0,0,1-.173-.311c.3-1.078.6-2.175.866-3.262a.255.255,0,0,1,.306-.184.252.252,0,0,1,.184.306c-.272,1.092-.565,2.194-.872,3.278a.251.251,0,0,1-.242.183M14.083,164.587a.252.252,0,0,1-.246-.2c-.227-1.1-.439-2.213-.629-3.315a.252.252,0,0,1,.5-.086c.19,1.1.4,2.206.626,3.3a.252.252,0,0,1-.2.3.279.279,0,0,1-.051.005m210.752-1.044a.217.217,0,0,1-.049-.005.252.252,0,0,1-.2-.3c.214-1.087.414-2.2.6-3.313a.252.252,0,0,1,.5.081c-.182,1.117-.383,2.236-.6,3.328a.252.252,0,0,1-.247.2m-212.169-7.6a.252.252,0,0,1-.249-.221c-.136-1.111-.256-2.242-.358-3.362a.252.252,0,0,1,.229-.273.246.246,0,0,1,.273.227c.1,1.116.221,2.241.356,3.347a.252.252,0,0,1-.22.281l-.031,0m213.5-1.066h-.028a.252.252,0,0,1-.222-.278q.047-.417.091-.833.132-1.256.233-2.518a.247.247,0,0,1,.271-.231.253.253,0,0,1,.231.271q-.1,1.269-.235,2.53-.044.419-.09.837a.253.253,0,0,1-.251.223M11.955,147.206a.252.252,0,0,1-.251-.241c-.045-1.12-.074-2.256-.085-3.377a.252.252,0,0,1,.249-.254h0a.252.252,0,0,1,.251.249c.011,1.116.04,2.247.085,3.361a.252.252,0,0,1-.241.263Zm214.839-1.074h-.008a.253.253,0,0,1-.244-.26c.035-1.119.052-2.252.052-3.365v-.128a.252.252,0,1,1,.5,0v.128c0,1.118-.018,2.256-.052,3.381a.252.252,0,0,1-.252.244M11.95,138.44h-.009a.251.251,0,0,1-.242-.261c.044-1.125.107-2.261.186-3.376a.252.252,0,1,1,.5.035c-.078,1.111-.141,2.241-.185,3.361a.252.252,0,0,1-.252.242m214.756-1.2a.253.253,0,0,1-.252-.239c-.056-1.112-.131-2.242-.223-3.358a.252.252,0,0,1,.5-.042c.092,1.121.167,2.256.225,3.374a.253.253,0,0,1-.24.265h-.012M12.653,129.7l-.03,0a.251.251,0,0,1-.22-.28c.135-1.115.29-2.242.46-3.35a.252.252,0,1,1,.5.076c-.169,1.1-.323,2.225-.458,3.334a.251.251,0,0,1-.249.222m213.253-1.2a.252.252,0,0,1-.25-.218c-.135-1.016-.287-2.042-.451-3.047l-.043-.262a.26.26,0,0,1,.207-.3.242.242,0,0,1,.287.2l0,.021.043.259c.164,1.012.317,2.042.453,3.063a.252.252,0,0,1-.216.283l-.033,0m-211.842-7.46a.293.293,0,0,1-.051-.005.252.252,0,0,1-.2-.3c.227-1.1.473-2.213.732-3.3a.252.252,0,0,1,.49.117c-.258,1.083-.5,2.189-.729,3.286a.251.251,0,0,1-.246.2M224.4,119.865a.251.251,0,0,1-.246-.2c-.239-1.1-.5-2.2-.765-3.278a.252.252,0,0,1,.489-.122c.269,1.08.528,2.188.767,3.293a.252.252,0,0,1-.246.3M16.177,112.532a.244.244,0,0,1-.07-.01.251.251,0,0,1-.171-.312c.315-1.08.652-2.167,1-3.231a.252.252,0,1,1,.479.157c-.346,1.058-.681,2.14-.995,3.215a.251.251,0,0,1-.242.181m206.02-1.153a.251.251,0,0,1-.241-.178c-.326-1.071-.674-2.149-1.032-3.2a.252.252,0,0,1,.477-.162c.36,1.059.708,2.142,1.037,3.219a.252.252,0,0,1-.167.314.271.271,0,0,1-.073.011M18.981,104.222a.251.251,0,0,1-.235-.342c.4-1.044.826-2.1,1.263-3.137a.252.252,0,1,1,.464.2c-.435,1.034-.857,2.084-1.256,3.122a.251.251,0,0,1-.235.162M219.3,103.1a.252.252,0,0,1-.234-.159c-.41-1.033-.845-2.079-1.292-3.107a.252.252,0,1,1,.461-.2c.45,1.033.887,2.083,1.3,3.122a.252.252,0,0,1-.141.327.258.258,0,0,1-.093.018M22.459,96.172a.252.252,0,0,1-.227-.361c.485-1.006.994-2.023,1.516-3.023a.252.252,0,0,1,.446.233c-.519.995-1.026,2.007-1.508,3.008a.252.252,0,0,1-.227.143M215.728,95.1a.251.251,0,0,1-.225-.14c-.5-1.006-1.018-2.013-1.542-2.991a.252.252,0,1,1,.444-.237c.525.982,1.047,1.993,1.548,3a.251.251,0,0,1-.225.364M26.586,88.435a.243.243,0,0,1-.127-.035.25.25,0,0,1-.09-.344c.568-.968,1.16-1.94,1.758-2.888a.252.252,0,1,1,.426.268c-.6.944-1.184,1.911-1.75,2.875a.251.251,0,0,1-.217.124m184.932-1.029a.252.252,0,0,1-.216-.122c-.58-.963-1.179-1.923-1.781-2.855a.252.252,0,0,1,.424-.273c.6.936,1.206,1.9,1.789,2.868a.252.252,0,0,1-.086.346.248.248,0,0,1-.129.036M31.331,81.061a.252.252,0,0,1-.205-.4c.643-.915,1.312-1.836,1.987-2.735a.252.252,0,1,1,.4.3c-.672.9-1.337,1.811-1.978,2.723a.25.25,0,0,1-.206.107m175.363-.976a.25.25,0,0,1-.2-.1c-.648-.9-1.324-1.811-2.007-2.7a.252.252,0,0,1,.4-.307c.686.894,1.365,1.807,2.016,2.714a.251.251,0,0,1-.2.4M36.661,74.1a.252.252,0,0,1-.194-.413c.717-.862,1.458-1.725,2.2-2.565a.252.252,0,1,1,.377.333c-.741.836-1.479,1.7-2.193,2.554a.25.25,0,0,1-.193.091M201.29,73.18a.251.251,0,0,1-.191-.088c-.728-.855-1.475-1.706-2.221-2.53a.252.252,0,0,1,.374-.338c.749.828,1.5,1.682,2.23,2.541a.252.252,0,0,1-.191.415M42.536,67.588a.252.252,0,0,1-.18-.428c.79-.807,1.6-1.608,2.4-2.38a.252.252,0,0,1,.348.363c-.8.768-1.6,1.566-2.391,2.369a.249.249,0,0,1-.18.076m152.809-.852a.253.253,0,0,1-.178-.073c-.795-.794-1.607-1.581-2.418-2.342a.252.252,0,1,1,.345-.367c.814.765,1.631,1.556,2.429,2.352a.252.252,0,0,1-.177.43M48.917,61.572a.252.252,0,0,1-.165-.442c.849-.737,1.719-1.47,2.587-2.177a.252.252,0,0,1,.318.39c-.864.7-1.73,1.433-2.575,2.167a.251.251,0,0,1-.165.061m139.98-.779a.249.249,0,0,1-.162-.06c-.852-.723-1.727-1.442-2.6-2.138a.252.252,0,0,1,.313-.394c.878.7,1.758,1.422,2.612,2.148a.252.252,0,0,1-.163.444M55.764,56.1a.252.252,0,0,1-.15-.455c.9-.665,1.83-1.324,2.754-1.96a.252.252,0,0,1,.285.415c-.919.633-1.842,1.289-2.741,1.95a.253.253,0,0,1-.149.049m126.223-.7a.254.254,0,0,1-.147-.047c-.907-.652-1.837-1.3-2.765-1.92a.252.252,0,1,1,.28-.418c.932.626,1.867,1.275,2.778,1.929a.252.252,0,0,1-.147.456m-118.954-4.2a.252.252,0,0,1-.133-.466c.958-.59,1.934-1.172,2.9-1.729a.252.252,0,0,1,.251.437c-.965.554-1.938,1.133-2.89,1.72a.252.252,0,0,1-.132.037m111.628-.621a.248.248,0,0,1-.129-.036c-.96-.577-1.94-1.145-2.913-1.689a.252.252,0,0,1,.246-.439c.977.546,1.962,1.117,2.927,1.7a.252.252,0,0,1-.13.468M70.676,46.9a.252.252,0,0,1-.115-.476c1-.51,2.023-1.009,3.035-1.485a.252.252,0,0,1,.215.456c-1.007.473-2.023.97-3.021,1.477a.247.247,0,0,1-.114.028m96.29-.536a.244.244,0,0,1-.112-.027c-1.006-.5-2.028-.984-3.04-1.446a.252.252,0,1,1,.209-.458c1.016.463,2.044.953,3.054,1.452a.252.252,0,0,1-.111.478M78.644,43.248a.252.252,0,0,1-.1-.485c1.037-.425,2.1-.839,3.145-1.231A.252.252,0,1,1,81.87,42c-1.045.39-2.1.8-3.131,1.225a.251.251,0,0,1-.1.018m80.311-.45a.245.245,0,0,1-.093-.018c-1.039-.412-2.1-.813-3.148-1.191a.252.252,0,0,1,.17-.473c1.055.38,2.119.783,3.163,1.2a.252.252,0,0,1-.092.485M86.884,40.261a.252.252,0,0,1-.076-.492c1.066-.337,2.154-.663,3.236-.968a.252.252,0,1,1,.137.484c-1.076.3-2.16.628-3.22.963a.243.243,0,0,1-.076.012m63.792-.358a.246.246,0,0,1-.073-.011c-1.075-.326-2.163-.638-3.236-.928a.252.252,0,1,1,.131-.486c1.077.291,2.171.6,3.251.932a.252.252,0,0,1-.073.493M95.34,37.962a.252.252,0,0,1-.056-.5c1.1-.25,2.207-.485,3.3-.7a.252.252,0,1,1,.1.494c-1.09.213-2.2.446-3.287.7a.249.249,0,0,1-.057.006m46.848-.264a.257.257,0,0,1-.053-.006c-1.1-.237-2.206-.459-3.3-.66a.252.252,0,1,1,.09-.495c1.1.2,2.215.425,3.316.662a.252.252,0,0,1-.053.5m-38.233-1.335a.252.252,0,0,1-.035-.5c1.1-.158,2.231-.3,3.347-.427a.252.252,0,1,1,.056.5c-1.111.124-2.232.268-3.331.425a.243.243,0,0,1-.037,0m29.593-.167a.191.191,0,0,1-.033,0c-1.1-.145-2.229-.276-3.344-.388a.252.252,0,0,1-.225-.276.243.243,0,0,1,.275-.225c1.121.112,2.25.243,3.359.39a.252.252,0,0,1-.033.5m-20.877-.724a.252.252,0,0,1-.015-.5c1.119-.069,2.256-.121,3.377-.155a.247.247,0,0,1,.259.244.253.253,0,0,1-.244.259c-1.116.033-2.248.085-3.362.154h-.015m12.142-.068H124.8c-1.112-.056-2.244-.1-3.364-.116a.252.252,0,0,1-.247-.256.27.27,0,0,1,.256-.247c1.126.021,2.263.06,3.38.116a.252.252,0,0,1-.013.5" transform="translate(-4.284 -12.824)" fill="#18187c"/>
          <path id="Trazado_804761" data-name="Trazado 804761" d="M29.927,128.325a.248.248,0,0,1-.116-.028.252.252,0,0,1-.107-.34,10.593,10.593,0,0,1,.914-1.451.252.252,0,0,1,.4.3,10.063,10.063,0,0,0-.871,1.382.252.252,0,0,1-.223.135" transform="translate(-10.941 -46.602)" fill="#18187c"/>
          <path id="Trazado_804762" data-name="Trazado 804762" d="M224.591,217.02a.252.252,0,0,1-.251-.223,19.273,19.273,0,0,0-.668-3.243.252.252,0,0,1,.171-.312.255.255,0,0,1,.313.171,19.85,19.85,0,0,1,.686,3.328.253.253,0,0,1-.223.278h-.028m-2.679-8.272a.252.252,0,0,1-.225-.139c-.473-.945-1.016-1.931-1.615-2.929a.252.252,0,0,1,.431-.259c.606,1.01,1.155,2.007,1.634,2.963a.252.252,0,0,1-.112.338.248.248,0,0,1-.113.027m-4.611-7.425a.253.253,0,0,1-.2-.1c-.64-.876-1.326-1.772-2.039-2.664a.252.252,0,0,1,.393-.315c.718.9,1.408,1.8,2.052,2.681a.252.252,0,0,1-.2.4m-5.53-6.779a.252.252,0,0,1-.187-.084c-.735-.82-1.5-1.65-2.278-2.467a.252.252,0,0,1,.364-.348c.781.821,1.551,1.655,2.289,2.479a.252.252,0,0,1-.188.42m-6.073-6.3a.249.249,0,0,1-.176-.071q-1.186-1.152-2.436-2.314a.252.252,0,0,1,.342-.369q1.257,1.167,2.445,2.323a.252.252,0,0,1,0,.356.249.249,0,0,1-.18.076m-6.443-5.924a.246.246,0,0,1-.165-.062q-1.25-1.09-2.552-2.189a.252.252,0,1,1,.325-.384q1.3,1.1,2.558,2.195a.252.252,0,0,1-.165.441m-6.718-5.61a.25.25,0,0,1-.157-.055q-1.3-1.039-2.641-2.082a.252.252,0,1,1,.31-.4q1.344,1.045,2.646,2.085a.252.252,0,0,1-.157.449m-6.935-5.34a.252.252,0,0,1-.15-.049q-1.338-.992-2.714-1.986a.252.252,0,0,1,.295-.408q1.378,1,2.72,1.989a.252.252,0,0,1-.15.454m-7.115-5.1a.257.257,0,0,1-.144-.044q-1.371-.951-2.777-1.9a.252.252,0,0,1,.282-.417q1.406.95,2.782,1.9a.252.252,0,0,1-.143.458m-7.272-4.874a.254.254,0,0,1-.137-.04q-1.4-.91-2.831-1.817a.252.252,0,0,1,.27-.425q1.432.907,2.835,1.819a.252.252,0,0,1-.137.463m-7.4-4.665a.252.252,0,0,1-.131-.037q-1.428-.872-2.88-1.739a.252.252,0,1,1,.258-.432q1.454.868,2.883,1.742a.252.252,0,0,1-.131.467m-7.529-4.465a.252.252,0,0,1-.126-.033q-1.451-.835-2.923-1.664a.251.251,0,1,1,.246-.438q1.474.83,2.928,1.666a.252.252,0,0,1-.126.47M148.643,148a.248.248,0,0,1-.12-.031q-1.473-.8-2.964-1.59a.252.252,0,0,1,.236-.444q1.493.792,2.968,1.592a.252.252,0,0,1-.12.473m-7.74-4.08a.249.249,0,0,1-.115-.028q-1.5-.769-3-1.518a.252.252,0,1,1,.226-.45q1.5.749,3.006,1.52a.252.252,0,0,1-.114.476m-7.839-3.888a.249.249,0,0,1-.109-.025q-1.522-.732-3.038-1.442a.252.252,0,1,1,.213-.456q1.519.711,3.042,1.444a.252.252,0,0,1-.109.479m-7.934-3.69a.252.252,0,0,1-.1-.023q-1.542-.693-3.073-1.364a.252.252,0,0,1,.2-.462q1.532.671,3.078,1.366a.252.252,0,0,1-.1.482m-8.026-3.483a.253.253,0,0,1-.1-.02q-1.562-.652-3.109-1.28a.252.252,0,0,1,.189-.467q1.551.628,3.115,1.282a.252.252,0,0,1-.1.484m-8.121-3.258a.251.251,0,0,1-.09-.017q-1.581-.607-3.146-1.188a.252.252,0,0,1,.175-.472q1.568.581,3.152,1.19a.252.252,0,0,1-.09.487m-8.214-3.012a.257.257,0,0,1-.084-.014q-1.6-.559-3.182-1.088a.252.252,0,1,1,.16-.477q1.583.53,3.188,1.09a.252.252,0,0,1-.082.489m-8.311-2.741a.247.247,0,0,1-.074-.011q-1.624-.5-3.219-.972a.252.252,0,0,1,.142-.484q1.6.471,3.225.974a.252.252,0,0,1-.074.492m-8.408-2.426a.23.23,0,0,1-.065-.009q-1.645-.438-3.256-.837a.252.252,0,0,1,.121-.489q1.615.4,3.264.84a.252.252,0,0,1-.064.495m-46.22-1.717a.252.252,0,0,1-.122-.473,19.85,19.85,0,0,1,3.126-1.35.252.252,0,1,1,.162.477,19.3,19.3,0,0,0-3.046,1.314.252.252,0,0,1-.12.031m37.714-.337a.253.253,0,0,1-.053-.006q-1.67-.359-3.292-.67a.253.253,0,0,1-.2-.295.249.249,0,0,1,.295-.2q1.628.313,3.3.672a.252.252,0,0,1-.052.5m-8.605-1.585a.256.256,0,0,1-.038,0c-1.123-.169-2.243-.322-3.328-.453a.252.252,0,1,1,.061-.5c1.09.131,2.214.285,3.342.455a.252.252,0,0,1-.037.5m-20.787-.629a.252.252,0,0,1-.036-.5c1.066-.157,2.2-.277,3.365-.358a.252.252,0,1,1,.035.5c-1.155.08-2.273.2-3.326.354l-.037,0m12.091-.328h-.016c-1.148-.073-2.275-.122-3.352-.144a.253.253,0,0,1-.247-.258.24.24,0,0,1,.258-.246c1.083.023,2.218.071,3.373.146a.252.252,0,0,1-.016.5" transform="translate(-13.854 -42.832)" fill="#18187c"/>
          <path id="Trazado_804763" data-name="Trazado 804763" d="M331.9,285.628a.247.247,0,0,1-.116-.028.251.251,0,0,1-.107-.34,9.985,9.985,0,0,0,.633-1.506.254.254,0,0,1,.318-.162.251.251,0,0,1,.161.318,10.466,10.466,0,0,1-.665,1.583.253.253,0,0,1-.223.136" transform="translate(-122.269 -104.548)" fill="#18187c"/>
          <path id="Trazado_804764" data-name="Trazado 804764" d="M339.737,141.38a.252.252,0,0,1-.246-.2,10.21,10.21,0,0,0-.474-1.563.252.252,0,1,1,.468-.185,10.543,10.543,0,0,1,.5,1.641.251.251,0,0,1-.246.3" transform="translate(-124.979 -51.347)" fill="#18187c"/>
          <path id="Trazado_804765" data-name="Trazado 804765" d="M55.023,233.184a.252.252,0,0,1,0-.5c1.083-.018,2.213-.053,3.357-.105a.257.257,0,0,1,.263.24.252.252,0,0,1-.24.263c-1.149.053-2.284.088-3.372.106Zm-5.385-.057h-.01c-1.152-.045-2.285-.115-3.37-.205a.252.252,0,0,1,.042-.5c1.076.09,2.2.158,3.349.2a.252.252,0,0,1-.011.5m14.122-.405a.252.252,0,0,1-.021-.5q1.648-.141,3.345-.324a.252.252,0,1,1,.054.5q-1.7.184-3.356.326H63.76m-22.821-.475a.254.254,0,0,1-.044,0c-1.15-.2-2.264-.438-3.309-.705a.252.252,0,1,1,.124-.488c1.033.264,2.134.5,3.272.7a.252.252,0,0,1-.043.5m31.516-.513a.252.252,0,0,1-.035-.5q1.642-.23,3.325-.494a.248.248,0,0,1,.288.209.252.252,0,0,1-.21.288q-1.687.266-3.334.495a.22.22,0,0,1-.035,0m8.638-1.4a.252.252,0,0,1-.045-.5q1.635-.3,3.3-.633a.252.252,0,0,1,.1.495q-1.67.332-3.309.634a.289.289,0,0,1-.046,0m-48.528-.542a.248.248,0,0,1-.1-.023,19.74,19.74,0,0,1-2.97-1.665.251.251,0,1,1,.285-.414,19.382,19.382,0,0,0,2.894,1.621.252.252,0,0,1-.1.48m57.1-1.2a.252.252,0,0,1-.054-.5q1.626-.361,3.278-.751a.252.252,0,1,1,.116.491q-1.654.389-3.284.752a.236.236,0,0,1-.055.006m8.51-2.039a.252.252,0,0,1-.062-.5q1.617-.415,3.253-.855a.252.252,0,0,1,.131.487q-1.64.44-3.26.855a.232.232,0,0,1-.063.008m8.444-2.3a.252.252,0,0,1-.069-.494q1.605-.462,3.226-.948a.252.252,0,0,1,.145.482q-1.624.487-3.232.95a.259.259,0,0,1-.069.009m8.374-2.54a.252.252,0,0,1-.076-.492q1.594-.509,3.2-1.037a.252.252,0,0,1,.157.479q-1.608.529-3.2,1.038a.247.247,0,0,1-.076.012m8.3-2.762a.252.252,0,0,1-.083-.49q1.581-.549,3.172-1.119a.249.249,0,0,1,.322.152.252.252,0,0,1-.152.322q-1.593.571-3.177,1.121a.267.267,0,0,1-.083.014m8.229-2.974a.252.252,0,0,1-.088-.488q1.569-.588,3.144-1.2a.251.251,0,1,1,.181.469q-1.577.61-3.148,1.2a.256.256,0,0,1-.088.016m8.154-3.177a.252.252,0,0,1-.094-.486q1.565-.632,3.113-1.273a.252.252,0,0,1,.193.465q-1.548.642-3.117,1.275a.25.25,0,0,1-.095.018m8.073-3.374a.252.252,0,0,1-.1-.483q1.55-.671,3.08-1.352a.252.252,0,1,1,.2.46q-1.531.68-3.083,1.353a.248.248,0,0,1-.1.021m7.986-3.579a.252.252,0,0,1-.105-.48q1.534-.709,3.044-1.428a.252.252,0,0,1,.216.455q-1.511.719-3.049,1.431a.25.25,0,0,1-.105.023m7.889-3.782a.252.252,0,0,1-.112-.477q1.517-.753,3-1.511a.251.251,0,1,1,.228.448q-1.49.76-3.008,1.514a.253.253,0,0,1-.112.026m7.78-4a.252.252,0,0,1-.118-.474q1.5-.8,2.958-1.6a.252.252,0,1,1,.242.442q-1.466.8-2.964,1.6a.246.246,0,0,1-.118.029m7.657-4.233a.252.252,0,0,1-.125-.47q1.471-.845,2.906-1.693a.252.252,0,0,1,.256.434q-1.437.849-2.911,1.7a.245.245,0,0,1-.126.033m7.515-4.484a.252.252,0,0,1-.133-.466q1.443-.9,2.844-1.795a.252.252,0,0,1,.271.424q-1.4.9-2.849,1.8a.254.254,0,0,1-.133.038m7.34-4.763a.252.252,0,0,1-.141-.46q1.408-.956,2.765-1.912a.252.252,0,1,1,.29.412q-1.36.957-2.772,1.917a.247.247,0,0,1-.141.044m7.124-5.083a.252.252,0,0,1-.152-.453q1.364-1.027,2.664-2.049a.252.252,0,0,1,.311.4q-1.3,1.026-2.672,2.055a.251.251,0,0,1-.152.051m6.833-5.464a.252.252,0,0,1-.164-.443c.869-.742,1.717-1.487,2.522-2.217a.252.252,0,1,1,.338.373c-.809.733-1.661,1.482-2.534,2.227a.247.247,0,0,1-.163.061m6.42-5.943a.252.252,0,0,1-.179-.429c.807-.819,1.583-1.64,2.3-2.438a.252.252,0,1,1,.374.338c-.727.8-1.506,1.629-2.319,2.453a.251.251,0,0,1-.18.075m5.749-6.589a.252.252,0,0,1-.2-.4c.7-.925,1.34-1.849,1.912-2.745a.252.252,0,0,1,.425.271c-.58.907-1.23,1.842-1.934,2.777a.252.252,0,0,1-.2.1m4.433-7.517a.24.24,0,0,1-.1-.019.251.251,0,0,1-.138-.328,19.3,19.3,0,0,0,1-3.162.252.252,0,1,1,.492.107,19.766,19.766,0,0,1-1.028,3.246.251.251,0,0,1-.233.157" transform="translate(-10.832 -55.403)" fill="#18187c"/>
          <path id="Trazado_804766" data-name="Trazado 804766" d="M23.273,266.353a.25.25,0,0,1-.217-.122,10.457,10.457,0,0,1-.759-1.539.252.252,0,0,1,.468-.185,9.963,9.963,0,0,0,.724,1.466.251.251,0,0,1-.086.345.255.255,0,0,1-.129.036" transform="translate(-8.214 -97.458)" fill="#18187c"/>
          <path id="Trazado_804767" data-name="Trazado 804767" d="M143.368,371.95a.269.269,0,0,1-.063-.008,10.773,10.773,0,0,1-1.623-.557.252.252,0,1,1,.2-.461,10.282,10.282,0,0,0,1.546.531.252.252,0,0,1-.061.5" transform="translate(-52.178 -136.741)" fill="#18187c"/>
          <path id="Trazado_804768" data-name="Trazado 804768" d="M129.746,247.143a.249.249,0,0,1-.188-.084,19.752,19.752,0,0,1-2.031-2.731.252.252,0,1,1,.427-.266,19.325,19.325,0,0,0,1.979,2.662.251.251,0,0,1-.187.419m-4.393-7.515a.253.253,0,0,1-.234-.158c-.4-1-.774-2.074-1.121-3.193a.252.252,0,1,1,.48-.149c.344,1.107.717,2.169,1.109,3.156a.252.252,0,0,1-.234.345m-2.465-8.385a.251.251,0,0,1-.246-.2c-.228-1.063-.441-2.179-.633-3.316a.252.252,0,0,1,.206-.29.257.257,0,0,1,.29.206c.191,1.13.4,2.239.628,3.3a.25.25,0,0,1-.193.3.254.254,0,0,1-.053.006m-1.371-8.64a.251.251,0,0,1-.25-.223l-.047-.422q-.154-1.438-.277-2.936a.251.251,0,0,1,.23-.271.248.248,0,0,1,.271.23q.122,1.491.277,2.924l.046.419a.252.252,0,0,1-.222.278h-.028m-.651-8.724a.252.252,0,0,1-.251-.241q-.069-1.656-.1-3.368a.252.252,0,0,1,.247-.257.259.259,0,0,1,.256.246q.034,1.707.1,3.358a.251.251,0,0,1-.241.262Zm-.124-8.747h0a.251.251,0,0,1-.249-.254q.019-1.664.068-3.369a.235.235,0,0,1,.259-.245.253.253,0,0,1,.245.259q-.049,1.7-.068,3.36a.252.252,0,0,1-.252.249m.292-8.746h-.014a.251.251,0,0,1-.237-.265q.09-1.664.208-3.362a.252.252,0,0,1,.5.034q-.116,1.7-.207,3.356a.251.251,0,0,1-.251.238m.64-8.727h-.023a.252.252,0,0,1-.228-.273q.152-1.663.329-3.353a.259.259,0,0,1,.277-.224.252.252,0,0,1,.224.277q-.176,1.687-.328,3.347a.252.252,0,0,1-.251.229m.94-8.7-.032,0a.252.252,0,0,1-.218-.281q.206-1.659.435-3.34a.246.246,0,0,1,.283-.215.252.252,0,0,1,.216.283q-.229,1.678-.434,3.334a.252.252,0,0,1-.25.221m1.21-8.667a.2.2,0,0,1-.039,0,.252.252,0,0,1-.211-.287q.256-1.653.532-3.325a.252.252,0,1,1,.5.082q-.276,1.669-.531,3.321a.253.253,0,0,1-.249.213m1.456-8.628a.29.29,0,0,1-.046,0,.252.252,0,0,1-.2-.294q.3-1.647.622-3.311a.254.254,0,0,1,.295-.2.252.252,0,0,1,.2.295q-.321,1.661-.622,3.306a.251.251,0,0,1-.247.206m1.686-8.588a.294.294,0,0,1-.052-.005.253.253,0,0,1-.194-.3q.345-1.64.708-3.294a.252.252,0,1,1,.492.109q-.363,1.649-.706,3.288a.253.253,0,0,1-.246.2m1.9-8.541a.257.257,0,0,1-.058-.007.251.251,0,0,1-.187-.3q.385-1.634.789-3.275a.252.252,0,0,1,.489.121q-.4,1.639-.789,3.27a.251.251,0,0,1-.244.194m2.115-8.492a.249.249,0,0,1-.064-.008.253.253,0,0,1-.18-.307q.429-1.635.869-3.255a.252.252,0,1,1,.486.133q-.439,1.616-.868,3.249a.252.252,0,0,1-.244.188m2.323-8.438a.243.243,0,0,1-.069-.01.251.251,0,0,1-.172-.311q.47-1.626.95-3.232a.252.252,0,0,1,.483.145q-.481,1.6-.95,3.227a.252.252,0,0,1-.242.182m2.535-8.376a.247.247,0,0,1-.076-.012.252.252,0,0,1-.164-.316q.511-1.615,1.033-3.206a.252.252,0,1,1,.479.157q-.522,1.589-1.032,3.2a.252.252,0,0,1-.24.176m2.753-8.307a.249.249,0,0,1-.082-.014.253.253,0,0,1-.156-.321q.555-1.6,1.12-3.177a.252.252,0,1,1,.474.17q-.564,1.573-1.118,3.172a.252.252,0,0,1-.238.17m2.982-8.227a.261.261,0,0,1-.09-.016.252.252,0,0,1-.146-.325q.6-1.587,1.212-3.143a.252.252,0,0,1,.469.184q-.609,1.554-1.21,3.138a.251.251,0,0,1-.235.163m3.227-8.134a.252.252,0,0,1-.232-.348q.652-1.569,1.312-3.1a.252.252,0,0,1,.462.2q-.658,1.53-1.309,3.1a.251.251,0,0,1-.232.155m3.494-8.023a.246.246,0,0,1-.1-.023.252.252,0,0,1-.124-.333q.707-1.549,1.422-3.055a.252.252,0,1,1,.455.217q-.714,1.5-1.419,3.047a.253.253,0,0,1-.23.147m3.792-7.886a.254.254,0,0,1-.114-.027.251.251,0,0,1-.111-.338q.772-1.522,1.549-2.992a.252.252,0,1,1,.445.235q-.776,1.466-1.545,2.985a.25.25,0,0,1-.225.138m4.138-7.71a.247.247,0,0,1-.124-.033.251.251,0,0,1-.094-.343l.483-.843q.607-1.051,1.216-2.068a.252.252,0,1,1,.432.258q-.607,1.014-1.212,2.062l-.482.84a.251.251,0,0,1-.218.128m4.55-7.474a.252.252,0,0,1-.21-.39c.628-.962,1.263-1.9,1.886-2.8a.252.252,0,1,1,.413.288c-.62.89-1.253,1.827-1.878,2.784a.251.251,0,0,1-.211.114m5.077-7.125a.251.251,0,0,1-.2-.407c.711-.907,1.43-1.786,2.138-2.612a.252.252,0,1,1,.383.327c-.7.821-1.418,1.694-2.124,2.6a.249.249,0,0,1-.2.1m5.8-6.542a.249.249,0,0,1-.181-.076.252.252,0,0,1,.005-.356c.842-.821,1.686-1.585,2.508-2.272a.252.252,0,0,1,.323.387c-.813.678-1.647,1.434-2.48,2.246a.249.249,0,0,1-.176.071m6.888-5.356a.252.252,0,0,1-.124-.471,19.9,19.9,0,0,1,3.086-1.435.252.252,0,1,1,.169.474,19.374,19.374,0,0,0-3.006,1.4.251.251,0,0,1-.124.033" transform="translate(-44.421 -15.678)" fill="#18187c"/>
          <path id="Trazado_804769" data-name="Trazado 804769" d="M227.2,42.074a.273.273,0,0,1-.062-.008,10.031,10.031,0,0,0-1.611-.271.252.252,0,1,1,.043-.5,10.562,10.562,0,0,1,1.693.286.251.251,0,0,1-.063.495" transform="translate(-83.061 -15.223)" fill="#18187c"/>
          <path id="Trazado_804770" data-name="Trazado 804770" d="M123.564,272.524a3.417,3.417,0,1,1-3.417-3.417,3.417,3.417,0,0,1,3.417,3.417" transform="translate(-43.035 -99.212)" fill="#ff9852"/>
          <path id="Trazado_804771" data-name="Trazado 804771" d="M282.826,208.453a3.417,3.417,0,1,1-3.417-3.417,3.417,3.417,0,0,1,3.417,3.417" transform="translate(-101.75 -75.591)" fill="#ffb265"/>
          <path id="Trazado_804772" data-name="Trazado 804772" d="M341.979,147.145a3.417,3.417,0,1,1-3.417-3.417,3.417,3.417,0,0,1,3.417,3.417" transform="translate(-123.559 -52.988)" fill="#ff9852"/>
          <path id="Trazado_804773" data-name="Trazado 804773" d="M36.908,119.971a3.417,3.417,0,1,1-3.417-3.417,3.417,3.417,0,0,1,3.417,3.417" transform="translate(-11.087 -42.97)" fill="#ff9852"/>
          <path id="Trazado_804774" data-name="Trazado 804774" d="M154.062,138.058a1.806,1.806,0,1,1-1.806-1.806,1.806,1.806,0,0,1,1.806,1.806" transform="translate(-55.467 -50.232)" fill="#ffb265"/>
          <path id="Trazado_804775" data-name="Trazado 804775" d="M335.783,277.01a1.807,1.807,0,1,1-1.806-1.806,1.806,1.806,0,0,1,1.806,1.806" transform="translate(-122.461 -101.46)" fill="#ff9852"/>
          <path id="Trazado_804776" data-name="Trazado 804776" d="M145.191,371.108a1.807,1.807,0,1,1-1.806-1.806,1.806,1.806,0,0,1,1.806,1.806" transform="translate(-52.196 -136.151)" fill="#ffb265"/>
          <path id="Trazado_804777" data-name="Trazado 804777" d="M24.355,266.717a1.807,1.807,0,1,1-1.806-1.806,1.806,1.806,0,0,1,1.806,1.806" transform="translate(-7.647 -97.665)" fill="#ffb265"/>
          <path id="Trazado_804778" data-name="Trazado 804778" d="M229.067,41.078a1.806,1.806,0,1,1-1.806-1.806,1.806,1.806,0,0,1,1.806,1.806" transform="translate(-83.119 -14.478)" fill="#ff9852"/>
          <path id="Trazado_804779" data-name="Trazado 804779" d="M82.3,238.652a17.674,17.674,0,1,1-17.674-17.674A17.674,17.674,0,0,1,82.3,238.652" transform="translate(-17.311 -81.468)" fill="#18187c"/>
        </g>
      </g>
      <text id="_" data-name="@" transform="translate(35.633 162.252)" fill="#fff" font-size="22" font-family="Arial-BoldMT, Arial" font-weight="700"><tspan x="0" y="0">@</tspan></text>
      <g id="Grupo_1068762" data-name="Grupo 1068762">
        <g id="Grupo_1068761" data-name="Grupo 1068761" clip-path="url(#clip-path)">
          <path id="Trazado_804780" data-name="Trazado 804780" d="M275.153,319.306c-3.685,0-3.691,5.727,0,5.727s3.691-5.727,0-5.727" transform="translate(-100.421 -117.719)" fill="#4848d8"/>
          <path id="Trazado_804781" data-name="Trazado 804781" d="M279.731,309.842a12.226,12.226,0,0,0-18.384.335,2.354,2.354,0,0,0,0,3.24,2.31,2.31,0,0,0,3.239,0,10.275,10.275,0,0,1,1.325-1.332c.041-.033.1-.078.127-.1.164-.114.328-.225.5-.331q.405-.254.833-.468a7.538,7.538,0,0,1,1.462-.528,9.033,9.033,0,0,1,.934-.2h0c.02,0,.052,0,.1-.005.2-.013.4-.028.6-.033.319-.007.637.008.955.027.059,0,.148.012.19.016.128.02.256.042.383.068a9.258,9.258,0,0,1,1.764.529l.17.085c.141.075.285.144.424.221a10.235,10.235,0,0,1,.912.568c.025.018.183.138.242.18s.208.182.23.2c.267.24.517.495.759.76a2.291,2.291,0,1,0,3.239-3.239" transform="translate(-96.113 -112.755)" fill="#4848d8"/>
          <path id="Trazado_804782" data-name="Trazado 804782" d="M281.553,298.243a21.5,21.5,0,0,0-28.528.55c-2.205,1.967,1.044,5.2,3.239,3.239a17.137,17.137,0,0,1,22.049-.55,2.357,2.357,0,0,0,3.239,0,2.308,2.308,0,0,0,0-3.239" transform="translate(-93.012 -108.057)" fill="#4848d8"/>
          <path id="Trazado_804783" data-name="Trazado 804783" d="M250.1,246.793l-27.544-13.872,8.149,29.744L236,253.047l7.416,9.062,3.626-2.967-7.416-9.062Z" transform="translate(-82.049 -85.871)" fill="#fffffe"/>
          <rect id="Rectángulo_376346" data-name="Rectángulo 376346" width="25.43" height="41.167" transform="translate(57.552 65.717) rotate(-75.957)" fill="#fffffe"/>
          <path id="Trazado_804784" data-name="Trazado 804784" d="M100.935,65.017l16.883,17.33,23.054-7.341-23.63,9.644Z" transform="translate(-37.212 -23.97)" fill="#6262f4"/>
          <path id="Trazado_804785" data-name="Trazado 804785" d="M36.375,163.356c-4.127,2.129-.825,8.546,3.308,6.414s.825-8.546-3.308-6.414" transform="translate(-12.711 -60.067)" fill="#4848d8"/>
          <path id="Trazado_804786" data-name="Trazado 804786" d="M47.035,143.265c-4.127,2.129-.825,8.546,3.308,6.414s.825-8.546-3.308-6.414" transform="translate(-16.641 -52.66)" fill="#4848d8"/>
          <path id="Trazado_804787" data-name="Trazado 804787" d="M39.994,161.542a.868.868,0,0,1-1.165-1.177l6.73-12.684a.868.868,0,1,1,1.534.813l-6.731,12.684a.863.863,0,0,1-.367.364" transform="translate(-14.277 -54.275)" fill="#4848d8"/>
          <path id="Trazado_804788" data-name="Trazado 804788" d="M62.233,172.729c-4.127,2.129-7.442-4.281-3.308-6.414s7.442,4.282,3.308,6.414" transform="translate(-21.024 -61.158)" fill="#4848d8"/>
          <path id="Trazado_804789" data-name="Trazado 804789" d="M54.229,170.818a.858.858,0,0,1-.51.089l-14.237-1.869a.868.868,0,1,1,.226-1.721l14.237,1.869a.867.867,0,0,1,.284,1.631" transform="translate(-14.278 -61.682)" fill="#4848d8"/>
          <rect id="Rectángulo_376347" data-name="Rectángulo 376347" width="51.47" height="18.277" transform="matrix(0.987, -0.158, 0.158, 0.987, 90.047, 127.913)" fill="#18187c"/>
        </g>
      </g>
      <text id="WWW" transform="matrix(0.987, -0.158, 0.158, 0.987, 100.772, 138.303)" fill="#fffffe" font-size="10" font-family="Arial-BoldMT, Arial" font-weight="700"><tspan x="0" y="0">WWW</tspan></text>
      <g id="Grupo_1068770" data-name="Grupo 1068770">
        <g id="Grupo_1068769" data-name="Grupo 1068769" clip-path="url(#clip-path)">
          <path id="Trazado_804790" data-name="Trazado 804790" d="M333.035,336.127a12.983,12.983,0,1,1,2.078-.166,13.142,13.142,0,0,1-2.078.166m.035-24.007a11.055,11.055,0,1,0,10.909,9.305,11.013,11.013,0,0,0-10.909-9.305" transform="translate(-118.017 -114.372)" fill="#6262f4"/>
          <path id="Trazado_804791" data-name="Trazado 804791" d="M338.811,336.071c-1.491,0-3-1.206-4.306-3.449a25.474,25.474,0,0,1-2.793-8.491c-.993-6.2-.127-13.092,3.438-13.664,1.631-.256,3.315.952,4.744,3.415a28.263,28.263,0,0,1,2.795,17.429c-.588,2.787-1.809,4.465-3.439,4.727a2.76,2.76,0,0,1-.438.034m-3.227-23.746a.8.8,0,0,0-.136.011c-1.509.242-2.951,4.732-1.866,11.495a23.567,23.567,0,0,0,2.561,7.84c.965,1.662,2.037,2.627,2.806,2.494s1.489-1.367,1.885-3.247a26.428,26.428,0,0,0-2.58-16.088c-.909-1.566-1.916-2.506-2.671-2.506" transform="translate(-122.151 -114.447)" fill="#6262f4"/>
          <path id="Trazado_804792" data-name="Trazado 804792" d="M329.3,333.179c-4.56,0-8.519-1.157-8.946-3.82-.261-1.63.951-3.315,3.415-4.744a25.45,25.45,0,0,1,8.491-2.793c6.2-.994,13.094-.127,13.665,3.437.261,1.63-.951,3.314-3.415,4.744a25.479,25.479,0,0,1-8.491,2.793,30.2,30.2,0,0,1-4.72.383m7.768-9.865a28.562,28.562,0,0,0-4.509.379,23.554,23.554,0,0,0-7.84,2.56c-1.661.965-2.617,2.04-2.494,2.807.242,1.509,4.734,2.95,11.5,1.866a23.567,23.567,0,0,0,7.84-2.561c1.662-.964,2.618-2.039,2.494-2.806-.183-1.143-2.8-2.245-6.986-2.245" transform="translate(-118.092 -118.505)" fill="#6262f4"/>
          <path id="Trazado_804793" data-name="Trazado 804793" d="M37.431,311.233c.012-.216.032-.431.032-.651a11.314,11.314,0,0,0-22.006-3.7,4.951,4.951,0,0,0-8.241,3.7c0,.017,0,.034,0,.051A8.1,8.1,0,0,0,8.1,326.79H34.248a8.1,8.1,0,0,0,3.183-15.557" transform="translate(0 -110.329)" fill="#fffffe"/>
          <path id="Trazado_804794" data-name="Trazado 804794" d="M35.5,323v-8.32H27.176V323H25.365l5.97,6.5,5.971-6.5Z" transform="translate(-9.351 -116.012)" fill="#ffb265"/>
          <path id="Trazado_804795" data-name="Trazado 804795" d="M97.253,160.422c-4.075-6.441-12.216-10.6-22.339-11.421a103.216,103.216,0,0,0-16.085.39c-3.327.254-6.767.518-10.158.568-10.858.157-19.233-2.281-24.9-7.26a27.372,27.372,0,0,1-7.886-12.666,19.431,19.431,0,0,1-.83-9.337,12.238,12.238,0,0,1,1.825-4.53c-.185-.508-.343-1-.48-1.443A40.919,40.919,0,0,1,24.74,76.35l.472.419A40.276,40.276,0,0,0,17,114.538c.1.317.2.654.326,1.005A9.544,9.544,0,0,1,20.251,113a7.733,7.733,0,0,1,9.014.958,6.285,6.285,0,0,1,1.753,4.742,5.351,5.351,0,0,1-1.908,3.979c-2.493,2.008-6.147,1.233-8.321-.516a12.833,12.833,0,0,1-3.629-5.27,11.685,11.685,0,0,0-1.485,3.915,18.821,18.821,0,0,0,.813,9.035,26.745,26.745,0,0,0,7.7,12.377c5.546,4.871,13.784,7.26,24.475,7.1,3.371-.05,6.8-.312,10.119-.566a103.87,103.87,0,0,1,16.183-.39c10.322.833,18.641,5.1,22.822,11.713ZM17.586,116.254a12.619,12.619,0,0,0,3.6,5.422c1.981,1.595,5.293,2.317,7.529.516a4.73,4.73,0,0,0,1.674-3.52,5.648,5.648,0,0,0-1.567-4.261,7.188,7.188,0,0,0-8.266-.854,9.03,9.03,0,0,0-2.969,2.7" transform="translate(-5.425 -28.148)" fill="#18187c"/>
          <path id="Trazado_804796" data-name="Trazado 804796" d="M31.243,37.742c6.463-7.322,14.717-8.3,19.837-3.785s5.167,12.832-1.3,20.153c-.442.5-2.289,2.552-3.66,4.03-.282.3-.542.581-.766.818-.3.312-.532.553-.666.671C38.549,65.2,33.157,64.286,28.381,61.02a7.269,7.269,0,0,1-1.341-1.184c-3.828-4.33-5.41-9.57-.638-16.352.1-.147.311-.41.583-.744.2-.255.451-.552.72-.866,1.292-1.547,3.1-3.635,3.537-4.131" transform="translate(-8.643 -11.513)" fill="#6262f4"/>
          <rect id="Rectángulo_376349" data-name="Rectángulo 376349" width="14.614" height="1.104" transform="translate(18.617 48.589) rotate(-48.57)" fill="#18187c"/>
          <path id="Trazado_804797" data-name="Trazado 804797" d="M38.893,62.6l1.337,1.181a.775.775,0,0,1,.068,1.095l-2.91,3.3a.776.776,0,0,1-1.1.068l-1.337-1.181a.775.775,0,0,1-.068-1.095l2.91-3.3a.777.777,0,0,1,1.1-.068" transform="translate(-12.79 -23.008)" fill="#ffb265"/>
          <path id="Trazado_804798" data-name="Trazado 804798" d="M29.774,48.089a63.693,63.693,0,0,1,10,7.231,63.385,63.385,0,0,1,8.416,9.035c-.282.3-.542.581-.766.818A62.279,62.279,0,0,0,29.054,48.955c.2-.255.451-.552.72-.866" transform="translate(-10.711 -17.729)" fill="#18187c"/>
          <rect id="Rectángulo_376350" data-name="Rectángulo 376350" width="14.654" height="26.017" transform="translate(180.271 10.361) rotate(-45)" fill="#fffffe"/>
          <rect id="Rectángulo_376351" data-name="Rectángulo 376351" width="11.029" height="9.316" transform="matrix(0.707, -0.707, 0.707, 0.707, 183.196, 10.722)" fill="#ffb265"/>
          <rect id="Rectángulo_376352" data-name="Rectángulo 376352" width="11.029" height="9.316" transform="matrix(0.707, -0.707, 0.707, 0.707, 191.524, 19.05)" fill="#ffb265"/>
          <rect id="Rectángulo_376353" data-name="Rectángulo 376353" width="14.654" height="26.017" transform="translate(205.313 35.403) rotate(-45)" fill="#fffffe"/>
          <rect id="Rectángulo_376354" data-name="Rectángulo 376354" width="11.028" height="9.316" transform="matrix(0.707, -0.707, 0.707, 0.707, 216.762, 44.289)" fill="#ffb265"/>
          <rect id="Rectángulo_376355" data-name="Rectángulo 376355" width="11.028" height="9.316" transform="matrix(0.707, -0.707, 0.707, 0.707, 208.434, 35.961)" fill="#ffb265"/>
          <path id="Trazado_804799" data-name="Trazado 804799" d="M329.364,46.245c-2.887,2.887-7.389.124-11.87-4.357s-7.245-8.983-4.357-11.87,10.332-3.066,14.813,1.414,4.3,11.926,1.415,14.814" transform="translate(-115.008 -10.301)" fill="#18187c"/>
          <path id="Trazado_804800" data-name="Trazado 804800" d="M324.182,54.055c-3.386,3.386-11.142,1.119-17.324-5.063S298.41,35.054,301.8,31.668s11.142-1.119,17.324,5.064,8.449,13.938,5.063,17.323" transform="translate(-110.684 -11.096)" fill="#fffffe"/>
          <path id="Trazado_804801" data-name="Trazado 804801" d="M324,53.873c-2.887,2.887-9.842.614-15.533-5.078s-7.965-12.646-5.078-15.533,9.842-.614,15.533,5.078S326.887,50.986,324,53.873" transform="translate(-111.389 -11.801)" fill="#6262f4"/>
          <path id="Trazado_804802" data-name="Trazado 804802" d="M307.424,63.919a2.366,2.366,0,1,1,0-3.345,2.366,2.366,0,0,1,0,3.345" transform="translate(-111.85 -22.076)" fill="#18187c"/>
          <path id="Trazado_804803" data-name="Trazado 804803" d="M306.557,57.7l8.208-8.959a.985.985,0,1,1,1.453,1.33c-.019.021-.04.042-.061.061L307.2,58.342a.453.453,0,0,1-.64-.64" transform="translate(-112.975 -17.852)" fill="#18187c"/>
          <path id="Trazado_804804" data-name="Trazado 804804" d="M266.1,94.319c5.138-5.139-2.924-21.562-17.972-36.611S216.654,34.6,211.513,39.736a5.74,5.74,0,0,0-1.539,3.673c-9.863-5.094-17.936-6.392-21.691-2.638-2.261,2.261-2.765,6.09-1.563,11.116-12.813-6.674-23.307-8.406-28.165-3.546-4.435,4.435-3.374,13.568,1.919,24.872.153-.026.3-.055.457-.08C155.673,62,154.583,53.025,158.911,48.7c1.819-1.819,4.457-2.683,7.732-2.683,5.323,0,12.327,2.285,20.224,6.459a47,47,0,0,0,3.45,8.889,101.079,101.079,0,0,0,10.833,16.811c.329.144.657.289.984.438a101.911,101.911,0,0,1-11.366-17.472,48.03,48.03,0,0,1-3.305-8.344c11.319,6.084,24.41,15.981,37,28.573s22.491,25.682,28.575,37a48.017,48.017,0,0,1-8.346-3.306,86.613,86.613,0,0,1-9.276-5.4c.16.294.325.585.481.883,6.435,4.175,12.434,7.058,17.43,8.367,6.764,12.778,8.589,23.226,3.806,28.009-2.7,2.7-7.253,3.347-13.259,2-.012.167-.02.334-.033.5a26.108,26.108,0,0,0,5.572.674c3.457,0,6.191-.936,8.077-2.821,4.865-4.866,3.122-15.382-3.576-28.22a21.264,21.264,0,0,0,4.916.657,8.49,8.49,0,0,0,6.231-2.164c3.757-3.757,2.453-11.839-2.65-21.713a5.681,5.681,0,0,0,3.684-1.517M211.87,40.092a5.708,5.708,0,0,1,4.193-1.455c7.126,0,19.817,7.538,31.7,19.426,14.852,14.852,22.914,30.957,17.972,35.9a5.384,5.384,0,0,1-3.556,1.425c-4.706-8.952-12.491-19.332-22.449-29.29S219.4,48.357,210.449,43.651a5.362,5.362,0,0,1,1.421-3.559m27.508,26.362c9.866,9.865,17.6,20.126,22.3,28.957-7.1.1-19.875-7.455-31.84-19.42-7.224-7.224-13.065-14.96-16.447-21.783-2-4.039-2.991-7.45-2.962-10.049,8.829,4.7,19.084,12.434,28.946,22.3m25.327,50.739c-2.2,2.2-6.016,2.623-11.065,1.331-6.082-11.479-16.071-24.763-28.82-37.512s-26.033-22.739-37.513-28.821c-1.292-5.048-.868-8.864,1.332-11.065a8.124,8.124,0,0,1,5.964-2.069c4.046,0,9.353,1.713,15.339,4.843-.1,2.729.905,6.307,3,10.531,3.407,6.871,9.281,14.654,16.542,21.916,11.972,11.971,24.813,19.521,32.152,19.521.094,0,.183-.006.275-.009,5.1,9.736,6.447,17.679,2.793,21.333" transform="translate(-57.432 -14.078)" fill="#fffffe"/>
          <path id="Trazado_804805" data-name="Trazado 804805" d="M302.206,190.591a2.673,2.673,0,0,1-1.9-.785L269.875,159.37a2.681,2.681,0,0,1,3.791-3.792L304.1,186.014a2.681,2.681,0,0,1-1.9,4.576" transform="translate(-99.206 -57.068)" fill="#18187c"/>
          <path id="Trazado_804806" data-name="Trazado 804806" d="M309.364,199.239a4.162,4.162,0,0,1-2.95-1.221l-16.688-16.689a4.17,4.17,0,1,1,5.9-5.9l16.689,16.688a4.171,4.171,0,0,1-2.949,7.12" transform="translate(-106.363 -64.226)" fill="#ffb265"/>
          <g id="Grupo_1068765" data-name="Grupo 1068765" transform="translate(134.919 62.762)" opacity="0.3">
            <g id="Grupo_1068764" data-name="Grupo 1068764">
              <g id="Grupo_1068763" data-name="Grupo 1068763" clip-path="url(#clip-path-5)">
                <path id="Trazado_804807" data-name="Trazado 804807" d="M257.813,121.464A22.057,22.057,0,0,1,233.3,143.377a21.836,21.836,0,0,1-9.474-3.366,22.051,22.051,0,0,1,11.428-40.592c.167-.006.334-.006.5-.006a21.974,21.974,0,0,1,12.542,3.909,22.578,22.578,0,0,1,3.771,3.295,21.966,21.966,0,0,1,5.744,14.848" transform="translate(-213.706 -99.413)" fill="#6262f4"/>
              </g>
            </g>
          </g>
          <g id="Grupo_1068768" data-name="Grupo 1068768" transform="translate(138.821 62.762)" opacity="0.5">
            <g id="Grupo_1068767" data-name="Grupo 1068767">
              <g id="Grupo_1068766" data-name="Grupo 1068766" clip-path="url(#clip-path-6)">
                <path id="Trazado_804808" data-name="Trazado 804808" d="M246.067,100.921l-19.959,39.091a22.033,22.033,0,0,1-6.22-6.029l17.648-34.563c.167-.006.333-.006.5-.006a22.049,22.049,0,0,1,8.031,1.508" transform="translate(-219.887 -99.413)" fill="#fff"/>
                <path id="Trazado_804809" data-name="Trazado 804809" d="M260.66,108.9,241.892,145.66a21.736,21.736,0,0,1-4.885-1.114L256.889,105.6a22.581,22.581,0,0,1,3.772,3.295" transform="translate(-226.199 -101.695)" fill="#fff"/>
              </g>
            </g>
          </g>
          <path id="Trazado_804810" data-name="Trazado 804810" d="M234.193,144.63A24.734,24.734,0,1,1,258.927,119.9a24.762,24.762,0,0,1-24.734,24.734m0-44.106A19.372,19.372,0,1,0,253.564,119.9a19.394,19.394,0,0,0-19.371-19.372" transform="translate(-77.221 -35.083)" fill="#18187c"/>
          <rect id="Rectángulo_376358" data-name="Rectángulo 376358" width="37.98" height="56.563" transform="matrix(0.229, -0.974, 0.974, 0.229, 85.817, 212.278)" fill="#fff"/>
          <rect id="Rectángulo_376359" data-name="Rectángulo 376359" width="32.35" height="50.382" transform="matrix(0.229, -0.974, 0.974, 0.229, 89.469, 210.243)" fill="#6262f4"/>
          <path id="Trazado_804811" data-name="Trazado 804811" d="M192.774,323.074l-8.159-13.163-10.58,6.558-11.418-18.422-18.4,11.4-2.506,10.675,49.049,11.513Z" transform="translate(-52.246 -109.881)" fill="#4848d8"/>
          <path id="Trazado_804812" data-name="Trazado 804812" d="M198.518,304.056a5.02,5.02,0,1,1-3.741-6.035,5.02,5.02,0,0,1,3.741,6.035" transform="translate(-69.535 -109.822)" fill="#ffb265"/>
        </g>
      </g>
    </g>
  </g>
</svg>
