<svg xmlns="http://www.w3.org/2000/svg" width="100" height="100" viewBox="0 0 100 100">
  <g id="Grupo_1068703" data-name="Grupo 1068703" transform="translate(-426 -8003)">
    <circle id="Elipse_8595" data-name="Elipse 8595" cx="50" cy="50" r="50" transform="translate(426 8003)" fill="#01c3fd"/>
    <g id="switch" transform="translate(444 8021)">
      <path id="rect4" d="M8,23h2v4H8Z" fill-rule="evenodd"/>
      <path id="rect8" d="M54,3h2V27H54Z" fill-rule="evenodd"/>
      <g id="Grupo_1068704" data-name="Grupo 1068704">
        <path id="path12" d="M28,9a1,1,0,0,0-1-1H19a1,1,0,0,0-1,1v6a1,1,0,0,0,1,1h1v1a1,1,0,0,0,1,1h4a1,1,0,0,0,1-1V16h1a1,1,0,0,0,1-1Zm-2,1v4H25a1,1,0,0,0-1,1v1H22V15a1,1,0,0,0-1-1H20V10Z" fill-rule="evenodd"/>
        <path id="path16" d="M40,9a1,1,0,0,0-1-1H31a1,1,0,0,0-1,1v6a1,1,0,0,0,1,1h1v1a1,1,0,0,0,1,1h4a1,1,0,0,0,1-1V16h1a1,1,0,0,0,1-1Zm-2,1v4H37a1,1,0,0,0-1,1v1H34V15a1,1,0,0,0-1-1H32V10Z" fill-rule="evenodd"/>
        <path id="path20" d="M52,9a1,1,0,0,0-1-1H43a1,1,0,0,0-1,1v6a1,1,0,0,0,1,1h1v1a1,1,0,0,0,1,1h4a1,1,0,0,0,1-1V16h1a1,1,0,0,0,1-1Zm-2,1v4H49a1,1,0,0,0-1,1v1H46V15a1,1,0,0,0-1-1H44V10Z" fill-rule="evenodd"/>
        <path id="path24" d="M16,9a1,1,0,0,0-1-1H7A1,1,0,0,0,6,9v6a1,1,0,0,0,1,1H8v1a1,1,0,0,0,1,1h4a1,1,0,0,0,1-1V16h1a1,1,0,0,0,1-1Zm-2,1v4H13a1,1,0,0,0-1,1v1H10V15a1,1,0,0,0-1-1H8V10Z" fill-rule="evenodd"/>
      </g>
      <path id="path28" d="M62,3a1,1,0,0,0-1-1H3A1,1,0,0,0,2,3V23a1,1,0,0,0,1,1H61a1,1,0,0,0,1-1ZM60,4V22H4V4Z" fill-rule="evenodd"/>
      <path id="rect32" d="M55,7h6V9H55Z" fill-rule="evenodd"/>
      <path id="rect36" d="M55,12h6v2H55Z" fill-rule="evenodd"/>
      <path id="rect40" d="M55,17h6v2H55Z" fill-rule="evenodd"/>
      <path id="path44" d="M5,28H59a1,1,0,1,0,0-2H5a1,1,0,1,0,0,2Z" fill-rule="evenodd"/>
      <path id="path48" d="M46,31V41a1,1,0,0,0,1,1H57V40H48V31a1,1,0,1,0-2,0Z" fill-rule="evenodd"/>
      <path id="path52" d="M40,31V50a1,1,0,0,0,1,1H52V49H42V31a1,1,0,1,0-2,0Z" fill-rule="evenodd"/>
      <path id="path56" d="M34,31V59a1,1,0,0,0,1,1H47V58H36V31a1,1,0,1,0-2,0Z" fill-rule="evenodd"/>
      <path id="path60" d="M28,31V58H17v2H29a1,1,0,0,0,1-1V31a1,1,0,1,0-2,0Z" fill-rule="evenodd"/>
      <path id="path64" d="M49,56a3,3,0,1,0,3,3A3,3,0,0,0,49,56Zm0,2a1,1,0,1,1-1,1A1,1,0,0,1,49,58Z" fill-rule="evenodd"/>
      <path id="path68" d="M15,56a3,3,0,1,0,3,3,3,3,0,0,0-3-3Zm0,2a1,1,0,1,1-1,1,1,1,0,0,1,1-1Z" fill-rule="evenodd"/>
      <path id="path72" d="M22,31V49H12v2H23a1,1,0,0,0,1-1V31a1,1,0,1,0-2,0Z" fill-rule="evenodd"/>
      <path id="path76" d="M16,31v9H7v2H17a1,1,0,0,0,1-1V31a1,1,0,1,0-2,0Z" fill-rule="evenodd"/>
      <path id="path80" d="M59,38a3,3,0,1,0,3,3A3,3,0,0,0,59,38Zm0,2a1,1,0,1,1-1,1A1,1,0,0,1,59,40Z" fill-rule="evenodd"/>
      <path id="path84" d="M54,47a3,3,0,1,0,3,3A3,3,0,0,0,54,47Zm0,2a1,1,0,1,1-1,1A1,1,0,0,1,54,49Z" fill-rule="evenodd"/>
      <path id="path88" d="M10,47a3,3,0,1,0,3,3,3,3,0,0,0-3-3Zm0,2a1,1,0,1,1-1,1A1,1,0,0,1,10,49Z" fill-rule="evenodd"/>
      <path id="path92" d="M5,38a3,3,0,1,0,3,3,3,3,0,0,0-3-3Zm0,2a1,1,0,1,1-1,1A1,1,0,0,1,5,40Z" fill-rule="evenodd"/>
    </g>
  </g>
</svg>
