<svg xmlns="http://www.w3.org/2000/svg" width="100" height="100" viewBox="0 0 100 100">
  <g id="Grupo_1068701" data-name="Grupo 1068701" transform="translate(-426 -8003)">
    <circle id="Elipse_8595" data-name="Elipse 8595" cx="50" cy="50" r="50" transform="translate(426 8003)" fill="#01c3fd"/>
    <path id="networking" d="M49.6,24.8A12.4,12.4,0,1,0,38.376,7.165L35.055,5.94a5.016,5.016,0,0,0,.079-.773,5.212,5.212,0,1,0-.79,2.714L37.659,9.1a12.174,12.174,0,0,0,.17,7.17L26.464,21.091a12.34,12.34,0,0,0-15.335-5.814L8.271,9.27a5.14,5.14,0,1,0-3.1,1.063,5.08,5.08,0,0,0,1.242-.169l2.855,6a12.379,12.379,0,0,0-.662,21l-1.89,3.4A5.113,5.113,0,0,0,5.167,40.3a5.228,5.228,0,1,0,3.351,1.267l1.894-3.4a12.3,12.3,0,0,0,12.623-1.471L27.1,41.166A12.341,12.341,0,0,0,23.767,49.6a12.48,12.48,0,0,0,.154,1.855l-4.785,1.136a5.136,5.136,0,1,0,.5,2.176c0-.057-.016-.111-.017-.168l4.776-1.132a12.395,12.395,0,1,0,22.7-9.73l6.07-3.947a5.269,5.269,0,1,0-1.122-1.736L45.952,42.01a12.469,12.469,0,0,0-4.618-3.668L46.377,24.36a12.356,12.356,0,0,0,3.223.44ZM29.967,8.267a3.1,3.1,0,1,1,3.1-3.1A3.1,3.1,0,0,1,29.967,8.267Zm-27.9-3.1a3.1,3.1,0,1,1,3.1,3.1A3.1,3.1,0,0,1,2.067,5.167Zm3.1,43.4a3.1,3.1,0,1,1,3.1-3.1A3.1,3.1,0,0,1,5.167,48.567Zm9.3,9.3a3.1,3.1,0,1,1,3.1-3.1A3.1,3.1,0,0,1,14.467,57.867Zm42.367-24.8a3.1,3.1,0,1,1-3.1,3.1A3.1,3.1,0,0,1,56.834,33.067ZM43.515,20.733a5.182,5.182,0,0,1,5.052-4.2h2.067a5.182,5.182,0,0,1,5.052,4.2,10.256,10.256,0,0,1-12.171,0ZM49.6,14.467a3.1,3.1,0,1,1,3.1-3.1A3.1,3.1,0,0,1,49.6,14.467Zm0-12.4a10.318,10.318,0,0,1,7.8,17.09,7.32,7.32,0,0,0-4.115-4.18,5.167,5.167,0,1,0-7.37,0,7.32,7.32,0,0,0-4.115,4.18,10.318,10.318,0,0,1,7.8-17.09ZM5.167,26.867a10.333,10.333,0,1,1,18.119,6.774,7.321,7.321,0,0,0-4.12-4.2,5.167,5.167,0,1,0-7.371,0,7.318,7.318,0,0,0-4.11,4.163A10.278,10.278,0,0,1,5.167,26.867Zm7.213-1.033a3.1,3.1,0,1,1,3.1,3.1A3.1,3.1,0,0,1,12.38,25.833ZM9.4,35.186A5.18,5.18,0,0,1,14.446,31h2.067a5.18,5.18,0,0,1,5.054,4.213A10.254,10.254,0,0,1,9.4,35.186ZM30.064,57.92a5.18,5.18,0,0,1,5.049-4.186H37.18a5.18,5.18,0,0,1,5.054,4.213,10.254,10.254,0,0,1-12.169-.027Zm6.082-6.253a3.1,3.1,0,1,1,3.1-3.1A3.1,3.1,0,0,1,36.146,51.667ZM46.5,49.6a10.282,10.282,0,0,1-2.548,6.774,7.321,7.321,0,0,0-4.12-4.2,5.167,5.167,0,1,0-7.371,0,7.318,7.318,0,0,0-4.11,4.163A10.328,10.328,0,1,1,46.5,49.6ZM39.39,37.64a12.23,12.23,0,0,0-10.758,2.135L24.565,35.3a12.31,12.31,0,0,0,2.707-12.308l11.365-4.817a12.467,12.467,0,0,0,5.8,5.482Zm0,0" transform="translate(445 8022)"/>
  </g>
</svg>
