<svg xmlns="http://www.w3.org/2000/svg" xmlns:xlink="http://www.w3.org/1999/xlink" width="100" height="100" viewBox="0 0 100 100">
  <defs>
    <clipPath id="clip-path">
      <path id="path21" d="M0-682.665H67.335v67.335H0Z" transform="translate(0 682.665)"/>
    </clipPath>
  </defs>
  <g id="Grupo_1067355" data-name="Grupo 1067355" transform="translate(-426 -8003)">
    <circle id="Elipse_8595" data-name="Elipse 8595" cx="50" cy="50" r="50" transform="translate(426 8003)" fill="#01c3fd"/>
    <g id="g15" transform="translate(442 8701.665)">
      <g id="g17" transform="translate(0 -682.665)">
        <g id="g19" clip-path="url(#clip-path)">
          <g id="g25" transform="translate(11.727 9.47)">
            <path id="path27" d="M0-32.277a31.438,31.438,0,0,1,3.627-3.532" transform="translate(0 35.809)" fill="none" stroke="#000" stroke-linecap="round" stroke-linejoin="round" stroke-miterlimit="10" stroke-width="2"/>
          </g>
          <g id="g29" transform="translate(4.785 17.082)">
            <path id="path31" d="M0-86.828a31.24,31.24,0,0,1,3.921-9.5" transform="translate(0 96.329)" fill="none" stroke="#000" stroke-linecap="round" stroke-linejoin="round" stroke-miterlimit="10" stroke-width="2"/>
          </g>
          <g id="g33" transform="translate(3.985 32.572)">
            <path id="path35" d="M-102.116-229.648a31.329,31.329,0,0,1-11.174-24.035q0-.55.019-1.1" transform="translate(113.29 254.778)" fill="none" stroke="#000" stroke-linecap="round" stroke-linejoin="round" stroke-miterlimit="10" stroke-width="2"/>
          </g>
          <g id="g37" transform="translate(20.103 61.084)">
            <path id="path39" d="M-275.741,0a30.923,30.923,0,0,1-15.11,3.918A30.922,30.922,0,0,1-305.915.025" transform="translate(305.915)" fill="none" stroke="#000" stroke-linecap="round" stroke-linejoin="round" stroke-miterlimit="10" stroke-width="2"/>
          </g>
          <g id="g41" transform="translate(55.204 17.05)">
            <path id="path43" d="M-58.514,0a31.3,31.3,0,0,1,4.741,16.618,31.329,31.329,0,0,1-11.145,24.01" transform="translate(64.917)" fill="none" stroke="#000" stroke-linecap="round" stroke-linejoin="round" stroke-miterlimit="10" stroke-width="2"/>
          </g>
          <g id="g45" transform="translate(54.702 9.244)">
            <path id="path47" d="M0,0A31.438,31.438,0,0,1,3.251,3.034" fill="none" stroke="#000" stroke-linecap="round" stroke-linejoin="round" stroke-miterlimit="10" stroke-width="2"/>
          </g>
          <g id="g49" transform="translate(20.298 2.333)">
            <path id="path51" d="M0-34.591a30.924,30.924,0,0,1,14.869-3.785,30.926,30.926,0,0,1,14.528,3.6" transform="translate(0 38.376)" fill="none" stroke="#000" stroke-linecap="round" stroke-linejoin="round" stroke-miterlimit="10" stroke-width="2"/>
          </g>
          <g id="g53" transform="translate(37.778 8.237)">
            <path id="path55" d="M0-46.15A43.9,43.9,0,0,1,11.539-51.2" transform="translate(0 51.2)" fill="none" stroke="#000" stroke-linecap="round" stroke-linejoin="round" stroke-miterlimit="10" stroke-width="2"/>
          </g>
          <g id="g57" transform="translate(25.001 16.778)">
            <path id="path59" d="M0-78.513a44.388,44.388,0,0,1,7.936-8.592" transform="translate(0 87.105)" fill="none" stroke="#000" stroke-linecap="round" stroke-linejoin="round" stroke-miterlimit="10" stroke-width="2"/>
          </g>
          <g id="g61" transform="translate(16.872 30.531)">
            <path id="path63" d="M-3.026-236.358a44.373,44.373,0,0,1,4.661-25.864" transform="translate(3.357 262.222)" fill="none" stroke="#000" stroke-linecap="round" stroke-linejoin="round" stroke-miterlimit="10" stroke-width="2"/>
          </g>
          <g id="g65" transform="translate(20.594 8.122)">
            <path id="path67" d="M-109.306-47.2a43.919,43.919,0,0,0-11.961-5.165" transform="translate(121.268 52.36)" fill="none" stroke="#000" stroke-linecap="round" stroke-linejoin="round" stroke-miterlimit="10" stroke-width="2"/>
          </g>
          <g id="g69" transform="translate(37.397 16.778)">
            <path id="path71" d="M-111.676-147.469A44.523,44.523,0,0,0-123.9-163.606" transform="translate(123.897 163.606)" fill="none" stroke="#000" stroke-linecap="round" stroke-linejoin="round" stroke-miterlimit="10" stroke-width="2"/>
          </g>
          <g id="g73" transform="translate(51.689 38.565)">
            <path id="path75" d="M-11.844-54.162a44.4,44.4,0,0,0-1.3-5.927" transform="translate(13.14 60.089)" fill="none" stroke="#000" stroke-linecap="round" stroke-linejoin="round" stroke-miterlimit="10" stroke-width="2"/>
          </g>
          <g id="g77" transform="translate(53.112 50.278)">
            <path id="path79" d="M0-57.265a44.754,44.754,0,0,0,.344-6.266" transform="translate(0 63.532)" fill="none" stroke="#000" stroke-linecap="round" stroke-linejoin="round" stroke-miterlimit="10" stroke-width="2"/>
          </g>
          <g id="g81" transform="translate(6.89 27.321)">
            <path id="path83" d="M-124.36-.007A60.376,60.376,0,0,0-137.969,1.48" transform="translate(137.969 0.008)" fill="none" stroke="#000" stroke-linecap="round" stroke-linejoin="round" stroke-miterlimit="10" stroke-width="2"/>
          </g>
          <g id="g85" transform="translate(26.475 27.652)">
            <path id="path87" d="M-198.1-60.088a60.332,60.332,0,0,0-21.678-6.575" transform="translate(219.782 66.664)" fill="none" stroke="#000" stroke-linecap="round" stroke-linejoin="round" stroke-miterlimit="10" stroke-width="2"/>
          </g>
          <g id="g89" transform="translate(53.324 37.273)">
            <path id="path91" d="M-96.022-79.934a60.782,60.782,0,0,0-10.508-8.747" transform="translate(106.529 88.681)" fill="none" stroke="#000" stroke-linecap="round" stroke-linejoin="round" stroke-miterlimit="10" stroke-width="2"/>
          </g>
          <g id="g93" transform="translate(52.267 17.626)">
            <path id="path95" d="M0-141.3a60.629,60.629,0,0,0,6.831-15.462" transform="translate(0 156.757)" fill="none" stroke="#000" stroke-linecap="round" stroke-linejoin="round" stroke-miterlimit="10" stroke-width="2"/>
          </g>
          <g id="g97" transform="translate(20.499 38.017)">
            <path id="path99" d="M0-186.925a60.791,60.791,0,0,0,28.359-20.455" transform="translate(0 207.379)" fill="none" stroke="#000" stroke-linecap="round" stroke-linejoin="round" stroke-miterlimit="10" stroke-width="2"/>
          </g>
          <g id="g101" transform="translate(32.168 11.752)">
            <path id="path103" d="M-27.4-55.073a3.009,3.009,0,0,1-3-3.013,3.009,3.009,0,0,1,3-3.013,3.009,3.009,0,0,1,3,3.013A3.009,3.009,0,0,1-27.4-55.073Z" transform="translate(30.401 61.1)" fill="none" stroke="#000" stroke-linecap="round" stroke-linejoin="round" stroke-miterlimit="10" stroke-width="2"/>
          </g>
          <g id="g105" transform="translate(20.499 24.992)">
            <path id="path107" d="M-27.4-55.074a3.009,3.009,0,0,1-3-3.013,3.009,3.009,0,0,1,3-3.013,3.009,3.009,0,0,1,3,3.013A3.009,3.009,0,0,1-27.4-55.074Z" transform="translate(30.401 61.101)" fill="none" stroke="#000" stroke-linecap="round" stroke-linejoin="round" stroke-miterlimit="10" stroke-width="2"/>
          </g>
          <g id="g109" transform="translate(47.771 32.684)">
            <path id="path111" d="M-27.4-55.074a3.009,3.009,0,0,1-3-3.013,3.009,3.009,0,0,1,3-3.013,3.009,3.009,0,0,1,3,3.013A3.009,3.009,0,0,1-27.4-55.074Z" transform="translate(30.401 61.101)" fill="none" stroke="#000" stroke-linecap="round" stroke-linejoin="round" stroke-miterlimit="10" stroke-width="2"/>
          </g>
          <g id="g113" transform="translate(14.654 56.361)">
            <path id="path115" d="M-27.4-55.073a3.009,3.009,0,0,1-3-3.013,3.009,3.009,0,0,1,3-3.013,3.009,3.009,0,0,1,3,3.013A3.009,3.009,0,0,1-27.4-55.073Z" transform="translate(30.401 61.1)" fill="none" stroke="#000" stroke-linecap="round" stroke-linejoin="round" stroke-miterlimit="10" stroke-width="2"/>
          </g>
          <g id="g117" transform="translate(49.855 56.533)">
            <path id="path119" d="M-27.4-55.074a3.009,3.009,0,0,1-3-3.013,3.009,3.009,0,0,1,3-3.013,3.01,3.01,0,0,1,3,3.013A3.01,3.01,0,0,1-27.4-55.074Z" transform="translate(30.401 61.101)" fill="none" stroke="#000" stroke-linecap="round" stroke-linejoin="round" stroke-miterlimit="10" stroke-width="2"/>
          </g>
          <g id="g121" transform="translate(56.847 11.6)">
            <path id="path123" d="M-27.4-55.074a3.01,3.01,0,0,1-3-3.013,3.01,3.01,0,0,1,3-3.013,3.009,3.009,0,0,1,3,3.013A3.009,3.009,0,0,1-27.4-55.074Z" transform="translate(30.403 61.101)" fill="none" stroke="#000" stroke-linecap="round" stroke-linejoin="round" stroke-miterlimit="10" stroke-width="2"/>
          </g>
          <g id="g125" transform="translate(49.234 4.524)">
            <path id="path127" d="M-27.4-55.073a3.009,3.009,0,0,1-3-3.013,3.009,3.009,0,0,1,3-3.013,3.009,3.009,0,0,1,3,3.013A3.009,3.009,0,0,1-27.4-55.073Z" transform="translate(30.401 61.1)" fill="none" stroke="#000" stroke-linecap="round" stroke-linejoin="round" stroke-miterlimit="10" stroke-width="2"/>
          </g>
          <g id="g129" transform="translate(14.654 4.524)">
            <path id="path131" d="M-27.4-55.073a3.009,3.009,0,0,1-3-3.013,3.009,3.009,0,0,1,3-3.013,3.009,3.009,0,0,1,3,3.013A3.009,3.009,0,0,1-27.4-55.073Z" transform="translate(30.401 61.1)" fill="none" stroke="#000" stroke-linecap="round" stroke-linejoin="round" stroke-miterlimit="10" stroke-width="2"/>
          </g>
          <g id="g133" transform="translate(0.986 26.545)">
            <path id="path135" d="M-27.4-55.073a3.009,3.009,0,0,1-3-3.013,3.009,3.009,0,0,1,3-3.013,3.009,3.009,0,0,1,3,3.013A3.009,3.009,0,0,1-27.4-55.073Z" transform="translate(30.401 61.1)" fill="none" stroke="#000" stroke-linecap="round" stroke-linejoin="round" stroke-miterlimit="10" stroke-width="2"/>
          </g>
        </g>
      </g>
    </g>
  </g>
</svg>
