<svg xmlns="http://www.w3.org/2000/svg" width="505" height="219" viewBox="0 0 505 219">
  <g id="Grupo_1069117" data-name="Grupo 1069117" transform="translate(-180 -391)">
    <path id="Trazado_806301" data-name="Trazado 806301" d="M0,0H505V219H0Z" transform="translate(180 391)" fill="#e9e2ff"/>
    <path id="Trazado_806302" data-name="Trazado 806302" d="M33.227,0A33.227,33.227,0,0,1,66.453,33.227V95.62A33.227,33.227,0,0,1,0,95.62V33.227A33.227,33.227,0,0,1,33.227,0Z" transform="translate(520.146 470.614)" fill="#edeff0"/>
    <path id="Trazado_804649" data-name="Trazado 804649" d="M2960.217,104.011l-46.749-46.749a6.157,6.157,0,0,1,0-8.706l46.749-46.748a6.157,6.157,0,0,1,8.706,0l46.749,46.749a6.157,6.157,0,0,1,0,8.706l-46.749,46.749a6.157,6.157,0,0,1-8.706,0Z" transform="translate(-2411.475 401.995)" fill="#3a4b69"/>
    <path id="Trazado_804650" data-name="Trazado 804650" d="M3010.8,149.954l-42.16-42.16a6.157,6.157,0,0,1,0-8.706l42.16-42.16a6.157,6.157,0,0,1,8.706,0l42.16,42.16a6.157,6.157,0,0,1,0,8.706l-42.16,42.16A6.157,6.157,0,0,1,3010.8,149.954Z" transform="translate(-2462.055 351.46)" fill="#f2f3f4"/>
    <path id="Trazado_806303" data-name="Trazado 806303" d="M33.227,0A33.227,33.227,0,0,1,66.453,33.227V95.62A33.227,33.227,0,0,1,0,95.62V33.227A33.227,33.227,0,0,1,33.227,0Z" transform="translate(438.926 470.614)" fill="#edeff0"/>
    <path id="Trazado_804651" data-name="Trazado 804651" d="M1983.776,104.011l-46.749-46.749a6.157,6.157,0,0,1,0-8.706l46.749-46.748a6.157,6.157,0,0,1,8.706,0l46.748,46.749a6.157,6.157,0,0,1,0,8.706l-46.748,46.749a6.157,6.157,0,0,1-8.706,0Z" transform="translate(-1516.254 401.995)" fill="#3a4b69"/>
    <path id="Trazado_804652" data-name="Trazado 804652" d="M2034.357,149.954l-42.16-42.16a6.157,6.157,0,0,1,0-8.706l42.16-42.16a6.157,6.157,0,0,1,8.707,0l42.16,42.16a6.157,6.157,0,0,1,0,8.706l-42.16,42.16A6.157,6.157,0,0,1,2034.357,149.954Z" transform="translate(-1566.835 351.46)" fill="#f2f3f4"/>
    <path id="Trazado_806304" data-name="Trazado 806304" d="M33.227,0A33.227,33.227,0,0,1,66.453,33.227V95.62A33.227,33.227,0,0,1,0,95.62V33.227A33.227,33.227,0,0,1,33.227,0Z" transform="translate(358.691 470.614)" fill="#edeff0"/>
    <path id="Trazado_804653" data-name="Trazado 804653" d="M1032.447,122.411,985.7,75.662a6.157,6.157,0,0,1,0-8.706l46.749-46.748a6.157,6.157,0,0,1,8.706,0L1087.9,66.957a6.157,6.157,0,0,1,0,8.706l-46.748,46.749a6.157,6.157,0,0,1-8.706,0Z" transform="translate(-644.055 385.126)" fill="#3a4b69"/>
    <path id="Trazado_804654" data-name="Trazado 804654" d="M1083.027,168.354l-42.16-42.16a6.157,6.157,0,0,1,0-8.706l42.16-42.16a6.157,6.157,0,0,1,8.707,0l42.16,42.16a6.157,6.157,0,0,1,0,8.706l-42.16,42.16A6.157,6.157,0,0,1,1083.027,168.354Z" transform="translate(-694.636 334.591)" fill="#f2f3f4"/>
    <path id="Trazado_804655" data-name="Trazado 804655" d="M252.087,824.9h42.82a11.822,11.822,0,0,1,11.817,11.816V941.931a11.822,11.822,0,0,1-11.817,11.817h-42.82a11.822,11.822,0,0,1-11.817-11.817V836.716A11.822,11.822,0,0,1,252.087,824.9Z" transform="translate(37.715 -354.285)" fill="#edeff0"/>
    <path id="Trazado_804656" data-name="Trazado 804656" d="M48.556,145.062,1.808,98.313a6.157,6.157,0,0,1,0-8.706L48.556,42.858a6.157,6.157,0,0,1,8.706,0l46.749,46.749a6.157,6.157,0,0,1,0,8.706L57.262,145.062A6.157,6.157,0,0,1,48.556,145.062Z" transform="translate(257.995 364.359)" fill="#3a4b69"/>
    <path id="Trazado_804657" data-name="Trazado 804657" d="M99.128,191l-42.16-42.16a6.157,6.157,0,0,1,0-8.706l42.16-42.16a6.157,6.157,0,0,1,8.706,0l42.16,42.16a6.157,6.157,0,0,1,0,8.706L107.834,191A6.157,6.157,0,0,1,99.128,191Z" transform="translate(207.423 313.824)" fill="#f2f3f4"/>
    <g id="Grupo_1068674" data-name="Grupo 1068674" transform="translate(280.838 532.964)">
      <circle id="Elipse_8671" data-name="Elipse 8671" cx="21.475" cy="21.475" r="21.475" transform="translate(0 30.371) rotate(-45)" fill="#3a4b69"/>
      <path id="Trazado_804658" data-name="Trazado 804658" d="M398.86,1720.609a21.851,21.851,0,1,1,15.45-6.4A21.7,21.7,0,0,1,398.86,1720.609Zm0-42.951a21.1,21.1,0,1,0,21.1,21.1A21.125,21.125,0,0,0,398.86,1677.659Z" transform="translate(-368.489 -1668.389)" fill="#fff"/>
    </g>
    <g id="Grupo_1068675" data-name="Grupo 1068675" transform="translate(291.313 543.104)">
      <circle id="Elipse_8672" data-name="Elipse 8672" cx="14.009" cy="14.009" r="14.009" transform="translate(0 19.812) rotate(-45)" fill="#3a4b69"/>
      <path id="Trazado_804659" data-name="Trazado 804659" d="M480.143,1790.4a14.383,14.383,0,1,1,14.383-14.383A14.4,14.4,0,0,1,480.143,1790.4Zm0-28.018a13.635,13.635,0,1,0,13.635,13.635A13.65,13.65,0,0,0,480.143,1762.378Z" transform="translate(-460.332 -1756.202)" fill="#fff"/>
    </g>
    <g id="Grupo_1068676" data-name="Grupo 1068676" transform="translate(306.724 534.689)">
      <rect id="Rectángulo_376330" data-name="Rectángulo 376330" width="8.053" height="22.817" rx="4.027" transform="translate(0.374 0.374)" fill="#3a4b69"/>
      <path id="Trazado_804660" data-name="Trazado 804660" d="M591.468,1618.787h-2.594a3.108,3.108,0,0,1-3.1-3.1v-17.358a3.108,3.108,0,0,1,3.1-3.1h2.594a3.108,3.108,0,0,1,3.1,3.1v17.358a3.108,3.108,0,0,1-3.1,3.1Zm-2.594-22.817a2.358,2.358,0,0,0-2.356,2.356v17.358a2.359,2.359,0,0,0,2.356,2.356h2.594a2.358,2.358,0,0,0,2.356-2.356v-17.358a2.358,2.358,0,0,0-2.356-2.356h-2.594Z" transform="translate(-585.77 -1595.22)" fill="#fff"/>
    </g>
    <g id="Grupo_1068678" data-name="Grupo 1068678" transform="translate(535.354 536.531)">
      <rect id="Rectángulo_376331" data-name="Rectángulo 376331" width="34.692" height="49.399" transform="translate(0.375 0.374)" fill="#3a4b69"/>
      <path id="Trazado_804661" data-name="Trazado 804661" d="M3369.84,1667.508H3334.4V1617.36h35.44Zm-34.692-.749h33.943v-48.65h-33.943Z" transform="translate(-3334.4 -1617.36)" fill="#fff"/>
    </g>
    <g id="Grupo_1068679" data-name="Grupo 1068679" transform="translate(539.102 540.771)">
      <rect id="Rectángulo_376332" data-name="Rectángulo 376332" width="5.59" height="7.232" transform="translate(0.374 0.374)" fill="#3a4b69"/>
      <path id="Trazado_804662" data-name="Trazado 804662" d="M3385.788,1676.3h-6.338v-7.981h6.338Zm-5.59-.749h4.841v-6.484H3380.2Z" transform="translate(-3379.45 -1668.32)" fill="#fff"/>
    </g>
    <g id="Grupo_1068680" data-name="Grupo 1068680" transform="translate(539.102 550.768)">
      <rect id="Rectángulo_376333" data-name="Rectángulo 376333" width="5.59" height="7.232" transform="translate(0.374 0.374)" fill="#3a4b69"/>
      <path id="Trazado_804663" data-name="Trazado 804663" d="M3385.788,1796.491h-6.338v-7.981h6.338Zm-5.59-.749h4.841v-6.484H3380.2Z" transform="translate(-3379.45 -1788.51)" fill="#fff"/>
    </g>
    <g id="Grupo_1068681" data-name="Grupo 1068681" transform="translate(539.102 561.377)">
      <rect id="Rectángulo_376334" data-name="Rectángulo 376334" width="5.59" height="7.232" transform="translate(0.374 0.374)" fill="#3a4b69"/>
      <path id="Trazado_804664" data-name="Trazado 804664" d="M3385.788,1924.041h-6.338v-7.981h6.338Zm-5.59-.749h4.841v-6.484H3380.2Z" transform="translate(-3379.45 -1916.06)" fill="#fff"/>
    </g>
    <g id="Grupo_1068682" data-name="Grupo 1068682" transform="translate(539.102 572.22)">
      <rect id="Rectángulo_376335" data-name="Rectángulo 376335" width="5.59" height="7.232" transform="translate(0.374 0.374)" fill="#3a4b69"/>
      <path id="Trazado_804665" data-name="Trazado 804665" d="M3385.788,2054.391h-6.338v-7.981h6.338Zm-5.59-.749h4.841v-6.484H3380.2Z" transform="translate(-3379.45 -2046.41)" fill="#fff"/>
    </g>
    <g id="Grupo_1068683" data-name="Grupo 1068683" transform="translate(547.599 533.392)">
      <rect id="Rectángulo_376336" data-name="Rectángulo 376336" width="11.405" height="4.6" rx="2.3" transform="translate(0.374 0.374)" fill="#3a4b69"/>
      <path id="Trazado_804666" data-name="Trazado 804666" d="M3492.381,1584.958h-9.408a1.374,1.374,0,0,1-1.373-1.373v-2.6a1.374,1.374,0,0,1,1.373-1.372h9.408a1.374,1.374,0,0,1,1.372,1.372v2.6A1.374,1.374,0,0,1,3492.381,1584.958Zm-9.408-4.6a.624.624,0,0,0-.624.624v2.6a.624.624,0,0,0,.624.624h9.408a.624.624,0,0,0,.624-.624v-2.6a.624.624,0,0,0-.624-.624Z" transform="translate(-3481.6 -1579.61)" fill="#fff"/>
    </g>
    <g id="Grupo_1068684" data-name="Grupo 1068684" transform="translate(547.6 542.91)">
      <path id="Trazado_804667" data-name="Trazado 804667" d="M3486.9,1698.55h9.814a.8.8,0,0,1,.8.8v1.388a.8.8,0,0,1-.8.8H3486.9a.8.8,0,0,1-.8-.8v-1.388A.8.8,0,0,1,3486.9,1698.55Z" transform="translate(-3485.726 -1698.175)" fill="#3a4b69"/>
      <path id="Trazado_804668" data-name="Trazado 804668" d="M3492.594,1697.767h-9.814a1.171,1.171,0,0,1-1.169-1.17v-1.388a1.171,1.171,0,0,1,1.169-1.169h9.814a1.171,1.171,0,0,1,1.169,1.169v1.388A1.171,1.171,0,0,1,3492.594,1697.767Zm-9.814-2.978a.421.421,0,0,0-.421.421v1.388a.421.421,0,0,0,.421.421h9.814a.421.421,0,0,0,.421-.421v-1.388a.421.421,0,0,0-.421-.421Z" transform="translate(-3481.61 -1694.04)" fill="#fff"/>
    </g>
    <g id="Grupo_1068685" data-name="Grupo 1068685" transform="translate(547.599 552.908)">
      <path id="Trazado_804669" data-name="Trazado 804669" d="M3486.9,1818.75h17.911a.8.8,0,0,1,.8.8v1.388a.8.8,0,0,1-.8.8H3486.9a.8.8,0,0,1-.8-.8v-1.388A.8.8,0,0,1,3486.9,1818.75Z" transform="translate(-3485.725 -1818.375)" fill="#3a4b69"/>
      <path id="Trazado_804670" data-name="Trazado 804670" d="M3500.68,1817.967H3482.77a1.171,1.171,0,0,1-1.17-1.17v-1.388a1.171,1.171,0,0,1,1.17-1.17h17.911a1.171,1.171,0,0,1,1.17,1.17v1.388A1.171,1.171,0,0,1,3500.68,1817.967Zm-17.911-2.978a.421.421,0,0,0-.421.421v1.388a.421.421,0,0,0,.421.421h17.911a.421.421,0,0,0,.421-.421v-1.388a.421.421,0,0,0-.421-.421Z" transform="translate(-3481.6 -1814.24)" fill="#fff"/>
    </g>
    <g id="Grupo_1068686" data-name="Grupo 1068686" transform="translate(547.599 574.36)">
      <path id="Trazado_804671" data-name="Trazado 804671" d="M3486.9,2076.65h17.911a.8.8,0,0,1,.8.8v1.388a.8.8,0,0,1-.8.8H3486.9a.8.8,0,0,1-.8-.8v-1.388A.8.8,0,0,1,3486.9,2076.65Z" transform="translate(-3485.725 -2076.275)" fill="#3a4b69"/>
      <path id="Trazado_804672" data-name="Trazado 804672" d="M3500.68,2075.867H3482.77a1.171,1.171,0,0,1-1.17-1.169v-1.388a1.171,1.171,0,0,1,1.17-1.169h17.911a1.171,1.171,0,0,1,1.17,1.169v1.388A1.171,1.171,0,0,1,3500.68,2075.867Zm-17.911-2.978a.421.421,0,0,0-.421.421v1.388a.421.421,0,0,0,.421.421h17.911a.421.421,0,0,0,.421-.421v-1.388a.421.421,0,0,0-.421-.421Z" transform="translate(-3481.6 -2072.14)" fill="#fff"/>
    </g>
    <g id="Grupo_1068687" data-name="Grupo 1068687" transform="translate(547.599 563.518)">
      <rect id="Rectángulo_376337" data-name="Rectángulo 376337" width="14.63" height="2.978" rx="1.489" transform="translate(0.374 0.374)" fill="#3a4b69"/>
      <path id="Trazado_804673" data-name="Trazado 804673" d="M3495.81,1945.517H3482.77a1.171,1.171,0,0,1-1.17-1.169v-1.388a1.171,1.171,0,0,1,1.17-1.17h13.041a1.171,1.171,0,0,1,1.169,1.17v1.388A1.171,1.171,0,0,1,3495.81,1945.517Zm-13.041-2.978a.421.421,0,0,0-.421.421v1.388a.421.421,0,0,0,.421.421h13.041a.421.421,0,0,0,.421-.421v-1.388a.421.421,0,0,0-.421-.421Z" transform="translate(-3481.6 -1941.79)" fill="#fff"/>
    </g>
    <g id="Grupo_1068689" data-name="Grupo 1068689" transform="translate(459.822 548.523)">
      <path id="Trazado_804674" data-name="Trazado 804674" d="M2456.666,1797.809q-.045,2.077-.091,4.156l-3.841,1.115-2.037-3.349a14.658,14.658,0,0,1-2.984-.011l-2.357,3.29-3.8-1.247q.106-2,.213-4.006a14.84,14.84,0,0,1-2.52-1.867l-3.686,1.318-2.414-3.189,2.509-3.241q-.266-.631-.478-1.3a14.792,14.792,0,0,1-.375-1.434l-3.91-1.211q-.009-2-.017-4l3.989-1.1a14.83,14.83,0,0,1,.907-2.712l-2.4-3.544,2.484-3.135,3.675,1.581a14.667,14.667,0,0,1,2.45-1.739q-.037-2.019-.076-4.038l3.793-1.271,2.292,3.445a14.6,14.6,0,0,1,2.717.016l2.453-3.255,3.77,1.338q-.148,1.911-.3,3.823a14.8,14.8,0,0,1,2.545,1.853l3.958-1.354,2.371,3.222-2.648,3.324q.266.633.478,1.3c.132.417.243.837.336,1.257l4.1,1.389q-.044,2-.088,4l-4.011.989a14.869,14.869,0,0,1-.924,2.8l2.592,3.314-2.267,3.3-4.132-1.455a14.653,14.653,0,0,1-2.277,1.627Z" transform="translate(-2430.502 -1766.435)" fill="#3a4b69"/>
      <path id="Trazado_804675" data-name="Trazado 804675" d="M2448.4,1798.614l-2.065-3.395a15.08,15.08,0,0,1-2.607-.011l-2.391,3.337-4.334-1.421.216-4.068a15.259,15.259,0,0,1-2.219-1.644l-3.733,1.335-2.753-3.637,2.552-3.3c-.151-.374-.288-.753-.406-1.128-.129-.41-.243-.831-.337-1.254l-3.965-1.228-.019-4.561,4.052-1.113a15.3,15.3,0,0,1,.794-2.371l-2.443-3.6,2.833-3.575,3.722,1.6a15.086,15.086,0,0,1,2.139-1.517l-.076-4.091,4.325-1.449,2.329,3.5a15.1,15.1,0,0,1,2.354.014l2.493-3.308,4.3,1.526-.3,3.875a15.275,15.275,0,0,1,2.24,1.632l4.011-1.372,2.7,3.674-2.689,3.376c.151.373.287.751.405,1.125.111.35.21.714.3,1.082l4.163,1.411-.1,4.56-4.066,1a15.18,15.18,0,0,1-.805,2.437l2.624,3.355-2.585,3.758-4.2-1.478a15.134,15.134,0,0,1-1.987,1.419l-.092,4.221-4.38,1.273Zm-1.669-4.184,2.011,3.3,3.3-.959.09-4.092.182-.105a14.3,14.3,0,0,0,2.219-1.585l.165-.143,4.067,1.432,1.949-2.833-2.561-3.275.092-.205a14.442,14.442,0,0,0,.9-2.73l.051-.226,3.959-.976.076-3.438-4.041-1.369-.046-.205c-.093-.418-.2-.831-.328-1.225-.133-.422-.29-.848-.466-1.267l-.086-.2,2.608-3.274-2.038-2.77-3.907,1.337-.164-.148a14.443,14.443,0,0,0-2.481-1.806l-.2-.118.292-3.773-3.241-1.151-2.415,3.2-.21-.021a14.283,14.283,0,0,0-2.648-.015l-.221.019-2.257-3.391-3.261,1.093.075,3.986-.194.11a14.277,14.277,0,0,0-2.388,1.7l-.178.156-3.628-1.561-2.136,2.695,2.367,3.489-.085.191a14.476,14.476,0,0,0-.884,2.643l-.05.218-3.928,1.08.015,3.439,3.859,1.2.045.215c.1.472.222.942.366,1.4.133.421.29.847.466,1.266l.085.2-2.468,3.187,2.075,2.742,3.64-1.3.167.153a14.465,14.465,0,0,0,2.455,1.819l.2.115-.209,3.948,3.267,1.072,2.323-3.244.217.023a14.276,14.276,0,0,0,2.907.01l.235-.023Z" transform="translate(-2426.34 -1761.53)" fill="#fff"/>
    </g>
    <g id="Grupo_1068690" data-name="Grupo 1068690" transform="translate(467.947 556.362)">
      <circle id="Elipse_8673" data-name="Elipse 8673" cx="7.588" cy="7.588" r="7.588" transform="translate(0 10.731) rotate(-45)" fill="#3a4b69"/>
      <path id="Trazado_804676" data-name="Trazado 804676" d="M2565.243,1904.934a7.987,7.987,0,1,1,2.406-.373A7.924,7.924,0,0,1,2565.243,1904.934Zm.017-15.184a7.216,7.216,0,1,0,2.164,14.1h0a7.216,7.216,0,0,0-2.164-14.1Z" transform="translate(-2554.523 -1886.237)" fill="#fff"/>
    </g>
    <g id="Grupo_1068691" data-name="Grupo 1068691" transform="translate(444.153 531.166)">
      <path id="Trazado_804677" data-name="Trazado 804677" d="M2254.457,1580.277l-1.614,2.3-2.579-.817q.057-1.325.114-2.649a9.914,9.914,0,0,1-1.673-1.128l-2.562.963-1.668-2.13,1.626-2.173a10.031,10.031,0,0,1-.715-2l-2.568-.646q-.079-1.35-.158-2.7l2.629-.878c.059-.3.131-.607.219-.91q.142-.487.328-.948l-1.744-2.152,1.495-2.255,2.655.884a10.051,10.051,0,0,1,1.53-1.184q-.01-1.449-.019-2.9l2.576-.828,1.471,2.271a9.907,9.907,0,0,1,2.032-.057l1.476-2.3,2.61.712q0,1.4-.006,2.8a9.9,9.9,0,0,1,1.522,1.031l2.6-.907,1.616,2.17-1.6,2.038a10.022,10.022,0,0,1,.735,2l2.735.727q.06,1.351.121,2.7l-2.739.873c-.059.3-.131.607-.219.91q-.125.427-.283.833l1.783,2.323-1.554,2.215-2.628-.952a9.983,9.983,0,0,1-1.573,1.227q.106,1.419.211,2.838l-2.514,1-1.776-2.371A9.879,9.879,0,0,1,2254.457,1580.277Z" transform="translate(-2242.27 -1557.619)" fill="#3a4b69"/>
      <path id="Trazado_804678" data-name="Trazado 804678" d="M2253.7,1578.285l-1.819-2.429a10.388,10.388,0,0,1-1.534.047l-1.652,2.356-3.114-.986.116-2.7a10.342,10.342,0,0,1-1.359-.917l-2.618.985-2.014-2.572,1.664-2.222a10.385,10.385,0,0,1-.588-1.644l-2.618-.658-.191-3.261,2.7-.9c.053-.247.115-.492.184-.728.076-.26.163-.52.26-.776l-1.779-2.2,1.805-2.723,2.718.905a10.39,10.39,0,0,1,1.245-.962l-.019-2.966,3.11-1,1.5,2.316a10.312,10.312,0,0,1,1.649-.045l1.5-2.344,3.152.859-.006,2.866a10.405,10.405,0,0,1,1.22.827l2.667-.93,1.951,2.62-1.637,2.08a10.5,10.5,0,0,1,.6,1.645l2.79.742.146,3.264-2.8.893c-.053.246-.114.489-.183.725-.064.22-.138.443-.219.665l1.824,2.376-1.876,2.675-2.682-.972a10.424,10.424,0,0,1-1.271.991l.215,2.89-3.035,1.209Zm-7.347-1.552,2.044.648,1.577-2.249.21.013a9.566,9.566,0,0,0,1.821-.056l.216-.027,1.735,2.317,1.992-.794-.207-2.788.19-.12a9.61,9.61,0,0,0,1.514-1.181l.168-.161,2.576.933,1.231-1.756-1.744-2.272.076-.2c.1-.267.2-.537.273-.8.083-.284.154-.579.211-.877l.042-.218,2.677-.853-.1-2.142-2.682-.713-.053-.214a9.681,9.681,0,0,0-.707-1.924l-.1-.211,1.573-2-1.281-1.72-2.543.887-.162-.134a9.5,9.5,0,0,0-1.465-.991l-.195-.107.006-2.734-2.069-.564-1.447,2.255-.223-.017a9.561,9.561,0,0,0-1.956.054l-.235.031-1.444-2.228-2.042.656.019,2.831-.176.111a9.678,9.678,0,0,0-1.473,1.139l-.163.153-2.6-.864-1.185,1.787,1.709,2.109-.083.2c-.121.3-.226.606-.316.913-.083.284-.154.578-.211.876l-.042.215-2.565.857.125,2.141,2.521.633.053.219a9.621,9.621,0,0,0,.688,1.922l.1.2-1.591,2.125,1.322,1.689,2.509-.943.167.14a9.565,9.565,0,0,0,1.611,1.085l.208.111-.111,2.6Z" transform="translate(-2237.97 -1552.86)" fill="#fff"/>
    </g>
    <g id="Grupo_1068692" data-name="Grupo 1068692" transform="translate(450.116 536.927)">
      <circle id="Elipse_8674" data-name="Elipse 8674" cx="5.133" cy="5.133" r="5.133" transform="matrix(0.885, -0.465, 0.465, 0.885, 0, 4.777)" fill="#3a4b69"/>
      <path id="Trazado_804679" data-name="Trazado 804679" d="M2332.264,1650.45a5.533,5.533,0,0,1-1.549-.223h0a5.471,5.471,0,1,1,1.548.223Zm-1.34-.942a4.758,4.758,0,1,0-3.236-5.9,4.728,4.728,0,0,0,3.236,5.9h0Z" transform="translate(-2325.328 -1637.991)" fill="#fff"/>
    </g>
    <path id="Trazado_806305" data-name="Trazado 806305" d="M2.677,0,0,16.463" transform="translate(383.783 555.913)" fill="#3a4b69"/>
    <path id="Trazado_806306" data-name="Trazado 806306" d="M0,11.011,4.682,0" transform="translate(406.172 550.834)" fill="#3a4b69"/>
    <path id="Trazado_806307" data-name="Trazado 806307" d="M0,4.982,10.1,0" transform="translate(372.799 552.867)" fill="#3a4b69"/>
    <path id="Trazado_806308" data-name="Trazado 806308" d="M0,0,8.04,9.252" transform="translate(390.903 553.98)" fill="#3a4b69"/>
    <path id="Trazado_806309" data-name="Trazado 806309" d="M0,3.476,7.638,0" transform="translate(391.302 546.155)" fill="#3a4b69"/>
    <path id="Trazado_804680" data-name="Trazado 804680" d="M1272.765,1846.179l-.6-5.974,4.912-3.585,5.516,2.389.6,5.974-4.912,3.585Z" transform="translate(-908.343 -1281.851)" fill="#3a4b69"/>
    <path id="Trazado_806310" data-name="Trazado 806310" d="M2.782,0A2.76,2.76,0,0,1,5.565,2.737,2.76,2.76,0,0,1,2.782,5.475,2.76,2.76,0,0,1,0,2.737,2.76,2.76,0,0,1,2.782,0Z" transform="translate(365.524 559.999) rotate(-33.94)" fill="#3a4b69"/>
    <path id="Trazado_804681" data-name="Trazado 804681" d="M1494.038,1732.824l-5.625,2.3-4.744-3.662.882-5.962,5.625-2.3,4.743,3.661Z" transform="translate(-1102.26 -1177.865)" fill="#3a4b69"/>
    <path id="Trazado_806311" data-name="Trazado 806311" d="M3.532,0A3.5,3.5,0,0,1,7.064,3.475,3.5,3.5,0,0,1,3.532,6.951,3.5,3.5,0,0,1,0,3.475,3.5,3.5,0,0,1,3.532,0Z" transform="translate(382.173 550.351) rotate(-33.94)" fill="#3a4b69"/>
    <path id="Trazado_804682" data-name="Trazado 804682" d="M1630.753,1920.871l-5.243-7.724,4.178-8.476,9.421-.751,5.242,7.725-4.178,8.475Z" transform="translate(-1232.301 -1343.553)" fill="#3a4b69"/>
    <path id="Trazado_806312" data-name="Trazado 806312" d="M5.243,0a5.2,5.2,0,0,1,5.243,5.159,5.2,5.2,0,0,1-5.243,5.159A5.2,5.2,0,0,1,0,5.159,5.2,5.2,0,0,1,5.243,0Z" transform="translate(395.459 567.499) rotate(-33.94)" fill="#3a4b69"/>
    <path id="Trazado_804683" data-name="Trazado 804683" d="M1788.739,1675.994l-3.659-5.393,2.916-5.917,6.576-.525,3.66,5.392-2.916,5.917Z" transform="translate(-1378.598 -1123.736)" fill="#3a4b69"/>
    <path id="Trazado_806313" data-name="Trazado 806313" d="M3.57,0A3.542,3.542,0,0,1,7.14,3.513,3.542,3.542,0,0,1,3.57,7.025,3.542,3.542,0,0,1,0,3.513,3.542,3.542,0,0,1,3.57,0Z" transform="translate(408.164 545.315) rotate(-33.94)" fill="#3a4b69"/>
    <path id="Trazado_804684" data-name="Trazado 804684" d="M1678.009,1687.253l-.729,3.707-3.584,1.273-2.855-2.433.729-3.706,3.585-1.273Z" transform="translate(-1273.86 -1142.678)" fill="#3a4b69"/>
    <path id="Trazado_806314" data-name="Trazado 806314" d="M2.212,0A2.194,2.194,0,0,1,4.424,2.176,2.194,2.194,0,0,1,2.212,4.352,2.194,2.194,0,0,1,0,2.176,2.194,2.194,0,0,1,2.212,0Z" transform="translate(397.507 545.256) rotate(-33.94)" fill="#3a4b69"/>
    <path id="Trazado_804685" data-name="Trazado 804685" d="M1446.938,2043.064l-5.625,2.3-4.744-3.662.882-5.962,5.624-2.3,4.744,3.661Z" transform="translate(-1059.077 -1462.3)" fill="#3a4b69"/>
    <path id="Trazado_806315" data-name="Trazado 806315" d="M3.532,0A3.5,3.5,0,0,1,7.064,3.475,3.5,3.5,0,0,1,3.532,6.951,3.5,3.5,0,0,1,0,3.475,3.5,3.5,0,0,1,3.532,0Z" transform="translate(378.255 576.158) rotate(-33.94)" fill="#3a4b69"/>
    <path id="Trazado_804686" data-name="Trazado 804686" d="M452.324,405.036c-.2-2.584-1.258-3.246-6.691-5.565l-1.723-.729c-6.293-2.849-10.2-6.624-10.2-13.912,0-8.281,5.829-14.111,13.978-14.111a20.66,20.66,0,0,1,12.388,4.306,2.654,2.654,0,0,1,.8,3.18l-1.921,3.909a2.449,2.449,0,0,1-2.253,1.457,3.076,3.076,0,0,1-1.524-.4l-.067-.067c-3.444-2.318-6.095-2.716-7.353-2.716-2.716,0-4.439,1.59-4.439,4.041,0,2.12.994,3.643,6.227,5.962.265.067,1.06.4,4.041,1.656a13.253,13.253,0,0,1,8.347,12.52c0,8.745-6.624,14.442-14.972,14.442a21.553,21.553,0,0,1-12.587-4.306,2.632,2.632,0,0,1-.8-3.18l2.054-3.909a2.427,2.427,0,0,1,2.186-1.457,2.575,2.575,0,0,1,1.524.464h.067a14.035,14.035,0,0,0,7.485,2.716c3.312,0,5.432-1.656,5.432-4.306Z" transform="translate(-139.293 62.116)" fill="#313131"/>
    <path id="Trazado_804687" data-name="Trazado 804687" d="M1423.577,399.963v24.709a2.509,2.509,0,0,1-2.517,2.65h-4.173a2.548,2.548,0,0,1-2.517-2.65V383.733a3.041,3.041,0,0,1,2.981-3.113h4.77a3.055,3.055,0,0,1,2.65,1.524l14.507,25.9V383.27a2.548,2.548,0,0,1,2.517-2.65h4.24a2.5,2.5,0,0,1,2.451,2.65V424.21a3.041,3.041,0,0,1-2.981,3.113h-4.836a3.135,3.135,0,0,1-2.65-1.524Z" transform="translate(-1038.724 53.039)" fill="#313131"/>
    <path id="Trazado_804688" data-name="Trazado 804688" d="M2285.614,390.94l-2.451,23.252a2.966,2.966,0,0,1-2.849,2.584h-4.372a2.451,2.451,0,0,1-1.921-.8,3.08,3.08,0,0,1-.662-2.186l4.9-40.807a3.151,3.151,0,0,1,3.18-3.047h5.366a3.1,3.1,0,0,1,2.981,2.318l8.81,28.353,8.745-28.419a3.2,3.2,0,0,1,3.047-2.253h4.836a3.167,3.167,0,0,1,3.246,3.047l4.9,40.807a3.084,3.084,0,0,1-.662,2.186,2.451,2.451,0,0,1-1.921.8h-4.571a2.879,2.879,0,0,1-2.849-2.65l-2.517-23.252-7.353,23.981a3.1,3.1,0,0,1-2.981,2.318h-4.5a3.121,3.121,0,0,1-2.981-2.253l-7.419-23.981Z" transform="translate(-1826.252 62.831)" fill="#313131"/>
    <path id="Trazado_804689" data-name="Trazado 804689" d="M3431.157,411.7h-4.571v12.984a2.5,2.5,0,0,1-2.451,2.65h-4.7a2.5,2.5,0,0,1-2.451-2.65V384.6a3.86,3.86,0,0,1,3.776-3.974h10.4c8.347,0,14.905,7.353,14.905,15.5s-6.492,15.568-14.905,15.568Zm3.578-19.609a5.121,5.121,0,0,0-3.909-1.723h-4.24V401.96h4.24a5.812,5.812,0,0,0,3.909-9.87Z" transform="translate(-2874.757 53.03)" fill="#313131"/>
    <path id="Trazado_804690" data-name="Trazado 804690" d="M444.032,1348.06c-.026-.339-.166-.427-.879-.731l-.226-.1a1.882,1.882,0,0,1-1.341-1.828,1.774,1.774,0,0,1,1.837-1.855,2.718,2.718,0,0,1,1.629.566.35.35,0,0,1,.1.418l-.253.514a.321.321,0,0,1-.3.191.406.406,0,0,1-.2-.052l-.008-.008a1.8,1.8,0,0,0-.967-.357.523.523,0,0,0-.583.531c0,.279.131.479.819.784.035.008.139.052.532.218a1.742,1.742,0,0,1,1.1,1.646,1.866,1.866,0,0,1-1.968,1.9,2.838,2.838,0,0,1-1.654-.566.347.347,0,0,1-.1-.418l.27-.514a.318.318,0,0,1,.287-.191.342.342,0,0,1,.2.061h.008a1.841,1.841,0,0,0,.984.357c.435,0,.714-.218.714-.566Z" transform="translate(-146.812 -829.794)" fill="#313131"/>
    <path id="Trazado_804691" data-name="Trazado 804691" d="M501.436,1344.28a.34.34,0,0,1,.331.348v.557a.335.335,0,0,1-.331.349h-.487v3.666h.487a.34.34,0,0,1,.331.348v.557a.335.335,0,0,1-.331.349h-2.255a.335.335,0,0,1-.331-.349v-.557a.341.341,0,0,1,.331-.348h.487v-3.666h-.487a.335.335,0,0,1-.331-.349v-.557a.341.341,0,0,1,.331-.348Z" transform="translate(-199.356 -830.463)" fill="#313131"/>
    <path id="Trazado_804692" data-name="Trazado 804692" d="M550.488,1347.241l-.322,3.057a.389.389,0,0,1-.374.339h-.575a.323.323,0,0,1-.253-.1.407.407,0,0,1-.087-.287l.645-5.364a.414.414,0,0,1,.417-.4h.705a.408.408,0,0,1,.392.3l1.158,3.727,1.15-3.736a.422.422,0,0,1,.4-.3h.635a.416.416,0,0,1,.427.4l.645,5.364a.4.4,0,0,1-.087.287.322.322,0,0,1-.253.1h-.6a.378.378,0,0,1-.374-.348l-.331-3.057-.967,3.153a.407.407,0,0,1-.392.3h-.592a.41.41,0,0,1-.392-.3l-.976-3.153Z" transform="translate(-245.221 -830.646)" fill="#313131"/>
    <path id="Trazado_804693" data-name="Trazado 804693" d="M647.064,1348.784h-.592v1.707a.335.335,0,0,1-.331.349h-.61a.335.335,0,0,1-.331-.349v-5.269a.514.514,0,0,1,.148-.366.451.451,0,0,1,.349-.156h1.367a2.044,2.044,0,0,1,0,4.084Zm-.035-2.8h-.557v1.524h.557a.748.748,0,0,0,.723-.766A.729.729,0,0,0,647.029,1345.98Z" transform="translate(-333.533 -830.849)" fill="#313131"/>
    <path id="Trazado_804694" data-name="Trazado 804694" d="M704.561,1344.7a.335.335,0,0,1,.331.349v4.493h1.62a.333.333,0,0,1,.322.349v.6a.328.328,0,0,1-.322.348h-2.395a.508.508,0,0,1-.5-.522v-5.269a.335.335,0,0,1,.331-.349Z" transform="translate(-387.094 -830.849)" fill="#313131"/>
    <path id="Trazado_804695" data-name="Trazado 804695" d="M755.772,1346v1.027H757.1a.333.333,0,0,1,.331.339v.583a.333.333,0,0,1-.331.339h-1.333v1.254h1.846a.34.34,0,0,1,.331.349v.6a.335.335,0,0,1-.331.349H755a.508.508,0,0,1-.5-.522v-5.094a.514.514,0,0,1,.148-.366.451.451,0,0,1,.349-.156h2.621a.335.335,0,0,1,.331.349v.6a.341.341,0,0,1-.331.348h-1.846Z" transform="translate(-433.741 -830.848)" fill="#313131"/>
    <path id="Trazado_804696" data-name="Trazado 804696" d="M1377.661,1349.223v3.248a.33.33,0,0,1-.331.349h-.549a.335.335,0,0,1-.331-.349v-5.382a.4.4,0,0,1,.392-.409h.627a.4.4,0,0,1,.349.2l1.907,3.4v-3.256a.335.335,0,0,1,.331-.349h.557a.328.328,0,0,1,.322.349v5.382a.4.4,0,0,1-.392.409h-.635a.412.412,0,0,1-.349-.2l-1.9-3.4Z" transform="translate(-1003.958 -832.663)" fill="#313131"/>
    <path id="Trazado_804697" data-name="Trazado 804697" d="M1450.282,1347.977V1349h1.333a.333.333,0,0,1,.331.339v.583a.333.333,0,0,1-.331.339h-1.333v1.254h1.846a.34.34,0,0,1,.331.348v.6a.335.335,0,0,1-.331.349h-2.621a.508.508,0,0,1-.5-.522V1347.2a.515.515,0,0,1,.148-.366.45.45,0,0,1,.349-.156h2.621a.335.335,0,0,1,.331.349v.6a.341.341,0,0,1-.331.349Z" transform="translate(-1070.482 -832.663)" fill="#313131"/>
    <path id="Trazado_804698" data-name="Trazado 804698" d="M1505.96,1347.629a.341.341,0,0,1-.331.349h-1.123v4.493a.335.335,0,0,1-.331.349h-.61a.335.335,0,0,1-.331-.349v-4.493h-1.123a.34.34,0,0,1-.331-.349v-.6a.335.335,0,0,1,.331-.349h3.518a.335.335,0,0,1,.331.349Z" transform="translate(-1118.863 -832.663)" fill="#313131"/>
    <path id="Trazado_804699" data-name="Trazado 804699" d="M1574.62,1346.671a.334.334,0,0,1,.261.131.342.342,0,0,1,.043.3l-1.533,5.434a.372.372,0,0,1-.366.287h-.731a.371.371,0,0,1-.348-.287l-.888-3.335-.9,3.335a.372.372,0,0,1-.366.287h-.731a.373.373,0,0,1-.349-.279l-1.5-5.434a.46.46,0,0,1-.017-.1.338.338,0,0,1,.331-.339h.592a.379.379,0,0,1,.357.287l.984,3.57.941-3.57a.378.378,0,0,1,.357-.287h.6a.379.379,0,0,1,.348.287l.984,3.57.941-3.57a.379.379,0,0,1,.357-.287h.627Z" transform="translate(-1178.841 -832.654)" fill="#313131"/>
    <path id="Trazado_804700" data-name="Trazado 804700" d="M1679.337,1349.562a2.206,2.206,0,1,1-4.407,0v-1.724a2.206,2.206,0,1,1,4.407,0Zm-1.271-1.724a.935.935,0,1,0-1.863,0v1.724a.935.935,0,1,0,1.863,0Z" transform="translate(-1277.61 -831.609)" fill="#313131"/>
    <path id="Trazado_804701" data-name="Trazado 804701" d="M1745.908,1350.381l1.167,1.907a.4.4,0,0,1,.052.191.337.337,0,0,1-.339.349h-.627a.387.387,0,0,1-.339-.191l-1.228-2.081h-.122v1.925a.335.335,0,0,1-.331.348h-.61a.335.335,0,0,1-.331-.348v-5.269a.515.515,0,0,1,.148-.366.451.451,0,0,1,.349-.156h1.437a1.9,1.9,0,0,1,1.881,1.933,1.922,1.922,0,0,1-1.106,1.759Zm-1.437-2.412v1.306h.618a.654.654,0,0,0,0-1.307h-.618Z" transform="translate(-1340.202 -832.673)" fill="#313131"/>
    <path id="Trazado_804702" data-name="Trazado 804702" d="M1804.771,1352.81a.333.333,0,0,1-.331-.339v-5.452a.335.335,0,0,1,.331-.348h.61a.335.335,0,0,1,.331.348v2.107h.008l1.715-2.272a.434.434,0,0,1,.366-.183h.7a.315.315,0,0,1,.322.322.393.393,0,0,1-.07.209l-1.925,2.508,1.933,2.586a.351.351,0,0,1,.07.2.316.316,0,0,1-.322.322l-.714-.008a.417.417,0,0,1-.357-.183l-1.68-2.238h-.043v2.081a.333.333,0,0,1-.331.339h-.61Z" transform="translate(-1396.348 -832.654)" fill="#313131"/>
    <path id="Trazado_804703" data-name="Trazado 804703" d="M2231.538,1342.861l-.322,3.057a.39.39,0,0,1-.375.339h-.575a.323.323,0,0,1-.253-.1.407.407,0,0,1-.087-.287l.645-5.364a.414.414,0,0,1,.418-.4h.705a.408.408,0,0,1,.392.3l1.158,3.727,1.15-3.736a.422.422,0,0,1,.4-.3h.635a.417.417,0,0,1,.427.4l.645,5.364a.4.4,0,0,1-.087.287.321.321,0,0,1-.253.1h-.6a.379.379,0,0,1-.374-.349l-.331-3.057-.967,3.152a.407.407,0,0,1-.392.3h-.592a.41.41,0,0,1-.392-.3l-.976-3.152Z" transform="translate(-1786.441 -826.631)" fill="#313131"/>
    <path id="Trazado_804704" data-name="Trazado 804704" d="M2328.067,1345.494a.475.475,0,0,1,.017.122.351.351,0,0,1-.348.357h-.557a.406.406,0,0,1-.392-.314l-.313-1.036h-1.559l-.3,1.036a.424.424,0,0,1-.4.314h-.54a.351.351,0,0,1-.348-.357.445.445,0,0,1,.017-.122l1.664-5.4a.418.418,0,0,1,.4-.3h.6a.409.409,0,0,1,.392.3Zm-2.369-3.535-.409,1.4h.81Z" transform="translate(-1872.067 -826.347)" fill="#313131"/>
    <path id="Trazado_804705" data-name="Trazado 804705" d="M2396.031,1342.863v3.248a.33.33,0,0,1-.331.348h-.549a.335.335,0,0,1-.331-.348v-5.382a.4.4,0,0,1,.392-.409h.627a.4.4,0,0,1,.349.2l1.907,3.4v-3.256a.335.335,0,0,1,.331-.349h.557a.328.328,0,0,1,.322.349v5.382a.4.4,0,0,1-.392.409h-.635a.413.413,0,0,1-.349-.2Z" transform="translate(-1937.619 -826.833)" fill="#313131"/>
    <path id="Trazado_804706" data-name="Trazado 804706" d="M2468.567,1345.494a.476.476,0,0,1,.017.122.351.351,0,0,1-.348.357h-.558a.406.406,0,0,1-.392-.314l-.313-1.036h-1.559l-.3,1.036a.424.424,0,0,1-.4.314h-.54a.351.351,0,0,1-.348-.357.445.445,0,0,1,.017-.122l1.664-5.4a.418.418,0,0,1,.4-.3h.6a.408.408,0,0,1,.392.3Zm-2.369-3.535-.409,1.4h.81Z" transform="translate(-2000.881 -826.347)" fill="#313131"/>
    <path id="Trazado_804707" data-name="Trazado 804707" d="M2535.88,1339.985a.523.523,0,0,1,.5.532v.941a2.211,2.211,0,1,1-4.415,0v-1.733a2.279,2.279,0,0,1,2.212-2.325,2.242,2.242,0,0,1,1.742.775.42.42,0,0,1,.087.253.445.445,0,0,1-.1.27l-.356.392a.322.322,0,0,1-.244.113.336.336,0,0,1-.261-.122,1.1,1.1,0,0,0-.862-.383,1.021,1.021,0,0,0-.949,1.027v1.733a1.021,1.021,0,0,0,.949,1.027.975.975,0,0,0,.932-.992v-.226h-.871a.335.335,0,0,1-.331-.348v-.583a.341.341,0,0,1,.331-.348h1.629Z" transform="translate(-2063.361 -824.156)" fill="#313131"/>
    <path id="Trazado_804708" data-name="Trazado 804708" d="M2602.651,1341.607v1.027h1.333a.333.333,0,0,1,.331.339v.583a.333.333,0,0,1-.331.339h-1.333v1.254h1.846a.34.34,0,0,1,.331.348v.6a.335.335,0,0,1-.331.349h-2.621a.508.508,0,0,1-.5-.522v-5.094a.513.513,0,0,1,.148-.366.45.45,0,0,1,.349-.156h2.621a.335.335,0,0,1,.331.349v.6a.341.341,0,0,1-.331.349Z" transform="translate(-2126.998 -826.823)" fill="#313131"/>
    <path id="Trazado_804709" data-name="Trazado 804709" d="M2659.938,1342.861l-.322,3.057a.39.39,0,0,1-.375.339h-.575a.323.323,0,0,1-.253-.1.408.408,0,0,1-.087-.287l.645-5.364a.414.414,0,0,1,.418-.4h.705a.408.408,0,0,1,.392.3l1.158,3.727,1.149-3.736a.421.421,0,0,1,.4-.3h.636a.416.416,0,0,1,.427.4l.645,5.364a.4.4,0,0,1-.087.287.322.322,0,0,1-.253.1h-.6a.379.379,0,0,1-.375-.349l-.331-3.057-.966,3.152a.407.407,0,0,1-.392.3h-.592a.411.411,0,0,1-.392-.3l-.976-3.152Z" transform="translate(-2179.207 -826.631)" fill="#313131"/>
    <path id="Trazado_804710" data-name="Trazado 804710" d="M2757.072,1341.607v1.027h1.332a.333.333,0,0,1,.331.339v.583a.333.333,0,0,1-.331.339h-1.332v1.254h1.846a.34.34,0,0,1,.331.348v.6a.335.335,0,0,1-.331.349H2756.3a.508.508,0,0,1-.5-.522v-5.094a.513.513,0,0,1,.148-.366.45.45,0,0,1,.348-.156h2.621a.335.335,0,0,1,.331.349v.6a.341.341,0,0,1-.331.349Z" transform="translate(-2268.573 -826.823)" fill="#313131"/>
    <path id="Trazado_804711" data-name="Trazado 804711" d="M2814.491,1342.863v3.248a.33.33,0,0,1-.331.348h-.549a.335.335,0,0,1-.331-.348v-5.382a.4.4,0,0,1,.392-.409h.627a.4.4,0,0,1,.349.2l1.907,3.4v-3.256a.335.335,0,0,1,.331-.349h.557a.328.328,0,0,1,.322.349v5.382a.4.4,0,0,1-.392.409h-.635a.413.413,0,0,1-.349-.2Z" transform="translate(-2321.271 -826.833)" fill="#313131"/>
    <path id="Trazado_804712" data-name="Trazado 804712" d="M2885.93,1341.269a.341.341,0,0,1-.331.349h-1.123v4.493a.335.335,0,0,1-.331.348h-.61a.335.335,0,0,1-.331-.348v-4.493h-1.123a.34.34,0,0,1-.331-.349v-.6a.335.335,0,0,1,.331-.349h3.518a.335.335,0,0,1,.331.349Z" transform="translate(-2384.047 -826.833)" fill="#313131"/>
    <path id="Trazado_804713" data-name="Trazado 804713" d="M3319.212,1341.134h-.6v1.707a.328.328,0,0,1-.322.349h-.618a.328.328,0,0,1-.322-.349v-5.269a.507.507,0,0,1,.5-.522h1.367a2.044,2.044,0,0,1,0,4.084Zm.47-2.578a.673.673,0,0,0-.514-.226h-.557v1.524h.557a.764.764,0,0,0,.514-1.3Z" transform="translate(-2783.414 -823.835)" fill="#313131"/>
    <path id="Trazado_804714" data-name="Trazado 804714" d="M3381.918,1340.751l1.167,1.907a.4.4,0,0,1,.052.191.337.337,0,0,1-.339.349h-.627a.388.388,0,0,1-.339-.191l-1.228-2.081h-.122v1.925a.335.335,0,0,1-.331.349h-.61a.335.335,0,0,1-.331-.349v-5.269a.513.513,0,0,1,.148-.366.451.451,0,0,1,.349-.156h1.437a1.9,1.9,0,0,1,1.881,1.933,1.922,1.922,0,0,1-1.106,1.759Zm-1.437-2.412v1.306h.618a.653.653,0,0,0,0-1.307h-.618Z" transform="translate(-2840.128 -823.845)" fill="#313131"/>
    <path id="Trazado_804715" data-name="Trazado 804715" d="M3443.287,1339.932a2.206,2.206,0,1,1-4.407,0v-1.724a2.206,2.206,0,1,1,4.407,0Zm-1.271-1.724a.935.935,0,1,0-1.863,0v1.724a.935.935,0,1,0,1.863,0Z" transform="translate(-2894.835 -822.781)" fill="#313131"/>
    <path id="Trazado_804716" data-name="Trazado 804716" d="M3508.08,1338.009a.341.341,0,0,1-.331.349h-1.123v4.493a.335.335,0,0,1-.331.349h-.61a.335.335,0,0,1-.331-.349v-4.493h-1.123a.34.34,0,0,1-.331-.349v-.6a.335.335,0,0,1,.331-.349h3.518a.335.335,0,0,1,.331.349Z" transform="translate(-2954.446 -823.845)" fill="#313131"/>
    <path id="Trazado_804717" data-name="Trazado 804717" d="M3569.967,1339.932a2.206,2.206,0,1,1-4.407,0v-1.724a2.206,2.206,0,1,1,4.407,0Zm-1.271-1.724a.935.935,0,1,0-1.863,0v1.724a.935.935,0,1,0,1.863,0Z" transform="translate(-3010.978 -822.781)" fill="#313131"/>
    <path id="Trazado_804718" data-name="Trazado 804718" d="M3638.191,1340.942a.4.4,0,0,1,.035.514l-.009.008a2.171,2.171,0,0,1-1.7.784,2.257,2.257,0,0,1-2.16-2.317v-1.724a2.249,2.249,0,0,1,2.16-2.307,2.1,2.1,0,0,1,1.689.775.374.374,0,0,1,.087.253.426.426,0,0,1-.1.27l-.348.383a.334.334,0,0,1-.244.113.324.324,0,0,1-.261-.131,1.023,1.023,0,0,0-.819-.366.981.981,0,0,0-.9,1.01v1.724a.984.984,0,0,0,.9,1.019,1.023,1.023,0,0,0,.819-.366.321.321,0,0,1,.253-.131.34.34,0,0,1,.253.113l.34.374Z" transform="translate(-3074.055 -822.781)" fill="#313131"/>
    <path id="Trazado_804719" data-name="Trazado 804719" d="M3698.207,1339.932a2.206,2.206,0,1,1-4.407,0v-1.724a2.206,2.206,0,1,1,4.407,0Zm-1.271-1.724a.935.935,0,1,0-1.863,0v1.724a.935.935,0,1,0,1.863,0Z" transform="translate(-3128.551 -822.781)" fill="#313131"/>
    <path id="Trazado_804720" data-name="Trazado 804720" d="M3762.171,1337.06a.335.335,0,0,1,.331.349v4.493h1.619a.333.333,0,0,1,.322.349v.6a.329.329,0,0,1-.322.349h-2.395a.508.508,0,0,1-.5-.522v-5.269a.335.335,0,0,1,.331-.349Z" transform="translate(-3190.371 -823.845)" fill="#313131"/>
  </g>
</svg>
