<svg xmlns="http://www.w3.org/2000/svg" width="610" height="394" viewBox="0 0 610 394">
  <g id="Grupo_1069122" data-name="Grupo 1069122" transform="translate(6975 5737)">
    <path id="Trazado_806416" data-name="Trazado 806416" d="M4,0H186a4,4,0,0,1,4,4v99a4,4,0,0,1-4,4H4a4,4,0,0,1-4-4V4A4,4,0,0,1,4,0Z" transform="translate(-6975 -5733)" fill="#e3eef2"/>
    <path id="Trazado_806417" data-name="Trazado 806417" d="M4,0H186a4,4,0,0,1,4,4v99a4,4,0,0,1-4,4H4a4,4,0,0,1-4-4V4A4,4,0,0,1,4,0Z" transform="translate(-6555 -5733)" fill="#e3eef2"/>
    <path id="Trazado_806418" data-name="Trazado 806418" d="M4,0H186a4,4,0,0,1,4,4V91a4,4,0,0,1-4,4H4a4,4,0,0,1-4-4V4A4,4,0,0,1,4,0Z" transform="translate(-6555 -5552)" fill="#e3eef2"/>
    <path id="Trazado_806419" data-name="Trazado 806419" d="M0,0H73V32H0Z" transform="translate(-6876 -5654)" fill="#1e5af9"/>
    <path id="Trazado_806420" data-name="Trazado 806420" d="M0,0H97V62H0Z" transform="translate(-6547 -5662)" fill="#1e5af9"/>
    <path id="Trazado_806213" data-name="Trazado 806213" d="M61,18a3,3,0,0,0,3-3V7a3,3,0,0,0-3-3H3A3,3,0,0,0,0,7v8a3,3,0,0,0,3,3H5v4H3a3,3,0,0,0-3,3v8a3,3,0,0,0,3,3H5v4H3a3,3,0,0,0-3,3v8a3,3,0,0,0,3,3H5v5a1,1,0,0,0,1,1h9a1,1,0,0,0,.9-.553L18.618,54H45.382L48.1,59.447A1,1,0,0,0,49,60h9a1,1,0,0,0,1-1V54h2a3,3,0,0,0,3-3V43a3,3,0,0,0-3-3H59V36h2a3,3,0,0,0,3-3V25a3,3,0,0,0-3-3H59V18ZM2,15V7A1,1,0,0,1,3,6H61a1,1,0,0,1,1,1v8a1,1,0,0,1-1,1H3A1,1,0,0,1,2,15ZM14.382,58H7V54h9.382ZM57,58H49.618l-2-4H57Zm5-15v8a1,1,0,0,1-1,1H3a1,1,0,0,1-1-1V43a1,1,0,0,1,1-1H61A1,1,0,0,1,62,43Zm-5-3H7V36H57Zm5-15v8a1,1,0,0,1-1,1H3a1,1,0,0,1-1-1V25a1,1,0,0,1,1-1H61A1,1,0,0,1,62,25Zm-5-3H7V18H57Z" transform="translate(-6871 -5722)"/>
    <path id="Trazado_806214" data-name="Trazado 806214" d="M10,11a3,3,0,1,0-3,3A3,3,0,0,0,10,11ZM6,11a1,1,0,1,1,1,1A1,1,0,0,1,6,11Z" transform="translate(-6871 -5722)"/>
    <path id="Trazado_806215" data-name="Trazado 806215" d="M15,14a3,3,0,1,0-3-3,3,3,0,0,0,3,3Zm0-4a1,1,0,1,1-1,1A1,1,0,0,1,15,10Z" transform="translate(-6871 -5722)"/>
    <path id="Trazado_806216" data-name="Trazado 806216" d="M23,14a3,3,0,1,0-3-3,3,3,0,0,0,3,3Zm0-4a1,1,0,1,1-1,1A1,1,0,0,1,23,10Z" transform="translate(-6871 -5722)"/>
    <path id="Trazado_806217" data-name="Trazado 806217" d="M37,10H59a1,1,0,0,0,0-2H37a1,1,0,0,0,0,2Z" transform="translate(-6871 -5722)"/>
    <path id="Trazado_806218" data-name="Trazado 806218" d="M59,12H57a1,1,0,0,0,0,2h2a1,1,0,0,0,0-2Z" transform="translate(-6871 -5722)"/>
    <path id="Trazado_806219" data-name="Trazado 806219" d="M53,12H51a1,1,0,0,0,0,2h2a1,1,0,0,0,0-2Z" transform="translate(-6871 -5722)"/>
    <path id="Trazado_806220" data-name="Trazado 806220" d="M37,14H47a1,1,0,0,0,0-2H37a1,1,0,0,0,0,2Z" transform="translate(-6871 -5722)"/>
    <path id="Trazado_806221" data-name="Trazado 806221" d="M7,26a3,3,0,1,0,3,3,3,3,0,0,0-3-3Zm0,4a1,1,0,1,1,1-1A1,1,0,0,1,7,30Z" transform="translate(-6871 -5722)"/>
    <path id="Trazado_806222" data-name="Trazado 806222" d="M15,26a3,3,0,1,0,3,3A3,3,0,0,0,15,26Zm0,4a1,1,0,1,1,1-1A1,1,0,0,1,15,30Z" transform="translate(-6871 -5722)"/>
    <path id="Trazado_806223" data-name="Trazado 806223" d="M23,26a3,3,0,1,0,3,3A3,3,0,0,0,23,26Zm0,4a1,1,0,1,1,1-1A1,1,0,0,1,23,30Z" transform="translate(-6871 -5722)"/>
    <path id="Trazado_806224" data-name="Trazado 806224" d="M36,27a1,1,0,0,0,1,1H59a1,1,0,0,0,0-2H37A1,1,0,0,0,36,27Z" transform="translate(-6871 -5722)"/>
    <path id="Trazado_806225" data-name="Trazado 806225" d="M59,30H57a1,1,0,0,0,0,2h2a1,1,0,0,0,0-2Z" transform="translate(-6871 -5722)"/>
    <path id="Trazado_806226" data-name="Trazado 806226" d="M53,30H51a1,1,0,0,0,0,2h2a1,1,0,0,0,0-2Z" transform="translate(-6871 -5722)"/>
    <path id="Trazado_806227" data-name="Trazado 806227" d="M47,30H37a1,1,0,0,0,0,2H47a1,1,0,0,0,0-2Z" transform="translate(-6871 -5722)"/>
    <path id="Trazado_806228" data-name="Trazado 806228" d="M7,44a3,3,0,1,0,3,3,3,3,0,0,0-3-3Zm0,4a1,1,0,1,1,1-1A1,1,0,0,1,7,48Z" transform="translate(-6871 -5722)"/>
    <path id="Trazado_806229" data-name="Trazado 806229" d="M15,44a3,3,0,1,0,3,3A3,3,0,0,0,15,44Zm0,4a1,1,0,1,1,1-1A1,1,0,0,1,15,48Z" transform="translate(-6871 -5722)"/>
    <path id="Trazado_806230" data-name="Trazado 806230" d="M23,44a3,3,0,1,0,3,3A3,3,0,0,0,23,44Zm0,4a1,1,0,1,1,1-1A1,1,0,0,1,23,48Z" transform="translate(-6871 -5722)"/>
    <path id="Trazado_806231" data-name="Trazado 806231" d="M36,45a1,1,0,0,0,1,1H59a1,1,0,0,0,0-2H37A1,1,0,0,0,36,45Z" transform="translate(-6871 -5722)"/>
    <path id="Trazado_806232" data-name="Trazado 806232" d="M59,48H57a1,1,0,0,0,0,2h2a1,1,0,0,0,0-2Z" transform="translate(-6871 -5722)"/>
    <path id="Trazado_806233" data-name="Trazado 806233" d="M53,48H51a1,1,0,0,0,0,2h2a1,1,0,0,0,0-2Z" transform="translate(-6871 -5722)"/>
    <path id="Trazado_806234" data-name="Trazado 806234" d="M47,48H37a1,1,0,0,0,0,2H47a1,1,0,0,0,0-2Z" transform="translate(-6871 -5722)"/>
    <path id="Trazado_806421" data-name="Trazado 806421" d="M10.266,0H7.922L3.359-7.484V0H1.016V-11.375H3.359l4.57,7.5v-7.5h2.336Zm5.109-11.375L18.3-3.125l2.906-8.25h3.078V0H21.93V-3.109l.234-5.367L19.094,0H17.484L14.422-8.469l.234,5.359V0H12.313V-11.375ZM32.227-2.984A1.2,1.2,0,0,0,31.758-4a6.148,6.148,0,0,0-1.687-.75,11.963,11.963,0,0,1-1.93-.777A3.153,3.153,0,0,1,26.2-8.352,2.747,2.747,0,0,1,26.723-10a3.389,3.389,0,0,1,1.492-1.129,5.616,5.616,0,0,1,2.184-.406,5.112,5.112,0,0,1,2.172.441,3.458,3.458,0,0,1,1.48,1.246,3.261,3.261,0,0,1,.527,1.828H32.234a1.534,1.534,0,0,0-.492-1.215,2.023,2.023,0,0,0-1.383-.434,2.162,2.162,0,0,0-1.336.363,1.146,1.146,0,0,0-.477.957,1.1,1.1,0,0,0,.559.93,6.311,6.311,0,0,0,1.645.7,7.106,7.106,0,0,1,2.914,1.492A2.972,2.972,0,0,1,34.578-3,2.737,2.737,0,0,1,33.461-.684a4.891,4.891,0,0,1-3.008.84,5.808,5.808,0,0,1-2.391-.48,3.783,3.783,0,0,1-1.645-1.316,3.371,3.371,0,0,1-.566-1.937H28.2q0,1.883,2.25,1.883a2.189,2.189,0,0,0,1.3-.34A1.106,1.106,0,0,0,32.227-2.984Z" transform="translate(-6857 -5632)" fill="#fff"/>
    <path id="Trazado_806422" data-name="Trazado 806422" d="M3.988,15V3.625h3.5a5.315,5.315,0,0,1,2.684.676A4.712,4.712,0,0,1,12.02,6.223a5.928,5.928,0,0,1,.664,2.832v.523a5.945,5.945,0,0,1-.652,2.82,4.672,4.672,0,0,1-1.84,1.914A5.355,5.355,0,0,1,7.512,15ZM6.332,5.523v7.594H7.465a2.545,2.545,0,0,0,2.1-.9,4.06,4.06,0,0,0,.742-2.57v-.6A4.124,4.124,0,0,0,9.59,6.418a2.537,2.537,0,0,0-2.1-.895ZM16.621,15H14.355V6.547h2.266Zm-2.4-10.641a1.112,1.112,0,0,1,.34-.836,1.465,1.465,0,0,1,1.848,0,1.105,1.105,0,0,1,.344.836,1.108,1.108,0,0,1-.348.844,1.448,1.448,0,0,1-1.836,0A1.108,1.108,0,0,1,14.223,4.359Zm8.836,8.3a.727.727,0,0,0-.41-.652,4.659,4.659,0,0,0-1.316-.426q-3.016-.633-3.016-2.562a2.323,2.323,0,0,1,.934-1.879,3.766,3.766,0,0,1,2.441-.754,4.053,4.053,0,0,1,2.574.758,2.388,2.388,0,0,1,.965,1.969H22.973a1.092,1.092,0,0,0-.312-.8A1.322,1.322,0,0,0,21.684,8a1.351,1.351,0,0,0-.883.258.814.814,0,0,0-.312.656.7.7,0,0,0,.355.605,3.657,3.657,0,0,0,1.2.4,9.8,9.8,0,0,1,1.422.379,2.336,2.336,0,0,1,1.789,2.273,2.2,2.2,0,0,1-.992,1.871,4.28,4.28,0,0,1-2.562.715,4.47,4.47,0,0,1-1.887-.379,3.166,3.166,0,0,1-1.293-1.039,2.414,2.414,0,0,1-.469-1.426h2.141a1.179,1.179,0,0,0,.445.922,1.766,1.766,0,0,0,1.109.32,1.635,1.635,0,0,0,.98-.246A.766.766,0,0,0,23.059,12.664Zm11.258-1.812a5.07,5.07,0,0,1-.887,3.129,2.843,2.843,0,0,1-2.395,1.176,2.633,2.633,0,0,1-2.07-.891V18.25H26.707V6.547H28.8l.078.828a2.654,2.654,0,0,1,2.141-.984,2.862,2.862,0,0,1,2.43,1.156,5.207,5.207,0,0,1,.867,3.188Zm-2.258-.164a3.327,3.327,0,0,0-.418-1.82,1.361,1.361,0,0,0-1.215-.641,1.478,1.478,0,0,0-1.461.813V12.5a1.5,1.5,0,0,0,1.477.836Q32.059,13.336,32.059,10.688Zm3.3.008a5.013,5.013,0,0,1,.484-2.242A3.546,3.546,0,0,1,37.242,6.93a4.069,4.069,0,0,1,2.113-.539,3.849,3.849,0,0,1,2.793,1.047,4.2,4.2,0,0,1,1.207,2.844l.016.578a4.418,4.418,0,0,1-1.086,3.121,4.209,4.209,0,0,1-5.832,0,4.5,4.5,0,0,1-1.09-3.187Zm2.258.16a3.16,3.16,0,0,0,.453,1.843,1.628,1.628,0,0,0,2.578.008,3.457,3.457,0,0,0,.461-2.015,3.128,3.128,0,0,0-.461-1.831,1.5,1.5,0,0,0-1.3-.649,1.474,1.474,0,0,0-1.281.646A3.516,3.516,0,0,0,37.621,10.856ZM49.34,12.664a.727.727,0,0,0-.41-.652,4.659,4.659,0,0,0-1.316-.426Q44.6,10.953,44.6,9.023a2.323,2.323,0,0,1,.934-1.879,3.766,3.766,0,0,1,2.441-.754,4.053,4.053,0,0,1,2.574.758,2.388,2.388,0,0,1,.965,1.969H49.254a1.092,1.092,0,0,0-.312-.8A1.322,1.322,0,0,0,47.965,8a1.351,1.351,0,0,0-.883.258.814.814,0,0,0-.312.656.7.7,0,0,0,.355.605,3.657,3.657,0,0,0,1.2.4,9.8,9.8,0,0,1,1.422.379,2.336,2.336,0,0,1,1.789,2.273,2.2,2.2,0,0,1-.992,1.871,4.28,4.28,0,0,1-2.562.715,4.47,4.47,0,0,1-1.887-.379A3.166,3.166,0,0,1,44.8,13.738a2.414,2.414,0,0,1-.469-1.426h2.141a1.179,1.179,0,0,0,.445.922,1.766,1.766,0,0,0,1.109.32,1.635,1.635,0,0,0,.98-.246A.766.766,0,0,0,49.34,12.664ZM55.371,15H53.105V6.547h2.266Zm-2.4-10.641a1.112,1.112,0,0,1,.34-.836,1.465,1.465,0,0,1,1.848,0,1.105,1.105,0,0,1,.344.836,1.108,1.108,0,0,1-.348.844,1.448,1.448,0,0,1-1.836,0A1.108,1.108,0,0,1,52.973,4.359Zm6.961.109V6.547h1.445V8.2H59.934v4.219a1.007,1.007,0,0,0,.18.672.9.9,0,0,0,.688.2,3.6,3.6,0,0,0,.664-.055v1.711a4.648,4.648,0,0,1-1.367.2,2.156,2.156,0,0,1-2.422-2.4V8.2H56.441V6.547h1.234V4.469ZM65.02,15H62.754V6.547H65.02Zm-2.4-10.641a1.112,1.112,0,0,1,.34-.836,1.465,1.465,0,0,1,1.848,0,1.105,1.105,0,0,1,.344.836A1.108,1.108,0,0,1,64.8,5.2a1.448,1.448,0,0,1-1.836,0A1.108,1.108,0,0,1,62.621,4.359Zm7.422,7.883,1.57-5.7h2.359L71.121,15H68.965L66.113,6.547h2.359ZM74.5,10.7a5.013,5.013,0,0,1,.484-2.242A3.546,3.546,0,0,1,76.375,6.93a4.069,4.069,0,0,1,2.113-.539,3.849,3.849,0,0,1,2.793,1.047,4.2,4.2,0,0,1,1.207,2.844l.016.578a4.418,4.418,0,0,1-1.086,3.121,4.209,4.209,0,0,1-5.832,0A4.5,4.5,0,0,1,74.5,10.8Zm2.258.16a3.16,3.16,0,0,0,.453,1.843,1.628,1.628,0,0,0,2.578.008,3.457,3.457,0,0,0,.461-2.015,3.128,3.128,0,0,0-.461-1.831,1.5,1.5,0,0,0-1.3-.649,1.474,1.474,0,0,0-1.281.646A3.516,3.516,0,0,0,76.754,10.856ZM3.387,28.711a4.954,4.954,0,0,1,.926-3.133,3,3,0,0,1,2.5-1.187,2.631,2.631,0,0,1,2.164.953l.094-.8h2.047v8.172a3.613,3.613,0,0,1-.5,1.93A3.236,3.236,0,0,1,9.191,35.9a4.985,4.985,0,0,1-2.141.43,4.635,4.635,0,0,1-1.812-.371A3.217,3.217,0,0,1,3.9,35l1-1.375a2.645,2.645,0,0,0,2.047.945,1.936,1.936,0,0,0,1.4-.48,1.8,1.8,0,0,0,.5-1.363v-.453a2.612,2.612,0,0,1-2.055.883,2.992,2.992,0,0,1-2.465-1.191,4.953,4.953,0,0,1-.941-3.16Zm2.258.168a3.085,3.085,0,0,0,.461,1.8,1.466,1.466,0,0,0,1.266.653,1.568,1.568,0,0,0,1.477-.775V27a1.564,1.564,0,0,0-1.461-.775,1.476,1.476,0,0,0-1.277.665A3.477,3.477,0,0,0,5.645,28.879Zm11.094,4.277a4.15,4.15,0,0,1-3.027-1.141,4.054,4.054,0,0,1-1.168-3.039v-.219a5.106,5.106,0,0,1,.492-2.277,3.612,3.612,0,0,1,1.395-1.547,3.914,3.914,0,0,1,2.059-.543,3.508,3.508,0,0,1,2.73,1.094,4.444,4.444,0,0,1,1,3.1v.922H14.832a2.1,2.1,0,0,0,.66,1.328,2,2,0,0,0,1.395.5,2.437,2.437,0,0,0,2.039-.945l1.109,1.242a3.389,3.389,0,0,1-1.375,1.121A4.511,4.511,0,0,1,16.738,33.156Zm-.258-6.945a1.411,1.411,0,0,0-1.09.455,2.357,2.357,0,0,0-.535,1.3H18v-.181a1.681,1.681,0,0,0-.406-1.165A1.456,1.456,0,0,0,16.48,26.211Zm9.594,4.453a.727.727,0,0,0-.41-.652,4.659,4.659,0,0,0-1.316-.426q-3.016-.633-3.016-2.562a2.323,2.323,0,0,1,.934-1.879,3.766,3.766,0,0,1,2.441-.754,4.053,4.053,0,0,1,2.574.758,2.388,2.388,0,0,1,.965,1.969H25.988a1.092,1.092,0,0,0-.312-.8A1.322,1.322,0,0,0,24.7,26a1.351,1.351,0,0,0-.883.258.814.814,0,0,0-.312.656.7.7,0,0,0,.355.605,3.657,3.657,0,0,0,1.2.4,9.8,9.8,0,0,1,1.422.379A2.336,2.336,0,0,1,28.27,30.57a2.2,2.2,0,0,1-.992,1.871,4.28,4.28,0,0,1-2.562.715,4.47,4.47,0,0,1-1.887-.379,3.166,3.166,0,0,1-1.293-1.039,2.414,2.414,0,0,1-.469-1.426h2.141a1.179,1.179,0,0,0,.445.922,1.766,1.766,0,0,0,1.109.32,1.635,1.635,0,0,0,.98-.246A.766.766,0,0,0,26.074,30.664Zm6.352-8.2v2.078h1.445V26.2H32.426v4.219a1.007,1.007,0,0,0,.18.672.9.9,0,0,0,.688.2,3.6,3.6,0,0,0,.664-.055v1.711a4.648,4.648,0,0,1-1.367.2,2.156,2.156,0,0,1-2.422-2.4V26.2H28.934V24.547h1.234V22.469ZM37.512,33H35.246V24.547h2.266Zm-2.4-10.641a1.112,1.112,0,0,1,.34-.836,1.465,1.465,0,0,1,1.848,0,1.193,1.193,0,0,1,0,1.68,1.448,1.448,0,0,1-1.836,0A1.108,1.108,0,0,1,35.113,22.359ZM39.02,28.7a5.013,5.013,0,0,1,.484-2.242A3.546,3.546,0,0,1,40.9,24.93a4.069,4.069,0,0,1,2.113-.539A3.849,3.849,0,0,1,45.8,25.438a4.2,4.2,0,0,1,1.207,2.844l.016.578a4.418,4.418,0,0,1-1.086,3.121,4.209,4.209,0,0,1-5.832,0A4.5,4.5,0,0,1,39.02,28.8Zm2.258.16A3.16,3.16,0,0,0,41.73,30.7a1.628,1.628,0,0,0,2.578.008,3.457,3.457,0,0,0,.461-2.015,3.128,3.128,0,0,0-.461-1.831,1.5,1.5,0,0,0-1.3-.649,1.474,1.474,0,0,0-1.281.646A3.516,3.516,0,0,0,41.277,28.856ZM50.5,24.547l.07.977A2.951,2.951,0,0,1,53,24.391a2.453,2.453,0,0,1,2,.789,3.682,3.682,0,0,1,.672,2.359V33H53.41V27.594a1.465,1.465,0,0,0-.312-1.043,1.4,1.4,0,0,0-1.039-.324,1.553,1.553,0,0,0-1.43.813V33H48.371V24.547ZM62.277,33a2.507,2.507,0,0,1-.227-.758,2.732,2.732,0,0,1-2.133.914,3,3,0,0,1-2.059-.719,2.312,2.312,0,0,1-.816-1.812,2.389,2.389,0,0,1,1-2.062,4.915,4.915,0,0,1,2.879-.727h1.039v-.484a1.393,1.393,0,0,0-.3-.937,1.183,1.183,0,0,0-.949-.352,1.345,1.345,0,0,0-.895.273.929.929,0,0,0-.324.75H57.23a2.268,2.268,0,0,1,.453-1.359,3,3,0,0,1,1.281-.98,4.669,4.669,0,0,1,1.859-.355,3.689,3.689,0,0,1,2.48.785,2.747,2.747,0,0,1,.918,2.207v3.664a4.041,4.041,0,0,0,.336,1.82V33ZM60.41,31.43a1.945,1.945,0,0,0,.922-.223,1.462,1.462,0,0,0,.625-.6V29.156h-.844q-1.7,0-1.8,1.172l-.008.133a.9.9,0,0,0,.3.7A1.153,1.153,0,0,0,60.41,31.43Zm5.2-2.719a5.094,5.094,0,0,1,.887-3.148,2.877,2.877,0,0,1,2.426-1.172,2.589,2.589,0,0,1,2.039.922V21h2.266V33H71.184l-.109-.9A2.657,2.657,0,0,1,68.9,33.156a2.869,2.869,0,0,1-2.395-1.176A5.258,5.258,0,0,1,65.605,28.711Zm2.258.168a3.337,3.337,0,0,0,.414,1.823,1.349,1.349,0,0,0,1.2.634,1.511,1.511,0,0,0,1.477-.884V27.111a1.489,1.489,0,0,0-1.461-.884Q67.863,26.227,67.863,28.879Zm6.758-.184a5.013,5.013,0,0,1,.484-2.242A3.546,3.546,0,0,1,76.5,24.93a4.069,4.069,0,0,1,2.113-.539,3.849,3.849,0,0,1,2.793,1.047,4.2,4.2,0,0,1,1.207,2.844l.016.578a4.418,4.418,0,0,1-1.086,3.121,4.209,4.209,0,0,1-5.832,0,4.5,4.5,0,0,1-1.09-3.187Zm2.258.16a3.16,3.16,0,0,0,.453,1.843,1.628,1.628,0,0,0,2.578.008,3.457,3.457,0,0,0,.461-2.015,3.128,3.128,0,0,0-.461-1.831,1.5,1.5,0,0,0-1.3-.649,1.474,1.474,0,0,0-1.281.646A3.516,3.516,0,0,0,76.879,28.856Zm-49.7,19.16A1.2,1.2,0,0,0,26.711,47a6.148,6.148,0,0,0-1.687-.75,11.963,11.963,0,0,1-1.93-.777,3.153,3.153,0,0,1-1.937-2.82A2.747,2.747,0,0,1,21.676,41a3.389,3.389,0,0,1,1.492-1.129,5.616,5.616,0,0,1,2.184-.406,5.112,5.112,0,0,1,2.172.441A3.458,3.458,0,0,1,29,41.156a3.261,3.261,0,0,1,.527,1.828H27.188A1.534,1.534,0,0,0,26.7,41.77a2.023,2.023,0,0,0-1.383-.434,2.162,2.162,0,0,0-1.336.363,1.146,1.146,0,0,0-.477.957,1.1,1.1,0,0,0,.559.93,6.311,6.311,0,0,0,1.645.7,7.106,7.106,0,0,1,2.914,1.492A2.972,2.972,0,0,1,29.531,48a2.737,2.737,0,0,1-1.117,2.316,4.891,4.891,0,0,1-3.008.84,5.808,5.808,0,0,1-2.391-.48,3.783,3.783,0,0,1-1.645-1.316,3.371,3.371,0,0,1-.566-1.937h2.352q0,1.883,2.25,1.883a2.189,2.189,0,0,0,1.3-.34A1.106,1.106,0,0,0,27.18,48.016ZM40.367,51H38.023l-4.562-7.484V51H31.117V39.625h2.344l4.57,7.5v-7.5h2.336Zm5.109-11.375,2.922,8.25,2.906-8.25h3.078V51H52.031V47.891l.234-5.367L49.2,51H47.586l-3.062-8.469.234,5.359V51H42.414V39.625Zm13.3,7.367V51H56.43V39.625h4.438a5.134,5.134,0,0,1,2.254.469,3.454,3.454,0,0,1,1.5,1.332,3.714,3.714,0,0,1,.523,1.965A3.266,3.266,0,0,1,64,46.027a4.767,4.767,0,0,1-3.168.965Zm0-1.9h2.094a2.059,2.059,0,0,0,1.418-.437,1.591,1.591,0,0,0,.488-1.25,1.876,1.876,0,0,0-.492-1.352,1.839,1.839,0,0,0-1.359-.531H58.773Z" transform="translate(-6541 -5658)" fill="#fff"/>
    <path id="Trazado_806423" data-name="Trazado 806423" d="M4.078-11.375,7-3.125l2.906-8.25h3.078V0H10.633V-3.109l.234-5.367L7.8,0H6.188L3.125-8.469l.234,5.359V0H1.016V-11.375ZM17.523,0H15.18V-11.375h2.344ZM19.7,0V-11.375H23.68a5.232,5.232,0,0,1,3.141.793,2.712,2.712,0,0,1,1.07,2.324,2.57,2.57,0,0,1-.43,1.473,2.482,2.482,0,0,1-1.2.934,2.4,2.4,0,0,1,1.379.883,2.61,2.61,0,0,1,.5,1.625A3,3,0,0,1,27.1-.859,4.713,4.713,0,0,1,24.117,0Zm2.344-4.953v3.07h2.008a1.938,1.938,0,0,0,1.293-.395,1.353,1.353,0,0,0,.465-1.09,1.428,1.428,0,0,0-1.617-1.586Zm0-1.656h1.734q1.773-.031,1.773-1.414A1.307,1.307,0,0,0,25.1-9.137a2.363,2.363,0,0,0-1.418-.34H22.039Z" transform="translate(-6941 -5712)" fill="#12263f"/>
    <path id="Trazado_806424" data-name="Trazado 806424" d="M-43.07-2.344H-47.18L-47.961,0h-2.492l4.234-11.375h2.172L-39.789,0h-2.492Zm-3.477-1.9H-43.7L-45.133-8.5Zm7.344-.047a4.954,4.954,0,0,1,.926-3.133,3,3,0,0,1,2.5-1.187,2.631,2.631,0,0,1,2.164.953l.094-.8h2.047V-.281a3.613,3.613,0,0,1-.5,1.93A3.236,3.236,0,0,1-33.4,2.9a4.985,4.985,0,0,1-2.141.43,4.635,4.635,0,0,1-1.812-.371A3.217,3.217,0,0,1-38.687,2l1-1.375a2.645,2.645,0,0,0,2.047.945,1.936,1.936,0,0,0,1.4-.48,1.8,1.8,0,0,0,.5-1.363V-.727A2.612,2.612,0,0,1-35.8.156a2.992,2.992,0,0,1-2.465-1.191A4.953,4.953,0,0,1-39.2-4.2Zm2.258.168a3.085,3.085,0,0,0,.461,1.8,1.466,1.466,0,0,0,1.266.653,1.568,1.568,0,0,0,1.477-.775V-6A1.564,1.564,0,0,0-35.2-6.773a1.476,1.476,0,0,0-1.277.665A3.477,3.477,0,0,0-36.945-4.121ZM-25.852.156A4.15,4.15,0,0,1-28.879-.984a4.054,4.054,0,0,1-1.168-3.039v-.219a5.106,5.106,0,0,1,.492-2.277A3.612,3.612,0,0,1-28.16-8.066,3.914,3.914,0,0,1-26.1-8.609a3.508,3.508,0,0,1,2.73,1.094,4.444,4.444,0,0,1,1,3.1v.922h-5.383a2.1,2.1,0,0,0,.66,1.328,2,2,0,0,0,1.395.5,2.437,2.437,0,0,0,2.039-.945l1.109,1.242A3.389,3.389,0,0,1-23.93-.246,4.511,4.511,0,0,1-25.852.156Zm-.258-6.945a1.411,1.411,0,0,0-1.09.455,2.357,2.357,0,0,0-.535,1.3h3.141v-.181A1.681,1.681,0,0,0-25-6.377,1.456,1.456,0,0,0-26.109-6.789Zm7.094-1.664.07.977a2.951,2.951,0,0,1,2.43-1.133,2.453,2.453,0,0,1,2,.789,3.682,3.682,0,0,1,.672,2.359V0H-16.1V-5.406a1.465,1.465,0,0,0-.312-1.043,1.4,1.4,0,0,0-1.039-.324,1.553,1.553,0,0,0-1.43.813V0h-2.258V-8.453Zm9.586-2.078v2.078h1.445V-6.8H-9.43v4.219a1.007,1.007,0,0,0,.18.672.9.9,0,0,0,.688.2A3.6,3.6,0,0,0-7.9-1.758V-.047a4.648,4.648,0,0,1-1.367.2,2.156,2.156,0,0,1-2.422-2.4V-6.8h-1.234V-8.453h1.234v-2.078ZM-2.836.156A4.15,4.15,0,0,1-5.863-.984,4.054,4.054,0,0,1-7.031-4.023v-.219A5.106,5.106,0,0,1-6.539-6.52,3.612,3.612,0,0,1-5.145-8.066a3.914,3.914,0,0,1,2.059-.543A3.508,3.508,0,0,1-.355-7.516a4.444,4.444,0,0,1,1,3.1v.922H-4.742a2.1,2.1,0,0,0,.66,1.328,2,2,0,0,0,1.395.5A2.437,2.437,0,0,0-.648-2.609L.461-1.367A3.389,3.389,0,0,1-.914-.246,4.511,4.511,0,0,1-2.836.156Zm-.258-6.945a1.411,1.411,0,0,0-1.09.455,2.357,2.357,0,0,0-.535,1.3h3.141v-.181a1.681,1.681,0,0,0-.406-1.165A1.456,1.456,0,0,0-3.094-6.789Zm15.047,3.8A1.2,1.2,0,0,0,11.484-4,6.148,6.148,0,0,0,9.8-4.754a11.963,11.963,0,0,1-1.93-.777A3.153,3.153,0,0,1,5.93-8.352,2.747,2.747,0,0,1,6.449-10a3.389,3.389,0,0,1,1.492-1.129,5.616,5.616,0,0,1,2.184-.406,5.112,5.112,0,0,1,2.172.441,3.458,3.458,0,0,1,1.48,1.246A3.261,3.261,0,0,1,14.3-8.016H11.961a1.534,1.534,0,0,0-.492-1.215,2.023,2.023,0,0,0-1.383-.434A2.162,2.162,0,0,0,8.75-9.3a1.146,1.146,0,0,0-.477.957,1.1,1.1,0,0,0,.559.93,6.311,6.311,0,0,0,1.645.7,7.106,7.106,0,0,1,2.914,1.492A2.972,2.972,0,0,1,14.3-3,2.737,2.737,0,0,1,13.188-.684a4.891,4.891,0,0,1-3.008.84,5.808,5.808,0,0,1-2.391-.48A3.783,3.783,0,0,1,6.145-1.641a3.371,3.371,0,0,1-.566-1.937H7.93Q7.93-1.7,10.18-1.7a2.189,2.189,0,0,0,1.3-.34A1.106,1.106,0,0,0,11.953-2.984ZM25.141,0H22.8L18.234-7.484V0H15.891V-11.375h2.344l4.57,7.5v-7.5h2.336ZM30.25-11.375l2.922,8.25,2.906-8.25h3.078V0H36.8V-3.109l.234-5.367L33.969,0H32.359L29.3-8.469l.234,5.359V0H27.188V-11.375Zm13.3,7.367V0H41.2V-11.375h4.438a5.134,5.134,0,0,1,2.254.469,3.454,3.454,0,0,1,1.5,1.332,3.714,3.714,0,0,1,.523,1.965A3.266,3.266,0,0,1,48.77-4.973a4.767,4.767,0,0,1-3.168.965Zm0-1.9h2.094a2.059,2.059,0,0,0,1.418-.437,1.591,1.591,0,0,0,.488-1.25,1.876,1.876,0,0,0-.492-1.352A1.839,1.839,0,0,0,45.7-9.477H43.547Z" transform="translate(-6460 -5527)" fill="#12263f"/>
    <path id="Trazado_806425" data-name="Trazado 806425" d="M6.914-2.984A1.2,1.2,0,0,0,6.445-4a6.148,6.148,0,0,0-1.687-.75,11.963,11.963,0,0,1-1.93-.777A3.153,3.153,0,0,1,.891-8.352,2.747,2.747,0,0,1,1.41-10,3.389,3.389,0,0,1,2.9-11.125a5.616,5.616,0,0,1,2.184-.406,5.112,5.112,0,0,1,2.172.441,3.458,3.458,0,0,1,1.48,1.246,3.261,3.261,0,0,1,.527,1.828H6.922A1.534,1.534,0,0,0,6.43-9.23a2.023,2.023,0,0,0-1.383-.434A2.162,2.162,0,0,0,3.711-9.3a1.146,1.146,0,0,0-.477.957,1.1,1.1,0,0,0,.559.93,6.311,6.311,0,0,0,1.645.7A7.106,7.106,0,0,1,8.352-5.219,2.972,2.972,0,0,1,9.266-3,2.737,2.737,0,0,1,8.148-.684a4.891,4.891,0,0,1-3.008.84A5.808,5.808,0,0,1,2.75-.324,3.783,3.783,0,0,1,1.105-1.641,3.371,3.371,0,0,1,.539-3.578H2.891q0,1.883,2.25,1.883a2.189,2.189,0,0,0,1.3-.34A1.106,1.106,0,0,0,6.914-2.984ZM20.1,0H17.758L13.2-7.484V0H10.852V-11.375H13.2l4.57,7.5v-7.5H20.1Zm5.109-11.375,2.922,8.25,2.906-8.25h3.078V0H31.766V-3.109L32-8.477,28.93,0H27.32L24.258-8.469l.234,5.359V0H22.148V-11.375Zm13.3,7.367V0H36.164V-11.375H40.6a5.134,5.134,0,0,1,2.254.469,3.454,3.454,0,0,1,1.5,1.332,3.714,3.714,0,0,1,.523,1.965A3.266,3.266,0,0,1,43.73-4.973a4.767,4.767,0,0,1-3.168.965Zm0-1.9H40.6a2.059,2.059,0,0,0,1.418-.437,1.591,1.591,0,0,0,.488-1.25,1.876,1.876,0,0,0-.492-1.352,1.839,1.839,0,0,0-1.359-.531H38.508ZM53.484-2.758l1.57-5.7h2.359L54.563,0H52.406L49.555-8.453h2.359ZM63.8,0H61.539V-8.7l-2.7.836V-9.7l4.711-1.687H63.8Zm4.375,2.852-1.18-.617.281-.508a4.059,4.059,0,0,0,.539-1.9v-1.75h1.906L69.711-.359a4.059,4.059,0,0,1-.437,1.75A4.486,4.486,0,0,1,68.172,2.852ZM81.523-2.984A1.2,1.2,0,0,0,81.055-4a6.148,6.148,0,0,0-1.687-.75,11.963,11.963,0,0,1-1.93-.777A3.153,3.153,0,0,1,75.5-8.352,2.747,2.747,0,0,1,76.02-10a3.389,3.389,0,0,1,1.492-1.129,5.616,5.616,0,0,1,2.184-.406,5.112,5.112,0,0,1,2.172.441,3.458,3.458,0,0,1,1.48,1.246,3.261,3.261,0,0,1,.527,1.828H81.531a1.534,1.534,0,0,0-.492-1.215,2.023,2.023,0,0,0-1.383-.434A2.162,2.162,0,0,0,78.32-9.3a1.146,1.146,0,0,0-.477.957,1.1,1.1,0,0,0,.559.93,6.311,6.311,0,0,0,1.645.7,7.106,7.106,0,0,1,2.914,1.492A2.972,2.972,0,0,1,83.875-3,2.737,2.737,0,0,1,82.758-.684a4.891,4.891,0,0,1-3.008.84,5.808,5.808,0,0,1-2.391-.48,3.783,3.783,0,0,1-1.645-1.316,3.371,3.371,0,0,1-.566-1.937H77.5Q77.5-1.7,79.75-1.7a2.189,2.189,0,0,0,1.3-.34A1.106,1.106,0,0,0,81.523-2.984ZM94.711,0H92.367L87.8-7.484V0H85.461V-11.375H87.8l4.57,7.5v-7.5h2.336ZM99.82-11.375l2.922,8.25,2.906-8.25h3.078V0h-2.352V-3.109l.234-5.367L103.539,0H101.93L98.867-8.469,99.1-3.109V0H96.758V-11.375Zm13.3,7.367V0h-2.344V-11.375h4.438a5.134,5.134,0,0,1,2.254.469,3.454,3.454,0,0,1,1.5,1.332,3.714,3.714,0,0,1,.523,1.965,3.266,3.266,0,0,1-1.145,2.637,4.767,4.767,0,0,1-3.168.965Zm0-1.9h2.094a2.059,2.059,0,0,0,1.418-.437,1.591,1.591,0,0,0,.488-1.25,1.876,1.876,0,0,0-.492-1.352,1.839,1.839,0,0,0-1.359-.531h-2.148Zm14.977,3.148,1.57-5.7h2.359L129.172,0h-2.156l-2.852-8.453h2.359ZM140.719,0h-7.8V-1.547l3.68-3.922a9.078,9.078,0,0,0,1.121-1.445,2.322,2.322,0,0,0,.363-1.172,1.738,1.738,0,0,0-.383-1.191,1.382,1.382,0,0,0-1.094-.434,1.49,1.49,0,0,0-1.207.527,2.089,2.089,0,0,0-.441,1.387H132.7a3.729,3.729,0,0,1,.5-1.9,3.5,3.5,0,0,1,1.4-1.348,4.262,4.262,0,0,1,2.055-.488,4.036,4.036,0,0,1,2.73.844,2.985,2.985,0,0,1,.973,2.383,3.825,3.825,0,0,1-.437,1.719,9.552,9.552,0,0,1-1.5,2.039L135.828-1.82h4.891Z" transform="translate(-6741 -5585)" fill="#12263f"/>
    <path id="Trazado_806426" data-name="Trazado 806426" d="M10.016-1.437A4.068,4.068,0,0,1,8.227-.262,7.492,7.492,0,0,1,5.664.156a5.076,5.076,0,0,1-2.59-.645A4.3,4.3,0,0,1,1.355-2.359,6.585,6.585,0,0,1,.734-5.242v-.773a6.994,6.994,0,0,1,.574-2.949,4.248,4.248,0,0,1,1.656-1.906,4.771,4.771,0,0,1,2.535-.66,4.751,4.751,0,0,1,3.164.965,4.123,4.123,0,0,1,1.352,2.809H7.734a2.268,2.268,0,0,0-.691-1.43A2.208,2.208,0,0,0,5.57-9.641a2.078,2.078,0,0,0-1.82.9A4.724,4.724,0,0,0,3.117-6.07v.727a4.5,4.5,0,0,0,.68,2.7,2.327,2.327,0,0,0,1.992.914,2.6,2.6,0,0,0,1.883-.562V-4.25H5.539V-5.977h4.477ZM15.656.156A4.15,4.15,0,0,1,12.629-.984a4.054,4.054,0,0,1-1.168-3.039v-.219a5.106,5.106,0,0,1,.492-2.277,3.612,3.612,0,0,1,1.395-1.547,3.914,3.914,0,0,1,2.059-.543,3.508,3.508,0,0,1,2.73,1.094,4.444,4.444,0,0,1,1,3.1v.922H13.75a2.1,2.1,0,0,0,.66,1.328,2,2,0,0,0,1.395.5,2.437,2.437,0,0,0,2.039-.945l1.109,1.242A3.389,3.389,0,0,1,17.578-.246,4.511,4.511,0,0,1,15.656.156ZM15.4-6.789a1.411,1.411,0,0,0-1.09.455,2.357,2.357,0,0,0-.535,1.3h3.141v-.181a1.681,1.681,0,0,0-.406-1.165A1.456,1.456,0,0,0,15.4-6.789Zm7.719-3.742v2.078h1.445V-6.8H23.117v4.219a1.007,1.007,0,0,0,.18.672.9.9,0,0,0,.688.2,3.6,3.6,0,0,0,.664-.055V-.047a4.648,4.648,0,0,1-1.367.2,2.156,2.156,0,0,1-2.422-2.4V-6.8H19.625V-8.453h1.234v-2.078ZM30.18-4.164H28.313V0H25.969V-11.375H30.2a4.778,4.778,0,0,1,3.109.9A3.1,3.1,0,0,1,34.4-7.937,3.5,3.5,0,0,1,33.895-6a3.437,3.437,0,0,1-1.527,1.238L34.828-.109V0H32.313Zm-1.867-1.9H30.2a1.936,1.936,0,0,0,1.367-.449,1.606,1.606,0,0,0,.484-1.238A1.719,1.719,0,0,0,31.6-9.016a1.9,1.9,0,0,0-1.4-.461H28.313ZM39.922.156A4.15,4.15,0,0,1,36.895-.984a4.054,4.054,0,0,1-1.168-3.039v-.219a5.106,5.106,0,0,1,.492-2.277,3.612,3.612,0,0,1,1.395-1.547,3.914,3.914,0,0,1,2.059-.543A3.508,3.508,0,0,1,42.4-7.516a4.444,4.444,0,0,1,1,3.1v.922H38.016a2.1,2.1,0,0,0,.66,1.328,2,2,0,0,0,1.395.5,2.437,2.437,0,0,0,2.039-.945l1.109,1.242A3.389,3.389,0,0,1,41.844-.246,4.511,4.511,0,0,1,39.922.156Zm-.258-6.945a1.411,1.411,0,0,0-1.09.455,2.357,2.357,0,0,0-.535,1.3H41.18v-.181a1.681,1.681,0,0,0-.406-1.165A1.456,1.456,0,0,0,39.664-6.789Zm9.594,4.453a.727.727,0,0,0-.41-.652,4.659,4.659,0,0,0-1.316-.426q-3.016-.633-3.016-2.562a2.323,2.323,0,0,1,.934-1.879,3.766,3.766,0,0,1,2.441-.754,4.053,4.053,0,0,1,2.574.758,2.388,2.388,0,0,1,.965,1.969H49.172a1.092,1.092,0,0,0-.312-.8A1.322,1.322,0,0,0,47.883-7,1.351,1.351,0,0,0,47-6.742a.814.814,0,0,0-.312.656.7.7,0,0,0,.355.605,3.657,3.657,0,0,0,1.2.4,9.8,9.8,0,0,1,1.422.379A2.336,2.336,0,0,1,51.453-2.43a2.2,2.2,0,0,1-.992,1.871A4.28,4.28,0,0,1,47.9.156a4.47,4.47,0,0,1-1.887-.379,3.166,3.166,0,0,1-1.293-1.039,2.414,2.414,0,0,1-.469-1.426h2.141a1.179,1.179,0,0,0,.445.922,1.766,1.766,0,0,0,1.109.32,1.635,1.635,0,0,0,.98-.246A.766.766,0,0,0,49.258-2.336ZM60.516-4.148a5.07,5.07,0,0,1-.887,3.129A2.843,2.843,0,0,1,57.234.156a2.633,2.633,0,0,1-2.07-.891V3.25H52.906v-11.7H55l.078.828a2.654,2.654,0,0,1,2.141-.984,2.862,2.862,0,0,1,2.43,1.156,5.207,5.207,0,0,1,.867,3.188Zm-2.258-.164a3.327,3.327,0,0,0-.418-1.82,1.361,1.361,0,0,0-1.215-.641,1.479,1.479,0,0,0-1.461.813V-2.5a1.5,1.5,0,0,0,1.477.836Q58.258-1.664,58.258-4.312Zm3.3.008a5.013,5.013,0,0,1,.484-2.242A3.546,3.546,0,0,1,63.441-8.07a4.069,4.069,0,0,1,2.113-.539,3.849,3.849,0,0,1,2.793,1.047,4.2,4.2,0,0,1,1.207,2.844l.016.578A4.418,4.418,0,0,1,68.484-1.02,3.775,3.775,0,0,1,65.57.156a3.793,3.793,0,0,1-2.918-1.172A4.5,4.5,0,0,1,61.563-4.2Zm2.258.16A3.16,3.16,0,0,0,64.273-2.3a1.5,1.5,0,0,0,1.3.638,1.5,1.5,0,0,0,1.281-.63,3.457,3.457,0,0,0,.461-2.015,3.128,3.128,0,0,0-.461-1.831,1.5,1.5,0,0,0-1.3-.649,1.474,1.474,0,0,0-1.281.646A3.516,3.516,0,0,0,63.82-4.144Zm9.219-4.309.07.977a2.951,2.951,0,0,1,2.43-1.133,2.453,2.453,0,0,1,2,.789,3.682,3.682,0,0,1,.672,2.359V0H75.953V-5.406a1.465,1.465,0,0,0-.312-1.043A1.4,1.4,0,0,0,74.6-6.773a1.553,1.553,0,0,0-1.43.813V0H70.914V-8.453ZM84.5-2.336a.727.727,0,0,0-.41-.652,4.659,4.659,0,0,0-1.316-.426q-3.016-.633-3.016-2.562a2.323,2.323,0,0,1,.934-1.879,3.766,3.766,0,0,1,2.441-.754,4.053,4.053,0,0,1,2.574.758,2.388,2.388,0,0,1,.965,1.969H84.414a1.092,1.092,0,0,0-.312-.8A1.322,1.322,0,0,0,83.125-7a1.351,1.351,0,0,0-.883.258.814.814,0,0,0-.312.656.7.7,0,0,0,.355.605,3.657,3.657,0,0,0,1.2.4,9.8,9.8,0,0,1,1.422.379A2.336,2.336,0,0,1,86.7-2.43,2.2,2.2,0,0,1,85.7-.559a4.28,4.28,0,0,1-2.562.715,4.47,4.47,0,0,1-1.887-.379,3.166,3.166,0,0,1-1.293-1.039,2.414,2.414,0,0,1-.469-1.426h2.141a1.179,1.179,0,0,0,.445.922,1.766,1.766,0,0,0,1.109.32,1.635,1.635,0,0,0,.98-.246A.766.766,0,0,0,84.5-2.336ZM92.039.156A4.15,4.15,0,0,1,89.012-.984a4.054,4.054,0,0,1-1.168-3.039v-.219a5.106,5.106,0,0,1,.492-2.277A3.612,3.612,0,0,1,89.73-8.066a3.914,3.914,0,0,1,2.059-.543,3.508,3.508,0,0,1,2.73,1.094,4.444,4.444,0,0,1,1,3.1v.922H90.133a2.1,2.1,0,0,0,.66,1.328,2,2,0,0,0,1.395.5,2.437,2.437,0,0,0,2.039-.945l1.109,1.242A3.389,3.389,0,0,1,93.961-.246,4.511,4.511,0,0,1,92.039.156Zm-.258-6.945a1.411,1.411,0,0,0-1.09.455,2.357,2.357,0,0,0-.535,1.3H93.3v-.181a1.681,1.681,0,0,0-.406-1.165A1.456,1.456,0,0,0,91.781-6.789Z" transform="translate(-6718 -5494)" fill="#f9305f"/>
    <path id="Trazado_806427" data-name="Trazado 806427" d="M4.078-11.375,7-3.125l2.906-8.25h3.078V0H10.633V-3.109l.234-5.367L7.8,0H6.188L3.125-8.469l.234,5.359V0H1.016V-11.375ZM17.523,0H15.18V-11.375h2.344ZM19.7,0V-11.375H23.68a5.232,5.232,0,0,1,3.141.793,2.712,2.712,0,0,1,1.07,2.324,2.57,2.57,0,0,1-.43,1.473,2.482,2.482,0,0,1-1.2.934,2.4,2.4,0,0,1,1.379.883,2.61,2.61,0,0,1,.5,1.625A3,3,0,0,1,27.1-.859,4.713,4.713,0,0,1,24.117,0Zm2.344-4.953v3.07h2.008a1.938,1.938,0,0,0,1.293-.395,1.353,1.353,0,0,0,.465-1.09,1.428,1.428,0,0,0-1.617-1.586Zm0-1.656h1.734q1.773-.031,1.773-1.414A1.307,1.307,0,0,0,25.1-9.137a2.363,2.363,0,0,0-1.418-.34H22.039Z" transform="translate(-6424 -5709)" fill="#12263f"/>
    <path id="Trazado_806235" data-name="Trazado 806235" d="M171.5,323.625A3.629,3.629,0,0,0,167.875,320h-36.25A3.629,3.629,0,0,0,128,323.625v4.833a3.6,3.6,0,0,0,.943,2.417,3.6,3.6,0,0,0-.943,2.417v4.833a3.629,3.629,0,0,0,3.625,3.625h36.25a3.629,3.629,0,0,0,3.625-3.625v-4.833a3.6,3.6,0,0,0-.943-2.417,3.6,3.6,0,0,0,.943-2.417Zm-2.417,14.5a1.209,1.209,0,0,1-1.208,1.208h-36.25a1.209,1.209,0,0,1-1.208-1.208v-4.833a1.209,1.209,0,0,1,1.208-1.208h36.25a1.209,1.209,0,0,1,1.208,1.208Zm0-9.667a1.209,1.209,0,0,1-1.208,1.208h-36.25a1.209,1.209,0,0,1-1.208-1.208v-4.833a1.209,1.209,0,0,1,1.208-1.208h36.25a1.209,1.209,0,0,1,1.208,1.208Z" transform="translate(-7066.5 -5987.75)"/>
    <path id="Trazado_806236" data-name="Trazado 806236" d="M11.283,53.86c-5.469-1.629-8.867-4.21-8.867-6.735V39.863a20.456,20.456,0,0,0,8.11,4.207,1.249,1.249,0,0,0,.348.051,1.209,1.209,0,0,0,.348-2.366c-5.433-1.629-8.806-4.2-8.806-6.714V27.748c3.874,3.63,12.047,6.085,21.75,6.085s17.876-2.455,21.75-6.085v4.877a1.208,1.208,0,0,0,2.417,0V10.875C48.333,4.778,37.717,0,24.167,0S0,4.778,0,10.875v36.25c0,3.748,3.862,7.045,10.595,9.05a1.232,1.232,0,0,0,.346.051,1.208,1.208,0,0,0,.343-2.366ZM24.167,2.417c12.818,0,21.75,4.459,21.75,8.458s-8.932,8.458-21.75,8.458-21.75-4.459-21.75-8.458S11.349,2.417,24.167,2.417ZM2.417,15.665c3.874,3.63,12.047,6.085,21.75,6.085s17.876-2.455,21.75-6.085v7.294c0,4-8.932,8.458-21.75,8.458s-21.75-4.459-21.75-8.458V15.665Z" transform="translate(-6953 -5704)"/>
    <path id="Trazado_806237" data-name="Trazado 806237" d="M373.542,448h-9.667a1.208,1.208,0,0,0,0,2.417h9.667a1.208,1.208,0,0,0,0-2.417Z" transform="translate(-7274.583 -6101.25)"/>
    <path id="Trazado_806238" data-name="Trazado 806238" d="M171.874,362.667a1.208,1.208,0,1,0,1.208,1.208A1.209,1.209,0,0,0,171.874,362.667Z" transform="translate(-7104.333 -6025.583)"/>
    <path id="Trazado_806239" data-name="Trazado 806239" d="M171.874,448a1.208,1.208,0,1,0,1.208,1.208A1.209,1.209,0,0,0,171.874,448Z" transform="translate(-7104.333 -6101.25)"/>
    <path id="Trazado_806240" data-name="Trazado 806240" d="M373.542,362.667h-9.667a1.208,1.208,0,0,0,0,2.417h9.667a1.208,1.208,0,0,0,0-2.417Z" transform="translate(-7274.583 -6025.583)"/>
    <path id="Trazado_806235-2" data-name="Trazado 806235" d="M171.5,323.625A3.629,3.629,0,0,0,167.875,320h-36.25A3.629,3.629,0,0,0,128,323.625v4.833a3.6,3.6,0,0,0,.943,2.417,3.6,3.6,0,0,0-.943,2.417v4.833a3.629,3.629,0,0,0,3.625,3.625h36.25a3.629,3.629,0,0,0,3.625-3.625v-4.833a3.6,3.6,0,0,0-.943-2.417,3.6,3.6,0,0,0,.943-2.417Zm-2.417,14.5a1.209,1.209,0,0,1-1.208,1.208h-36.25a1.209,1.209,0,0,1-1.208-1.208v-4.833a1.209,1.209,0,0,1,1.208-1.208h36.25a1.209,1.209,0,0,1,1.208,1.208Zm0-9.667a1.209,1.209,0,0,1-1.208,1.208h-36.25a1.209,1.209,0,0,1-1.208-1.208v-4.833a1.209,1.209,0,0,1,1.208-1.208h36.25a1.209,1.209,0,0,1,1.208,1.208Z" transform="translate(-6551.5 -5983.75)"/>
    <path id="Trazado_806236-2" data-name="Trazado 806236" d="M11.283,53.86c-5.469-1.629-8.867-4.21-8.867-6.735V39.863a20.456,20.456,0,0,0,8.11,4.207,1.249,1.249,0,0,0,.348.051,1.209,1.209,0,0,0,.348-2.366c-5.433-1.629-8.806-4.2-8.806-6.714V27.748c3.874,3.63,12.047,6.085,21.75,6.085s17.876-2.455,21.75-6.085v4.877a1.208,1.208,0,0,0,2.417,0V10.875C48.333,4.778,37.717,0,24.167,0S0,4.778,0,10.875v36.25c0,3.748,3.862,7.045,10.595,9.05a1.232,1.232,0,0,0,.346.051,1.208,1.208,0,0,0,.343-2.366ZM24.167,2.417c12.818,0,21.75,4.459,21.75,8.458s-8.932,8.458-21.75,8.458-21.75-4.459-21.75-8.458S11.349,2.417,24.167,2.417ZM2.417,15.665c3.874,3.63,12.047,6.085,21.75,6.085s17.876-2.455,21.75-6.085v7.294c0,4-8.932,8.458-21.75,8.458s-21.75-4.459-21.75-8.458V15.665Z" transform="translate(-6438 -5700)"/>
    <path id="Trazado_806237-2" data-name="Trazado 806237" d="M373.542,448h-9.667a1.208,1.208,0,0,0,0,2.417h9.667a1.208,1.208,0,0,0,0-2.417Z" transform="translate(-6759.583 -6097.25)"/>
    <path id="Trazado_806238-2" data-name="Trazado 806238" d="M171.874,362.667a1.208,1.208,0,1,0,1.208,1.208A1.209,1.209,0,0,0,171.874,362.667Z" transform="translate(-6589.333 -6021.583)"/>
    <path id="Trazado_806239-2" data-name="Trazado 806239" d="M171.874,448a1.208,1.208,0,1,0,1.208,1.208A1.209,1.209,0,0,0,171.874,448Z" transform="translate(-6589.333 -6097.25)"/>
    <path id="Trazado_806240-2" data-name="Trazado 806240" d="M373.542,362.667h-9.667a1.208,1.208,0,0,0,0,2.417h9.667a1.208,1.208,0,0,0,0-2.417Z" transform="translate(-6759.583 -6021.583)"/>
    <path id="rect1555" d="M45.684,3.472V27.035a1.957,1.957,0,0,0-1.96,1.96l0,8.841H4.458A3.919,3.919,0,0,0,.529,41.765v9.811A3.924,3.924,0,0,0,4.458,55.5h.978v2.941a.982.982,0,0,0,.986.986h6.87a.985.985,0,0,0,.982-.986V55.5H45.684v2.941a.982.982,0,0,0,.987.986h6.868a.982.982,0,0,0,.987-.986V55.5H55.5a3.917,3.917,0,0,0,3.927-3.929V41.765A3.917,3.917,0,0,0,55.5,37.836H53.539V28.995a1.961,1.961,0,0,0-1.961-1.96l0-23.563a2.946,2.946,0,0,0-5.892,0Zm2.951-.978a.969.969,0,0,1,.978.978l0,23.563H47.651l0-23.563a.975.975,0,0,1,.986-.978ZM20.711,11.631A25.222,25.222,0,0,0,2.776,19.155c-.957.894.515,2.351,1.4,1.377a23.194,23.194,0,0,1,33.083,0c.889.981,2.347-.49,1.4-1.377a25.236,25.236,0,0,0-17.943-7.524Zm0,6.176a19.147,19.147,0,0,0-13.623,5.71c-1.015.863.564,2.368,1.39,1.377a17.148,17.148,0,0,1,24.466,0,.982.982,0,0,0,1.4-1.377,19.173,19.173,0,0,0-13.633-5.71Zm0,6.166a13.081,13.081,0,0,0-9.311,3.9c-.953.879.5,2.359,1.39,1.384a11.12,11.12,0,0,1,15.849,0,.984.984,0,1,0,1.4-1.384,13.113,13.113,0,0,0-9.326-3.9ZM45.687,29h5.888v8.837H45.684ZM20.711,30.139a7.033,7.033,0,0,0-5.006,2.1.984.984,0,1,0,1.4,1.384,5.065,5.065,0,0,1,7.225,0,.982.982,0,1,0,1.392-1.384A7.045,7.045,0,0,0,20.711,30.139ZM4.458,39.8H55.5a1.947,1.947,0,0,1,1.963,1.963v9.811A1.955,1.955,0,0,1,55.5,53.539H4.458a1.947,1.947,0,0,1-1.963-1.963V41.765A1.947,1.947,0,0,1,4.458,39.8Zm4.9,1.963a2.942,2.942,0,1,0,2.951,2.941A2.939,2.939,0,0,0,9.361,41.765Zm7.863,0a2.942,2.942,0,1,0,2.941,2.941A2.937,2.937,0,0,0,17.224,41.765Zm7.852,0a2.942,2.942,0,1,0,2.941,2.941A2.944,2.944,0,0,0,25.075,41.765ZM9.361,43.72a1,1,0,0,1,.987.986.983.983,0,1,1-.987-.986Zm7.863,0a.982.982,0,1,1-.987.986A.984.984,0,0,1,17.224,43.72Zm7.852,0a.991.991,0,0,1,.978.986.983.983,0,0,1-1.965,0A1,1,0,0,1,25.075,43.72Zm5.883,0a.982.982,0,0,0,0,1.963H39.8a.982.982,0,0,0,0-1.963Zm13.255,0a.982.982,0,0,0,0,1.963h2.458a.982.982,0,0,0,0-1.963ZM7.4,55.5h4.91v1.963H7.4Zm40.252,0h4.909v1.963H47.651Z" transform="translate(-6528.48 -5726.431)"/>
    <path id="Trazado_806428" data-name="Trazado 806428" d="M0,0H61V4H0Z" transform="translate(-6785 -5679)" fill="#1e5af9"/>
    <path id="Trazado_806429" data-name="Trazado 806429" d="M0,0H60V4H0Z" transform="translate(-6615 -5679)" fill="#1e5af9"/>
    <path id="Trazado_806430" data-name="Trazado 806430" d="M0,0H85V4H0Z" transform="translate(-6660.723 -5567)" fill="#1e5af9"/>
    <path id="Trazado_806431" data-name="Trazado 806431" d="M0,0H85V4H0Z" transform="translate(-6765.723 -5567)" fill="#1e5af9"/>
    <path id="Trazado_806432" data-name="Trazado 806432" d="M2,0H17a2,2,0,0,1,0,4H2A2,2,0,0,1,2,0Z" transform="translate(-6779.001 -5554.565) rotate(-45)" fill="#1e5af9"/>
    <path id="Trazado_806433" data-name="Trazado 806433" d="M2,0H16a2,2,0,0,1,0,4H2A2,2,0,0,1,2,0Z" transform="translate(-6660.98 -5562) rotate(-135)" fill="#1e5af9"/>
    <path id="Trazado_806434" data-name="Trazado 806434" d="M2,0H16a2,2,0,0,1,0,4H2A2,2,0,0,1,2,0Z" transform="translate(-6683.708 -5564.829) rotate(-45)" fill="#1e5af9"/>
    <path id="Trazado_806435" data-name="Trazado 806435" d="M2,0H17a2,2,0,0,1,0,4H2A2,2,0,0,1,2,0Z" transform="translate(-6564.98 -5551.736) rotate(-135)" fill="#1e5af9"/>
    <path id="Trazado_806436" data-name="Trazado 806436" d="M5.227-4.164H3.359V0H1.016V-11.375H5.242a4.778,4.778,0,0,1,3.109.9A3.1,3.1,0,0,1,9.445-7.937,3.5,3.5,0,0,1,8.941-6,3.437,3.437,0,0,1,7.414-4.758L9.875-.109V0H7.359Zm-1.867-1.9H5.25a1.936,1.936,0,0,0,1.367-.449A1.606,1.606,0,0,0,7.1-7.75a1.719,1.719,0,0,0-.457-1.266,1.9,1.9,0,0,0-1.4-.461H3.359ZM14.969.156A4.15,4.15,0,0,1,11.941-.984a4.054,4.054,0,0,1-1.168-3.039v-.219a5.106,5.106,0,0,1,.492-2.277A3.612,3.612,0,0,1,12.66-8.066a3.914,3.914,0,0,1,2.059-.543,3.508,3.508,0,0,1,2.73,1.094,4.444,4.444,0,0,1,1,3.1v.922H13.063a2.1,2.1,0,0,0,.66,1.328,2,2,0,0,0,1.395.5,2.437,2.437,0,0,0,2.039-.945l1.109,1.242A3.389,3.389,0,0,1,16.891-.246,4.511,4.511,0,0,1,14.969.156Zm-.258-6.945a1.411,1.411,0,0,0-1.09.455,2.357,2.357,0,0,0-.535,1.3h3.141v-.181a1.681,1.681,0,0,0-.406-1.165A1.456,1.456,0,0,0,14.711-6.789Zm4.664,2.5a5.094,5.094,0,0,1,.887-3.148,2.877,2.877,0,0,1,2.426-1.172,2.589,2.589,0,0,1,2.039.922V-12h2.266V0H24.953l-.109-.9A2.657,2.657,0,0,1,22.672.156,2.869,2.869,0,0,1,20.277-1.02,5.258,5.258,0,0,1,19.375-4.289Zm2.258.168A3.337,3.337,0,0,0,22.047-2.3a1.349,1.349,0,0,0,1.2.634,1.511,1.511,0,0,0,1.477-.884V-5.889a1.489,1.489,0,0,0-1.461-.884Q21.633-6.773,21.633-4.121ZM35.367,0H33.023V-11.375h2.344Zm4.516-4.008V0H37.539V-11.375h4.438a5.134,5.134,0,0,1,2.254.469,3.454,3.454,0,0,1,1.5,1.332,3.714,3.714,0,0,1,.523,1.965,3.266,3.266,0,0,1-1.145,2.637,4.767,4.767,0,0,1-3.168.965Zm0-1.9h2.094a2.059,2.059,0,0,0,1.418-.437,1.591,1.591,0,0,0,.488-1.25,1.876,1.876,0,0,0-.492-1.352,1.839,1.839,0,0,0-1.359-.531H39.883Z" transform="translate(-6694 -5687)" fill="#12263f"/>
    <path id="Trazado_806241" data-name="Trazado 806241" d="M175.456,24.534a38.225,38.225,0,0,0-64.676-11.228,1.687,1.687,0,0,0,2.557,2.2,34.851,34.851,0,0,1,59.207,10.875,2.31,2.31,0,0,0,2.171,1.515h0a22.663,22.663,0,0,1,16.427,38.236,1.687,1.687,0,1,0,2.451,2.319,26.038,26.038,0,0,0-18.14-43.918Z" transform="translate(-6813.544 -5737)"/>
    <path id="Trazado_806242" data-name="Trazado 806242" d="M235.873,439.8v-3.61a1.687,1.687,0,0,0-3.374,0v3.61a6.186,6.186,0,1,0,3.374,0Zm-1.687,8.762A2.812,2.812,0,1,1,237,445.747,2.815,2.815,0,0,1,234.186,448.559Z" transform="translate(-6904.712 -6073.76)"/>
    <path id="Trazado_806243" data-name="Trazado 806243" d="M129.333,386.5a1.687,1.687,0,0,0-1.687,1.687v9.11a1.464,1.464,0,0,1-1.462,1.462h-3.048a6.186,6.186,0,1,0,0,3.374h3.048a4.842,4.842,0,0,0,4.836-4.836v-9.11A1.687,1.687,0,0,0,129.333,386.5Zm-12.147,16.759A2.812,2.812,0,1,1,120,400.447,2.815,2.815,0,0,1,117.186,403.259Z" transform="translate(-6814.031 -6036.558)"/>
    <path id="Trazado_806244" data-name="Trazado 806244" d="M97.74,148.273a6.2,6.2,0,0,0-5.95,4.5H88.742a1.464,1.464,0,0,1-1.462-1.462v-8.663c2.733,0,4.32-.007,4.416-.017a25.737,25.737,0,0,0,9.591-2.871,1.687,1.687,0,1,0-1.575-2.984,22.382,22.382,0,0,1-8.287,2.491c-.376.007-2.493.009-5.83.009h0c-13.389,0-46.424-.049-65.649-.081a16.2,16.2,0,0,1-8.789-2.51,16.979,16.979,0,0,1,6.31-31,2.3,2.3,0,0,0,1.9-2.2,34.548,34.548,0,0,1,4.17-15.621,1.687,1.687,0,0,0-2.968-1.6,37.847,37.847,0,0,0-4.542,16.267,20.355,20.355,0,0,0-6.7,37,19.566,19.566,0,0,0,10.613,3.05l7.733.013v8.729a1.464,1.464,0,0,1-1.462,1.462H23.159a6.186,6.186,0,1,0,0,3.374h3.048a4.842,4.842,0,0,0,4.836-4.836v-8.723l10.573.016v4.321a1.687,1.687,0,0,0,3.374,0v-4.316l10.8.015v15.1a1.687,1.687,0,0,0,3.374,0V142.627l10.8.012v21.268a4.842,4.842,0,0,0,4.836,4.836h3.048a6.186,6.186,0,1,0,0-3.374H74.8a1.464,1.464,0,0,1-1.462-1.462V142.642c4.09,0,7.677.005,10.57.005h0v8.662a4.842,4.842,0,0,0,4.836,4.836H91.79a6.186,6.186,0,1,0,5.95-7.873Zm-80.531,9a2.812,2.812,0,1,1,2.812-2.812A2.815,2.815,0,0,1,17.208,157.271Zm66.585,6.973a2.812,2.812,0,1,1-2.812,2.812A2.815,2.815,0,0,1,83.793,164.245Zm13.947-6.973a2.812,2.812,0,1,1,2.812-2.812A2.815,2.815,0,0,1,97.74,157.271Z" transform="translate(-6728 -5803.167)"/>
    <path id="Trazado_806437" data-name="Trazado 806437" d="M4,0H186a4,4,0,0,1,4,4V66a4,4,0,0,1-4,4H4a4,4,0,0,1-4-4V4A4,4,0,0,1,4,0Z" transform="translate(-6975 -5550)" fill="#01c3fd"/>
    <path id="Trazado_806438" data-name="Trazado 806438" d="M4,0H292a4,4,0,0,1,4,4V87a4,4,0,0,1-4,4H4a4,4,0,0,1-4-4V4A4,4,0,0,1,4,0Z" transform="translate(-6818 -5434)" fill="#d9f6ff"/>
    <path id="Trazado_806439" data-name="Trazado 806439" d="M42.629,9.742H37.7v4.031h5.727V15H36.2V3.625h7.148V4.852H37.7V8.516h4.93Zm3.8-3.2.047,1.063a3.08,3.08,0,0,1,2.531-1.219q2.68,0,2.7,3.023V15H50.27V9.406a1.946,1.946,0,0,0-.418-1.352,1.675,1.675,0,0,0-1.277-.437,2.086,2.086,0,0,0-1.234.375,2.546,2.546,0,0,0-.828.984V15H45.066V6.547ZM55.855,4.5V6.547h1.578V7.664H55.855v5.249a1.173,1.173,0,0,0,.211.763.888.888,0,0,0,.719.254,3.5,3.5,0,0,0,.688-.094V15a4.215,4.215,0,0,1-1.109.155A1.8,1.8,0,0,1,54.9,14.57a2.517,2.517,0,0,1-.492-1.664V7.664H52.871V6.547H54.41V4.5ZM60.691,15H59.246V6.547h1.445ZM59.129,4.3a.863.863,0,0,1,.215-.594.807.807,0,0,1,.637-.242.819.819,0,0,1,.641.242.854.854,0,0,1,.219.594.826.826,0,0,1-.219.586.834.834,0,0,1-.641.234.821.821,0,0,1-.637-.234A.834.834,0,0,1,59.129,4.3Zm3.523,6.4a4.952,4.952,0,0,1,.922-3.129,3.137,3.137,0,0,1,4.766-.168V3h1.445V15H68.457l-.07-.906a2.943,2.943,0,0,1-2.414,1.063,2.887,2.887,0,0,1-2.395-1.2,5.008,5.008,0,0,1-.926-3.141Zm1.445.164a3.749,3.749,0,0,0,.594,2.25,1.92,1.92,0,0,0,1.641.813A2.108,2.108,0,0,0,68.34,12.7V8.813a2.125,2.125,0,0,0-1.992-1.2,1.929,1.929,0,0,0-1.656.82A4.128,4.128,0,0,0,64.1,10.867ZM77.246,15a3.036,3.036,0,0,1-.2-.891,3.225,3.225,0,0,1-2.406,1.047,2.984,2.984,0,0,1-2.051-.707,2.288,2.288,0,0,1-.8-1.793,2.39,2.39,0,0,1,1-2.051,4.733,4.733,0,0,1,2.824-.73H77.02V9.211A1.623,1.623,0,0,0,76.566,8a1.821,1.821,0,0,0-1.336-.449,2.108,2.108,0,0,0-1.3.391,1.151,1.151,0,0,0-.523.945H71.957a2,2,0,0,1,.449-1.223,3.066,3.066,0,0,1,1.219-.934,4.1,4.1,0,0,1,1.691-.344,3.342,3.342,0,0,1,2.289.73,2.635,2.635,0,0,1,.859,2.012v3.891a4.757,4.757,0,0,0,.3,1.852V15Zm-2.4-1.1a2.54,2.54,0,0,0,1.289-.352,2.127,2.127,0,0,0,.883-.914V10.9H75.887q-2.656,0-2.656,1.555a1.316,1.316,0,0,0,.453,1.063A1.742,1.742,0,0,0,74.848,13.9Zm5.531-3.2A4.952,4.952,0,0,1,81.3,7.574a3.137,3.137,0,0,1,4.766-.168V3h1.445V15H86.184l-.07-.906A2.943,2.943,0,0,1,83.7,15.156a2.887,2.887,0,0,1-2.395-1.2,5.008,5.008,0,0,1-.926-3.141Zm1.445.164a3.749,3.749,0,0,0,.594,2.25,1.92,1.92,0,0,0,1.641.813A2.108,2.108,0,0,0,86.066,12.7V8.813a2.125,2.125,0,0,0-1.992-1.2,1.929,1.929,0,0,0-1.656.82A4.128,4.128,0,0,0,81.824,10.867ZM93.363,10.7a4.952,4.952,0,0,1,.922-3.129,3.137,3.137,0,0,1,4.766-.168V3H100.5V15H99.168l-.07-.906a2.943,2.943,0,0,1-2.414,1.063,2.887,2.887,0,0,1-2.395-1.2,5.008,5.008,0,0,1-.926-3.141Zm1.445.164a3.749,3.749,0,0,0,.594,2.25,1.92,1.92,0,0,0,1.641.813A2.108,2.108,0,0,0,99.051,12.7V8.813a2.125,2.125,0,0,0-1.992-1.2,1.929,1.929,0,0,0-1.656.82A4.128,4.128,0,0,0,94.809,10.867Zm11.438,4.289a3.693,3.693,0,0,1-2.8-1.129,4.19,4.19,0,0,1-1.078-3.02v-.266a5.073,5.073,0,0,1,.48-2.246A3.748,3.748,0,0,1,104.2,6.949a3.378,3.378,0,0,1,1.871-.559,3.166,3.166,0,0,1,2.563,1.086,4.7,4.7,0,0,1,.914,3.109v.6h-5.727a3,3,0,0,0,.73,2.02,2.3,2.3,0,0,0,1.777.77,2.517,2.517,0,0,0,1.3-.312,3.259,3.259,0,0,0,.93-.828l.883.688A3.55,3.55,0,0,1,106.246,15.156Zm-.18-7.578a1.928,1.928,0,0,0-1.469.637A3.1,3.1,0,0,0,103.863,10H108.1V9.891a2.753,2.753,0,0,0-.594-1.707A1.815,1.815,0,0,0,106.066,7.578ZM25.895,33a3.036,3.036,0,0,1-.2-.891,3.225,3.225,0,0,1-2.406,1.047,2.984,2.984,0,0,1-2.051-.707,2.287,2.287,0,0,1-.8-1.793,2.39,2.39,0,0,1,1-2.051,4.733,4.733,0,0,1,2.824-.73h1.406v-.664A1.623,1.623,0,0,0,25.215,26a1.821,1.821,0,0,0-1.336-.449,2.108,2.108,0,0,0-1.3.391,1.151,1.151,0,0,0-.523.945H20.605a2,2,0,0,1,.449-1.223,3.066,3.066,0,0,1,1.219-.934,4.1,4.1,0,0,1,1.691-.344,3.342,3.342,0,0,1,2.289.73,2.635,2.635,0,0,1,.859,2.012v3.891a4.757,4.757,0,0,0,.3,1.852V33Zm-2.4-1.1a2.54,2.54,0,0,0,1.289-.352,2.127,2.127,0,0,0,.883-.914V28.9H24.535q-2.656,0-2.656,1.555a1.316,1.316,0,0,0,.453,1.063A1.742,1.742,0,0,0,23.5,31.9Zm5.531-3.2a4.952,4.952,0,0,1,.922-3.129,3.137,3.137,0,0,1,4.766-.168V21H36.16V33H34.832l-.07-.906a2.943,2.943,0,0,1-2.414,1.063,2.887,2.887,0,0,1-2.395-1.2,5.008,5.008,0,0,1-.926-3.141Zm1.445.164a3.749,3.749,0,0,0,.594,2.25,1.92,1.92,0,0,0,1.641.813A2.108,2.108,0,0,0,34.715,30.7V26.813a2.125,2.125,0,0,0-1.992-1.2,1.929,1.929,0,0,0-1.656.82A4.128,4.128,0,0,0,30.473,28.867Zm9.289-4.32.039.938a3.122,3.122,0,0,1,2.508-1.094,2.417,2.417,0,0,1,2.414,1.359,3.2,3.2,0,0,1,1.1-.984,3.242,3.242,0,0,1,1.6-.375q2.781,0,2.828,2.945V33H48.8V27.422a1.941,1.941,0,0,0-.414-1.355A1.823,1.823,0,0,0,47,25.617a1.916,1.916,0,0,0-1.336.48,1.949,1.949,0,0,0-.617,1.293V33H43.59V27.461a1.613,1.613,0,0,0-1.8-1.844,1.934,1.934,0,0,0-1.945,1.211V33H38.395V24.547ZM54,33H52.551V24.547H54ZM52.434,22.3a.863.863,0,0,1,.215-.594.807.807,0,0,1,.637-.242.819.819,0,0,1,.641.242.854.854,0,0,1,.219.594.826.826,0,0,1-.219.586.834.834,0,0,1-.641.234.821.821,0,0,1-.637-.234A.834.834,0,0,1,52.434,22.3Zm5.242,2.242.047,1.063a3.08,3.08,0,0,1,2.531-1.219q2.68,0,2.7,3.023V33H61.512V27.406a1.946,1.946,0,0,0-.418-1.352,1.675,1.675,0,0,0-1.277-.437,2.086,2.086,0,0,0-1.234.375,2.546,2.546,0,0,0-.828.984V33H56.309V24.547ZM66.707,33H65.262V24.547h1.445ZM65.145,22.3a.863.863,0,0,1,.215-.594A.807.807,0,0,1,66,21.469a.819.819,0,0,1,.641.242.854.854,0,0,1,.219.594.826.826,0,0,1-.219.586.834.834,0,0,1-.641.234.821.821,0,0,1-.637-.234A.834.834,0,0,1,65.145,22.3Zm8.8,8.453a1.064,1.064,0,0,0-.441-.91,4.249,4.249,0,0,0-1.539-.559,7.277,7.277,0,0,1-1.742-.562,2.478,2.478,0,0,1-.953-.781,1.869,1.869,0,0,1-.309-1.078,2.193,2.193,0,0,1,.879-1.758,3.432,3.432,0,0,1,2.246-.719,3.532,3.532,0,0,1,2.332.742,2.357,2.357,0,0,1,.895,1.9H73.855a1.3,1.3,0,0,0-.5-1.023,1.888,1.888,0,0,0-1.27-.43,1.976,1.976,0,0,0-1.234.344,1.082,1.082,0,0,0-.445.9.877.877,0,0,0,.414.789,5.1,5.1,0,0,0,1.5.508,7.8,7.8,0,0,1,1.754.578,2.558,2.558,0,0,1,1,.809,1.988,1.988,0,0,1,.324,1.152,2.163,2.163,0,0,1-.906,1.816,3.8,3.8,0,0,1-2.352.684,4.257,4.257,0,0,1-1.8-.359,2.922,2.922,0,0,1-1.223-1,2.42,2.42,0,0,1-.441-1.395h1.445a1.5,1.5,0,0,0,.582,1.152,2.258,2.258,0,0,0,1.434.426,2.331,2.331,0,0,0,1.316-.332A1.02,1.02,0,0,0,73.941,30.758ZM79.23,22.5v2.047h1.578v1.117H79.23v5.249a1.173,1.173,0,0,0,.211.763.888.888,0,0,0,.719.254,3.5,3.5,0,0,0,.688-.094V33a4.215,4.215,0,0,1-1.109.155,1.8,1.8,0,0,1-1.461-.586,2.517,2.517,0,0,1-.492-1.664V25.664H76.246V24.547h1.539V22.5Zm7.352,3.344a4.331,4.331,0,0,0-.711-.055A1.9,1.9,0,0,0,83.941,27v6H82.5V24.547H83.9l.023.977a2.251,2.251,0,0,1,2.016-1.133,1.477,1.477,0,0,1,.641.109ZM92.816,33a3.036,3.036,0,0,1-.2-.891,3.225,3.225,0,0,1-2.406,1.047,2.984,2.984,0,0,1-2.051-.707,2.288,2.288,0,0,1-.8-1.793,2.39,2.39,0,0,1,1-2.051,4.733,4.733,0,0,1,2.824-.73H92.59v-.664A1.623,1.623,0,0,0,92.137,26a1.821,1.821,0,0,0-1.336-.449,2.108,2.108,0,0,0-1.3.391,1.151,1.151,0,0,0-.523.945H87.527a2,2,0,0,1,.449-1.223,3.066,3.066,0,0,1,1.219-.934,4.1,4.1,0,0,1,1.691-.344,3.342,3.342,0,0,1,2.289.73,2.635,2.635,0,0,1,.859,2.012v3.891a4.757,4.757,0,0,0,.3,1.852V33Zm-2.4-1.1a2.54,2.54,0,0,0,1.289-.352,2.127,2.127,0,0,0,.883-.914V28.9H91.457q-2.656,0-2.656,1.555a1.316,1.316,0,0,0,.453,1.063A1.742,1.742,0,0,0,90.418,31.9Zm9.273.078a2.082,2.082,0,0,0,1.352-.469,1.649,1.649,0,0,0,.641-1.172h1.367a2.621,2.621,0,0,1-.5,1.383,3.293,3.293,0,0,1-1.23,1.047,3.55,3.55,0,0,1-1.629.391A3.482,3.482,0,0,1,96.945,32a4.59,4.59,0,0,1-1.02-3.152v-.242a5.089,5.089,0,0,1,.453-2.2,3.451,3.451,0,0,1,1.3-1.492,3.7,3.7,0,0,1,2-.531,3.39,3.39,0,0,1,2.363.852,3.043,3.043,0,0,1,1,2.211h-1.367a1.992,1.992,0,0,0-.621-1.348,1.932,1.932,0,0,0-1.379-.527,2.023,2.023,0,0,0-1.707.793,3.724,3.724,0,0,0-.605,2.293v.273a3.65,3.65,0,0,0,.6,2.25A2.033,2.033,0,0,0,99.691,31.977ZM106.246,33H104.8V24.547h1.445Zm-1.562-10.7a.863.863,0,0,1,.215-.594.807.807,0,0,1,.637-.242.819.819,0,0,1,.641.242.854.854,0,0,1,.219.594.826.826,0,0,1-.219.586.834.834,0,0,1-.641.234.821.821,0,0,1-.637-.234A.834.834,0,0,1,104.684,22.3Zm3.492,6.391a4.993,4.993,0,0,1,.488-2.234,3.643,3.643,0,0,1,1.359-1.531,3.7,3.7,0,0,1,1.988-.539,3.565,3.565,0,0,1,2.793,1.2,4.6,4.6,0,0,1,1.066,3.18v.1a5.036,5.036,0,0,1-.473,2.215,3.589,3.589,0,0,1-1.352,1.527,3.743,3.743,0,0,1-2.02.547,3.556,3.556,0,0,1-2.785-1.2,4.575,4.575,0,0,1-1.066-3.164Zm1.453.172a3.616,3.616,0,0,0,.652,2.258,2.211,2.211,0,0,0,3.5-.012,3.955,3.955,0,0,0,.648-2.418,3.61,3.61,0,0,0-.66-2.254,2.1,2.1,0,0,0-1.754-.863,2.075,2.075,0,0,0-1.727.852A3.925,3.925,0,0,0,109.629,28.867ZM112.668,21h1.75l-2.094,2.3-1.164,0Zm6.383,3.547.047,1.063a3.08,3.08,0,0,1,2.531-1.219q2.68,0,2.7,3.023V33h-1.445V27.406a1.946,1.946,0,0,0-.418-1.352,1.675,1.675,0,0,0-1.277-.437,2.086,2.086,0,0,0-1.234.375,2.546,2.546,0,0,0-.828.984V33h-1.445V24.547Z" transform="translate(-6952 -5533)" fill="#12263f"/>
    <path id="Trazado_806440" data-name="Trazado 806440" d="M7.75,9.742H2.82v4.031H8.547V15H1.32V3.625H8.469V4.852H2.82V8.516H7.75ZM11.758,15H10.313V3h1.445ZM23.25,15a3.036,3.036,0,0,1-.2-.891,3.225,3.225,0,0,1-2.406,1.047,2.984,2.984,0,0,1-2.051-.707,2.287,2.287,0,0,1-.8-1.793,2.39,2.39,0,0,1,1-2.051,4.733,4.733,0,0,1,2.824-.73h1.406V9.211A1.623,1.623,0,0,0,22.57,8a1.821,1.821,0,0,0-1.336-.449,2.108,2.108,0,0,0-1.3.391,1.151,1.151,0,0,0-.523.945H17.961a2,2,0,0,1,.449-1.223,3.066,3.066,0,0,1,1.219-.934,4.1,4.1,0,0,1,1.691-.344,3.342,3.342,0,0,1,2.289.73,2.635,2.635,0,0,1,.859,2.012v3.891a4.757,4.757,0,0,0,.3,1.852V15Zm-2.4-1.1a2.54,2.54,0,0,0,1.289-.352,2.127,2.127,0,0,0,.883-.914V10.9H21.891q-2.656,0-2.656,1.555a1.316,1.316,0,0,0,.453,1.063A1.742,1.742,0,0,0,20.852,13.9Zm5.539-3.2A4.968,4.968,0,0,1,27.3,7.559a3.151,3.151,0,0,1,4.836-.074l.07-.937h1.32V14.8a3.439,3.439,0,0,1-.973,2.586,3.589,3.589,0,0,1-2.613.945,4.348,4.348,0,0,1-1.789-.391,3.08,3.08,0,0,1-1.336-1.07L27.57,16a2.826,2.826,0,0,0,2.273,1.148,2.214,2.214,0,0,0,1.645-.594,2.269,2.269,0,0,0,.59-1.672v-.727a2.971,2.971,0,0,1-2.367,1,2.887,2.887,0,0,1-2.4-1.2A5.224,5.224,0,0,1,26.391,10.7Zm1.453.164a3.79,3.79,0,0,0,.586,2.246,1.9,1.9,0,0,0,1.641.816,2.117,2.117,0,0,0,2.008-1.242V8.828a2.142,2.142,0,0,0-1.992-1.211,1.921,1.921,0,0,0-1.648.82A4.128,4.128,0,0,0,27.844,10.867Zm11.375,4.289a3.693,3.693,0,0,1-2.8-1.129,4.19,4.19,0,0,1-1.078-3.02v-.266a5.073,5.073,0,0,1,.48-2.246,3.748,3.748,0,0,1,1.344-1.547,3.378,3.378,0,0,1,1.871-.559A3.166,3.166,0,0,1,41.6,7.477a4.7,4.7,0,0,1,.914,3.109v.6H36.789a3,3,0,0,0,.73,2.02,2.3,2.3,0,0,0,1.777.77,2.517,2.517,0,0,0,1.3-.312,3.259,3.259,0,0,0,.93-.828l.883.688A3.55,3.55,0,0,1,39.219,15.156Zm-.18-7.578a1.928,1.928,0,0,0-1.469.637A3.1,3.1,0,0,0,36.836,10H41.07V9.891a2.753,2.753,0,0,0-.594-1.707A1.815,1.815,0,0,0,39.039,7.578Zm6.516-1.031L45.6,7.609a3.08,3.08,0,0,1,2.531-1.219q2.68,0,2.7,3.023V15H49.391V9.406a1.946,1.946,0,0,0-.418-1.352A1.675,1.675,0,0,0,47.7,7.617a2.086,2.086,0,0,0-1.234.375,2.546,2.546,0,0,0-.828.984V15H44.188V6.547ZM54.977,4.5V6.547h1.578V7.664H54.977v5.249a1.173,1.173,0,0,0,.211.763.888.888,0,0,0,.719.254,3.5,3.5,0,0,0,.688-.094V15a4.215,4.215,0,0,1-1.109.155,1.8,1.8,0,0,1-1.461-.586,2.517,2.517,0,0,1-.492-1.664V7.664H51.992V6.547h1.539V4.5ZM61.75,15.156a3.693,3.693,0,0,1-2.8-1.129,4.19,4.19,0,0,1-1.078-3.02v-.266a5.073,5.073,0,0,1,.48-2.246A3.748,3.748,0,0,1,59.7,6.949a3.378,3.378,0,0,1,1.871-.559,3.166,3.166,0,0,1,2.563,1.086,4.7,4.7,0,0,1,.914,3.109v.6H59.32a3,3,0,0,0,.73,2.02,2.3,2.3,0,0,0,1.777.77,2.517,2.517,0,0,0,1.3-.312,3.259,3.259,0,0,0,.93-.828l.883.688A3.55,3.55,0,0,1,61.75,15.156Zm-.18-7.578a1.928,1.928,0,0,0-1.469.637A3.1,3.1,0,0,0,59.367,10H63.6V9.891a2.753,2.753,0,0,0-.594-1.707A1.815,1.815,0,0,0,61.57,7.578ZM75.9,14.164a3.07,3.07,0,0,1-2.477.992,2.628,2.628,0,0,1-2.059-.785,3.4,3.4,0,0,1-.715-2.324v-5.5h1.445v5.461q0,1.922,1.563,1.922a2.163,2.163,0,0,0,2.2-1.234V6.547H77.3V15H75.93Zm8.523-1.406a1.064,1.064,0,0,0-.441-.91,4.249,4.249,0,0,0-1.539-.559,7.277,7.277,0,0,1-1.742-.562,2.479,2.479,0,0,1-.953-.781,1.869,1.869,0,0,1-.309-1.078,2.193,2.193,0,0,1,.879-1.758,3.432,3.432,0,0,1,2.246-.719,3.532,3.532,0,0,1,2.332.742,2.357,2.357,0,0,1,.895,1.9H84.336a1.3,1.3,0,0,0-.5-1.023,1.888,1.888,0,0,0-1.27-.43,1.976,1.976,0,0,0-1.234.344,1.082,1.082,0,0,0-.445.9.877.877,0,0,0,.414.789,5.1,5.1,0,0,0,1.5.508,7.8,7.8,0,0,1,1.754.578,2.558,2.558,0,0,1,1,.809,1.988,1.988,0,0,1,.324,1.152,2.163,2.163,0,0,1-.906,1.816,3.8,3.8,0,0,1-2.352.684,4.257,4.257,0,0,1-1.8-.359,2.922,2.922,0,0,1-1.223-1,2.42,2.42,0,0,1-.441-1.395h1.445a1.5,1.5,0,0,0,.582,1.152,2.258,2.258,0,0,0,1.434.426,2.331,2.331,0,0,0,1.316-.332A1.02,1.02,0,0,0,84.422,12.758ZM92.969,15a3.036,3.036,0,0,1-.2-.891,3.225,3.225,0,0,1-2.406,1.047,2.984,2.984,0,0,1-2.051-.707,2.288,2.288,0,0,1-.8-1.793,2.39,2.39,0,0,1,1-2.051,4.733,4.733,0,0,1,2.824-.73h1.406V9.211A1.623,1.623,0,0,0,92.289,8a1.821,1.821,0,0,0-1.336-.449,2.108,2.108,0,0,0-1.3.391,1.151,1.151,0,0,0-.523.945H87.68a2,2,0,0,1,.449-1.223,3.066,3.066,0,0,1,1.219-.934,4.1,4.1,0,0,1,1.691-.344,3.342,3.342,0,0,1,2.289.73,2.635,2.635,0,0,1,.859,2.012v3.891a4.757,4.757,0,0,0,.3,1.852V15Zm-2.4-1.1a2.54,2.54,0,0,0,1.289-.352,2.127,2.127,0,0,0,.883-.914V10.9H91.609q-2.656,0-2.656,1.555a1.316,1.316,0,0,0,.453,1.063A1.742,1.742,0,0,0,90.57,13.9Zm13.352,1.258a3.693,3.693,0,0,1-2.8-1.129,4.19,4.19,0,0,1-1.078-3.02v-.266a5.073,5.073,0,0,1,.48-2.246,3.748,3.748,0,0,1,1.344-1.547,3.378,3.378,0,0,1,1.871-.559A3.166,3.166,0,0,1,106.3,7.477a4.7,4.7,0,0,1,.914,3.109v.6h-5.727a3,3,0,0,0,.73,2.02,2.3,2.3,0,0,0,1.777.77,2.517,2.517,0,0,0,1.3-.312,3.259,3.259,0,0,0,.93-.828l.883.688A3.55,3.55,0,0,1,103.922,15.156Zm-.18-7.578a1.928,1.928,0,0,0-1.469.637A3.1,3.1,0,0,0,101.539,10h4.234V9.891a2.753,2.753,0,0,0-.594-1.707A1.815,1.815,0,0,0,103.742,7.578ZM110.461,15h-1.445V3h1.445Zm9.664-1.023a2.082,2.082,0,0,0,1.352-.469,1.649,1.649,0,0,0,.641-1.172h1.367a2.621,2.621,0,0,1-.5,1.383,3.293,3.293,0,0,1-1.23,1.047,3.55,3.55,0,0,1-1.629.391A3.482,3.482,0,0,1,117.379,14a4.59,4.59,0,0,1-1.02-3.152v-.242a5.089,5.089,0,0,1,.453-2.2,3.451,3.451,0,0,1,1.3-1.492,3.7,3.7,0,0,1,2-.531,3.39,3.39,0,0,1,2.363.852,3.043,3.043,0,0,1,1,2.211h-1.367a1.992,1.992,0,0,0-.621-1.348,1.932,1.932,0,0,0-1.379-.527,2.023,2.023,0,0,0-1.707.793,3.724,3.724,0,0,0-.605,2.293v.273a3.65,3.65,0,0,0,.6,2.25A2.033,2.033,0,0,0,120.125,13.977Zm4.6-3.281a4.993,4.993,0,0,1,.488-2.234,3.643,3.643,0,0,1,1.359-1.531,3.7,3.7,0,0,1,1.988-.539,3.565,3.565,0,0,1,2.793,1.2,4.6,4.6,0,0,1,1.066,3.18v.1a5.036,5.036,0,0,1-.473,2.215,3.589,3.589,0,0,1-1.352,1.527,3.743,3.743,0,0,1-2.02.547,3.556,3.556,0,0,1-2.785-1.2,4.575,4.575,0,0,1-1.066-3.164Zm1.453.172a3.616,3.616,0,0,0,.652,2.258,2.211,2.211,0,0,0,3.5-.012,3.954,3.954,0,0,0,.648-2.418,3.61,3.61,0,0,0-.66-2.254,2.1,2.1,0,0,0-1.754-.863,2.075,2.075,0,0,0-1.727.852A3.925,3.925,0,0,0,126.18,10.867Zm9.414-4.32.039.938a3.122,3.122,0,0,1,2.508-1.094,2.417,2.417,0,0,1,2.414,1.359,3.2,3.2,0,0,1,1.1-.984,3.242,3.242,0,0,1,1.6-.375q2.781,0,2.828,2.945V15h-1.445V9.422a1.941,1.941,0,0,0-.414-1.355,1.823,1.823,0,0,0-1.391-.449,1.917,1.917,0,0,0-1.336.48,1.949,1.949,0,0,0-.617,1.293V15h-1.453V9.461a1.613,1.613,0,0,0-1.8-1.844,1.934,1.934,0,0,0-1.945,1.211V15h-1.445V6.547ZM153.477,15a3.036,3.036,0,0,1-.2-.891,3.225,3.225,0,0,1-2.406,1.047,2.984,2.984,0,0,1-2.051-.707,2.287,2.287,0,0,1-.8-1.793,2.39,2.39,0,0,1,1-2.051,4.733,4.733,0,0,1,2.824-.73h1.406V9.211A1.623,1.623,0,0,0,152.8,8a1.821,1.821,0,0,0-1.336-.449,2.107,2.107,0,0,0-1.3.391,1.151,1.151,0,0,0-.523.945h-1.453a2,2,0,0,1,.449-1.223,3.066,3.066,0,0,1,1.219-.934,4.1,4.1,0,0,1,1.691-.344,3.342,3.342,0,0,1,2.289.73,2.635,2.635,0,0,1,.859,2.012v3.891a4.757,4.757,0,0,0,.3,1.852V15Zm-2.4-1.1a2.54,2.54,0,0,0,1.289-.352,2.127,2.127,0,0,0,.883-.914V10.9h-1.133q-2.656,0-2.656,1.555a1.316,1.316,0,0,0,.453,1.063A1.742,1.742,0,0,0,151.078,13.9Zm7.25-7.352.047,1.063a3.08,3.08,0,0,1,2.531-1.219q2.68,0,2.7,3.023V15h-1.445V9.406a1.946,1.946,0,0,0-.418-1.352,1.675,1.675,0,0,0-1.277-.437,2.086,2.086,0,0,0-1.234.375,2.546,2.546,0,0,0-.828.984V15h-1.445V6.547Zm7.109,4.156a4.952,4.952,0,0,1,.922-3.129,3.137,3.137,0,0,1,4.766-.168V3h1.445V15h-1.328l-.07-.906a2.943,2.943,0,0,1-2.414,1.063,2.887,2.887,0,0,1-2.395-1.2,5.008,5.008,0,0,1-.926-3.141Zm1.445.164a3.749,3.749,0,0,0,.594,2.25,1.919,1.919,0,0,0,1.641.813,2.108,2.108,0,0,0,2.008-1.234V8.813a2.125,2.125,0,0,0-1.992-1.2,1.929,1.929,0,0,0-1.656.82A4.128,4.128,0,0,0,166.883,10.867Zm7.547-.172a4.993,4.993,0,0,1,.488-2.234,3.642,3.642,0,0,1,1.359-1.531,3.7,3.7,0,0,1,1.988-.539,3.565,3.565,0,0,1,2.793,1.2,4.6,4.6,0,0,1,1.066,3.18v.1a5.036,5.036,0,0,1-.473,2.215,3.589,3.589,0,0,1-1.352,1.527,3.743,3.743,0,0,1-2.02.547,3.556,3.556,0,0,1-2.785-1.2A4.575,4.575,0,0,1,174.43,10.8Zm1.453.172a3.616,3.616,0,0,0,.652,2.258,2.211,2.211,0,0,0,3.5-.012,3.954,3.954,0,0,0,.648-2.418,3.61,3.61,0,0,0-.66-2.254,2.1,2.1,0,0,0-1.754-.863,2.075,2.075,0,0,0-1.727.852A3.925,3.925,0,0,0,175.883,10.867Zm19.156,0a5.062,5.062,0,0,1-.883,3.109,2.829,2.829,0,0,1-2.391,1.18,3.1,3.1,0,0,1-2.422-.977v4.07H187.9V6.547h1.32l.07.938a2.977,2.977,0,0,1,2.453-1.094,2.882,2.882,0,0,1,2.41,1.148,5.117,5.117,0,0,1,.887,3.2Zm-1.445-.164a3.735,3.735,0,0,0-.609-2.258,1.963,1.963,0,0,0-1.672-.828,2.125,2.125,0,0,0-1.969,1.164V12.82a2.129,2.129,0,0,0,1.984,1.156,1.954,1.954,0,0,0,1.652-.824A4.077,4.077,0,0,0,193.594,10.7Zm8.5,4.3a3.036,3.036,0,0,1-.2-.891,3.225,3.225,0,0,1-2.406,1.047,2.984,2.984,0,0,1-2.051-.707,2.287,2.287,0,0,1-.8-1.793,2.39,2.39,0,0,1,1-2.051,4.733,4.733,0,0,1,2.824-.73h1.406V9.211A1.623,1.623,0,0,0,201.414,8a1.821,1.821,0,0,0-1.336-.449,2.107,2.107,0,0,0-1.3.391,1.151,1.151,0,0,0-.523.945H196.8a2,2,0,0,1,.449-1.223,3.066,3.066,0,0,1,1.219-.934,4.1,4.1,0,0,1,1.691-.344,3.342,3.342,0,0,1,2.289.73,2.635,2.635,0,0,1,.859,2.012v3.891a4.757,4.757,0,0,0,.3,1.852V15Zm-2.4-1.1a2.54,2.54,0,0,0,1.289-.352,2.127,2.127,0,0,0,.883-.914V10.9h-1.133q-2.656,0-2.656,1.555a1.316,1.316,0,0,0,.453,1.063A1.742,1.742,0,0,0,199.7,13.9Zm9.969-6.055a4.331,4.331,0,0,0-.711-.055A1.9,1.9,0,0,0,207.023,9v6h-1.445V6.547h1.406l.023.977a2.251,2.251,0,0,1,2.016-1.133,1.477,1.477,0,0,1,.641.109ZM215.9,15a3.036,3.036,0,0,1-.2-.891,3.225,3.225,0,0,1-2.406,1.047,2.984,2.984,0,0,1-2.051-.707,2.287,2.287,0,0,1-.8-1.793,2.39,2.39,0,0,1,1-2.051,4.733,4.733,0,0,1,2.824-.73h1.406V9.211A1.623,1.623,0,0,0,215.219,8a1.821,1.821,0,0,0-1.336-.449,2.107,2.107,0,0,0-1.3.391,1.151,1.151,0,0,0-.523.945h-1.453a2,2,0,0,1,.449-1.223,3.066,3.066,0,0,1,1.219-.934,4.1,4.1,0,0,1,1.691-.344,3.342,3.342,0,0,1,2.289.73,2.635,2.635,0,0,1,.859,2.012v3.891a4.757,4.757,0,0,0,.3,1.852V15Zm-2.4-1.1a2.54,2.54,0,0,0,1.289-.352,2.127,2.127,0,0,0,.883-.914V10.9h-1.133q-2.656,0-2.656,1.555a1.316,1.316,0,0,0,.453,1.063A1.742,1.742,0,0,0,213.5,13.9ZM5.18,28.844a4.331,4.331,0,0,0-.711-.055A1.9,1.9,0,0,0,2.539,30v6H1.094V27.547H2.5l.023.977a2.251,2.251,0,0,1,2.016-1.133,1.477,1.477,0,0,1,.641.109Zm4.688,7.313a3.693,3.693,0,0,1-2.8-1.129,4.19,4.19,0,0,1-1.078-3.02v-.266a5.073,5.073,0,0,1,.48-2.246,3.748,3.748,0,0,1,1.344-1.547,3.378,3.378,0,0,1,1.871-.559,3.166,3.166,0,0,1,2.563,1.086,4.7,4.7,0,0,1,.914,3.109v.6H7.438a3,3,0,0,0,.73,2.02,2.3,2.3,0,0,0,1.777.77,2.517,2.517,0,0,0,1.3-.312,3.258,3.258,0,0,0,.93-.828l.883.688A3.55,3.55,0,0,1,9.867,36.156Zm-.18-7.578a1.928,1.928,0,0,0-1.469.637A3.1,3.1,0,0,0,7.484,31h4.234v-.109a2.753,2.753,0,0,0-.594-1.707A1.815,1.815,0,0,0,9.688,28.578Zm10.07,5.18a1.064,1.064,0,0,0-.441-.91,4.249,4.249,0,0,0-1.539-.559,7.277,7.277,0,0,1-1.742-.562,2.479,2.479,0,0,1-.953-.781,1.869,1.869,0,0,1-.309-1.078,2.193,2.193,0,0,1,.879-1.758,3.432,3.432,0,0,1,2.246-.719,3.532,3.532,0,0,1,2.332.742,2.357,2.357,0,0,1,.895,1.9H19.672a1.3,1.3,0,0,0-.5-1.023,1.888,1.888,0,0,0-1.27-.43,1.976,1.976,0,0,0-1.234.344,1.082,1.082,0,0,0-.445.9.877.877,0,0,0,.414.789,5.1,5.1,0,0,0,1.5.508,7.8,7.8,0,0,1,1.754.578,2.558,2.558,0,0,1,1,.809,1.988,1.988,0,0,1,.324,1.152,2.163,2.163,0,0,1-.906,1.816,3.8,3.8,0,0,1-2.352.684,4.257,4.257,0,0,1-1.8-.359,2.922,2.922,0,0,1-1.223-1,2.42,2.42,0,0,1-.441-1.395H15.93a1.5,1.5,0,0,0,.582,1.152,2.258,2.258,0,0,0,1.434.426,2.331,2.331,0,0,0,1.316-.332A1.02,1.02,0,0,0,19.758,33.758Zm10.469-1.891a5.062,5.062,0,0,1-.883,3.109,2.829,2.829,0,0,1-2.391,1.18,3.1,3.1,0,0,1-2.422-.977v4.07H23.086v-11.7h1.32l.07.938a2.977,2.977,0,0,1,2.453-1.094,2.882,2.882,0,0,1,2.41,1.148,5.117,5.117,0,0,1,.887,3.2ZM28.781,31.7a3.735,3.735,0,0,0-.609-2.258,1.963,1.963,0,0,0-1.672-.828,2.125,2.125,0,0,0-1.969,1.164V33.82a2.129,2.129,0,0,0,1.984,1.156,1.954,1.954,0,0,0,1.652-.824A4.077,4.077,0,0,0,28.781,31.7Zm2.9-.008a4.993,4.993,0,0,1,.488-2.234,3.643,3.643,0,0,1,1.359-1.531,3.7,3.7,0,0,1,1.988-.539,3.565,3.565,0,0,1,2.793,1.2,4.6,4.6,0,0,1,1.066,3.18v.1a5.036,5.036,0,0,1-.473,2.215,3.589,3.589,0,0,1-1.352,1.527,3.743,3.743,0,0,1-2.02.547,3.556,3.556,0,0,1-2.785-1.2A4.575,4.575,0,0,1,31.68,31.8Zm1.453.172a3.616,3.616,0,0,0,.652,2.258,2.211,2.211,0,0,0,3.5-.012A3.955,3.955,0,0,0,37.93,31.7a3.61,3.61,0,0,0-.66-2.254,2.1,2.1,0,0,0-1.754-.863,2.075,2.075,0,0,0-1.727.852A3.925,3.925,0,0,0,33.133,31.867Zm9.422-4.32.047,1.063a3.08,3.08,0,0,1,2.531-1.219q2.68,0,2.7,3.023V36H46.391V30.406a1.946,1.946,0,0,0-.418-1.352,1.675,1.675,0,0,0-1.277-.437,2.086,2.086,0,0,0-1.234.375,2.546,2.546,0,0,0-.828.984V36H41.188V27.547ZM49.664,31.7a4.952,4.952,0,0,1,.922-3.129,3.137,3.137,0,0,1,4.766-.168V24H56.8V36H55.469l-.07-.906a2.943,2.943,0,0,1-2.414,1.063,2.887,2.887,0,0,1-2.395-1.2,5.008,5.008,0,0,1-.926-3.141Zm1.445.164a3.749,3.749,0,0,0,.594,2.25,1.919,1.919,0,0,0,1.641.813A2.108,2.108,0,0,0,55.352,33.7V29.813a2.125,2.125,0,0,0-1.992-1.2,1.929,1.929,0,0,0-1.656.82A4.128,4.128,0,0,0,51.109,31.867Zm11.438,4.289a3.693,3.693,0,0,1-2.8-1.129,4.19,4.19,0,0,1-1.078-3.02v-.266a5.073,5.073,0,0,1,.48-2.246A3.748,3.748,0,0,1,60.5,27.949a3.378,3.378,0,0,1,1.871-.559,3.166,3.166,0,0,1,2.563,1.086,4.7,4.7,0,0,1,.914,3.109v.6H60.117a3,3,0,0,0,.73,2.02,2.3,2.3,0,0,0,1.777.77,2.517,2.517,0,0,0,1.3-.312,3.259,3.259,0,0,0,.93-.828l.883.688A3.55,3.55,0,0,1,62.547,36.156Zm-.18-7.578a1.928,1.928,0,0,0-1.469.637A3.1,3.1,0,0,0,60.164,31H64.4v-.109a2.753,2.753,0,0,0-.594-1.707A1.815,1.815,0,0,0,62.367,28.578Zm9.234.266a4.331,4.331,0,0,0-.711-.055A1.9,1.9,0,0,0,68.961,30v6H67.516V27.547h1.406l.023.977a2.251,2.251,0,0,1,2.016-1.133,1.477,1.477,0,0,1,.641.109ZM78.461,36H77.016V27.547h1.445ZM76.9,25.3a.863.863,0,0,1,.215-.594.807.807,0,0,1,.637-.242.819.819,0,0,1,.641.242.854.854,0,0,1,.219.594.826.826,0,0,1-.219.586.834.834,0,0,1-.641.234.821.821,0,0,1-.637-.234A.834.834,0,0,1,76.9,25.3Zm5.242,2.242.047,1.063a3.08,3.08,0,0,1,2.531-1.219q2.68,0,2.7,3.023V36H85.977V30.406a1.946,1.946,0,0,0-.418-1.352,1.675,1.675,0,0,0-1.277-.437,2.086,2.086,0,0,0-1.234.375,2.546,2.546,0,0,0-.828.984V36H80.773V27.547ZM89.25,31.7a4.952,4.952,0,0,1,.922-3.129,3.137,3.137,0,0,1,4.766-.168V24h1.445V36H95.055l-.07-.906a2.943,2.943,0,0,1-2.414,1.063,2.887,2.887,0,0,1-2.395-1.2,5.008,5.008,0,0,1-.926-3.141Zm1.445.164a3.749,3.749,0,0,0,.594,2.25,1.92,1.92,0,0,0,1.641.813A2.108,2.108,0,0,0,94.938,33.7V29.813a2.125,2.125,0,0,0-1.992-1.2,1.929,1.929,0,0,0-1.656.82A4.128,4.128,0,0,0,90.7,31.867ZM100.2,36H98.75V27.547H100.2ZM98.633,25.3a.863.863,0,0,1,.215-.594.807.807,0,0,1,.637-.242.819.819,0,0,1,.641.242.854.854,0,0,1,.219.594.826.826,0,0,1-.219.586.834.834,0,0,1-.641.234.821.821,0,0,1-.637-.234A.834.834,0,0,1,98.633,25.3Zm7.266,9.672a2.082,2.082,0,0,0,1.352-.469,1.649,1.649,0,0,0,.641-1.172h1.367a2.621,2.621,0,0,1-.5,1.383,3.293,3.293,0,0,1-1.23,1.047,3.55,3.55,0,0,1-1.629.391A3.482,3.482,0,0,1,103.152,35a4.59,4.59,0,0,1-1.02-3.152v-.242a5.089,5.089,0,0,1,.453-2.2,3.451,3.451,0,0,1,1.3-1.492,3.7,3.7,0,0,1,2-.531,3.39,3.39,0,0,1,2.363.852,3.043,3.043,0,0,1,1,2.211h-1.367a1.992,1.992,0,0,0-.621-1.348,1.932,1.932,0,0,0-1.379-.527,2.023,2.023,0,0,0-1.707.793,3.724,3.724,0,0,0-.605,2.293v.273a3.65,3.65,0,0,0,.6,2.25A2.033,2.033,0,0,0,105.9,34.977ZM116.1,36a3.036,3.036,0,0,1-.2-.891,3.225,3.225,0,0,1-2.406,1.047,2.984,2.984,0,0,1-2.051-.707,2.288,2.288,0,0,1-.8-1.793,2.39,2.39,0,0,1,1-2.051,4.733,4.733,0,0,1,2.824-.73h1.406v-.664A1.623,1.623,0,0,0,115.422,29a1.821,1.821,0,0,0-1.336-.449,2.108,2.108,0,0,0-1.3.391,1.151,1.151,0,0,0-.523.945h-1.453a2,2,0,0,1,.449-1.223,3.066,3.066,0,0,1,1.219-.934,4.1,4.1,0,0,1,1.691-.344,3.342,3.342,0,0,1,2.289.73,2.635,2.635,0,0,1,.859,2.012v3.891a4.757,4.757,0,0,0,.3,1.852V36Zm-2.4-1.1a2.54,2.54,0,0,0,1.289-.352,2.127,2.127,0,0,0,.883-.914V31.9h-1.133q-2.656,0-2.656,1.555a1.316,1.316,0,0,0,.453,1.063A1.742,1.742,0,0,0,113.7,34.9Zm7.25-7.352L121,28.609a3.08,3.08,0,0,1,2.531-1.219q2.68,0,2.7,3.023V36h-1.445V30.406a1.946,1.946,0,0,0-.418-1.352,1.675,1.675,0,0,0-1.277-.437,2.086,2.086,0,0,0-1.234.375,2.546,2.546,0,0,0-.828.984V36h-1.445V27.547Zm7.109,4.156a4.952,4.952,0,0,1,.922-3.129,3.137,3.137,0,0,1,4.766-.168V24H135.2V36h-1.328l-.07-.906a2.943,2.943,0,0,1-2.414,1.063,2.887,2.887,0,0,1-2.395-1.2,5.008,5.008,0,0,1-.926-3.141Zm1.445.164a3.749,3.749,0,0,0,.594,2.25,1.919,1.919,0,0,0,1.641.813A2.108,2.108,0,0,0,133.75,33.7V29.813a2.125,2.125,0,0,0-1.992-1.2,1.929,1.929,0,0,0-1.656.82A4.128,4.128,0,0,0,129.508,31.867Zm7.547-.172a4.993,4.993,0,0,1,.488-2.234A3.642,3.642,0,0,1,138.9,27.93a3.7,3.7,0,0,1,1.988-.539,3.565,3.565,0,0,1,2.793,1.2,4.6,4.6,0,0,1,1.066,3.18v.1a5.036,5.036,0,0,1-.473,2.215,3.589,3.589,0,0,1-1.352,1.527,3.743,3.743,0,0,1-2.02.547,3.556,3.556,0,0,1-2.785-1.2,4.575,4.575,0,0,1-1.066-3.164Zm1.453.172a3.616,3.616,0,0,0,.652,2.258,2.211,2.211,0,0,0,3.5-.012A3.954,3.954,0,0,0,143.3,31.7a3.61,3.61,0,0,0-.66-2.254,2.1,2.1,0,0,0-1.754-.863,2.075,2.075,0,0,0-1.727.852A3.925,3.925,0,0,0,138.508,31.867Zm15.523,4.289a3.693,3.693,0,0,1-2.8-1.129,4.19,4.19,0,0,1-1.078-3.02v-.266a5.073,5.073,0,0,1,.48-2.246,3.748,3.748,0,0,1,1.344-1.547,3.378,3.378,0,0,1,1.871-.559,3.166,3.166,0,0,1,2.563,1.086,4.7,4.7,0,0,1,.914,3.109v.6H151.6a3,3,0,0,0,.73,2.02,2.3,2.3,0,0,0,1.777.77,2.517,2.517,0,0,0,1.3-.312,3.258,3.258,0,0,0,.93-.828l.883.688A3.55,3.55,0,0,1,154.031,36.156Zm-.18-7.578a1.928,1.928,0,0,0-1.469.637A3.1,3.1,0,0,0,151.648,31h4.234v-.109a2.753,2.753,0,0,0-.594-1.707A1.815,1.815,0,0,0,153.852,28.578ZM160.57,36h-1.445V24h1.445Zm9.781.156a3.693,3.693,0,0,1-2.8-1.129,4.19,4.19,0,0,1-1.078-3.02v-.266a5.073,5.073,0,0,1,.48-2.246,3.748,3.748,0,0,1,1.344-1.547,3.378,3.378,0,0,1,1.871-.559,3.166,3.166,0,0,1,2.563,1.086,4.7,4.7,0,0,1,.914,3.109v.6h-5.727a3,3,0,0,0,.73,2.02,2.3,2.3,0,0,0,1.777.77,2.517,2.517,0,0,0,1.3-.312,3.258,3.258,0,0,0,.93-.828l.883.688A3.55,3.55,0,0,1,170.352,36.156Zm-.18-7.578a1.928,1.928,0,0,0-1.469.637A3.1,3.1,0,0,0,167.969,31H172.2v-.109a2.753,2.753,0,0,0-.594-1.707A1.815,1.815,0,0,0,170.172,28.578Zm.7-4.578h1.75l-2.094,2.3-1.164,0Zm7.281,6.633,1.875-3.086h1.688l-2.766,4.18L181.8,36h-1.672l-1.953-3.164L176.227,36h-1.68l2.852-4.273-2.766-4.18H176.3ZM184.82,36h-1.445V27.547h1.445Zm-1.562-10.7a.863.863,0,0,1,.215-.594.807.807,0,0,1,.637-.242.819.819,0,0,1,.641.242.854.854,0,0,1,.219.594.826.826,0,0,1-.219.586.834.834,0,0,1-.641.234.821.821,0,0,1-.637-.234A.834.834,0,0,1,183.258,25.3Zm5.836.2v2.047h1.578v1.117h-1.578v5.249a1.173,1.173,0,0,0,.211.763.888.888,0,0,0,.719.254,3.5,3.5,0,0,0,.688-.094V36a4.215,4.215,0,0,1-1.109.155,1.8,1.8,0,0,1-1.461-.586,2.517,2.517,0,0,1-.492-1.664V28.664h-1.539V27.547h1.539V25.5Zm2.727,6.2a4.993,4.993,0,0,1,.488-2.234,3.642,3.642,0,0,1,1.359-1.531,3.7,3.7,0,0,1,1.988-.539,3.565,3.565,0,0,1,2.793,1.2,4.6,4.6,0,0,1,1.066,3.18v.1a5.036,5.036,0,0,1-.473,2.215,3.589,3.589,0,0,1-1.352,1.527,3.743,3.743,0,0,1-2.02.547,3.556,3.556,0,0,1-2.785-1.2A4.575,4.575,0,0,1,191.82,31.8Zm1.453.172a3.616,3.616,0,0,0,.652,2.258,2.211,2.211,0,0,0,3.5-.012,3.954,3.954,0,0,0,.648-2.418,3.61,3.61,0,0,0-.66-2.254,2.1,2.1,0,0,0-1.754-.863,2.075,2.075,0,0,0-1.727.852A3.925,3.925,0,0,0,193.273,31.867Zm11.633-.172a4.993,4.993,0,0,1,.488-2.234,3.642,3.642,0,0,1,1.359-1.531,3.7,3.7,0,0,1,1.988-.539,3.565,3.565,0,0,1,2.793,1.2,4.6,4.6,0,0,1,1.066,3.18v.1a5.036,5.036,0,0,1-.473,2.215,3.589,3.589,0,0,1-1.352,1.527,3.743,3.743,0,0,1-2.02.547,3.556,3.556,0,0,1-2.785-1.2,4.575,4.575,0,0,1-1.066-3.164Zm1.453.172a3.616,3.616,0,0,0,.652,2.258,2.211,2.211,0,0,0,3.5-.012,3.954,3.954,0,0,0,.648-2.418,3.61,3.61,0,0,0-.66-2.254,2.1,2.1,0,0,0-1.754-.863,2.075,2.075,0,0,0-1.727.852A3.925,3.925,0,0,0,206.359,31.867ZM1.8,57V49.664H.469V48.547H1.8V47.68a2.878,2.878,0,0,1,.727-2.1,2.745,2.745,0,0,1,2.055-.742,3.816,3.816,0,0,1,.992.132L5.5,46.133a4.151,4.151,0,0,0-.781-.07,1.41,1.41,0,0,0-1.086.411,1.669,1.669,0,0,0-.383,1.18v.893h1.8v1.117H3.25V57Zm8.93-7.156a4.331,4.331,0,0,0-.711-.055A1.9,1.9,0,0,0,8.094,51v6H6.648V48.547H8.055l.023.977a2.251,2.251,0,0,1,2.016-1.133,1.477,1.477,0,0,1,.641.109ZM16.969,57a3.036,3.036,0,0,1-.2-.891,3.225,3.225,0,0,1-2.406,1.047,2.984,2.984,0,0,1-2.051-.707,2.287,2.287,0,0,1-.8-1.793,2.39,2.39,0,0,1,1-2.051,4.733,4.733,0,0,1,2.824-.73h1.406v-.664A1.623,1.623,0,0,0,16.289,50a1.821,1.821,0,0,0-1.336-.449,2.107,2.107,0,0,0-1.3.391,1.151,1.151,0,0,0-.523.945H11.68a2,2,0,0,1,.449-1.223,3.066,3.066,0,0,1,1.219-.934,4.1,4.1,0,0,1,1.691-.344,3.342,3.342,0,0,1,2.289.73,2.635,2.635,0,0,1,.859,2.012v3.891a4.757,4.757,0,0,0,.3,1.852V57Zm-2.4-1.1a2.54,2.54,0,0,0,1.289-.352,2.127,2.127,0,0,0,.883-.914V52.9H15.609q-2.656,0-2.656,1.555a1.316,1.316,0,0,0,.453,1.063A1.742,1.742,0,0,0,14.57,55.9Zm9.273.078a2.082,2.082,0,0,0,1.352-.469,1.649,1.649,0,0,0,.641-1.172H27.2a2.621,2.621,0,0,1-.5,1.383,3.293,3.293,0,0,1-1.23,1.047,3.55,3.55,0,0,1-1.629.391A3.482,3.482,0,0,1,21.1,56a4.59,4.59,0,0,1-1.02-3.152v-.242a5.089,5.089,0,0,1,.453-2.2,3.451,3.451,0,0,1,1.3-1.492,3.7,3.7,0,0,1,2-.531,3.39,3.39,0,0,1,2.363.852,3.043,3.043,0,0,1,1,2.211H25.836a1.992,1.992,0,0,0-.621-1.348,1.932,1.932,0,0,0-1.379-.527,2.023,2.023,0,0,0-1.707.793,3.724,3.724,0,0,0-.605,2.293v.273a3.65,3.65,0,0,0,.6,2.25A2.033,2.033,0,0,0,23.844,55.977ZM34.047,57a3.036,3.036,0,0,1-.2-.891,3.225,3.225,0,0,1-2.406,1.047,2.984,2.984,0,0,1-2.051-.707,2.287,2.287,0,0,1-.8-1.793,2.39,2.39,0,0,1,1-2.051,4.733,4.733,0,0,1,2.824-.73H33.82v-.664A1.623,1.623,0,0,0,33.367,50a1.821,1.821,0,0,0-1.336-.449,2.107,2.107,0,0,0-1.3.391,1.151,1.151,0,0,0-.523.945H28.758a2,2,0,0,1,.449-1.223,3.066,3.066,0,0,1,1.219-.934,4.1,4.1,0,0,1,1.691-.344,3.342,3.342,0,0,1,2.289.73,2.635,2.635,0,0,1,.859,2.012v3.891a4.757,4.757,0,0,0,.3,1.852V57Zm-2.4-1.1a2.54,2.54,0,0,0,1.289-.352,2.127,2.127,0,0,0,.883-.914V52.9H32.688q-2.656,0-2.656,1.555a1.316,1.316,0,0,0,.453,1.063A1.742,1.742,0,0,0,31.648,55.9Zm10.8-1.141a1.064,1.064,0,0,0-.441-.91,4.249,4.249,0,0,0-1.539-.559,7.277,7.277,0,0,1-1.742-.562,2.479,2.479,0,0,1-.953-.781,1.869,1.869,0,0,1-.309-1.078,2.193,2.193,0,0,1,.879-1.758,3.432,3.432,0,0,1,2.246-.719,3.532,3.532,0,0,1,2.332.742,2.357,2.357,0,0,1,.895,1.9H42.367a1.3,1.3,0,0,0-.5-1.023,1.888,1.888,0,0,0-1.27-.43,1.976,1.976,0,0,0-1.234.344,1.082,1.082,0,0,0-.445.9.877.877,0,0,0,.414.789,5.1,5.1,0,0,0,1.5.508,7.8,7.8,0,0,1,1.754.578,2.558,2.558,0,0,1,1,.809,1.988,1.988,0,0,1,.324,1.152,2.163,2.163,0,0,1-.906,1.816,3.8,3.8,0,0,1-2.352.684,4.257,4.257,0,0,1-1.8-.359,2.922,2.922,0,0,1-1.223-1A2.42,2.42,0,0,1,37.18,54.4h1.445a1.5,1.5,0,0,0,.582,1.152,2.258,2.258,0,0,0,1.434.426,2.331,2.331,0,0,0,1.316-.332A1.02,1.02,0,0,0,42.453,54.758ZM45.4,52.7a4.993,4.993,0,0,1,.488-2.234,3.643,3.643,0,0,1,1.359-1.531,3.7,3.7,0,0,1,1.988-.539,3.565,3.565,0,0,1,2.793,1.2,4.6,4.6,0,0,1,1.066,3.18v.1a5.036,5.036,0,0,1-.473,2.215,3.589,3.589,0,0,1-1.352,1.527,3.743,3.743,0,0,1-2.02.547,3.556,3.556,0,0,1-2.785-1.2A4.575,4.575,0,0,1,45.4,52.8Zm1.453.172a3.616,3.616,0,0,0,.652,2.258,2.211,2.211,0,0,0,3.5-.012,3.955,3.955,0,0,0,.648-2.418,3.61,3.61,0,0,0-.66-2.254,2.1,2.1,0,0,0-1.754-.863,2.075,2.075,0,0,0-1.727.852A3.925,3.925,0,0,0,46.852,52.867ZM58.516,52.7a4.952,4.952,0,0,1,.922-3.129,3.137,3.137,0,0,1,4.766-.168V45h1.445V57H64.32l-.07-.906a2.943,2.943,0,0,1-2.414,1.063,2.887,2.887,0,0,1-2.395-1.2,5.008,5.008,0,0,1-.926-3.141Zm1.445.164a3.749,3.749,0,0,0,.594,2.25,1.919,1.919,0,0,0,1.641.813A2.108,2.108,0,0,0,64.2,54.7V50.813a2.125,2.125,0,0,0-1.992-1.2,1.929,1.929,0,0,0-1.656.82A4.128,4.128,0,0,0,59.961,52.867ZM71.4,57.156a3.693,3.693,0,0,1-2.8-1.129,4.19,4.19,0,0,1-1.078-3.02v-.266A5.073,5.073,0,0,1,68,50.5a3.748,3.748,0,0,1,1.344-1.547,3.378,3.378,0,0,1,1.871-.559,3.166,3.166,0,0,1,2.563,1.086,4.7,4.7,0,0,1,.914,3.109v.6H68.969a3,3,0,0,0,.73,2.02,2.3,2.3,0,0,0,1.777.77,2.517,2.517,0,0,0,1.3-.312,3.259,3.259,0,0,0,.93-.828l.883.688A3.55,3.55,0,0,1,71.4,57.156Zm-.18-7.578a1.928,1.928,0,0,0-1.469.637A3.1,3.1,0,0,0,69.016,52H73.25v-.109a2.753,2.753,0,0,0-.594-1.707A1.815,1.815,0,0,0,71.219,49.578ZM81.9,57H80.453V45H81.9Zm7.531,0a3.036,3.036,0,0,1-.2-.891,3.225,3.225,0,0,1-2.406,1.047,2.984,2.984,0,0,1-2.051-.707,2.288,2.288,0,0,1-.8-1.793,2.39,2.39,0,0,1,1-2.051,4.733,4.733,0,0,1,2.824-.73H89.2v-.664A1.623,1.623,0,0,0,88.75,50a1.821,1.821,0,0,0-1.336-.449,2.107,2.107,0,0,0-1.3.391,1.151,1.151,0,0,0-.523.945H84.141a2,2,0,0,1,.449-1.223,3.066,3.066,0,0,1,1.219-.934,4.1,4.1,0,0,1,1.691-.344,3.342,3.342,0,0,1,2.289.73,2.635,2.635,0,0,1,.859,2.012v3.891a4.757,4.757,0,0,0,.3,1.852V57Zm-2.4-1.1a2.54,2.54,0,0,0,1.289-.352,2.127,2.127,0,0,0,.883-.914V52.9H88.07q-2.656,0-2.656,1.555a1.316,1.316,0,0,0,.453,1.063A1.742,1.742,0,0,0,87.031,55.9Zm16.984-3.031a5.062,5.062,0,0,1-.883,3.109,2.829,2.829,0,0,1-2.391,1.18,3.1,3.1,0,0,1-2.422-.977v4.07H96.875v-11.7H98.2l.07.938a2.977,2.977,0,0,1,2.453-1.094,2.882,2.882,0,0,1,2.41,1.148,5.117,5.117,0,0,1,.887,3.2ZM102.57,52.7a3.735,3.735,0,0,0-.609-2.258,1.963,1.963,0,0,0-1.672-.828,2.125,2.125,0,0,0-1.969,1.164V54.82a2.129,2.129,0,0,0,1.984,1.156,1.954,1.954,0,0,0,1.652-.824A4.077,4.077,0,0,0,102.57,52.7Zm6.789,4.453a3.693,3.693,0,0,1-2.8-1.129,4.19,4.19,0,0,1-1.078-3.02v-.266a5.073,5.073,0,0,1,.48-2.246,3.748,3.748,0,0,1,1.344-1.547,3.378,3.378,0,0,1,1.871-.559,3.166,3.166,0,0,1,2.563,1.086,4.7,4.7,0,0,1,.914,3.109v.6H106.93a3,3,0,0,0,.73,2.02,2.3,2.3,0,0,0,1.777.77,2.517,2.517,0,0,0,1.3-.312,3.259,3.259,0,0,0,.93-.828l.883.688A3.55,3.55,0,0,1,109.359,57.156Zm-.18-7.578a1.928,1.928,0,0,0-1.469.637A3.1,3.1,0,0,0,106.977,52h4.234v-.109a2.753,2.753,0,0,0-.594-1.707A1.815,1.815,0,0,0,109.18,49.578Zm7.109-3.078v2.047h1.578v1.117h-1.578v5.249a1.173,1.173,0,0,0,.211.763.888.888,0,0,0,.719.254,3.5,3.5,0,0,0,.688-.094V57a4.215,4.215,0,0,1-1.109.155,1.8,1.8,0,0,1-1.461-.586,2.517,2.517,0,0,1-.492-1.664V49.664H113.3V48.547h1.539V46.5ZM121.125,57H119.68V48.547h1.445Zm-1.562-10.7a.863.863,0,0,1,.215-.594.807.807,0,0,1,.637-.242.819.819,0,0,1,.641.242.854.854,0,0,1,.219.594.826.826,0,0,1-.219.586.834.834,0,0,1-.641.234.821.821,0,0,1-.637-.234A.834.834,0,0,1,119.563,46.3Zm7.266,9.672a2.082,2.082,0,0,0,1.352-.469,1.649,1.649,0,0,0,.641-1.172h1.367a2.621,2.621,0,0,1-.5,1.383,3.293,3.293,0,0,1-1.23,1.047,3.55,3.55,0,0,1-1.629.391A3.482,3.482,0,0,1,124.082,56a4.59,4.59,0,0,1-1.02-3.152v-.242a5.089,5.089,0,0,1,.453-2.2,3.451,3.451,0,0,1,1.3-1.492,3.7,3.7,0,0,1,2-.531,3.39,3.39,0,0,1,2.363.852,3.043,3.043,0,0,1,1,2.211H128.82a1.992,1.992,0,0,0-.621-1.348,1.932,1.932,0,0,0-1.379-.527,2.023,2.023,0,0,0-1.707.793,3.724,3.724,0,0,0-.605,2.293v.273a3.65,3.65,0,0,0,.6,2.25A2.033,2.033,0,0,0,126.828,55.977ZM133.383,57h-1.445V48.547h1.445ZM131.82,46.3a.863.863,0,0,1,.215-.594.807.807,0,0,1,.637-.242.819.819,0,0,1,.641.242.854.854,0,0,1,.219.594.826.826,0,0,1-.219.586.834.834,0,0,1-.641.234.821.821,0,0,1-.637-.234A.834.834,0,0,1,131.82,46.3Zm3.492,6.391a4.993,4.993,0,0,1,.488-2.234,3.642,3.642,0,0,1,1.359-1.531,3.7,3.7,0,0,1,1.988-.539,3.565,3.565,0,0,1,2.793,1.2,4.6,4.6,0,0,1,1.066,3.18v.1a5.036,5.036,0,0,1-.473,2.215,3.589,3.589,0,0,1-1.352,1.527,3.743,3.743,0,0,1-2.02.547,3.556,3.556,0,0,1-2.785-1.2,4.575,4.575,0,0,1-1.066-3.164Zm1.453.172a3.616,3.616,0,0,0,.652,2.258,2.211,2.211,0,0,0,3.5-.012,3.954,3.954,0,0,0,.648-2.418,3.61,3.61,0,0,0-.66-2.254,2.1,2.1,0,0,0-1.754-.863,2.075,2.075,0,0,0-1.727.852A3.925,3.925,0,0,0,136.766,52.867ZM139.8,45h1.75l-2.094,2.3-1.164,0Zm6.383,3.547.047,1.063a3.08,3.08,0,0,1,2.531-1.219q2.68,0,2.7,3.023V57h-1.445V51.406a1.946,1.946,0,0,0-.418-1.352,1.675,1.675,0,0,0-1.277-.437,2.086,2.086,0,0,0-1.234.375,2.546,2.546,0,0,0-.828.984V57H144.82V48.547Zm7.492,7.7a.905.905,0,0,1,.223-.625.848.848,0,0,1,.668-.25.874.874,0,0,1,.676.25.887.887,0,0,1,.23.625.839.839,0,0,1-.23.6.89.89,0,0,1-.676.242.8.8,0,0,1-.891-.844Z" transform="translate(-6798 -5422)" fill="#12263f"/>
    <path id="Trazado_806441" data-name="Trazado 806441" d="M5.3,3.625l3.719,9.281,3.719-9.281H14.68V15h-1.5V10.57l.141-4.781L9.586,15H8.438L4.711,5.813l.148,4.758V15h-1.5V3.625ZM18.672,15H17.227V6.547h1.445ZM17.109,4.3a.863.863,0,0,1,.215-.594.807.807,0,0,1,.637-.242.819.819,0,0,1,.641.242.854.854,0,0,1,.219.594.826.826,0,0,1-.219.586.834.834,0,0,1-.641.234.821.821,0,0,1-.637-.234A.834.834,0,0,1,17.109,4.3ZM22.555,15H21.109V3h1.445Zm5.82.156a3.693,3.693,0,0,1-2.8-1.129,4.19,4.19,0,0,1-1.078-3.02v-.266A5.073,5.073,0,0,1,24.98,8.5a3.748,3.748,0,0,1,1.344-1.547A3.378,3.378,0,0,1,28.2,6.391a3.166,3.166,0,0,1,2.563,1.086,4.7,4.7,0,0,1,.914,3.109v.6H25.945a3,3,0,0,0,.73,2.02,2.3,2.3,0,0,0,1.777.77,2.517,2.517,0,0,0,1.3-.312,3.259,3.259,0,0,0,.93-.828l.883.688A3.55,3.55,0,0,1,28.375,15.156ZM28.2,7.578a1.928,1.928,0,0,0-1.469.637A3.1,3.1,0,0,0,25.992,10h4.234V9.891a2.753,2.753,0,0,0-.594-1.707A1.815,1.815,0,0,0,28.2,7.578Zm10.07,5.18a1.064,1.064,0,0,0-.441-.91,4.249,4.249,0,0,0-1.539-.559,7.277,7.277,0,0,1-1.742-.562,2.479,2.479,0,0,1-.953-.781,1.869,1.869,0,0,1-.309-1.078,2.193,2.193,0,0,1,.879-1.758,3.432,3.432,0,0,1,2.246-.719,3.532,3.532,0,0,1,2.332.742,2.357,2.357,0,0,1,.895,1.9H38.18a1.3,1.3,0,0,0-.5-1.023,1.888,1.888,0,0,0-1.27-.43,1.976,1.976,0,0,0-1.234.344,1.082,1.082,0,0,0-.445.9.877.877,0,0,0,.414.789,5.1,5.1,0,0,0,1.5.508,7.8,7.8,0,0,1,1.754.578,2.558,2.558,0,0,1,1,.809,1.988,1.988,0,0,1,.324,1.152,2.163,2.163,0,0,1-.906,1.816,3.8,3.8,0,0,1-2.352.684,4.257,4.257,0,0,1-1.8-.359,2.922,2.922,0,0,1-1.223-1,2.42,2.42,0,0,1-.441-1.395h1.445a1.5,1.5,0,0,0,.582,1.152,2.258,2.258,0,0,0,1.434.426,2.331,2.331,0,0,0,1.316-.332A1.02,1.02,0,0,0,38.266,12.758ZM45.2,10.7a4.952,4.952,0,0,1,.922-3.129,3.137,3.137,0,0,1,4.766-.168V3h1.445V15H51.008l-.07-.906a2.943,2.943,0,0,1-2.414,1.063,2.887,2.887,0,0,1-2.395-1.2,5.008,5.008,0,0,1-.926-3.141Zm1.445.164a3.749,3.749,0,0,0,.594,2.25,1.92,1.92,0,0,0,1.641.813A2.108,2.108,0,0,0,50.891,12.7V8.813a2.125,2.125,0,0,0-1.992-1.2,1.929,1.929,0,0,0-1.656.82A4.128,4.128,0,0,0,46.648,10.867Zm11.438,4.289a3.693,3.693,0,0,1-2.8-1.129,4.19,4.19,0,0,1-1.078-3.02v-.266a5.073,5.073,0,0,1,.48-2.246,3.748,3.748,0,0,1,1.344-1.547,3.378,3.378,0,0,1,1.871-.559,3.166,3.166,0,0,1,2.563,1.086,4.7,4.7,0,0,1,.914,3.109v.6H55.656a3,3,0,0,0,.73,2.02,2.3,2.3,0,0,0,1.777.77,2.517,2.517,0,0,0,1.3-.312,3.259,3.259,0,0,0,.93-.828l.883.688A3.55,3.55,0,0,1,58.086,15.156Zm-.18-7.578a1.928,1.928,0,0,0-1.469.637A3.1,3.1,0,0,0,55.7,10h4.234V9.891a2.753,2.753,0,0,0-.594-1.707A1.815,1.815,0,0,0,57.906,7.578ZM6.289,28.7a4.993,4.993,0,0,1,.488-2.234A3.643,3.643,0,0,1,8.137,24.93a3.7,3.7,0,0,1,1.988-.539,3.565,3.565,0,0,1,2.793,1.2,4.6,4.6,0,0,1,1.066,3.18v.1a5.036,5.036,0,0,1-.473,2.215,3.589,3.589,0,0,1-1.352,1.527,3.743,3.743,0,0,1-2.02.547,3.556,3.556,0,0,1-2.785-1.2A4.575,4.575,0,0,1,6.289,28.8Zm1.453.172a3.616,3.616,0,0,0,.652,2.258,2.088,2.088,0,0,0,1.746.852,2.075,2.075,0,0,0,1.75-.863,3.955,3.955,0,0,0,.648-2.418,3.61,3.61,0,0,0-.66-2.254,2.1,2.1,0,0,0-1.754-.863A2.075,2.075,0,0,0,8.4,26.43,3.925,3.925,0,0,0,7.742,28.867Zm15.211,0a5.026,5.026,0,0,1-.891,3.113,2.846,2.846,0,0,1-2.391,1.176A2.947,2.947,0,0,1,17.2,32.023l-.07.977H15.8V21h1.445v4.477a2.93,2.93,0,0,1,2.414-1.086,2.863,2.863,0,0,1,2.418,1.164,5.177,5.177,0,0,1,.879,3.188ZM21.508,28.7a3.906,3.906,0,0,0-.57-2.281,1.888,1.888,0,0,0-1.641-.8,2.122,2.122,0,0,0-2.055,1.328V30.6a2.181,2.181,0,0,0,2.07,1.328,1.878,1.878,0,0,0,1.617-.8A4.153,4.153,0,0,0,21.508,28.7Zm4.758-4.156v9.43q0,2.438-2.211,2.438a2.7,2.7,0,0,1-.883-.14V35.125a2.794,2.794,0,0,0,.656.063.982.982,0,0,0,.738-.262,1.3,1.3,0,0,0,.254-.911V24.547ZM24.672,22.3a.867.867,0,0,1,.215-.59.79.79,0,0,1,.629-.246.819.819,0,0,1,.641.242.854.854,0,0,1,.219.594.826.826,0,0,1-.219.586.834.834,0,0,1-.641.234.808.808,0,0,1-.633-.234A.843.843,0,0,1,24.672,22.3ZM32.1,33.156a3.693,3.693,0,0,1-2.8-1.129,4.19,4.19,0,0,1-1.078-3.02v-.266a5.073,5.073,0,0,1,.48-2.246,3.748,3.748,0,0,1,1.344-1.547,3.378,3.378,0,0,1,1.871-.559,3.166,3.166,0,0,1,2.563,1.086,4.7,4.7,0,0,1,.914,3.109v.6H29.672a3,3,0,0,0,.73,2.02,2.3,2.3,0,0,0,1.777.77,2.517,2.517,0,0,0,1.3-.312,3.259,3.259,0,0,0,.93-.828l.883.688A3.55,3.55,0,0,1,32.1,33.156Zm-.18-7.578a1.928,1.928,0,0,0-1.469.637A3.1,3.1,0,0,0,29.719,28h4.234v-.109a2.753,2.753,0,0,0-.594-1.707A1.815,1.815,0,0,0,31.922,25.578ZM39.031,22.5v2.047h1.578v1.117H39.031v5.249a1.173,1.173,0,0,0,.211.763.888.888,0,0,0,.719.254,3.5,3.5,0,0,0,.688-.094V33a4.215,4.215,0,0,1-1.109.155,1.8,1.8,0,0,1-1.461-.586,2.517,2.517,0,0,1-.492-1.664V25.664H36.047V24.547h1.539V22.5Zm2.727,6.2a4.993,4.993,0,0,1,.488-2.234,3.643,3.643,0,0,1,1.359-1.531,3.7,3.7,0,0,1,1.988-.539,3.565,3.565,0,0,1,2.793,1.2,4.6,4.6,0,0,1,1.066,3.18v.1a5.036,5.036,0,0,1-.473,2.215,3.589,3.589,0,0,1-1.352,1.527,3.743,3.743,0,0,1-2.02.547,3.556,3.556,0,0,1-2.785-1.2A4.575,4.575,0,0,1,41.758,28.8Zm1.453.172a3.616,3.616,0,0,0,.652,2.258,2.211,2.211,0,0,0,3.5-.012,3.955,3.955,0,0,0,.648-2.418,3.61,3.61,0,0,0-.66-2.254,2.1,2.1,0,0,0-1.754-.863,2.075,2.075,0,0,0-1.727.852A3.925,3.925,0,0,0,43.211,28.867Zm12.977,1.891a1.064,1.064,0,0,0-.441-.91,4.249,4.249,0,0,0-1.539-.559,7.277,7.277,0,0,1-1.742-.562,2.479,2.479,0,0,1-.953-.781,1.869,1.869,0,0,1-.309-1.078,2.193,2.193,0,0,1,.879-1.758,3.432,3.432,0,0,1,2.246-.719,3.532,3.532,0,0,1,2.332.742,2.357,2.357,0,0,1,.895,1.9H56.1a1.3,1.3,0,0,0-.5-1.023,1.888,1.888,0,0,0-1.27-.43,1.976,1.976,0,0,0-1.234.344,1.082,1.082,0,0,0-.445.9.877.877,0,0,0,.414.789,5.1,5.1,0,0,0,1.5.508,7.8,7.8,0,0,1,1.754.578,2.558,2.558,0,0,1,1,.809,1.988,1.988,0,0,1,.324,1.152,2.163,2.163,0,0,1-.906,1.816,3.8,3.8,0,0,1-2.352.684,4.257,4.257,0,0,1-1.8-.359,2.922,2.922,0,0,1-1.223-1,2.42,2.42,0,0,1-.441-1.395h1.445a1.5,1.5,0,0,0,.582,1.152,2.258,2.258,0,0,0,1.434.426,2.331,2.331,0,0,0,1.316-.332A1.02,1.02,0,0,0,56.188,30.758Z" transform="translate(-6460 -5444)" fill="#12263f"/>
    <path id="Icon_awesome-long-arrow-alt-down" data-name="Icon awesome-long-arrow-alt-down" d="M6.947,6.2v222.88a.555.555,0,0,1-.555.555H3.8a.555.555,0,0,1-.555-.555V6.2H1.113a1.111,1.111,0,0,1-.785-1.9L4.31.325a1.111,1.111,0,0,1,1.571,0L9.864,4.308a1.111,1.111,0,0,1-.785,1.9Z" transform="translate(-6785 -5509.404) rotate(-90)" fill="#f9305f"/>
    <path id="Icon_awesome-long-arrow-alt-down-2" data-name="Icon awesome-long-arrow-alt-down" d="M6.947,230.436V217.555A.555.555,0,0,0,6.391,217H3.8a.555.555,0,0,0-.555.555v12.881H1.113a1.111,1.111,0,0,0-.785,1.9l3.983,3.983a1.111,1.111,0,0,0,1.571,0l3.983-3.983a1.111,1.111,0,0,0-.785-1.9Z" transform="translate(-6423.404 -5226.68) rotate(180)" fill="#f9305f"/>
    <path id="Trazado_806245" data-name="Trazado 806245" d="M2.062,38.691a.772.772,0,0,0,.607.694l2.691.581a12.2,12.2,0,0,0,.361,1.353L3.684,43.164a.772.772,0,0,0-.178.9A15.443,15.443,0,0,0,4.739,46.22a.772.772,0,0,0,.872.3l2.616-.843a12.374,12.374,0,0,0,1,1L8.38,49.285a.772.772,0,0,0,.3.872,15.443,15.443,0,0,0,2.151,1.233.773.773,0,0,0,.9-.178l1.846-2.037a12.433,12.433,0,0,0,1.354.361l.581,2.691a.773.773,0,0,0,.693.607c.411.032.822.062,1.242.062s.831-.029,1.242-.062a.772.772,0,0,0,.694-.607l.581-2.691a12.215,12.215,0,0,0,1.354-.361l1.846,2.037a.771.771,0,0,0,.9.178,15.521,15.521,0,0,0,2.151-1.233.772.772,0,0,0,.3-.872l-.843-2.616a12.493,12.493,0,0,0,1-1l2.616.843a.771.771,0,0,0,.872-.3,15.443,15.443,0,0,0,1.233-2.151.772.772,0,0,0-.178-.9l-2.037-1.846a12.432,12.432,0,0,0,.361-1.354l2.691-.581a.773.773,0,0,0,.607-.693c.032-.412.061-.823.061-1.243s-.029-.831-.062-1.242a.772.772,0,0,0-.607-.694l-2.691-.581a12.215,12.215,0,0,0-.361-1.354l2.037-1.846a.772.772,0,0,0,.178-.9,15.521,15.521,0,0,0-1.233-2.151.771.771,0,0,0-.872-.3l-2.616.843a12.373,12.373,0,0,0-1-1l.843-2.616a.772.772,0,0,0-.3-.872,15.443,15.443,0,0,0-2.151-1.233.771.771,0,0,0-.9.178l-1.846,2.037a12.433,12.433,0,0,0-1.354-.361l-.581-2.691a.773.773,0,0,0-.693-.607,15.7,15.7,0,0,0-2.484,0,.772.772,0,0,0-.694.607l-.581,2.691a12.2,12.2,0,0,0-1.353.361L11.73,23.687a.772.772,0,0,0-.9-.178,15.443,15.443,0,0,0-2.151,1.233.772.772,0,0,0-.3.872l.843,2.616a12.374,12.374,0,0,0-1,1L5.61,28.383a.77.77,0,0,0-.872.3,15.443,15.443,0,0,0-1.233,2.151.772.772,0,0,0,.178.9l2.037,1.846a12.433,12.433,0,0,0-.361,1.354l-2.691.581a.773.773,0,0,0-.607.693C2.029,36.618,2,37.03,2,37.449s.029.831.062,1.242Zm1.5-1.789,2.627-.568a.773.773,0,0,0,.6-.631,10.766,10.766,0,0,1,.555-2.078.771.771,0,0,0-.2-.846l-1.984-1.8c.173-.331.354-.649.541-.949l2.545.82a.775.775,0,0,0,.835-.246A10.859,10.859,0,0,1,10.6,29.079a.771.771,0,0,0,.246-.835l-.82-2.545q.451-.282.949-.541l1.8,1.985a.773.773,0,0,0,.846.2,10.714,10.714,0,0,1,2.077-.555.773.773,0,0,0,.631-.6l.567-2.627a10.171,10.171,0,0,1,1.1,0l.568,2.627a.773.773,0,0,0,.631.6,10.766,10.766,0,0,1,2.078.555.771.771,0,0,0,.846-.2l1.8-1.984c.331.173.649.354.949.541l-.82,2.545a.773.773,0,0,0,.246.835,10.859,10.859,0,0,1,1.528,1.528.77.77,0,0,0,.835.246l2.545-.82q.282.451.541.948l-1.985,1.8a.772.772,0,0,0-.2.846A10.715,10.715,0,0,1,28.1,35.7a.773.773,0,0,0,.6.631l2.627.567c.01.181.017.365.017.548s-.006.367-.016.548l-2.627.568a.773.773,0,0,0-.6.631,10.766,10.766,0,0,1-.555,2.078.771.771,0,0,0,.2.846l1.984,1.8c-.173.331-.354.649-.541.949l-2.545-.82a.769.769,0,0,0-.835.246,10.9,10.9,0,0,1-1.528,1.528.772.772,0,0,0-.246.834l.82,2.545q-.451.282-.948.541l-1.8-1.985a.775.775,0,0,0-.846-.2,10.714,10.714,0,0,1-2.077.555.773.773,0,0,0-.631.6L18,51.333a10.17,10.17,0,0,1-1.1,0l-.568-2.627a.773.773,0,0,0-.631-.6,10.766,10.766,0,0,1-2.078-.555.77.77,0,0,0-.846.2l-1.8,1.984c-.331-.173-.649-.354-.949-.541l.82-2.545a.773.773,0,0,0-.246-.835A10.859,10.859,0,0,1,9.077,44.29a.771.771,0,0,0-.835-.246l-2.545.82q-.282-.451-.541-.949l1.985-1.8a.772.772,0,0,0,.2-.846,10.714,10.714,0,0,1-.555-2.077.773.773,0,0,0-.6-.631L3.561,38c-.009-.181-.016-.365-.016-.548S3.551,37.083,3.561,36.9Z" transform="translate(-6518.338 -5521.558)"/>
    <path id="Trazado_806246" data-name="Trazado 806246" d="M48.932,12.994a.772.772,0,0,0,.535-.648,9.082,9.082,0,0,0,.068-1.078,9.24,9.24,0,0,0-.067-1.078.772.772,0,0,0-.535-.648l-2.142-.673q-.1-.263-.213-.516l1.038-1.989a.774.774,0,0,0-.079-.836A9.35,9.35,0,0,0,46.009,4a.774.774,0,0,0-.836-.08l-1.99,1.038q-.253-.116-.516-.212L41.994,2.6a.772.772,0,0,0-.648-.535,8.543,8.543,0,0,0-2.157,0,.772.772,0,0,0-.648.535l-.673,2.142q-.263.1-.516.213L35.363,3.921A.776.776,0,0,0,34.527,4,9.35,9.35,0,0,0,33,5.528a.773.773,0,0,0-.08.836l1.037,1.989q-.116.253-.212.516L31.6,9.542a.772.772,0,0,0-.535.648,8.683,8.683,0,0,0,0,2.156.772.772,0,0,0,.535.648l2.142.673q.1.263.213.516l-1.038,1.989a.774.774,0,0,0,.079.836,9.35,9.35,0,0,0,1.528,1.528.774.774,0,0,0,.836.08l1.989-1.037q.253.116.516.212l.673,2.142a.772.772,0,0,0,.648.535,9.127,9.127,0,0,0,1.08.068,9.239,9.239,0,0,0,1.078-.067.772.772,0,0,0,.648-.535l.673-2.142q.263-.1.516-.213l1.989,1.038a.773.773,0,0,0,.836-.079,9.351,9.351,0,0,0,1.528-1.528.773.773,0,0,0,.08-.836l-1.038-1.989q.117-.253.213-.516Zm-2.981-.683a.775.775,0,0,0-.508.515,5.439,5.439,0,0,1-.412,1,.77.77,0,0,0,0,.723l.98,1.878a7.881,7.881,0,0,1-.579.579l-1.878-.98a.772.772,0,0,0-.723,0,5.44,5.44,0,0,1-1,.412.774.774,0,0,0-.515.508l-.636,2.027a6.507,6.507,0,0,1-.814,0l-.636-2.027a.775.775,0,0,0-.515-.508,5.366,5.366,0,0,1-1-.412.772.772,0,0,0-.724,0l-1.878.98a7.881,7.881,0,0,1-.579-.579l.98-1.878a.772.772,0,0,0,0-.723,5.44,5.44,0,0,1-.412-1,.774.774,0,0,0-.508-.515l-2.027-.636c-.009-.141-.013-.276-.013-.407s0-.266.013-.407l2.027-.636a.775.775,0,0,0,.508-.515,5.366,5.366,0,0,1,.412-1,.772.772,0,0,0,0-.724l-.98-1.878a7.881,7.881,0,0,1,.579-.579l1.878.98a.775.775,0,0,0,.723,0,5.44,5.44,0,0,1,1-.412.774.774,0,0,0,.515-.508l.636-2.027a6.506,6.506,0,0,1,.814,0l.636,2.027a.775.775,0,0,0,.515.508,5.366,5.366,0,0,1,1,.412.772.772,0,0,0,.724,0l1.878-.98a7.882,7.882,0,0,1,.579.579l-.98,1.878a.772.772,0,0,0,0,.723,5.439,5.439,0,0,1,.412,1,.775.775,0,0,0,.508.515l2.027.636c.009.141.013.276.013.407s0,.266-.013.407Z" transform="translate(-6524.941 -5517)"/>
    <path id="Trazado_806247" data-name="Trazado 806247" d="M56.876,33.151l-1.327-.471a6.26,6.26,0,0,0-.26-.631l.6-1.27a.769.769,0,0,0-.09-.806,7.772,7.772,0,0,0-1.328-1.328.772.772,0,0,0-.807-.09l-1.271.6a6.168,6.168,0,0,0-.63-.259l-.472-1.327a.774.774,0,0,0-.635-.508,7.117,7.117,0,0,0-1.874,0,.771.771,0,0,0-.635.508L47.679,28.9a6.259,6.259,0,0,0-.631.26l-1.27-.6a.773.773,0,0,0-.806.09,7.773,7.773,0,0,0-1.328,1.328.774.774,0,0,0-.09.807l.6,1.271a6.168,6.168,0,0,0-.259.63l-1.327.472a.774.774,0,0,0-.508.635,7.566,7.566,0,0,0-.063.936,7.741,7.741,0,0,0,.062.937.771.771,0,0,0,.508.635l1.327.471a6.259,6.259,0,0,0,.26.631l-.6,1.27a.769.769,0,0,0,.09.806A7.772,7.772,0,0,0,44.971,40.8a.774.774,0,0,0,.807.09l1.271-.6a6.168,6.168,0,0,0,.63.259l.472,1.327a.774.774,0,0,0,.635.508,7.459,7.459,0,0,0,.937.063,7.74,7.74,0,0,0,.937-.062.771.771,0,0,0,.635-.508l.471-1.327a6.26,6.26,0,0,0,.631-.26l1.27.6a.767.767,0,0,0,.806-.09A7.773,7.773,0,0,0,55.8,39.475a.774.774,0,0,0,.09-.807l-.6-1.271a6.168,6.168,0,0,0,.259-.63l1.327-.472a.774.774,0,0,0,.508-.635,7.459,7.459,0,0,0,.063-.937,7.742,7.742,0,0,0-.062-.937.773.773,0,0,0-.508-.636Zm-.982,1.854-1.224.435a.772.772,0,0,0-.486.521A4.6,4.6,0,0,1,53.755,37a.774.774,0,0,0-.025.711l.555,1.168q-.192.211-.4.4l-1.168-.555a.774.774,0,0,0-.711.025,4.6,4.6,0,0,1-1.04.429.775.775,0,0,0-.522.486l-.435,1.224a5.28,5.28,0,0,1-.564,0l-.435-1.224a.772.772,0,0,0-.521-.486,4.6,4.6,0,0,1-1.04-.429.779.779,0,0,0-.711-.025l-1.168.555q-.211-.192-.4-.4l.555-1.168A.772.772,0,0,0,45.692,37a4.6,4.6,0,0,1-.429-1.04.775.775,0,0,0-.486-.522l-1.224-.435c-.006-.093-.009-.187-.009-.282s0-.189.008-.282l1.224-.436a.77.77,0,0,0,.485-.521,4.618,4.618,0,0,1,.429-1.04.774.774,0,0,0,.025-.711l-.555-1.168q.192-.211.4-.4l1.168.555a.77.77,0,0,0,.711-.025,4.6,4.6,0,0,1,1.04-.429.775.775,0,0,0,.522-.486l.435-1.224a5.28,5.28,0,0,1,.564,0l.435,1.224a.772.772,0,0,0,.521.486,4.6,4.6,0,0,1,1.04.429.77.77,0,0,0,.711.025l1.168-.555q.211.192.4.4l-.555,1.168a.772.772,0,0,0,.025.711,4.6,4.6,0,0,1,.429,1.04.775.775,0,0,0,.486.522l1.224.435c.006.094.009.188.009.283S55.9,34.912,55.894,35.005Z" transform="translate(-6527.446 -5522.693)"/>
    <path id="Trazado_806248" data-name="Trazado 806248" d="M19.5,47.991A8.5,8.5,0,1,0,11,39.5,8.505,8.505,0,0,0,19.5,47.991Zm0-15.446A6.951,6.951,0,1,1,12.545,39.5,6.959,6.959,0,0,1,19.5,32.545Z" transform="translate(-6520.387 -5523.604)"/>
    <path id="Trazado_806250" data-name="Trazado 806250" d="M41.861,9a3.861,3.861,0,1,0,3.861,3.861A3.866,3.866,0,0,0,41.861,9Zm0,6.178a2.317,2.317,0,1,1,2.317-2.317A2.32,2.32,0,0,1,41.861,15.178Z" transform="translate(-6526.535 -5518.594)"/>
    <path id="Trazado_806251" data-name="Trazado 806251" d="M51.089,33a3.089,3.089,0,1,0,3.089,3.089A3.092,3.092,0,0,0,51.089,33Zm0,4.634a1.545,1.545,0,1,1,1.545-1.545A1.546,1.546,0,0,1,51.089,37.634Z" transform="translate(-6528.813 -5524.059)"/>
    <path id="Trazado_806442" data-name="Trazado 806442" d="M5,0A5,5,0,1,1,0,5,5,5,0,0,1,5,0Z" transform="translate(-6458.5 -5512)" fill="#ccbcfe"/>
    <path id="Trazado_806443" data-name="Trazado 806443" d="M5,0A5,5,0,1,1,0,5,5,5,0,0,1,5,0Z" transform="translate(-6446.5 -5488)" fill="#b0c5fd"/>
    <path id="Trazado_806444" data-name="Trazado 806444" d="M5,0A5,5,0,1,1,0,5,5,5,0,0,1,5,0Z" transform="translate(-6434.5 -5512)" fill="#ccbcfe"/>
    <path id="Trazado_806445" data-name="Trazado 806445" d="M5,0A5,5,0,1,1,0,5,5,5,0,0,1,5,0Z" transform="translate(-6422.5 -5488)" fill="#b0c5fd"/>
    <path id="Trazado_806446" data-name="Trazado 806446" d="M5,0A5,5,0,1,1,0,5,5,5,0,0,1,5,0Z" transform="translate(-6446.5 -5500)" fill="#ccbcfe"/>
    <path id="Trazado_806447" data-name="Trazado 806447" d="M5,0A5,5,0,1,1,0,5,5,5,0,0,1,5,0Z" transform="translate(-6434.5 -5476)" fill="#b0c5fd"/>
    <path id="Trazado_806448" data-name="Trazado 806448" d="M5,0A5,5,0,1,1,0,5,5,5,0,0,1,5,0Z" transform="translate(-6409.5 -5500)" fill="#fdb6c7"/>
    <path id="Trazado_806449" data-name="Trazado 806449" d="M5,0A5,5,0,1,1,0,5,5,5,0,0,1,5,0Z" transform="translate(-6446.5 -5512)" fill="#ccbcfe"/>
    <path id="Trazado_806450" data-name="Trazado 806450" d="M5,0A5,5,0,1,1,0,5,5,5,0,0,1,5,0Z" transform="translate(-6434.5 -5488)" fill="#b0c5fd"/>
    <path id="Trazado_806451" data-name="Trazado 806451" d="M5,0A5,5,0,1,1,0,5,5,5,0,0,1,5,0Z" transform="translate(-6458.5 -5500)" fill="#ccbcfe"/>
    <path id="Trazado_806452" data-name="Trazado 806452" d="M5,0A5,5,0,1,1,0,5,5,5,0,0,1,5,0Z" transform="translate(-6446.5 -5476)" fill="#b0c5fd"/>
    <path id="Trazado_806453" data-name="Trazado 806453" d="M5,0A5,5,0,1,1,0,5,5,5,0,0,1,5,0Z" transform="translate(-6421.5 -5500)" fill="#fdb6c7"/>
    <path id="Trazado_806454" data-name="Trazado 806454" d="M5,0A5,5,0,1,1,0,5,5,5,0,0,1,5,0Z" transform="translate(-6434.5 -5500)" fill="#ccbcfe"/>
    <path id="Trazado_806455" data-name="Trazado 806455" d="M5,0A5,5,0,1,1,0,5,5,5,0,0,1,5,0Z" transform="translate(-6422.5 -5476)" fill="#b0c5fd"/>
    <path id="Trazado_806456" data-name="Trazado 806456" d="M5,0A5,5,0,1,1,0,5,5,5,0,0,1,5,0Z" transform="translate(-6397.5 -5500)" fill="#fdb6c7"/>
  </g>
</svg>
