<svg id="message" xmlns="http://www.w3.org/2000/svg" xmlns:xlink="http://www.w3.org/1999/xlink" width="117.241" height="109.599" viewBox="0 0 117.241 109.599">
  <defs>
    <linearGradient id="linear-gradient" x1="0.208" y1="1.047" x2="0.865" y2="0.159" gradientUnits="objectBoundingBox">
      <stop offset="0" stop-color="#c6cefb"/>
      <stop offset="0.255" stop-color="#cedaf7"/>
      <stop offset="0.989" stop-color="#e2faeb"/>
    </linearGradient>
  </defs>
  <g id="Grupo_1068894" data-name="Grupo 1068894" transform="translate(0 11.966)">
    <g id="Grupo_1068893" data-name="Grupo 1068893">
      <path id="Trazado_804841" data-name="Trazado 804841" d="M105.558,106.585C97.1,94.906,94.575,57.271,77.621,72.527,64.043,84.744,54.274,63.789,40.532,70.5c-7.589,3.707-2.113,13.725-14.462,22.42C10.417,103.942-7.464,119.3,3.254,138.167c7.209,10.064,24.764,14.238,35.864,15.479C72.519,157.379,145.6,161.894,105.558,106.585Z" transform="translate(0 -68.941)" fill="url(#linear-gradient)"/>
    </g>
  </g>
  <g id="Grupo_1068910" data-name="Grupo 1068910" transform="translate(11.361 0)">
    <g id="Grupo_1068909" data-name="Grupo 1068909" transform="translate(0 2.983)">
      <g id="Grupo_1068907" data-name="Grupo 1068907">
        <path id="Trazado_804842" data-name="Trazado 804842" d="M132.772,95.314h-6.208V83.1h4.56a1.947,1.947,0,0,0,1.46-3.235L121.362,67.146a1.947,1.947,0,0,0-2.92,0L113.8,72.405,102.41,59.49a2.29,2.29,0,0,0-3.434,0L87.617,72.367l-4.605-5.221a1.947,1.947,0,0,0-2.92,0L68.87,79.867A1.947,1.947,0,0,0,70.33,83.1h4.56V95.314H68.682a5.532,5.532,0,0,0-5.531,5.531v33.2H57a2.392,2.392,0,0,0-2.392,2.392v18.215A2.392,2.392,0,0,0,57,157.045H90.466a2.392,2.392,0,0,0,2.392-2.392v-8.339h39.914a5.525,5.525,0,0,0,5.531-5.528V100.845a5.529,5.529,0,0,0-5.531-5.531ZM108.528,83.09c.051,0,.1.011.153.011h4.56V95.314h-4.713Zm.112-4.833-.112.127v-.127Zm-15.783,0v.051l-.045-.051ZM88.213,83.1h4.56c.029,0,.056-.005.085-.006V95.314H88.213Z" transform="translate(-53.467 -52.074)" fill="#2a2ab5" opacity="0.1"/>
        <g id="Grupo_1068895" data-name="Grupo 1068895" transform="translate(14.912 8.917)">
          <path id="Trazado_804843" data-name="Trazado 804843" d="M308.071,82.036,296.849,69.315a1.947,1.947,0,0,0-2.92,0L282.708,82.036a1.947,1.947,0,0,0,1.46,3.235h4.56V105.9H302.05V85.27h4.56A1.947,1.947,0,0,0,308.071,82.036Z" transform="translate(-243.866 -68.656)" fill="#ff5ba7"/>
          <path id="Trazado_804844" data-name="Trazado 804844" d="M140.588,82.036,129.366,69.315a1.947,1.947,0,0,0-2.92,0L115.225,82.036a1.947,1.947,0,0,0,1.46,3.235h4.56V105.9h13.322V85.27h4.56A1.947,1.947,0,0,0,140.588,82.036Z" transform="translate(-114.734 -68.656)" fill="#ff5ba7"/>
        </g>
        <g id="Grupo_1068896" data-name="Grupo 1068896" transform="translate(9.683 37.744)">
          <path id="Trazado_804845" data-name="Trazado 804845" d="M167.054,200.077v39.941a5.525,5.525,0,0,1-5.531,5.528H97.433a5.528,5.528,0,0,1-5.531-5.528V200.077a5.532,5.532,0,0,1,5.531-5.531h64.091A5.529,5.529,0,0,1,167.054,200.077Z" transform="translate(-91.902 -194.546)" fill="#02ffb2"/>
          <path id="Trazado_804846" data-name="Trazado 804846" d="M167.054,200.077v4.639l-35.586,22.556a3.87,3.87,0,0,1-4.152-.005L91.9,204.716v-4.639a5.532,5.532,0,0,1,5.531-5.531h64.091a5.529,5.529,0,0,1,5.531,5.531Z" transform="translate(-91.902 -194.546)" fill="#01eba4"/>
          <path id="Trazado_804847" data-name="Trazado 804847" d="M91.9,315.145l35.584-22.557a3.87,3.87,0,0,1,4.151,0l35.415,22.552a5.531,5.531,0,0,1-5.53,5.53H97.433a5.528,5.528,0,0,1-5.529-5.53Z" transform="translate(-91.903 -269.675)" fill="#96ffd1"/>
          <path id="Trazado_804848" data-name="Trazado 804848" d="M232.817,297.458l-7.8,4.946a3.875,3.875,0,0,1-4.152,0l-7.632-4.861,7.8-4.946a3.871,3.871,0,0,1,4.152,0Z" transform="translate(-185.447 -269.677)" fill="#02ffb2"/>
          <path id="Trazado_804849" data-name="Trazado 804849" d="M167.051,200.077l-35.582,22.557a3.871,3.871,0,0,1-4.152,0L91.9,200.077a5.532,5.532,0,0,1,5.53-5.53h64.093A5.527,5.527,0,0,1,167.051,200.077Z" transform="translate(-91.9 -194.547)" fill="#dbfced"/>
          <path id="Trazado_804850" data-name="Trazado 804850" d="M237.309,194.547v15.447a2.291,2.291,0,0,1-2.29,2.29H223.93a2.289,2.289,0,0,1-2.29-2.29V194.547Z" transform="translate(-191.931 -194.547)" fill="#96ffd1"/>
        </g>
        <g id="Grupo_1068906" data-name="Grupo 1068906" transform="translate(1.145 71.171)">
          <g id="Grupo_1068901" data-name="Grupo 1068901">
            <g id="Grupo_1068900" data-name="Grupo 1068900">
              <g id="Grupo_1068899" data-name="Grupo 1068899">
                <g id="Grupo_1068898" data-name="Grupo 1068898">
                  <path id="Trazado_804851" data-name="Trazado 804851" d="M90.466,368.827H57a2.392,2.392,0,0,1-2.392-2.392V348.22A2.392,2.392,0,0,1,57,345.828H74.615l4.6-4.6a2.392,2.392,0,0,1,3.382,0l4.6,4.6h3.259a2.392,2.392,0,0,1,2.392,2.392v18.215a2.392,2.392,0,0,1-2.392,2.392Z" transform="translate(-54.612 -340.523)" fill="#02ffb2"/>
                  <path id="Trazado_804852" data-name="Trazado 804852" d="M90.466,368.827H57a2.392,2.392,0,0,1-2.392-2.392V348.22A2.392,2.392,0,0,1,57,345.828H74.615l4.6-4.6a2.392,2.392,0,0,1,3.382,0l4.6,4.6h3.259a2.392,2.392,0,0,1,2.392,2.392v18.215a2.392,2.392,0,0,1-2.392,2.392Z" transform="translate(-54.612 -340.523)" fill="#ff7eb7"/>
                  <g id="Grupo_1068897" data-name="Grupo 1068897" transform="translate(15.93 9.794)">
                    <path id="Trazado_804853" data-name="Trazado 804853" d="M130.947,401.805a2.088,2.088,0,0,1-.668-1.651c0-1.971,2.26-2.9,3.37-3.614a6.513,6.513,0,0,0,2.174-1.875v5.561a5.821,5.821,0,0,1-1.512,1.58h7.653V391.238a17.016,17.016,0,0,0-.318-3.71,4.7,4.7,0,0,0-1.26-2.3,5.685,5.685,0,0,0-2.559-1.452,14.691,14.691,0,0,0-6.847-.144c-1.87.38-3.939,1.083-5.073,2.724-1.449,2.1-.117,5.312,2.538,5.312a3.245,3.245,0,0,0,1.748-6.015,5.709,5.709,0,0,1,3.71-.282,2.746,2.746,0,0,1,1.921,2.609v3.346a2.028,2.028,0,0,1-1.088,1.813c-3,1.822-7.2,1.961-9.512,4.862a5.249,5.249,0,0,0-1.012,3.806h6.736Z" transform="translate(-124.178 -383.295)" fill="#ffa7ce"/>
                  </g>
                </g>
              </g>
            </g>
          </g>
          <g id="Grupo_1068905" data-name="Grupo 1068905" transform="translate(5.821 11.39)">
            <g id="Grupo_1068902" data-name="Grupo 1068902">
              <path id="Trazado_804854" data-name="Trazado 804854" d="M85.434,392.553H81.179a1.145,1.145,0,0,1,0-2.29h4.255a1.145,1.145,0,1,1,0,2.29Z" transform="translate(-80.034 -390.263)" fill="#fff"/>
            </g>
            <g id="Grupo_1068903" data-name="Grupo 1068903" transform="translate(0 4.667)">
              <path id="Trazado_804855" data-name="Trazado 804855" d="M94.594,412.935H81.179a1.145,1.145,0,0,1,0-2.29H94.594a1.145,1.145,0,0,1,0,2.29Z" transform="translate(-80.034 -410.645)" fill="#fff"/>
            </g>
            <g id="Grupo_1068904" data-name="Grupo 1068904" transform="translate(0 9.334)">
              <path id="Trazado_804856" data-name="Trazado 804856" d="M94.594,433.316H81.179a1.145,1.145,0,1,1,0-2.29H94.594a1.145,1.145,0,1,1,0,2.29Z" transform="translate(-80.034 -431.026)" fill="#fff"/>
            </g>
          </g>
        </g>
        <path id="Trazado_804857" data-name="Trazado 804857" d="M218.6,50.454,205.4,35.491a2.29,2.29,0,0,0-3.434,0l-13.2,14.962a2.29,2.29,0,0,0,1.717,3.8h5.364V82.182a2.29,2.29,0,0,0,2.29,2.29H209.23a2.29,2.29,0,0,0,2.29-2.29V54.258h5.364A2.29,2.29,0,0,0,218.6,50.454Z" transform="translate(-156.458 -33.571)" fill="#ff7eb7"/>
        <path id="Trazado_804858" data-name="Trazado 804858" d="M128.918,66.314H110.532V55.245a1.145,1.145,0,0,0-1.145-1.145h-3.568V51.546h4.219a3.435,3.435,0,0,0,2.576-5.707l-1.138-1.29,3.971-4.5a.8.8,0,0,1,1.2,0l11.222,12.721a.8.8,0,0,1-.6,1.332h-4.56a1.145,1.145,0,0,0-1.145,1.145V60.59a1.145,1.145,0,0,0,2.29,0v-4.2h3.416a3.092,3.092,0,0,0,2.318-5.137l-11.222-12.72a3.092,3.092,0,0,0-4.637,0l-3.781,4.285L99.415,30.877a3.435,3.435,0,0,0-5.152,0l-10.5,11.9-3.747-4.247a3.092,3.092,0,0,0-4.637,0L64.157,51.253a3.092,3.092,0,0,0,2.318,5.137h3.416v9.924H64.826a6.682,6.682,0,0,0-6.674,6.674v32.057h-5a3.541,3.541,0,0,0-3.536,3.537V126.8a3.541,3.541,0,0,0,3.536,3.537H86.612a3.541,3.541,0,0,0,3.536-3.537V108.582a3.541,3.541,0,0,0-3.536-3.537H83.827l-4.27-4.27a3.537,3.537,0,0,0-5,0l-4.27,4.27H60.442V72.988A4.389,4.389,0,0,1,64.826,68.6H87.859v9.721a3.439,3.439,0,0,0,3.435,3.435h11.091a3.439,3.439,0,0,0,3.435-3.435V68.6h23.1a4.389,4.389,0,0,1,4.385,4.384v39.941a4.389,4.389,0,0,1-4.385,4.384H95.871a1.145,1.145,0,1,0,0,2.29h33.047a6.682,6.682,0,0,0,6.674-6.674V72.988A6.682,6.682,0,0,0,128.918,66.314ZM70.761,107.335a1.146,1.146,0,0,0,.81-.335l4.6-4.6a1.247,1.247,0,0,1,1.763,0l4.6,4.6a1.145,1.145,0,0,0,.81.335h3.259a1.248,1.248,0,0,1,1.247,1.247V126.8a1.248,1.248,0,0,1-1.247,1.247H53.149A1.248,1.248,0,0,1,51.9,126.8V108.582a1.248,1.248,0,0,1,1.247-1.247H70.761ZM71.036,54.1h-4.56a.8.8,0,0,1-.6-1.332L77.1,40.048a.8.8,0,0,1,1.2,0l3.937,4.463-1.172,1.329a3.435,3.435,0,0,0,2.576,5.707h4.219V54.1h-3.5a1.145,1.145,0,0,0-1.145,1.145V66.314H72.18V55.245A1.145,1.145,0,0,0,71.036,54.1ZM85.5,66.314V56.39h2.355v9.924Zm19.171-17.058a1.145,1.145,0,0,0-1.145,1.145V78.325a1.146,1.146,0,0,1-1.145,1.145H91.293a1.146,1.146,0,0,1-1.145-1.145V50.4A1.145,1.145,0,0,0,89,49.257H83.639a1.145,1.145,0,0,1-.858-1.9l13.2-14.962a1.145,1.145,0,0,1,1.717,0l13.2,14.962a1.145,1.145,0,0,1-.858,1.9h-5.364Zm1.145,7.134h2.423v9.924h-2.423Z" transform="translate(-49.613 -29.714)" fill="#2a2ab5"/>
      </g>
      <g id="Grupo_1068908" data-name="Grupo 1068908" transform="translate(63.685 68.811)">
        <ellipse id="Elipse_8688" data-name="Elipse 8688" cx="7.375" cy="7.375" rx="7.375" ry="7.375" fill="#00d78f"/>
        <ellipse id="Elipse_8689" data-name="Elipse 8689" cx="4.564" cy="4.564" rx="4.564" ry="4.564" transform="translate(2.811 2.811)" fill="#01eba4"/>
      </g>
    </g>
    <path id="Trazado_804859" data-name="Trazado 804859" d="M418.675,160.605a1.145,1.145,0,0,1-1.145-1.145,1.452,1.452,0,0,0-1.45-1.45,1.145,1.145,0,0,1,0-2.29,1.452,1.452,0,0,0,1.45-1.45,1.145,1.145,0,0,1,2.29,0,1.452,1.452,0,0,0,1.45,1.45,1.145,1.145,0,1,1,0,2.29,1.452,1.452,0,0,0-1.45,1.45A1.145,1.145,0,0,1,418.675,160.605Z" transform="translate(-331.282 -121.882)" fill="#ff7eb7"/>
    <path id="Trazado_804860" data-name="Trazado 804860" d="M241.26,470.129a1.145,1.145,0,0,1-1.145-1.145,1.452,1.452,0,0,0-1.45-1.45,1.145,1.145,0,1,1,0-2.29,1.452,1.452,0,0,0,1.45-1.45,1.145,1.145,0,0,1,2.29,0,1.452,1.452,0,0,0,1.45,1.45,1.145,1.145,0,1,1,0,2.29,1.452,1.452,0,0,0-1.45,1.45A1.145,1.145,0,0,1,241.26,470.129Z" transform="translate(-194.492 -360.53)" fill="#02ffb2"/>
    <path id="Trazado_804861" data-name="Trazado 804861" d="M66.178,160.037a1.145,1.145,0,0,1-.81-1.954l2.29-2.29a1.145,1.145,0,0,1,1.619,1.619l-2.29,2.29A1.141,1.141,0,0,1,66.178,160.037Z" transform="translate(-61.502 -123.681)" fill="#8298fd"/>
    <path id="Trazado_804862" data-name="Trazado 804862" d="M307.8,46.017a1.145,1.145,0,0,1-.81-1.954l2.29-2.29a1.145,1.145,0,0,1,1.619,1.619l-2.29,2.29A1.141,1.141,0,0,1,307.8,46.017Z" transform="translate(-247.792 -35.77)" fill="#02ffb2"/>
    <path id="Trazado_804863" data-name="Trazado 804863" d="M297.8,21.265a1.145,1.145,0,0,1-.81-1.954l2.29-2.29a1.145,1.145,0,0,1,1.619,1.619l-2.29,2.29A1.142,1.142,0,0,1,297.8,21.265Z" transform="translate(-240.082 -16.686)" fill="#ff7eb7"/>
  </g>
</svg>
