<svg xmlns="http://www.w3.org/2000/svg" width="190" height="115" viewBox="0 0 190 115">
  <g id="Grupo_1069127" data-name="Grupo 1069127" transform="translate(-180 -1321)">
    <g id="Grupo_1069113" data-name="Grupo 1069113" transform="translate(0 -7121)">
      <path id="Rectángulo_375112" data-name="Rectángulo 375112" d="M0,0H133a57,57,0,0,1,57,57v1a57,57,0,0,1-57,57H0a0,0,0,0,1,0,0V0A0,0,0,0,1,0,0Z" transform="translate(180 8442)" fill="#ccbcfe"/>
      <g id="neural" transform="translate(232 8457)">
        <path id="Trazado_806257" data-name="Trazado 806257" d="M22.133,46.567a9.353,9.353,0,0,1-1.011,4.278,9.564,9.564,0,1,1,1.011-4.278Z" transform="translate(0.367 12.833)" fill="#f6db40"/>
        <path id="Trazado_806258" data-name="Trazado 806258" d="M41.823,50.348a9.434,9.434,0,0,1,2.31,6.218,9.567,9.567,0,1,1-18.6-3.143,9.554,9.554,0,0,1,16.29-3.075Z" transform="translate(8.433 16.499)" fill="#71d2df"/>
        <path id="Trazado_806259" data-name="Trazado 806259" d="M56.567,25a9.567,9.567,0,1,1,0,19.133A9.607,9.607,0,0,1,47,34.567a8.012,8.012,0,0,1,.1-1.285A9.545,9.545,0,0,1,56.567,25Z" transform="translate(16.499 8.433)" fill="#f6db40"/>
        <path id="Trazado_806260" data-name="Trazado 806260" d="M44.037,32.851A9.562,9.562,0,0,1,25,31.567a9.353,9.353,0,0,1,1.011-4.278,9.566,9.566,0,0,1,18.122,4.278A8.011,8.011,0,0,1,44.037,32.851Z" transform="translate(8.433 7.333)" fill="#db535b"/>
        <path id="Trazado_806261" data-name="Trazado 806261" d="M34.567,3a9.567,9.567,0,1,1,0,19.133A9.564,9.564,0,0,1,25,12.567,9.56,9.56,0,0,1,34.567,3Z" transform="translate(8.433 0.367)" fill="#8360f4"/>
        <path id="Trazado_806262" data-name="Trazado 806262" d="M21.559,17.3a9.541,9.541,0,0,1,.574,3.266,9.353,9.353,0,0,1-1.011,4.278,9.564,9.564,0,1,1,.437-7.544Z" transform="translate(0.367 3.3)" fill="#6599ed"/>
        <path id="Trazado_806263" data-name="Trazado 806263" d="M17.667,49.559a10.927,10.927,0,1,0,4.351,15.912l10.328,5.17a10.93,10.93,0,1,0,19.707-3.7L66.566,51.772a10.933,10.933,0,1,0-.194-17.4L51.626,19.627a10.938,10.938,0,1,0-19.281-4.276l-9.692,3.531a10.936,10.936,0,1,0-5.346,15l5.031,8.466ZM12.933,67.6a8.2,8.2,0,1,1,8.2-8.2A8.208,8.208,0,0,1,12.933,67.6Zm10.3-4.577A10.859,10.859,0,0,0,19.965,51.04l3.93-6.071L35.745,64.91a10.973,10.973,0,0,0-2.452,3.147ZM43,23.866a10.869,10.869,0,0,0,6.694-2.307L64.441,36.307a10.884,10.884,0,0,0-1.927,3.88l-8.585-1.181c0-.036,0-.071,0-.107a10.929,10.929,0,0,0-20.019-6.072l-1.63-.815,5.983-9.24A10.843,10.843,0,0,0,43,23.866Zm1.367,38.361V49.737a10.947,10.947,0,0,0,9.187-8.025l8.585,1.181c0,.036-.005.071-.005.107a10.873,10.873,0,0,0,2.453,6.888l-14.35,15A10.886,10.886,0,0,0,44.366,62.227ZM43,30.7a8.2,8.2,0,1,1-8.2,8.2A8.208,8.208,0,0,1,43,30.7ZM32.7,35.277a10.892,10.892,0,0,0,8.937,14.462v12.49A10.843,10.843,0,0,0,38,63.354L25.553,42.408l5.236-8.085ZM43,81.266a8.2,8.2,0,1,1,8.2-8.2A8.208,8.208,0,0,1,43,81.266ZM73.066,34.8a8.2,8.2,0,1,1-8.2,8.2A8.208,8.208,0,0,1,73.066,34.8ZM43,4.733a8.2,8.2,0,1,1-8.2,8.2A8.208,8.208,0,0,1,43,4.733ZM33.281,17.917a11.008,11.008,0,0,0,2.688,3.376l-6.144,9.49-6.587-3.294a10.7,10.7,0,0,0,.35-6.041ZM4.733,23.866a8.2,8.2,0,1,1,8.2,8.2A8.208,8.208,0,0,1,4.733,23.866ZM19.65,32.475a11.025,11.025,0,0,0,2.368-2.537l6.31,3.154-4.334,6.692Z" transform="translate(0 0)" fill="#1a1a1a"/>
      </g>
    </g>
  </g>
</svg>
