<svg id="server_2_" data-name="server(2)" xmlns="http://www.w3.org/2000/svg" width="78" height="78" viewBox="0 0 78 78">
  <g id="Grupo_1068775" data-name="Grupo 1068775">
    <g id="Grupo_1068774" data-name="Grupo 1068774">
      <path id="Trazado_804813" data-name="Trazado 804813" d="M74.1,23.4A3.9,3.9,0,0,0,78,19.5V3.9A3.9,3.9,0,0,0,74.1,0H3.9A3.9,3.9,0,0,0,0,3.9V19.5a3.9,3.9,0,0,0,3.9,3.9H7.8v3.9H3.9A3.9,3.9,0,0,0,0,31.2V46.8a3.9,3.9,0,0,0,3.9,3.9H7.8v3.9H3.9A3.9,3.9,0,0,0,0,58.5V74.1A3.9,3.9,0,0,0,3.9,78H74.1A3.9,3.9,0,0,0,78,74.1V58.5a3.9,3.9,0,0,0-3.9-3.9H70.2V50.7h3.9A3.9,3.9,0,0,0,78,46.8V31.2a3.9,3.9,0,0,0-3.9-3.9H70.2V23.4Zm0,33.8a1.3,1.3,0,0,1,1.3,1.3V74.1a1.3,1.3,0,0,1-1.3,1.3H3.9a1.3,1.3,0,0,1-1.3-1.3V58.5a1.3,1.3,0,0,1,1.3-1.3ZM10.4,54.6V50.7H13v3.9Zm5.2,0V50.7H62.4v3.9Zm49.4,0V50.7h2.6v3.9Zm9.1-24.7a1.3,1.3,0,0,1,1.3,1.3V46.8a1.3,1.3,0,0,1-1.3,1.3H3.9a1.3,1.3,0,0,1-1.3-1.3V31.2a1.3,1.3,0,0,1,1.3-1.3ZM10.4,27.3V23.4H13v3.9Zm5.2,0V23.4H62.4v3.9Zm49.4,0V23.4h2.6v3.9ZM3.9,20.8a1.3,1.3,0,0,1-1.3-1.3V3.9A1.3,1.3,0,0,1,3.9,2.6H74.1a1.3,1.3,0,0,1,1.3,1.3V19.5a1.3,1.3,0,0,1-1.3,1.3Z" fill="#fff"/>
    </g>
  </g>
  <g id="Grupo_1068777" data-name="Grupo 1068777" transform="translate(7.825 7.841)">
    <g id="Grupo_1068776" data-name="Grupo 1068776">
      <path id="Trazado_804814" data-name="Trazado 804814" d="M81.894,50.609H55.513a3.921,3.921,0,1,0,0,2.614H81.894a1.307,1.307,0,0,0,0-2.614ZM51.833,53.223a1.307,1.307,0,1,1,1.307-1.307A1.307,1.307,0,0,1,51.833,53.223Z" transform="translate(-47.894 -47.994)" fill="#fff"/>
    </g>
  </g>
  <g id="Grupo_1068779" data-name="Grupo 1068779" transform="translate(57.316 5.437)">
    <g id="Grupo_1068778" data-name="Grupo 1068778" transform="translate(0 0)">
      <rect id="Rectángulo_376364" data-name="Rectángulo 376364" width="2.175" height="2.175" fill="#fff"/>
    </g>
  </g>
  <g id="Grupo_1068781" data-name="Grupo 1068781" transform="translate(62.65 5.437)">
    <g id="Grupo_1068780" data-name="Grupo 1068780" transform="translate(0 0)">
      <rect id="Rectángulo_376365" data-name="Rectángulo 376365" width="2.175" height="2.175" fill="#fff"/>
    </g>
  </g>
  <g id="Grupo_1068783" data-name="Grupo 1068783" transform="translate(68.087 5.437)">
    <g id="Grupo_1068782" data-name="Grupo 1068782" transform="translate(0 0)">
      <rect id="Rectángulo_376366" data-name="Rectángulo 376366" width="2.175" height="2.175" fill="#fff"/>
    </g>
  </g>
  <g id="Grupo_1068785" data-name="Grupo 1068785" transform="translate(51.909 5.437)">
    <g id="Grupo_1068784" data-name="Grupo 1068784" transform="translate(0 0)">
      <rect id="Rectángulo_376367" data-name="Rectángulo 376367" width="2.175" height="2.175" fill="#fff"/>
    </g>
  </g>
  <g id="Grupo_1068787" data-name="Grupo 1068787" transform="translate(46.498 5.437)">
    <g id="Grupo_1068786" data-name="Grupo 1068786" transform="translate(0 0)">
      <rect id="Rectángulo_376368" data-name="Rectángulo 376368" width="3.262" height="2.175" fill="#fff"/>
    </g>
  </g>
  <g id="Grupo_1068789" data-name="Grupo 1068789" transform="translate(57.316 10.875)">
    <g id="Grupo_1068788" data-name="Grupo 1068788" transform="translate(0 0)">
      <rect id="Rectángulo_376369" data-name="Rectángulo 376369" width="2.175" height="2.175" fill="#fff"/>
    </g>
  </g>
  <g id="Grupo_1068791" data-name="Grupo 1068791" transform="translate(62.65 10.875)">
    <g id="Grupo_1068790" data-name="Grupo 1068790" transform="translate(0 0)">
      <rect id="Rectángulo_376370" data-name="Rectángulo 376370" width="2.175" height="2.175" fill="#fff"/>
    </g>
  </g>
  <g id="Grupo_1068793" data-name="Grupo 1068793" transform="translate(68.087 10.875)">
    <g id="Grupo_1068792" data-name="Grupo 1068792" transform="translate(0 0)">
      <rect id="Rectángulo_376371" data-name="Rectángulo 376371" width="2.175" height="2.175" fill="#fff"/>
    </g>
  </g>
  <g id="Grupo_1068795" data-name="Grupo 1068795" transform="translate(51.909 10.875)">
    <g id="Grupo_1068794" data-name="Grupo 1068794" transform="translate(0 0)">
      <rect id="Rectángulo_376372" data-name="Rectángulo 376372" width="2.175" height="2.175" fill="#fff"/>
    </g>
  </g>
  <g id="Grupo_1068797" data-name="Grupo 1068797" transform="translate(46.498 10.875)">
    <g id="Grupo_1068796" data-name="Grupo 1068796" transform="translate(0 0)">
      <rect id="Rectángulo_376373" data-name="Rectángulo 376373" width="3.262" height="2.175" fill="#fff"/>
    </g>
  </g>
  <g id="Grupo_1068799" data-name="Grupo 1068799" transform="translate(57.316 15.139)">
    <g id="Grupo_1068798" data-name="Grupo 1068798" transform="translate(0 0)">
      <rect id="Rectángulo_376374" data-name="Rectángulo 376374" width="2.175" height="3.262" fill="#fff"/>
    </g>
  </g>
  <g id="Grupo_1068801" data-name="Grupo 1068801" transform="translate(62.65 15.139)">
    <g id="Grupo_1068800" data-name="Grupo 1068800" transform="translate(0 0)">
      <rect id="Rectángulo_376375" data-name="Rectángulo 376375" width="2.175" height="3.262" fill="#fff"/>
    </g>
  </g>
  <g id="Grupo_1068803" data-name="Grupo 1068803" transform="translate(68.087 15.139)">
    <g id="Grupo_1068802" data-name="Grupo 1068802" transform="translate(0 0)">
      <rect id="Rectángulo_376376" data-name="Rectángulo 376376" width="2.175" height="3.262" fill="#fff"/>
    </g>
  </g>
  <g id="Grupo_1068805" data-name="Grupo 1068805" transform="translate(51.909 15.139)">
    <g id="Grupo_1068804" data-name="Grupo 1068804" transform="translate(0 0)">
      <rect id="Rectángulo_376377" data-name="Rectángulo 376377" width="2.175" height="3.262" fill="#fff"/>
    </g>
  </g>
  <g id="Grupo_1068807" data-name="Grupo 1068807" transform="translate(46.498 15.139)">
    <g id="Grupo_1068806" data-name="Grupo 1068806" transform="translate(0 0)">
      <rect id="Rectángulo_376378" data-name="Rectángulo 376378" width="3.262" height="3.262" fill="#fff"/>
    </g>
  </g>
  <g id="Grupo_1068809" data-name="Grupo 1068809" transform="translate(7.825 35.078)">
    <g id="Grupo_1068808" data-name="Grupo 1068808">
      <path id="Trazado_804815" data-name="Trazado 804815" d="M81.894,218.609H55.513a3.921,3.921,0,1,0,0,2.614H81.894a1.307,1.307,0,0,0,0-2.614Zm-30.062,2.614a1.307,1.307,0,1,1,1.307-1.307A1.307,1.307,0,0,1,51.833,221.223Z" transform="translate(-47.894 -215.994)" fill="#fff"/>
    </g>
  </g>
  <g id="Grupo_1068811" data-name="Grupo 1068811" transform="translate(57.316 32.443)">
    <g id="Grupo_1068810" data-name="Grupo 1068810" transform="translate(0 0)">
      <rect id="Rectángulo_376379" data-name="Rectángulo 376379" width="2.175" height="2.175" fill="#fff"/>
    </g>
  </g>
  <g id="Grupo_1068813" data-name="Grupo 1068813" transform="translate(62.65 32.443)">
    <g id="Grupo_1068812" data-name="Grupo 1068812" transform="translate(0 0)">
      <rect id="Rectángulo_376380" data-name="Rectángulo 376380" width="2.175" height="2.175" fill="#fff"/>
    </g>
  </g>
  <g id="Grupo_1068815" data-name="Grupo 1068815" transform="translate(68.087 32.443)">
    <g id="Grupo_1068814" data-name="Grupo 1068814" transform="translate(0 0)">
      <rect id="Rectángulo_376381" data-name="Rectángulo 376381" width="2.175" height="2.175" fill="#fff"/>
    </g>
  </g>
  <g id="Grupo_1068817" data-name="Grupo 1068817" transform="translate(51.909 32.443)">
    <g id="Grupo_1068816" data-name="Grupo 1068816" transform="translate(0 0)">
      <rect id="Rectángulo_376382" data-name="Rectángulo 376382" width="2.175" height="2.175" fill="#fff"/>
    </g>
  </g>
  <g id="Grupo_1068819" data-name="Grupo 1068819" transform="translate(46.498 32.443)">
    <g id="Grupo_1068818" data-name="Grupo 1068818" transform="translate(0 0)">
      <rect id="Rectángulo_376383" data-name="Rectángulo 376383" width="3.262" height="2.175" fill="#fff"/>
    </g>
  </g>
  <g id="Grupo_1068821" data-name="Grupo 1068821" transform="translate(57.316 37.85)">
    <g id="Grupo_1068820" data-name="Grupo 1068820" transform="translate(0 0)">
      <rect id="Rectángulo_376384" data-name="Rectángulo 376384" width="2.175" height="2.175" fill="#fff"/>
    </g>
  </g>
  <g id="Grupo_1068823" data-name="Grupo 1068823" transform="translate(62.65 37.85)">
    <g id="Grupo_1068822" data-name="Grupo 1068822" transform="translate(0 0)">
      <rect id="Rectángulo_376385" data-name="Rectángulo 376385" width="2.175" height="2.175" fill="#fff"/>
    </g>
  </g>
  <g id="Grupo_1068825" data-name="Grupo 1068825" transform="translate(68.087 37.85)">
    <g id="Grupo_1068824" data-name="Grupo 1068824" transform="translate(0 0)">
      <rect id="Rectángulo_376386" data-name="Rectángulo 376386" width="2.175" height="2.175" fill="#fff"/>
    </g>
  </g>
  <g id="Grupo_1068827" data-name="Grupo 1068827" transform="translate(51.909 37.85)">
    <g id="Grupo_1068826" data-name="Grupo 1068826" transform="translate(0 0)">
      <rect id="Rectángulo_376387" data-name="Rectángulo 376387" width="2.175" height="2.175" fill="#fff"/>
    </g>
  </g>
  <g id="Grupo_1068829" data-name="Grupo 1068829" transform="translate(46.498 37.85)">
    <g id="Grupo_1068828" data-name="Grupo 1068828" transform="translate(0 0)">
      <rect id="Rectángulo_376388" data-name="Rectángulo 376388" width="3.262" height="2.175" fill="#fff"/>
    </g>
  </g>
  <g id="Grupo_1068831" data-name="Grupo 1068831" transform="translate(57.316 43.258)">
    <g id="Grupo_1068830" data-name="Grupo 1068830" transform="translate(0 0)">
      <rect id="Rectángulo_376389" data-name="Rectángulo 376389" width="2.175" height="2.175" fill="#fff"/>
    </g>
  </g>
  <g id="Grupo_1068833" data-name="Grupo 1068833" transform="translate(62.65 43.258)">
    <g id="Grupo_1068832" data-name="Grupo 1068832" transform="translate(0 0)">
      <rect id="Rectángulo_376390" data-name="Rectángulo 376390" width="2.175" height="2.175" fill="#fff"/>
    </g>
  </g>
  <g id="Grupo_1068835" data-name="Grupo 1068835" transform="translate(68.087 43.258)">
    <g id="Grupo_1068834" data-name="Grupo 1068834" transform="translate(0 0)">
      <rect id="Rectángulo_376391" data-name="Rectángulo 376391" width="2.175" height="2.175" fill="#fff"/>
    </g>
  </g>
  <g id="Grupo_1068837" data-name="Grupo 1068837" transform="translate(51.909 43.258)">
    <g id="Grupo_1068836" data-name="Grupo 1068836" transform="translate(0 0)">
      <rect id="Rectángulo_376392" data-name="Rectángulo 376392" width="2.175" height="2.175" fill="#fff"/>
    </g>
  </g>
  <g id="Grupo_1068839" data-name="Grupo 1068839" transform="translate(46.498 43.258)">
    <g id="Grupo_1068838" data-name="Grupo 1068838" transform="translate(0 0)">
      <rect id="Rectángulo_376393" data-name="Rectángulo 376393" width="3.262" height="2.175" fill="#fff"/>
    </g>
  </g>
  <g id="Grupo_1068841" data-name="Grupo 1068841" transform="translate(7.825 62.315)">
    <g id="Grupo_1068840" data-name="Grupo 1068840">
      <path id="Trazado_804816" data-name="Trazado 804816" d="M81.894,386.609H55.513a3.921,3.921,0,1,0,0,2.614H81.894a1.307,1.307,0,0,0,0-2.614Zm-30.062,2.614a1.307,1.307,0,1,1,1.307-1.307A1.307,1.307,0,0,1,51.833,389.223Z" transform="translate(-47.894 -383.994)" fill="#fff"/>
    </g>
  </g>
  <g id="Grupo_1068843" data-name="Grupo 1068843" transform="translate(57.316 59.474)">
    <g id="Grupo_1068842" data-name="Grupo 1068842" transform="translate(0 0)">
      <rect id="Rectángulo_376394" data-name="Rectángulo 376394" width="2.175" height="3.262" fill="#fff"/>
    </g>
  </g>
  <g id="Grupo_1068845" data-name="Grupo 1068845" transform="translate(62.65 59.474)">
    <g id="Grupo_1068844" data-name="Grupo 1068844" transform="translate(0 0)">
      <rect id="Rectángulo_376395" data-name="Rectángulo 376395" width="2.175" height="3.262" fill="#fff"/>
    </g>
  </g>
  <g id="Grupo_1068847" data-name="Grupo 1068847" transform="translate(68.087 59.474)">
    <g id="Grupo_1068846" data-name="Grupo 1068846" transform="translate(0 0)">
      <rect id="Rectángulo_376396" data-name="Rectángulo 376396" width="2.175" height="3.262" fill="#fff"/>
    </g>
  </g>
  <g id="Grupo_1068849" data-name="Grupo 1068849" transform="translate(51.909 59.474)">
    <g id="Grupo_1068848" data-name="Grupo 1068848" transform="translate(0 0)">
      <rect id="Rectángulo_376397" data-name="Rectángulo 376397" width="2.175" height="3.262" fill="#fff"/>
    </g>
  </g>
  <g id="Grupo_1068851" data-name="Grupo 1068851" transform="translate(46.498 59.474)">
    <g id="Grupo_1068850" data-name="Grupo 1068850" transform="translate(0 0)">
      <rect id="Rectángulo_376398" data-name="Rectángulo 376398" width="3.262" height="3.262" fill="#fff"/>
    </g>
  </g>
  <g id="Grupo_1068853" data-name="Grupo 1068853" transform="translate(57.316 64.826)">
    <g id="Grupo_1068852" data-name="Grupo 1068852" transform="translate(0 0)">
      <rect id="Rectángulo_376399" data-name="Rectángulo 376399" width="2.175" height="2.175" fill="#fff"/>
    </g>
  </g>
  <g id="Grupo_1068855" data-name="Grupo 1068855" transform="translate(62.65 64.826)">
    <g id="Grupo_1068854" data-name="Grupo 1068854" transform="translate(0 0)">
      <rect id="Rectángulo_376400" data-name="Rectángulo 376400" width="2.175" height="2.175" fill="#fff"/>
    </g>
  </g>
  <g id="Grupo_1068857" data-name="Grupo 1068857" transform="translate(68.087 64.826)">
    <g id="Grupo_1068856" data-name="Grupo 1068856" transform="translate(0 0)">
      <rect id="Rectángulo_376401" data-name="Rectángulo 376401" width="2.175" height="2.175" fill="#fff"/>
    </g>
  </g>
  <g id="Grupo_1068859" data-name="Grupo 1068859" transform="translate(51.909 64.826)">
    <g id="Grupo_1068858" data-name="Grupo 1068858" transform="translate(0 0)">
      <rect id="Rectángulo_376402" data-name="Rectángulo 376402" width="2.175" height="2.175" fill="#fff"/>
    </g>
  </g>
  <g id="Grupo_1068861" data-name="Grupo 1068861" transform="translate(46.498 64.826)">
    <g id="Grupo_1068860" data-name="Grupo 1068860" transform="translate(0 0)">
      <rect id="Rectángulo_376403" data-name="Rectángulo 376403" width="3.262" height="2.175" fill="#fff"/>
    </g>
  </g>
  <g id="Grupo_1068863" data-name="Grupo 1068863" transform="translate(57.316 70.262)">
    <g id="Grupo_1068862" data-name="Grupo 1068862" transform="translate(0 0)">
      <rect id="Rectángulo_376404" data-name="Rectángulo 376404" width="2.175" height="2.175" fill="#fff"/>
    </g>
  </g>
  <g id="Grupo_1068865" data-name="Grupo 1068865" transform="translate(62.65 70.262)">
    <g id="Grupo_1068864" data-name="Grupo 1068864" transform="translate(0 0)">
      <rect id="Rectángulo_376405" data-name="Rectángulo 376405" width="2.175" height="2.175" fill="#fff"/>
    </g>
  </g>
  <g id="Grupo_1068867" data-name="Grupo 1068867" transform="translate(68.087 70.262)">
    <g id="Grupo_1068866" data-name="Grupo 1068866" transform="translate(0 0)">
      <rect id="Rectángulo_376406" data-name="Rectángulo 376406" width="2.175" height="2.175" fill="#fff"/>
    </g>
  </g>
  <g id="Grupo_1068869" data-name="Grupo 1068869" transform="translate(51.909 70.262)">
    <g id="Grupo_1068868" data-name="Grupo 1068868" transform="translate(0 0)">
      <rect id="Rectángulo_376407" data-name="Rectángulo 376407" width="2.175" height="2.175" fill="#fff"/>
    </g>
  </g>
  <g id="Grupo_1068871" data-name="Grupo 1068871" transform="translate(46.498 70.262)">
    <g id="Grupo_1068870" data-name="Grupo 1068870" transform="translate(0 0)">
      <rect id="Rectángulo_376408" data-name="Rectángulo 376408" width="3.262" height="2.175" fill="#fff"/>
    </g>
  </g>
</svg>
