<svg xmlns="http://www.w3.org/2000/svg" width="100" height="100" viewBox="0 0 100 100">
  <g id="Grupo_1068706" data-name="Grupo 1068706" transform="translate(-426 -8003)">
    <circle id="Elipse_8595" data-name="Elipse 8595" cx="50" cy="50" r="50" transform="translate(426 8003)" fill="#01c3fd"/>
    <g id="coding" transform="translate(443.019 7986.985)">
      <g id="Grupo_1068708" data-name="Grupo 1068708" transform="translate(5.615 60.578)">
        <g id="Grupo_1068707" data-name="Grupo 1068707">
          <path id="Trazado_804728" data-name="Trazado 804728" d="M46.477,213.8H44.551a.967.967,0,1,0,0,1.934h1.927a.967.967,0,1,0,0-1.934Z" transform="translate(-43.584 -213.796)"/>
        </g>
      </g>
      <g id="Grupo_1068710" data-name="Grupo 1068710" transform="translate(5.615 55.938)">
        <g id="Grupo_1068709" data-name="Grupo 1068709">
          <path id="Trazado_804729" data-name="Trazado 804729" d="M46.477,177.778H44.551a.967.967,0,1,0,0,1.934h1.927a.967.967,0,1,0,0-1.934Z" transform="translate(-43.584 -177.778)"/>
        </g>
      </g>
      <g id="Grupo_1068712" data-name="Grupo 1068712" transform="translate(5.615 65.218)">
        <g id="Grupo_1068711" data-name="Grupo 1068711" transform="translate(0 0)">
          <path id="Trazado_804730" data-name="Trazado 804730" d="M46.477,249.814H44.551a.967.967,0,1,0,0,1.934h1.927a.967.967,0,1,0,0-1.934Z" transform="translate(-43.584 -249.814)"/>
        </g>
      </g>
      <g id="Grupo_1068714" data-name="Grupo 1068714" transform="translate(5.615 69.859)">
        <g id="Grupo_1068713" data-name="Grupo 1068713">
          <path id="Trazado_804731" data-name="Trazado 804731" d="M46.477,285.832H44.551a.967.967,0,0,0,0,1.934h1.927a.967.967,0,1,0,0-1.934Z" transform="translate(-43.584 -285.832)"/>
        </g>
      </g>
      <g id="Grupo_1068716" data-name="Grupo 1068716" transform="translate(5.615 74.499)">
        <g id="Grupo_1068715" data-name="Grupo 1068715">
          <path id="Trazado_804732" data-name="Trazado 804732" d="M46.477,321.851H44.551a.967.967,0,1,0,0,1.934h1.927a.967.967,0,1,0,0-1.934Z" transform="translate(-43.584 -321.851)"/>
        </g>
      </g>
      <g id="Grupo_1068718" data-name="Grupo 1068718" transform="translate(5.615 79.14)">
        <g id="Grupo_1068717" data-name="Grupo 1068717">
          <path id="Trazado_804733" data-name="Trazado 804733" d="M46.477,357.869H44.551a.967.967,0,0,0,0,1.934h1.927a.967.967,0,1,0,0-1.934Z" transform="translate(-43.584 -357.869)"/>
        </g>
      </g>
      <g id="Grupo_1068720" data-name="Grupo 1068720" transform="translate(5.615 83.78)">
        <g id="Grupo_1068719" data-name="Grupo 1068719">
          <path id="Trazado_804734" data-name="Trazado 804734" d="M46.477,393.887H44.551a.967.967,0,0,0,0,1.934h1.927a.967.967,0,1,0,0-1.934Z" transform="translate(-43.584 -393.887)"/>
        </g>
      </g>
      <g id="Grupo_1068722" data-name="Grupo 1068722" transform="translate(22.267 77.055)">
        <g id="Grupo_1068721" data-name="Grupo 1068721">
          <path id="Trazado_804735" data-name="Trazado 804735" d="M176.878,346.741l-1.7-1.7,1.7-1.7a.967.967,0,0,0-1.367-1.367l-2.386,2.386a.967.967,0,0,0,0,1.367l2.386,2.386a.967.967,0,1,0,1.367-1.367Z" transform="translate(-172.841 -341.686)"/>
        </g>
      </g>
      <g id="Grupo_1068724" data-name="Grupo 1068724" transform="translate(32.625 77.055)">
        <g id="Grupo_1068723" data-name="Grupo 1068723">
          <path id="Trazado_804736" data-name="Trazado 804736" d="M257.276,344.355l-2.386-2.386a.967.967,0,0,0-1.367,1.367l1.7,1.7-1.7,1.7a.967.967,0,0,0,1.367,1.367l2.386-2.386A.967.967,0,0,0,257.276,344.355Z" transform="translate(-253.239 -341.686)"/>
        </g>
      </g>
      <g id="Grupo_1068726" data-name="Grupo 1068726" transform="translate(27.195 75.972)">
        <g id="Grupo_1068725" data-name="Grupo 1068725">
          <path id="Trazado_804737" data-name="Trazado 804737" d="M215.064,333.343a.967.967,0,0,0-1.239.578l-2.68,7.362a.967.967,0,1,0,1.817.661l2.68-7.362A.967.967,0,0,0,215.064,333.343Z" transform="translate(-211.086 -333.284)"/>
        </g>
      </g>
      <g id="Grupo_1068728" data-name="Grupo 1068728" transform="translate(5.614 43.031)">
        <g id="Grupo_1068727" data-name="Grupo 1068727" transform="translate(0 0)">
          <path id="Trazado_804738" data-name="Trazado 804738" d="M45.5,78.375a1.006,1.006,0,0,0-.054-.18.98.98,0,0,0-.089-.166.966.966,0,0,0-1.488-.147.9.9,0,0,0-.121.147.883.883,0,0,0-.088.166.91.91,0,0,0-.055.18.948.948,0,0,0-.019.19.968.968,0,0,0,.967.967.959.959,0,0,0,.19-.019.888.888,0,0,0,.18-.055.965.965,0,0,0,.168-.089.946.946,0,0,0,.147-.12.96.96,0,0,0,.263-.873Z" transform="translate(-43.582 -77.598)"/>
        </g>
      </g>
      <g id="Grupo_1068730" data-name="Grupo 1068730" transform="translate(8.891 43.031)">
        <g id="Grupo_1068729" data-name="Grupo 1068729" transform="translate(0 0)">
          <path id="Trazado_804739" data-name="Trazado 804739" d="M70.665,77.882a.965.965,0,1,0,.284.683A.974.974,0,0,0,70.665,77.882Z" transform="translate(-69.014 -77.599)"/>
        </g>
      </g>
      <g id="Grupo_1068732" data-name="Grupo 1068732" transform="translate(12.169 43.031)">
        <g id="Grupo_1068731" data-name="Grupo 1068731" transform="translate(0 0)">
          <path id="Trazado_804740" data-name="Trazado 804740" d="M96.37,78.373a1,1,0,0,0-.055-.18.979.979,0,0,0-.089-.166.833.833,0,0,0-.12-.147.958.958,0,0,0-.313-.21,1.136,1.136,0,0,0-.182-.055.981.981,0,0,0-.378,0,1.087,1.087,0,0,0-.18.055,1,1,0,0,0-.168.089,1.035,1.035,0,0,0-.147.121.9.9,0,0,0-.12.147.96.96,0,0,0-.089.166,1.015,1.015,0,0,0-.056.18,1.051,1.051,0,0,0-.018.19.975.975,0,0,0,.282.683.928.928,0,0,0,.147.12,1,1,0,0,0,.348.144.964.964,0,0,0,.56-.055.952.952,0,0,0,.166-.089.934.934,0,0,0,.147-.12.958.958,0,0,0,.264-.873Z" transform="translate(-94.456 -77.595)"/>
        </g>
      </g>
      <g id="Grupo_1068734" data-name="Grupo 1068734" transform="translate(16.194 43.031)">
        <g id="Grupo_1068733" data-name="Grupo 1068733" transform="translate(0 0)">
          <path id="Trazado_804741" data-name="Trazado 804741" d="M149.717,77.6H126.666a.967.967,0,1,0,0,1.934h23.051a.967.967,0,0,0,0-1.934Z" transform="translate(-125.699 -77.598)"/>
        </g>
      </g>
      <g id="Grupo_1068736" data-name="Grupo 1068736" transform="translate(42.645 43.031)">
        <g id="Grupo_1068735" data-name="Grupo 1068735" transform="translate(0 0)">
          <path id="Trazado_804742" data-name="Trazado 804742" d="M335.929,77.6h-3.953a.967.967,0,0,0,0,1.934h3.953a.967.967,0,0,0,0-1.934Z" transform="translate(-331.009 -77.598)"/>
        </g>
      </g>
      <g id="Grupo_1068738" data-name="Grupo 1068738" transform="translate(41.818 63.026)">
        <g id="Grupo_1068737" data-name="Grupo 1068737">
          <path id="Trazado_804743" data-name="Trazado 804743" d="M338.24,232.8H325.557a.967.967,0,0,0,0,1.934H338.24a.967.967,0,0,0,0-1.934Z" transform="translate(-324.59 -232.799)"/>
        </g>
      </g>
      <g id="Grupo_1068740" data-name="Grupo 1068740" transform="translate(45.42 58.386)">
        <g id="Grupo_1068739" data-name="Grupo 1068739" transform="translate(0 0)">
          <path id="Trazado_804744" data-name="Trazado 804744" d="M357.191,196.78h-3.674a.967.967,0,0,0,0,1.934h3.674a.967.967,0,1,0,0-1.934Z" transform="translate(-352.551 -196.78)"/>
        </g>
      </g>
      <g id="Grupo_1068742" data-name="Grupo 1068742" transform="translate(52.8 58.386)">
        <g id="Grupo_1068741" data-name="Grupo 1068741" transform="translate(0 0)">
          <path id="Trazado_804745" data-name="Trazado 804745" d="M416.776,196.78H410.8a.967.967,0,1,0,0,1.934h5.979a.967.967,0,1,0,0-1.934Z" transform="translate(-409.83 -196.78)"/>
        </g>
      </g>
      <g id="Grupo_1068744" data-name="Grupo 1068744" transform="translate(29.05 58.386)">
        <g id="Grupo_1068743" data-name="Grupo 1068743" transform="translate(0 0)">
          <path id="Trazado_804746" data-name="Trazado 804746" d="M238.667,196.78H226.454a.967.967,0,1,0,0,1.934h12.213a.967.967,0,0,0,0-1.934Z" transform="translate(-225.487 -196.78)"/>
        </g>
      </g>
      <g id="Grupo_1068746" data-name="Grupo 1068746" transform="translate(34.559 63.026)">
        <g id="Grupo_1068745" data-name="Grupo 1068745">
          <path id="Trazado_804747" data-name="Trazado 804747" d="M272.889,232.8h-3.674a.967.967,0,0,0,0,1.934h3.674a.967.967,0,0,0,0-1.934Z" transform="translate(-268.249 -232.799)"/>
        </g>
      </g>
      <g id="Grupo_1068748" data-name="Grupo 1068748" transform="translate(28.874 63.026)">
        <g id="Grupo_1068747" data-name="Grupo 1068747">
          <path id="Trazado_804748" data-name="Trazado 804748" d="M227.015,232.8h-1.927a.967.967,0,0,0,0,1.934h1.927a.967.967,0,0,0,0-1.934Z" transform="translate(-224.121 -232.799)"/>
        </g>
      </g>
      <g id="Grupo_1068750" data-name="Grupo 1068750" transform="translate(22.138 63.026)">
        <g id="Grupo_1068749" data-name="Grupo 1068749">
          <path id="Trazado_804749" data-name="Trazado 804749" d="M174.734,232.8h-1.927a.967.967,0,1,0,0,1.934h1.927a.967.967,0,0,0,0-1.934Z" transform="translate(-171.84 -232.799)"/>
        </g>
      </g>
      <g id="Grupo_1068752" data-name="Grupo 1068752" transform="translate(22.138 58.386)">
        <g id="Grupo_1068751" data-name="Grupo 1068751" transform="translate(0 0)">
          <path id="Trazado_804750" data-name="Trazado 804750" d="M174.734,196.78h-1.927a.967.967,0,1,0,0,1.934h1.927a.967.967,0,0,0,0-1.934Z" transform="translate(-171.84 -196.78)"/>
        </g>
      </g>
      <g id="Grupo_1068754" data-name="Grupo 1068754" transform="translate(58.779 63.026)">
        <g id="Grupo_1068753" data-name="Grupo 1068753">
          <path id="Trazado_804751" data-name="Trazado 804751" d="M458.153,233.576a.915.915,0,0,0-.056-.182.936.936,0,0,0-.089-.166.892.892,0,0,0-.12-.147.942.942,0,0,0-.147-.121.94.94,0,0,0-.348-.143.932.932,0,0,0-.378,0,.973.973,0,0,0-.18.054,1.05,1.05,0,0,0-.168.089.964.964,0,0,0-.429.8,1.053,1.053,0,0,0,.018.19.959.959,0,0,0,.055.18.979.979,0,0,0,.089.166.96.96,0,0,0,.12.147,1.006,1.006,0,0,0,.147.121,1.034,1.034,0,0,0,.168.089.972.972,0,0,0,.18.054.946.946,0,0,0,.19.019.933.933,0,0,0,.188-.019,1.015,1.015,0,0,0,.182-.054,1.037,1.037,0,0,0,.166-.089.961.961,0,0,0,.147-.121.832.832,0,0,0,.12-.147.987.987,0,0,0,.144-.347.938.938,0,0,0,0-.378Z" transform="translate(-456.239 -232.798)"/>
        </g>
      </g>
      <g id="Grupo_1068756" data-name="Grupo 1068756" transform="translate(-0.001 37.919)">
        <g id="Grupo_1068755" data-name="Grupo 1068755" transform="translate(0 0)">
          <path id="Trazado_804752" data-name="Trazado 804752" d="M63.449,72.886H53.238v-3.48H63.449a2.516,2.516,0,0,0,2.514-2.514V56.453a2.516,2.516,0,0,0-2.514-2.514h-2.7a.967.967,0,1,0,0,1.934h2.7a.588.588,0,0,1,.58.58v10.44a.588.588,0,0,1-.58.58H18.707a.588.588,0,0,1-.58-.58V56.453a.588.588,0,0,1,.58-.58H56.241a.967.967,0,1,0,0-1.934h-3V42.668A4.754,4.754,0,0,0,48.49,37.92c-46.521.007-43.706-.014-44.089.015a4.751,4.751,0,0,0-4.227,3.5c-.241.9-.163.967-.163,13.213a.967.967,0,0,0,1.934,0V50.076H51.3v3.864h-32.6a2.516,2.516,0,0,0-2.514,2.514v10.44a2.516,2.516,0,0,0,2.514,2.514H51.3v3.48h-32.6A2.516,2.516,0,0,0,16.194,75.4V85.84a2.516,2.516,0,0,0,2.514,2.514H51.3v1.01a2.818,2.818,0,0,1-2.815,2.815h-33.1a.967.967,0,0,0,0,1.934h33.1a4.754,4.754,0,0,0,4.748-4.748v-1.01H63.449a2.516,2.516,0,0,0,2.514-2.514V75.4A2.517,2.517,0,0,0,63.449,72.886ZM1.945,48.142c0-5.663-.3-6.439.916-7.549a2.812,2.812,0,0,1,1.9-.739H48.49A2.818,2.818,0,0,1,51.3,42.669v5.473Zm62.084,37.7a.588.588,0,0,1-.58.58H18.707a.588.588,0,0,1-.58-.58V75.4a.588.588,0,0,1,.58-.58H63.449a.588.588,0,0,1,.58.58Z" transform="translate(0.001 -37.919)"/>
        </g>
      </g>
      <g id="Grupo_1068758" data-name="Grupo 1068758" transform="translate(0.011 58.193)">
        <g id="Grupo_1068757" data-name="Grupo 1068757">
          <path id="Trazado_804753" data-name="Trazado 804753" d="M10.961,229.271H4.841a2.818,2.818,0,0,1-2.815-2.815v-30.2a.967.967,0,1,0-1.934,0v30.2A4.754,4.754,0,0,0,4.841,231.2h6.12a.967.967,0,1,0,0-1.934Z" transform="translate(-0.093 -195.286)"/>
        </g>
      </g>
    </g>
  </g>
</svg>
