<svg xmlns="http://www.w3.org/2000/svg" width="679.809" height="662" viewBox="0 0 679.809 662">
  <g id="Grupo_1069120" data-name="Grupo 1069120" transform="translate(-460 -4229)">
    <path id="Trazado_806316" data-name="Trazado 806316" d="M4,0H106a4,4,0,0,1,4,4V36a4,4,0,0,1-4,4H4a4,4,0,0,1-4-4V4A4,4,0,0,1,4,0Z" transform="translate(468.309 4312)" fill="#01c3fd"/>
    <path id="Trazado_806317" data-name="Trazado 806317" d="M4,0H94a4,4,0,0,1,4,4V26a4,4,0,0,1-4,4H4a4,4,0,0,1-4-4V4A4,4,0,0,1,4,0Z" transform="translate(580.809 4744)" fill="#01c3fd"/>
    <path id="Trazado_806318" data-name="Trazado 806318" d="M4,0H135a4,4,0,0,1,4,4V26a4,4,0,0,1-4,4H4a4,4,0,0,1-4-4V4A4,4,0,0,1,4,0Z" transform="translate(580.809 4801)" fill="#01c3fd"/>
    <path id="Trazado_806319" data-name="Trazado 806319" d="M4,0H44a4,4,0,0,1,4,4V26a4,4,0,0,1-4,4H4a4,4,0,0,1-4-4V4A4,4,0,0,1,4,0Z" transform="translate(688.809 4744)" fill="#01c3fd"/>
    <path id="Trazado_806320" data-name="Trazado 806320" d="M4,0H73a4,4,0,0,1,4,4V26a4,4,0,0,1-4,4H4a4,4,0,0,1-4-4V4A4,4,0,0,1,4,0Z" transform="translate(729.809 4801)" fill="#01c3fd"/>
    <path id="Trazado_806321" data-name="Trazado 806321" d="M4,0H44a4,4,0,0,1,4,4V26a4,4,0,0,1-4,4H4a4,4,0,0,1-4-4V4A4,4,0,0,1,4,0Z" transform="translate(746.809 4744)" fill="#01c3fd"/>
    <path id="Trazado_806322" data-name="Trazado 806322" d="M4,0H59a4,4,0,0,1,4,4V26a4,4,0,0,1-4,4H4a4,4,0,0,1-4-4V4A4,4,0,0,1,4,0Z" transform="translate(804.809 4744)" fill="#01c3fd"/>
    <path id="Trazado_806323" data-name="Trazado 806323" d="M4,0H51a4,4,0,0,1,4,4V26a4,4,0,0,1-4,4H4a4,4,0,0,1-4-4V4A4,4,0,0,1,4,0Z" transform="translate(877.809 4744)" fill="#01c3fd"/>
    <path id="Trazado_806324" data-name="Trazado 806324" d="M4,0H51a4,4,0,0,1,4,4V26a4,4,0,0,1-4,4H4a4,4,0,0,1-4-4V4A4,4,0,0,1,4,0Z" transform="translate(942.809 4744)" fill="#01c3fd"/>
    <path id="Trazado_806325" data-name="Trazado 806325" d="M4,0H51a4,4,0,0,1,4,4V26a4,4,0,0,1-4,4H4a4,4,0,0,1-4-4V4A4,4,0,0,1,4,0Z" transform="translate(1007.809 4744)" fill="#01c3fd"/>
    <path id="Trazado_806326" data-name="Trazado 806326" d="M4,0H63a4,4,0,0,1,4,4V26a4,4,0,0,1-4,4H4a4,4,0,0,1-4-4V4A4,4,0,0,1,4,0Z" transform="translate(1072.809 4744)" fill="#01c3fd"/>
    <path id="Trazado_806327" data-name="Trazado 806327" d="M4,0H106a4,4,0,0,1,4,4V36a4,4,0,0,1-4,4H4a4,4,0,0,1-4-4V4A4,4,0,0,1,4,0Z" transform="translate(678.309 4312)" fill="#01c3fd"/>
    <path id="Trazado_806328" data-name="Trazado 806328" d="M4,0H128a4,4,0,0,1,4,4V46a4,4,0,0,1-4,4H4a4,4,0,0,1-4-4V4A4,4,0,0,1,4,0Z" transform="translate(527.309 4399)" fill="#a6eafe"/>
    <path id="Trazado_806329" data-name="Trazado 806329" d="M4,0H128a4,4,0,0,1,4,4V46a4,4,0,0,1-4,4H4a4,4,0,0,1-4-4V4A4,4,0,0,1,4,0Z" transform="translate(669.309 4399)" fill="#a6eafe"/>
    <path id="Trazado_806330" data-name="Trazado 806330" d="M4,0H128a4,4,0,0,1,4,4V46a4,4,0,0,1-4,4H4a4,4,0,0,1-4-4V4A4,4,0,0,1,4,0Z" transform="translate(813.309 4399)" fill="#a6eafe"/>
    <path id="Trazado_806331" data-name="Trazado 806331" d="M4,0H128a4,4,0,0,1,4,4V46a4,4,0,0,1-4,4H4a4,4,0,0,1-4-4V4A4,4,0,0,1,4,0Z" transform="translate(813.309 4472.64)" fill="#a6eafe"/>
    <path id="Trazado_806332" data-name="Trazado 806332" d="M4,0H146a4,4,0,0,1,4,4V46a4,4,0,0,1-4,4H4a4,4,0,0,1-4-4V4A4,4,0,0,1,4,0Z" transform="translate(955.309 4399)" fill="#1e5af9"/>
    <path id="Trazado_806333" data-name="Trazado 806333" d="M4,0H146a4,4,0,0,1,4,4V46a4,4,0,0,1-4,4H4a4,4,0,0,1-4-4V4A4,4,0,0,1,4,0Z" transform="translate(955.309 4472.64)" fill="#1e5af9"/>
    <path id="Trazado_806334" data-name="Trazado 806334" d="M4,0H146a4,4,0,0,1,4,4V46a4,4,0,0,1-4,4H4a4,4,0,0,1-4-4V4A4,4,0,0,1,4,0Z" transform="translate(955.309 4546.279)" fill="#1e5af9"/>
    <path id="Trazado_806335" data-name="Trazado 806335" d="M4,0H166a4,4,0,0,1,4,4V36a4,4,0,0,1-4,4H4a4,4,0,0,1-4-4V4A4,4,0,0,1,4,0Z" transform="translate(858.309 4312)" fill="#01c3fd"/>
    <path id="Icon_awesome-long-arrow-alt-down" data-name="Icon awesome-long-arrow-alt-down" d="M6.947,47.436V7.555A.555.555,0,0,0,6.391,7H3.8a.555.555,0,0,0-.555.555V47.436H1.113a1.111,1.111,0,0,0-.785,1.9L4.31,53.315a1.111,1.111,0,0,0,1.571,0l3.983-3.983a1.111,1.111,0,0,0-.785-1.9Z" transform="translate(728.213 4258)" fill="#f9305f"/>
    <path id="Icon_awesome-long-arrow-alt-down-2" data-name="Icon awesome-long-arrow-alt-down" d="M6.947,47.436V7.555A.555.555,0,0,0,6.391,7H3.8a.555.555,0,0,0-.555.555V47.436H1.113a1.111,1.111,0,0,0-.785,1.9L4.31,53.315a1.111,1.111,0,0,0,1.571,0l3.983-3.983a1.111,1.111,0,0,0-.785-1.9Z" transform="translate(728.213 4345.36)" fill="#f9305f"/>
    <path id="Icon_awesome-long-arrow-alt-down-3" data-name="Icon awesome-long-arrow-alt-down" d="M6.947,47.436V30.555A.555.555,0,0,0,6.391,30H3.8a.555.555,0,0,0-.555.555V47.436H1.113a1.111,1.111,0,0,0-.785,1.9L4.31,53.315a1.111,1.111,0,0,0,1.571,0l3.983-3.983a1.111,1.111,0,0,0-.785-1.9Z" transform="translate(518.309 4258)" fill="#f9305f"/>
    <path id="Icon_awesome-long-arrow-alt-down-4" data-name="Icon awesome-long-arrow-alt-down" d="M6.947,47.436V30.555A.555.555,0,0,0,6.391,30H3.8a.555.555,0,0,0-.555.555V47.436H1.113a1.111,1.111,0,0,0-.785,1.9L4.31,53.315a1.111,1.111,0,0,0,1.571,0l3.983-3.983a1.111,1.111,0,0,0-.785-1.9Z" transform="translate(588.309 4345.36)" fill="#f9305f"/>
    <path id="Icon_awesome-long-arrow-alt-down-5" data-name="Icon awesome-long-arrow-alt-down" d="M6.947,47.436V30.555A.555.555,0,0,0,6.391,30H3.8a.555.555,0,0,0-.555.555V47.436H1.113a1.111,1.111,0,0,0-.785,1.9L4.31,53.315a1.111,1.111,0,0,0,1.571,0l3.983-3.983a1.111,1.111,0,0,0-.785-1.9Z" transform="translate(938.309 4258)" fill="#f9305f"/>
    <path id="Icon_awesome-long-arrow-alt-down-6" data-name="Icon awesome-long-arrow-alt-down" d="M6.947,47.436V30.555A.555.555,0,0,0,6.391,30H3.8a.555.555,0,0,0-.555.555V47.436H1.113a1.111,1.111,0,0,0-.785,1.9L4.31,53.315a1.111,1.111,0,0,0,1.571,0l3.983-3.983a1.111,1.111,0,0,0-.785-1.9Z" transform="translate(874.213 4345.36)" fill="#f9305f"/>
    <path id="Icon_awesome-long-arrow-alt-down-7" data-name="Icon awesome-long-arrow-alt-down" d="M6.947,47.436V30.555A.555.555,0,0,0,6.391,30H3.8a.555.555,0,0,0-.555.555V47.436H1.113a1.111,1.111,0,0,0-.785,1.9L4.31,53.315a1.111,1.111,0,0,0,1.571,0l3.983-3.983a1.111,1.111,0,0,0-.785-1.9Z" transform="translate(874.213 4419)" fill="#f9305f"/>
    <path id="Icon_awesome-long-arrow-alt-down-8" data-name="Icon awesome-long-arrow-alt-down" d="M6.947,47.436V30.555A.555.555,0,0,0,6.391,30H3.8a.555.555,0,0,0-.555.555V47.436H1.113a1.111,1.111,0,0,0-.785,1.9L4.31,53.315a1.111,1.111,0,0,0,1.571,0l3.983-3.983a1.111,1.111,0,0,0-.785-1.9Z" transform="translate(1025.213 4419)" fill="#f9305f"/>
    <path id="Icon_awesome-long-arrow-alt-down-9" data-name="Icon awesome-long-arrow-alt-down" d="M6.947,47.436V30.555A.555.555,0,0,0,6.391,30H3.8a.555.555,0,0,0-.555.555V47.436H1.113a1.111,1.111,0,0,0-.785,1.9L4.31,53.315a1.111,1.111,0,0,0,1.571,0l3.983-3.983a1.111,1.111,0,0,0-.785-1.9Z" transform="translate(1025.213 4492.64)" fill="#f9305f"/>
    <path id="Icon_awesome-long-arrow-alt-down-10" data-name="Icon awesome-long-arrow-alt-down" d="M6.947,47.436V30.555A.555.555,0,0,0,6.391,30H3.8a.555.555,0,0,0-.555.555V47.436H1.113a1.111,1.111,0,0,0-.785,1.9L4.31,53.315a1.111,1.111,0,0,0,1.571,0l3.983-3.983a1.111,1.111,0,0,0-.785-1.9Z" transform="translate(1025.213 4345.36)" fill="#f9305f"/>
    <path id="Trazado_806336" data-name="Trazado 806336" d="M-22.406-3.609A4.185,4.185,0,0,1-23.738-.824a4.365,4.365,0,0,1-2.98.98,4.008,4.008,0,0,1-3.23-1.445,5.815,5.815,0,0,1-1.215-3.867V-6.25A6.481,6.481,0,0,1-30.6-9.039a4.231,4.231,0,0,1,1.605-1.848,4.47,4.47,0,0,1,2.406-.645A4.11,4.11,0,0,1-23.68-10.52a4.235,4.235,0,0,1,1.273,2.8h-1.508a3.268,3.268,0,0,0-.848-1.975,2.565,2.565,0,0,0-1.824-.611A2.684,2.684,0,0,0-28.84-9.241a4.882,4.882,0,0,0-.816,3.026v1.1a5.018,5.018,0,0,0,.773,2.948A2.5,2.5,0,0,0-26.719-1.07,2.886,2.886,0,0,0-24.8-1.637a3.143,3.143,0,0,0,.887-1.973Zm10.414,0A4.185,4.185,0,0,1-13.324-.824a4.365,4.365,0,0,1-2.98.98,4.008,4.008,0,0,1-3.23-1.445A5.815,5.815,0,0,1-20.75-5.156V-6.25a6.481,6.481,0,0,1,.566-2.789,4.231,4.231,0,0,1,1.605-1.848,4.47,4.47,0,0,1,2.406-.645,4.11,4.11,0,0,1,2.906,1.012,4.235,4.235,0,0,1,1.273,2.8H-13.5a3.268,3.268,0,0,0-.848-1.975,2.565,2.565,0,0,0-1.824-.611,2.684,2.684,0,0,0-2.254,1.063,4.882,4.882,0,0,0-.816,3.026v1.1a5.018,5.018,0,0,0,.773,2.948A2.5,2.5,0,0,0-16.3-1.07a2.887,2.887,0,0,0,1.918-.566A3.143,3.143,0,0,0-13.5-3.609ZM-8.336,0h-1.5V-11.375h1.5ZM2.039-10.148H-1.617V0H-3.109V-10.148H-6.758v-1.227h8.8Zm9.672,0H8.055V0H6.563V-10.148H2.914v-1.227h8.8Zm1.406,5.531a12.079,12.079,0,0,1,.473-3.391A9.85,9.85,0,0,1,15-10.961a6,6,0,0,1,1.945-1.875l.3.953a6.222,6.222,0,0,0-1.871,2.672,11.583,11.583,0,0,0-.8,4.023l-.008.664a11.643,11.643,0,0,0,1.1,5.234,6.252,6.252,0,0,0,1.578,2.078l-.3.883a6.192,6.192,0,0,1-1.984-1.937A10.859,10.859,0,0,1,13.117-4.617Zm12.508-.234a6.61,6.61,0,0,1-.867,3.773A3.084,3.084,0,0,1,22.047.156a3.107,3.107,0,0,1-2.7-1.207,6.274,6.274,0,0,1-.906-3.605v-1.93a6.463,6.463,0,0,1,.867-3.727,3.108,3.108,0,0,1,2.719-1.219,3.136,3.136,0,0,1,2.7,1.176,6.237,6.237,0,0,1,.891,3.629ZM24.18-6.828A5.3,5.3,0,0,0,23.664-9.5a1.775,1.775,0,0,0-1.633-.84,1.751,1.751,0,0,0-1.617.836,5.171,5.171,0,0,0-.523,2.57v2.313A5.381,5.381,0,0,0,20.426-1.9a1.771,1.771,0,0,0,1.621.879,1.747,1.747,0,0,0,1.59-.828,5.186,5.186,0,0,0,.543-2.609Zm6.781,2.289A12.084,12.084,0,0,1,30.5-1.2a9.876,9.876,0,0,1-1.4,2.949,6.127,6.127,0,0,1-1.973,1.922l-.3-.883A6.281,6.281,0,0,0,28.762-.074a12.387,12.387,0,0,0,.746-4.309v-.25a12.861,12.861,0,0,0-.344-3.051,10.3,10.3,0,0,0-.957-2.527,5.838,5.838,0,0,0-1.379-1.742l.3-.883A6.1,6.1,0,0,1,29.1-10.93a9.9,9.9,0,0,1,1.4,2.945A12.363,12.363,0,0,1,30.961-4.539Z" transform="translate(523.309 4338)" fill="#12263f"/>
    <path id="Trazado_806337" data-name="Trazado 806337" d="M-41.942,0H-43.22l1.729-9.953h1.278Zm9.816,0H-33.37l-3.555-7.725L-38.264,0h-1.292l1.729-9.953h1.244l3.562,7.759,1.347-7.759H-30.4Zm10.534-8.88h-3.1L-26.226,0H-27.5l1.538-8.88h-3.1l.191-1.073H-21.4ZM-15.371-4.6h-4.184l-.615,3.527H-15.3L-15.494,0h-6.146l1.729-9.953h6.077l-.191,1.073h-4.792l-.554,3.206h4.184Zm5.8.581h-2.3l-.7,4.02H-13.86l1.729-9.953,2.994.007a3.337,3.337,0,0,1,2.386.794A2.477,2.477,0,0,1-6.06-7.01a2.836,2.836,0,0,1-.68,1.649A3.716,3.716,0,0,1-8.35-4.286l1.545,4.2L-6.812,0H-8.179ZM-11.686-5.1l1.887.007a2.635,2.635,0,0,0,1.661-.523,2.036,2.036,0,0,0,.793-1.4,1.608,1.608,0,0,0-.342-1.34,1.826,1.826,0,0,0-1.354-.513l-1.989-.007ZM.673-4.4H-3.374L-4.139,0H-5.424l1.729-9.953H2.293L2.1-8.88H-2.6l-.588,3.411H.865ZM6.8-2.6H2.765L1.4,0H.031L5.438-9.953H6.566L8.535,0H7.27ZM3.333-3.678H6.607L5.78-8.319ZM17.5-3.172a3.968,3.968,0,0,1-1.4,2.447,3.917,3.917,0,0,1-2.663.861A3.1,3.1,0,0,1,11.83-.318a2.872,2.872,0,0,1-1.073-1.251,4.672,4.672,0,0,1-.424-1.808,5.8,5.8,0,0,1,.048-1.094l.116-.82a6.191,6.191,0,0,1,1.576-3.538,3.976,3.976,0,0,1,3.052-1.261,2.977,2.977,0,0,1,2.222.906,3.6,3.6,0,0,1,.868,2.437H16.936Q16.847-8.839,15.3-9l-.226-.014a2.642,2.642,0,0,0-2.157.96A5.2,5.2,0,0,0,11.8-5.339l-.15,1.032-.041.6a3.384,3.384,0,0,0,.448,2A1.688,1.688,0,0,0,13.5-.937a2.559,2.559,0,0,0,1.719-.5,3.321,3.321,0,0,0,1.036-1.716ZM25.091-4.6H20.908l-.615,3.527H25.16L24.968,0H18.823l1.729-9.953h6.077L26.438-8.88H21.646l-.554,3.206h4.184Zm2.023.561a10.569,10.569,0,0,1,.414-2.967,8.618,8.618,0,0,1,1.234-2.584,5.249,5.249,0,0,1,1.7-1.641l.26.834A5.444,5.444,0,0,0,29.087-8.06a10.135,10.135,0,0,0-.7,3.521l-.007.581a10.188,10.188,0,0,0,.964,4.58A5.47,5.47,0,0,0,30.724,2.44l-.26.772a5.418,5.418,0,0,1-1.736-1.7A9.5,9.5,0,0,1,27.115-4.04ZM38.339,0H31.818V-.909l3.445-3.828a8.185,8.185,0,0,0,1.056-1.412,2.356,2.356,0,0,0,.291-1.125,1.786,1.786,0,0,0-.472-1.278,1.649,1.649,0,0,0-1.258-.5,1.953,1.953,0,0,0-1.466.537,2.05,2.05,0,0,0-.523,1.494H31.626a2.936,2.936,0,0,1,.885-2.222,3.282,3.282,0,0,1,2.369-.848,3.153,3.153,0,0,1,2.194.728,2.483,2.483,0,0,1,.807,1.938q0,1.47-1.873,3.5L33.342-1.032h5Zm4.389-3.972a10.574,10.574,0,0,1-.4,2.922A8.641,8.641,0,0,1,41.1,1.531a5.361,5.361,0,0,1-1.726,1.682l-.267-.772A5.5,5.5,0,0,0,40.8-.065a10.839,10.839,0,0,0,.653-3.77v-.219a11.254,11.254,0,0,0-.3-2.669,9.009,9.009,0,0,0-.837-2.211,5.108,5.108,0,0,0-1.207-1.524l.267-.772A5.34,5.34,0,0,1,41.1-9.563a8.66,8.66,0,0,1,1.224,2.577A10.818,10.818,0,0,1,42.728-3.972Z" transform="translate(629.809 4764)" fill="#12263f"/>
    <path id="Trazado_806338" data-name="Trazado 806338" d="M-53.194-8.88h-3.1L-57.829,0h-1.278l1.538-8.88h-3.1l.191-1.073H-53Zm4.231,4.86h-2.3l-.7,4.02h-1.292l1.729-9.953,2.994.007a3.337,3.337,0,0,1,2.386.794,2.477,2.477,0,0,1,.69,2.142,2.836,2.836,0,0,1-.68,1.649,3.716,3.716,0,0,1-1.61,1.074l1.545,4.2L-46.2,0h-1.367ZM-51.075-5.1l1.887.007a2.635,2.635,0,0,0,1.661-.523,2.036,2.036,0,0,0,.793-1.4,1.608,1.608,0,0,0-.342-1.34,1.826,1.826,0,0,0-1.354-.513l-1.989-.007ZM-39-2.6h-4.033L-44.4,0H-45.77l5.407-9.953h1.128L-37.266,0h-1.265Zm-3.466-1.073h3.274l-.827-4.642ZM-28.455,0H-29.7l-3.555-7.725L-34.593,0h-1.292l1.729-9.953h1.244l3.562,7.759L-28-9.953h1.278Zm7.909-2.563q.15-1.094-1.135-1.6l-1.183-.431-.4-.171q-2-.909-1.866-2.557a2.674,2.674,0,0,1,.567-1.463,3.228,3.228,0,0,1,1.323-.981,4.243,4.243,0,0,1,1.753-.325,3.5,3.5,0,0,1,1.61.4A2.592,2.592,0,0,1-18.8-8.617a2.916,2.916,0,0,1,.328,1.548l-1.292-.007a1.783,1.783,0,0,0-.41-1.423,1.836,1.836,0,0,0-1.367-.518,2.547,2.547,0,0,0-1.565.438,1.711,1.711,0,0,0-.725,1.233q-.137,1.02,1.251,1.548l1.019.363.513.219A2.574,2.574,0,0,1-19.26-2.577a2.636,2.636,0,0,1-.567,1.453,3.172,3.172,0,0,1-1.336.947,4.607,4.607,0,0,1-1.815.314,3.8,3.8,0,0,1-1.712-.4A2.794,2.794,0,0,1-25.871-1.34a2.693,2.693,0,0,1-.355-1.552l1.285.007a1.693,1.693,0,0,0,.482,1.412,2.169,2.169,0,0,0,1.535.537,2.74,2.74,0,0,0,1.634-.431A1.677,1.677,0,0,0-20.545-2.563Zm5.886-7.39,1.743,8.107L-8.35-9.953h1.688L-8.391,0H-9.669l.684-3.937.813-4.006L-12.684,0h-.984l-1.777-8.1-.615,4.293L-16.724,0h-1.285l1.729-9.953ZM-4.713,0H-5.992l1.729-9.953h1.278ZM3.264-2.563q.15-1.094-1.135-1.6L.947-4.594l-.4-.171q-2-.909-1.866-2.557A2.674,2.674,0,0,1-.749-8.784,3.228,3.228,0,0,1,.574-9.765a4.243,4.243,0,0,1,1.753-.325,3.5,3.5,0,0,1,1.61.4,2.592,2.592,0,0,1,1.077,1.07,2.916,2.916,0,0,1,.328,1.548L4.05-7.075A1.783,1.783,0,0,0,3.64-8.5a1.836,1.836,0,0,0-1.367-.518,2.547,2.547,0,0,0-1.565.438A1.711,1.711,0,0,0-.017-7.345Q-.154-6.325,1.234-5.8l1.019.363.513.219A2.574,2.574,0,0,1,4.549-2.577a2.636,2.636,0,0,1-.567,1.453,3.172,3.172,0,0,1-1.336.947A4.607,4.607,0,0,1,.831.137a3.8,3.8,0,0,1-1.712-.4A2.794,2.794,0,0,1-2.061-1.34a2.693,2.693,0,0,1-.355-1.552l1.285.007A1.693,1.693,0,0,0-.649-1.473,2.169,2.169,0,0,0,.885-.937a2.74,2.74,0,0,0,1.634-.431A1.677,1.677,0,0,0,3.264-2.563Zm8.128,0q.15-1.094-1.135-1.6L9.075-4.594l-.4-.171q-2-.909-1.866-2.557a2.674,2.674,0,0,1,.567-1.463A3.228,3.228,0,0,1,8.7-9.765a4.243,4.243,0,0,1,1.753-.325,3.5,3.5,0,0,1,1.61.4,2.592,2.592,0,0,1,1.077,1.07,2.916,2.916,0,0,1,.328,1.548l-1.292-.007a1.783,1.783,0,0,0-.41-1.423A1.836,1.836,0,0,0,10.4-9.017a2.547,2.547,0,0,0-1.565.438,1.711,1.711,0,0,0-.725,1.233Q7.974-6.325,9.362-5.8l1.019.363.513.219a2.574,2.574,0,0,1,1.784,2.639,2.636,2.636,0,0,1-.567,1.453,3.172,3.172,0,0,1-1.336.947A4.607,4.607,0,0,1,8.958.137a3.8,3.8,0,0,1-1.712-.4A2.794,2.794,0,0,1,6.067-1.34a2.693,2.693,0,0,1-.355-1.552L7-2.885a1.693,1.693,0,0,0,.482,1.412,2.169,2.169,0,0,0,1.535.537,2.74,2.74,0,0,0,1.634-.431A1.677,1.677,0,0,0,11.392-2.563ZM15.3,0H14.024l1.729-9.953h1.278Zm6.036.137a3.187,3.187,0,0,1-1.651-.458,2.967,2.967,0,0,1-1.1-1.289,4.854,4.854,0,0,1-.444-1.911,9.074,9.074,0,0,1,.185-2.044A7.009,7.009,0,0,1,19.1-7.759,4.945,4.945,0,0,1,20.45-9.324,3.876,3.876,0,0,1,22.9-10.09a2.945,2.945,0,0,1,2.3,1.008,4.193,4.193,0,0,1,.9,2.656A9.778,9.778,0,0,1,25.949-4.6a7.556,7.556,0,0,1-.622,2.058A5.135,5.135,0,0,1,24.189-.95,3.914,3.914,0,0,1,21.338.137Zm3.493-6.248A3.449,3.449,0,0,0,24.36-8.2a1.8,1.8,0,0,0-1.524-.769,2.593,2.593,0,0,0-1.637.492,3.726,3.726,0,0,0-1.183,1.555A8.013,8.013,0,0,0,19.431-4.3l-.021.444a3.479,3.479,0,0,0,.479,2.1A1.781,1.781,0,0,0,21.4-.971,2.633,2.633,0,0,0,23.543-1.9a5.3,5.3,0,0,0,1.131-2.717A12.243,12.243,0,0,0,24.832-6.111ZM34.525,0H33.281L29.726-7.725,28.386,0H27.094l1.729-9.953h1.244l3.562,7.759,1.347-7.759h1.278Zm2.823-4.04a10.569,10.569,0,0,1,.414-2.967A8.618,8.618,0,0,1,39-9.591a5.249,5.249,0,0,1,1.7-1.641l.26.834A5.444,5.444,0,0,0,39.32-8.06a10.135,10.135,0,0,0-.7,3.521l-.007.581a10.188,10.188,0,0,0,.964,4.58A5.47,5.47,0,0,0,40.958,2.44l-.26.772a5.418,5.418,0,0,1-1.736-1.7A9.5,9.5,0,0,1,37.348-4.04ZM46.208,0H44.936V-8.429l-2.55.937V-8.641L46.009-10h.2Zm9.946-4.245a5.784,5.784,0,0,1-.759,3.3A2.7,2.7,0,0,1,53.023.137,2.718,2.718,0,0,1,50.665-.919a5.49,5.49,0,0,1-.793-3.155V-5.763a5.655,5.655,0,0,1,.759-3.261,2.719,2.719,0,0,1,2.379-1.066,2.744,2.744,0,0,1,2.365,1.029,5.458,5.458,0,0,1,.779,3.175ZM54.889-5.975a4.634,4.634,0,0,0-.451-2.341,1.553,1.553,0,0,0-1.429-.735,1.532,1.532,0,0,0-1.415.731,4.525,4.525,0,0,0-.458,2.249v2.023A4.708,4.708,0,0,0,51.6-1.665,1.55,1.55,0,0,0,53.023-.9a1.529,1.529,0,0,0,1.391-.725A4.538,4.538,0,0,0,54.889-3.9Zm5.934,2a10.574,10.574,0,0,1-.4,2.922A8.641,8.641,0,0,1,59.2,1.531a5.361,5.361,0,0,1-1.726,1.682l-.267-.772A5.5,5.5,0,0,0,58.9-.065a10.839,10.839,0,0,0,.653-3.77v-.219a11.254,11.254,0,0,0-.3-2.669,9.009,9.009,0,0,0-.837-2.211,5.108,5.108,0,0,0-1.207-1.524l.267-.772a5.34,5.34,0,0,1,1.719,1.668,8.66,8.66,0,0,1,1.224,2.577A10.818,10.818,0,0,1,60.823-3.972Z" transform="translate(650.809 4821)" fill="#12263f"/>
    <path id="Trazado_806339" data-name="Trazado 806339" d="M-10.408-2.6h-4.17L-15.514,0h-1.354l3.8-9.953h1.148L-8.111,0H-9.458Zm-3.773-1.073H-10.8l-1.7-4.655ZM-.776-8.88h-3.2V0H-5.281V-8.88H-8.473V-9.953h7.7ZM.455-4.04A10.569,10.569,0,0,1,.868-7.007,8.618,8.618,0,0,1,2.1-9.591a5.249,5.249,0,0,1,1.7-1.641l.26.834A5.444,5.444,0,0,0,2.427-8.06a10.135,10.135,0,0,0-.7,3.521l-.007.581A10.188,10.188,0,0,0,2.683.622,5.47,5.47,0,0,0,4.064,2.44l-.26.772a5.418,5.418,0,0,1-1.736-1.7A9.5,9.5,0,0,1,.455-4.04ZM7-5.592h.95a2.088,2.088,0,0,0,1.408-.472A1.576,1.576,0,0,0,9.868-7.3a1.544,1.544,0,0,0-1.743-1.75,1.813,1.813,0,0,0-1.309.468,1.639,1.639,0,0,0-.489,1.241H5.062a2.539,2.539,0,0,1,.865-1.965,3.15,3.15,0,0,1,2.2-.783,3.113,3.113,0,0,1,2.208.745,2.692,2.692,0,0,1,.8,2.071,2.185,2.185,0,0,1-.42,1.258,2.538,2.538,0,0,1-1.145.909,2.446,2.446,0,0,1,1.268.861,2.392,2.392,0,0,1,.448,1.47,2.715,2.715,0,0,1-.875,2.126A3.277,3.277,0,0,1,8.131.137a3.363,3.363,0,0,1-2.28-.759,2.517,2.517,0,0,1-.878-2H6.245a1.627,1.627,0,0,0,.513,1.258A1.95,1.95,0,0,0,8.131-.9a1.914,1.914,0,0,0,1.4-.479,1.844,1.844,0,0,0,.485-1.374,1.673,1.673,0,0,0-.533-1.333A2.323,2.323,0,0,0,7.947-4.56H7Zm9.071,1.62a10.574,10.574,0,0,1-.4,2.922,8.641,8.641,0,0,1-1.224,2.581,5.361,5.361,0,0,1-1.726,1.682l-.267-.772A5.5,5.5,0,0,0,14.144-.065a10.839,10.839,0,0,0,.653-3.77v-.219a11.253,11.253,0,0,0-.3-2.669,9.009,9.009,0,0,0-.837-2.211,5.108,5.108,0,0,0-1.207-1.524l.267-.772a5.34,5.34,0,0,1,1.719,1.668,8.66,8.66,0,0,1,1.224,2.577A10.818,10.818,0,0,1,16.068-3.972Z" transform="translate(712.809 4764)" fill="#12263f"/>
    <path id="Trazado_806340" data-name="Trazado 806340" d="M-28.27-4.437a6.172,6.172,0,0,1-2.458-1.193A2.279,2.279,0,0,1-31.5-7.376a2.408,2.408,0,0,1,.94-1.945,3.736,3.736,0,0,1,2.444-.769,4.078,4.078,0,0,1,1.829.4A3.007,3.007,0,0,1-25.04-8.6,2.8,2.8,0,0,1-24.6-7.075h-1.319A1.82,1.82,0,0,0-26.493-8.5a2.335,2.335,0,0,0-1.62-.518,2.391,2.391,0,0,0-1.514.428A1.428,1.428,0,0,0-30.17-7.4a1.285,1.285,0,0,0,.516,1.031A5.062,5.062,0,0,0-27.9-5.6a8.152,8.152,0,0,1,1.941.77,2.946,2.946,0,0,1,1.039.981,2.5,2.5,0,0,1,.338,1.319,2.326,2.326,0,0,1-.943,1.938,4.022,4.022,0,0,1-2.522.728,4.678,4.678,0,0,1-1.914-.393,3.221,3.221,0,0,1-1.371-1.077,2.627,2.627,0,0,1-.482-1.552h1.319a1.714,1.714,0,0,0,.667,1.425,2.806,2.806,0,0,0,1.781.523,2.58,2.58,0,0,0,1.593-.424A1.377,1.377,0,0,0-25.9-2.516a1.351,1.351,0,0,0-.513-1.131A5.911,5.911,0,0,0-28.27-4.437ZM-15.248,0h-1.319l-5.011-7.67V0H-22.9V-9.953h1.319l5.024,7.7v-7.7h1.306Zm4.026-9.953,3.254,8.121,3.254-8.121h1.7V0H-4.324V-3.876L-4.2-8.06-7.468,0h-1l-3.261-8.039.13,4.163V0h-1.312V-9.953ZM.619-3.9V0H-.694V-9.953H2.977a3.688,3.688,0,0,1,2.56.834,2.827,2.827,0,0,1,.926,2.208,2.79,2.79,0,0,1-.906,2.232A3.853,3.853,0,0,1,2.963-3.9Zm0-1.073H2.977a2.358,2.358,0,0,0,1.613-.5A1.815,1.815,0,0,0,5.151-6.9,1.876,1.876,0,0,0,4.59-8.325,2.209,2.209,0,0,0,3.052-8.88H.619Zm7.273.93a10.569,10.569,0,0,1,.414-2.967A8.618,8.618,0,0,1,9.54-9.591a5.249,5.249,0,0,1,1.7-1.641l.26.834A5.444,5.444,0,0,0,9.864-8.06a10.135,10.135,0,0,0-.7,3.521l-.007.581a10.188,10.188,0,0,0,.964,4.58A5.47,5.47,0,0,0,11.5,2.44l-.26.772a5.418,5.418,0,0,1-1.736-1.7A9.5,9.5,0,0,1,7.892-4.04ZM16.751,0H15.48V-8.429l-2.55.937V-8.641L16.553-10h.2Zm7.861,0H23.341V-8.429l-2.55.937V-8.641L24.415-10h.2Zm6.754-3.972a10.574,10.574,0,0,1-.4,2.922,8.641,8.641,0,0,1-1.224,2.581,5.361,5.361,0,0,1-1.726,1.682L27.75,2.44A5.5,5.5,0,0,0,29.442-.065a10.839,10.839,0,0,0,.653-3.77v-.219a11.253,11.253,0,0,0-.3-2.669,9.009,9.009,0,0,0-.837-2.211,5.108,5.108,0,0,0-1.207-1.524l.267-.772a5.34,5.34,0,0,1,1.719,1.668A8.66,8.66,0,0,1,30.96-6.986,10.818,10.818,0,0,1,31.367-3.972Z" transform="translate(768.809 4821)" fill="#12263f"/>
    <path id="Trazado_806341" data-name="Trazado 806341" d="M-12.513,0h-1.312V-9.953h1.313ZM-8.8-3.9V0h-1.312V-9.953h3.671a3.688,3.688,0,0,1,2.56.834,2.827,2.827,0,0,1,.926,2.208,2.79,2.79,0,0,1-.906,2.232A3.853,3.853,0,0,1-6.457-3.9Zm0-1.073h2.358a2.358,2.358,0,0,0,1.613-.5A1.815,1.815,0,0,0-4.269-6.9,1.876,1.876,0,0,0-4.83-8.325,2.209,2.209,0,0,0-6.368-8.88H-8.8Zm7.273.93a10.569,10.569,0,0,1,.414-2.967A8.618,8.618,0,0,1,.12-9.591a5.249,5.249,0,0,1,1.7-1.641l.26.834A5.444,5.444,0,0,0,.444-8.06a10.135,10.135,0,0,0-.7,3.521l-.007.581A10.188,10.188,0,0,0,.7.622,5.47,5.47,0,0,0,2.082,2.44l-.26.772a5.418,5.418,0,0,1-1.736-1.7A9.5,9.5,0,0,1-1.528-4.04Zm10.042.7H9.9v1.032H8.514V0H7.243V-2.311H2.71v-.745l4.457-6.9H8.514Zm-4.368,0h3.1V-8.224l-.15.273Zm9.939-.629a10.574,10.574,0,0,1-.4,2.922,8.641,8.641,0,0,1-1.224,2.581,5.361,5.361,0,0,1-1.726,1.682l-.267-.772A5.5,5.5,0,0,0,12.161-.065a10.839,10.839,0,0,0,.653-3.77v-.219a11.253,11.253,0,0,0-.3-2.669,9.009,9.009,0,0,0-.837-2.211,5.108,5.108,0,0,0-1.207-1.524l.267-.772a5.34,5.34,0,0,1,1.719,1.668,8.66,8.66,0,0,1,1.224,2.577A10.818,10.818,0,0,1,14.085-3.972Z" transform="translate(770.809 4764)" fill="#12263f"/>
    <path id="Trazado_806342" data-name="Trazado 806342" d="M-23.181,0h-1.312V-9.953h1.313Zm9.721-3.158A3.662,3.662,0,0,1-14.625-.721a3.82,3.82,0,0,1-2.608.858A3.507,3.507,0,0,1-20.06-1.128a5.088,5.088,0,0,1-1.063-3.384v-.957a5.671,5.671,0,0,1,.5-2.44,3.7,3.7,0,0,1,1.4-1.617,3.911,3.911,0,0,1,2.105-.564,3.6,3.6,0,0,1,2.543.885A3.706,3.706,0,0,1-13.46-6.754h-1.319a2.86,2.86,0,0,0-.742-1.728,2.244,2.244,0,0,0-1.6-.535,2.348,2.348,0,0,0-1.972.93A4.272,4.272,0,0,0-19.8-5.438v.965a4.391,4.391,0,0,0,.677,2.579,2.187,2.187,0,0,0,1.894.958,2.526,2.526,0,0,0,1.678-.5,2.75,2.75,0,0,0,.776-1.726Zm3.486-6.795L-6.72-1.832l3.254-8.121h1.7V0H-3.076V-3.876l.123-4.184L-6.221,0h-1l-3.261-8.039.13,4.163V0h-1.312V-9.953ZM1.866-3.9V0H.554V-9.953H4.225a3.688,3.688,0,0,1,2.56.834,2.827,2.827,0,0,1,.926,2.208,2.79,2.79,0,0,1-.906,2.232A3.853,3.853,0,0,1,4.211-3.9Zm0-1.073H4.225a2.358,2.358,0,0,0,1.613-.5A1.815,1.815,0,0,0,6.4-6.9a1.876,1.876,0,0,0-.561-1.424A2.209,2.209,0,0,0,4.3-8.88H1.866Zm7.273.93a10.569,10.569,0,0,1,.414-2.967,8.618,8.618,0,0,1,1.234-2.584,5.249,5.249,0,0,1,1.7-1.641l.26.834A5.444,5.444,0,0,0,11.112-8.06a10.135,10.135,0,0,0-.7,3.521l-.007.581a10.188,10.188,0,0,0,.964,4.58A5.47,5.47,0,0,0,12.749,2.44l-.26.772a5.418,5.418,0,0,1-1.736-1.7A9.5,9.5,0,0,1,9.14-4.04Zm5.284-.95.506-4.963h5.1v1.169H16L15.7-6.07A3.212,3.212,0,0,1,17.363-6.5a2.746,2.746,0,0,1,2.16.9,3.523,3.523,0,0,1,.8,2.43,3.4,3.4,0,0,1-.831,2.423,3.027,3.027,0,0,1-2.321.885,3.146,3.146,0,0,1-2.153-.731,2.919,2.919,0,0,1-.95-2.023h1.2a2.009,2.009,0,0,0,.608,1.289,1.892,1.892,0,0,0,1.3.434,1.706,1.706,0,0,0,1.384-.6,2.515,2.515,0,0,0,.5-1.661,2.308,2.308,0,0,0-.543-1.6,1.849,1.849,0,0,0-1.446-.6,2.085,2.085,0,0,0-1.3.362l-.335.273ZM24.753-3.972a10.574,10.574,0,0,1-.4,2.922,8.641,8.641,0,0,1-1.224,2.581A5.361,5.361,0,0,1,21.4,3.213l-.267-.772A5.5,5.5,0,0,0,22.829-.065a10.839,10.839,0,0,0,.653-3.77v-.219a11.253,11.253,0,0,0-.3-2.669,9.009,9.009,0,0,0-.837-2.211,5.108,5.108,0,0,0-1.207-1.524l.267-.772a5.34,5.34,0,0,1,1.719,1.668,8.66,8.66,0,0,1,1.224,2.577A10.818,10.818,0,0,1,24.753-3.972Z" transform="translate(836.809 4764)" fill="#12263f"/>
    <path id="Trazado_806343" data-name="Trazado 806343" d="M-13.3-8.88h-3.2V0H-17.8V-8.88h-3.192V-9.953h7.7Zm7.1,4.279h-4.313v3.527H-5.5V0h-6.323V-9.953h6.255V-8.88h-4.942v3.206h4.313Zm3.644.7V0H-3.862V-9.953H-.191a3.688,3.688,0,0,1,2.56.834,2.827,2.827,0,0,1,.926,2.208,2.79,2.79,0,0,1-.906,2.232A3.853,3.853,0,0,1-.205-3.9Zm0-1.073H-.191a2.358,2.358,0,0,0,1.613-.5A1.815,1.815,0,0,0,1.982-6.9a1.876,1.876,0,0,0-.561-1.424A2.209,2.209,0,0,0-.116-8.88H-2.55Zm7.273.93a10.569,10.569,0,0,1,.414-2.967A8.618,8.618,0,0,1,6.371-9.591a5.249,5.249,0,0,1,1.7-1.641l.26.834A5.444,5.444,0,0,0,6.7-8.06,10.135,10.135,0,0,0,6-4.539l-.007.581A10.188,10.188,0,0,0,6.952.622,5.47,5.47,0,0,0,8.333,2.44l-.26.772a5.418,5.418,0,0,1-1.736-1.7A9.5,9.5,0,0,1,4.724-4.04ZM14.39-9.96v1.073h-.232a3.33,3.33,0,0,0-2.352.875,3.641,3.641,0,0,0-1.012,2.386,2.7,2.7,0,0,1,2.146-.9,2.581,2.581,0,0,1,2.075.916,3.533,3.533,0,0,1,.776,2.365,3.522,3.522,0,0,1-.837,2.461,2.883,2.883,0,0,1-2.246.923,2.841,2.841,0,0,1-2.317-1.1A4.348,4.348,0,0,1,9.5-3.787v-.485a6.552,6.552,0,0,1,1.172-4.2,4.306,4.306,0,0,1,3.49-1.487ZM12.729-5.476a2.018,2.018,0,0,0-1.2.39,2.03,2.03,0,0,0-.759.978v.465a3.265,3.265,0,0,0,.554,1.982,1.659,1.659,0,0,0,1.381.752,1.608,1.608,0,0,0,1.343-.629,2.61,2.61,0,0,0,.489-1.647,2.61,2.61,0,0,0-.5-1.658A1.589,1.589,0,0,0,12.729-5.476Zm7.608,1.5a10.574,10.574,0,0,1-.4,2.922,8.641,8.641,0,0,1-1.224,2.581,5.361,5.361,0,0,1-1.726,1.682l-.267-.772A5.5,5.5,0,0,0,18.413-.065a10.839,10.839,0,0,0,.653-3.77v-.219a11.253,11.253,0,0,0-.3-2.669,9.009,9.009,0,0,0-.837-2.211,5.108,5.108,0,0,0-1.207-1.524l.267-.772a5.34,5.34,0,0,1,1.719,1.668A8.66,8.66,0,0,1,19.93-6.986,10.818,10.818,0,0,1,20.337-3.972Z" transform="translate(905.809 4764)" fill="#12263f"/>
    <path id="Trazado_806344" data-name="Trazado 806344" d="M-14.14-9.953v6.768a3.175,3.175,0,0,1-.885,2.3,3.567,3.567,0,0,1-2.382,1l-.349.014a3.725,3.725,0,0,1-2.6-.882,3.154,3.154,0,0,1-.984-2.427V-9.953h1.3v6.74a2.277,2.277,0,0,0,.595,1.678,2.286,2.286,0,0,0,1.7.6,2.3,2.3,0,0,0,1.706-.595,2.272,2.272,0,0,0,.591-1.675V-9.953ZM-12.069,0V-9.953h2.81a4.523,4.523,0,0,1,2.3.574A3.884,3.884,0,0,1-5.421-7.745a5.318,5.318,0,0,1,.55,2.434v.636a5.336,5.336,0,0,1-.543,2.468A3.823,3.823,0,0,1-6.966-.581,4.811,4.811,0,0,1-9.314,0Zm1.313-8.88v7.807h1.381a3,3,0,0,0,2.362-.944,3.9,3.9,0,0,0,.844-2.689v-.582a3.963,3.963,0,0,0-.8-2.637A2.834,2.834,0,0,0-9.225-8.88ZM-1.576-3.9V0H-2.888V-9.953H.783a3.688,3.688,0,0,1,2.56.834,2.827,2.827,0,0,1,.926,2.208,2.79,2.79,0,0,1-.906,2.232A3.853,3.853,0,0,1,.769-3.9Zm0-1.073H.783a2.358,2.358,0,0,0,1.613-.5A1.815,1.815,0,0,0,2.957-6.9,1.876,1.876,0,0,0,2.4-8.325,2.209,2.209,0,0,0,.858-8.88H-1.576ZM5.7-4.04a10.569,10.569,0,0,1,.414-2.967A8.618,8.618,0,0,1,7.345-9.591a5.249,5.249,0,0,1,1.7-1.641l.26.834A5.444,5.444,0,0,0,7.67-8.06a10.135,10.135,0,0,0-.7,3.521l-.007.581A10.188,10.188,0,0,0,7.926.622,5.47,5.47,0,0,0,9.307,2.44l-.26.772a5.418,5.418,0,0,1-1.736-1.7A9.5,9.5,0,0,1,5.7-4.04Zm11.129-5.2L12.7,0H11.378l4.108-8.914H10.1V-9.953h6.727Zm4.484,5.271a10.574,10.574,0,0,1-.4,2.922,8.641,8.641,0,0,1-1.224,2.581,5.361,5.361,0,0,1-1.726,1.682l-.267-.772A5.5,5.5,0,0,0,19.387-.065a10.839,10.839,0,0,0,.653-3.77v-.219a11.253,11.253,0,0,0-.3-2.669A9.009,9.009,0,0,0,18.9-8.935a5.108,5.108,0,0,0-1.207-1.524l.267-.772a5.34,5.34,0,0,1,1.719,1.668A8.66,8.66,0,0,1,20.9-6.986,10.818,10.818,0,0,1,21.311-3.972Z" transform="translate(970.809 4764)" fill="#12263f"/>
    <path id="Trazado_806345" data-name="Trazado 806345" d="M-15.138-4.6h-4.313v3.527h5.011V0h-6.323V-9.953h6.255V-8.88h-4.942v3.206h4.313Zm9.68,3.295A3.032,3.032,0,0,1-6.87-.222,5.7,5.7,0,0,1-8.979.137a4.09,4.09,0,0,1-2.16-.571A3.8,3.8,0,0,1-12.6-2.058a5.607,5.607,0,0,1-.53-2.44v-.868a5.234,5.234,0,0,1,1.049-3.486,3.656,3.656,0,0,1,2.95-1.237,3.777,3.777,0,0,1,2.509.8A3.469,3.469,0,0,1-5.458-7.034H-6.771A2.17,2.17,0,0,0-9.123-9.017a2.323,2.323,0,0,0-2,.927A4.526,4.526,0,0,0-11.809-5.4v.814a4.242,4.242,0,0,0,.766,2.665,2.482,2.482,0,0,0,2.071.989A4.575,4.575,0,0,0-7.68-1.1a2,2,0,0,0,.916-.552v-2.23h-2.3V-4.956h3.609Zm3.5-2.591V0H-3.271V-9.953H.4a3.688,3.688,0,0,1,2.56.834,2.827,2.827,0,0,1,.926,2.208A2.79,2.79,0,0,1,2.98-4.679,3.853,3.853,0,0,1,.386-3.9Zm0-1.073H.4a2.358,2.358,0,0,0,1.613-.5A1.815,1.815,0,0,0,2.574-6.9a1.876,1.876,0,0,0-.561-1.424A2.209,2.209,0,0,0,.475-8.88H-1.958Zm7.273.93a10.569,10.569,0,0,1,.414-2.967A8.618,8.618,0,0,1,6.962-9.591a5.249,5.249,0,0,1,1.7-1.641l.26.834A5.444,5.444,0,0,0,7.287-8.06a10.135,10.135,0,0,0-.7,3.521l-.007.581A10.188,10.188,0,0,0,7.543.622,5.47,5.47,0,0,0,8.924,2.44l-.26.772a5.418,5.418,0,0,1-1.736-1.7A9.5,9.5,0,0,1,5.315-4.04ZM16.054-7.355a2.311,2.311,0,0,1-.393,1.326A2.674,2.674,0,0,1,14.6-5.12a2.853,2.853,0,0,1,1.234.978,2.46,2.46,0,0,1,.455,1.456,2.6,2.6,0,0,1-.872,2.058,3.349,3.349,0,0,1-2.293.766,3.334,3.334,0,0,1-2.3-.769,2.613,2.613,0,0,1-.865-2.054A2.533,2.533,0,0,1,10.4-4.143a2.744,2.744,0,0,1,1.22-.984,2.608,2.608,0,0,1-1.046-.909,2.344,2.344,0,0,1-.383-1.319,2.573,2.573,0,0,1,.807-2,3.026,3.026,0,0,1,2.126-.738,3.029,3.029,0,0,1,2.123.738A2.567,2.567,0,0,1,16.054-7.355ZM15.022-2.714a1.834,1.834,0,0,0-.53-1.36A1.879,1.879,0,0,0,13.108-4.6a1.846,1.846,0,0,0-1.371.52,1.855,1.855,0,0,0-.516,1.367,1.767,1.767,0,0,0,.5,1.333,1.929,1.929,0,0,0,1.4.485,1.923,1.923,0,0,0,1.395-.489A1.763,1.763,0,0,0,15.022-2.714Zm-1.9-6.337a1.632,1.632,0,0,0-1.207.461,1.7,1.7,0,0,0-.461,1.254,1.687,1.687,0,0,0,.455,1.227,1.613,1.613,0,0,0,1.213.468,1.613,1.613,0,0,0,1.213-.468,1.687,1.687,0,0,0,.455-1.227,1.687,1.687,0,0,0-.472-1.237A1.609,1.609,0,0,0,13.122-9.051Zm7.807,5.079a10.574,10.574,0,0,1-.4,2.922A8.641,8.641,0,0,1,19.3,1.531a5.361,5.361,0,0,1-1.726,1.682l-.267-.772A5.5,5.5,0,0,0,19-.065a10.839,10.839,0,0,0,.653-3.77v-.219a11.253,11.253,0,0,0-.3-2.669,9.009,9.009,0,0,0-.837-2.211,5.108,5.108,0,0,0-1.207-1.524l.267-.772A5.34,5.34,0,0,1,19.3-9.563a8.66,8.66,0,0,1,1.224,2.577A10.818,10.818,0,0,1,20.928-3.972Z" transform="translate(1035.809 4764)" fill="#12263f"/>
    <path id="Trazado_806346" data-name="Trazado 806346" d="M-19.845-3.158A3.662,3.662,0,0,1-21.01-.721a3.82,3.82,0,0,1-2.608.858,3.507,3.507,0,0,1-2.827-1.265,5.088,5.088,0,0,1-1.063-3.384v-.957a5.671,5.671,0,0,1,.5-2.44,3.7,3.7,0,0,1,1.4-1.617A3.911,3.911,0,0,1-23.5-10.09a3.6,3.6,0,0,1,2.543.885,3.706,3.706,0,0,1,1.114,2.451h-1.319a2.86,2.86,0,0,0-.742-1.728,2.244,2.244,0,0,0-1.6-.535,2.348,2.348,0,0,0-1.972.93,4.272,4.272,0,0,0-.714,2.648v.965a4.391,4.391,0,0,0,.677,2.579,2.187,2.187,0,0,0,1.894.958,2.526,2.526,0,0,0,1.678-.5,2.75,2.75,0,0,0,.776-1.726Zm3.486-6.795L-13.1-1.832l3.254-8.121h1.7V0H-9.461V-3.876l.123-4.184L-12.605,0h-1l-3.261-8.039.13,4.163V0h-1.312V-9.953Zm18.184,5.3A6.157,6.157,0,0,1,1.333-2.1,3.728,3.728,0,0,1-.062-.437,3.837,3.837,0,0,1-2.167.137,3.8,3.8,0,0,1-4.252-.441,3.817,3.817,0,0,1-5.664-2.088,5.908,5.908,0,0,1-6.18-4.566v-.718a6.084,6.084,0,0,1,.5-2.536A3.8,3.8,0,0,1-4.269-9.505a3.788,3.788,0,0,1,2.088-.584,3.858,3.858,0,0,1,2.109.578,3.721,3.721,0,0,1,1.4,1.675,6.187,6.187,0,0,1,.492,2.553ZM.52-5.3A4.463,4.463,0,0,0-.191-8.015a2.345,2.345,0,0,0-1.989-.947,2.32,2.32,0,0,0-1.958.947,4.371,4.371,0,0,0-.735,2.628v.731a4.469,4.469,0,0,0,.721,2.7,2.329,2.329,0,0,0,1.986.981A2.32,2.32,0,0,0-.2-1.9,4.444,4.444,0,0,0,.52-4.56ZM10.486-8.88h-3.2V0H5.981V-8.88H2.789V-9.953h7.7Zm1.23,4.84a10.569,10.569,0,0,1,.414-2.967,8.618,8.618,0,0,1,1.234-2.584,5.249,5.249,0,0,1,1.7-1.641l.26.834A5.444,5.444,0,0,0,13.689-8.06a10.135,10.135,0,0,0-.7,3.521l-.007.581a10.188,10.188,0,0,0,.964,4.58A5.47,5.47,0,0,0,15.326,2.44l-.26.772a5.418,5.418,0,0,1-1.736-1.7A9.5,9.5,0,0,1,11.717-4.04Zm9.55-.335a3.094,3.094,0,0,1-.947.759,2.569,2.569,0,0,1-1.207.287,2.652,2.652,0,0,1-1.5-.424,2.755,2.755,0,0,1-.988-1.193,4.067,4.067,0,0,1-.349-1.7,4.143,4.143,0,0,1,.379-1.8,2.787,2.787,0,0,1,1.077-1.224,3.07,3.07,0,0,1,1.627-.424,2.78,2.78,0,0,1,2.328,1.1,4.815,4.815,0,0,1,.851,3.011v.369A6.434,6.434,0,0,1,21.39-1.364,4.412,4.412,0,0,1,17.924.007h-.246V-1.066h.267a3.482,3.482,0,0,0,2.406-.815A3.5,3.5,0,0,0,21.267-4.375Zm-1.948,0a1.953,1.953,0,0,0,1.172-.39,2.3,2.3,0,0,0,.783-.964v-.506a3.48,3.48,0,0,0-.54-2.023,1.611,1.611,0,0,0-1.367-.779,1.624,1.624,0,0,0-1.34.639,2.637,2.637,0,0,0-.506,1.685,2.744,2.744,0,0,0,.489,1.678A1.548,1.548,0,0,0,19.318-4.375Zm8.012.4a10.574,10.574,0,0,1-.4,2.922,8.641,8.641,0,0,1-1.224,2.581A5.361,5.361,0,0,1,23.98,3.213l-.267-.772A5.5,5.5,0,0,0,25.406-.065a10.839,10.839,0,0,0,.653-3.77v-.219a11.253,11.253,0,0,0-.3-2.669,9.009,9.009,0,0,0-.837-2.211,5.108,5.108,0,0,0-1.207-1.524l.267-.772A5.34,5.34,0,0,1,25.7-9.563a8.66,8.66,0,0,1,1.224,2.577A10.818,10.818,0,0,1,27.33-3.972Z" transform="translate(1106.809 4764)" fill="#12263f"/>
    <path id="Trazado_806347" data-name="Trazado 806347" d="M-19.5,0H-21V-11.375h1.5Zm6.094-5.07a7.053,7.053,0,0,1-2.809-1.363,2.6,2.6,0,0,1-.879-2,2.751,2.751,0,0,1,1.074-2.223,4.269,4.269,0,0,1,2.793-.879,4.66,4.66,0,0,1,2.09.453,3.436,3.436,0,0,1,1.422,1.25,3.2,3.2,0,0,1,.5,1.742h-1.508a2.08,2.08,0,0,0-.656-1.627,2.669,2.669,0,0,0-1.852-.592,2.732,2.732,0,0,0-1.73.489,1.632,1.632,0,0,0-.621,1.358,1.468,1.468,0,0,0,.59,1.178,5.785,5.785,0,0,0,2.008.88,9.316,9.316,0,0,1,2.219.88A3.367,3.367,0,0,1-9.574-4.4a2.861,2.861,0,0,1,.387,1.508A2.658,2.658,0,0,1-10.266-.676a4.6,4.6,0,0,1-2.883.832,5.347,5.347,0,0,1-2.187-.449A3.681,3.681,0,0,1-16.9-1.523,3,3,0,0,1-17.453-3.3h1.508a1.959,1.959,0,0,0,.762,1.629,3.207,3.207,0,0,0,2.035.6,2.948,2.948,0,0,0,1.82-.484,1.573,1.573,0,0,0,.633-1.32,1.545,1.545,0,0,0-.586-1.293A6.755,6.755,0,0,0-13.406-5.07ZM1.484-5.32A7.037,7.037,0,0,1,.922-2.4,4.261,4.261,0,0,1-.672-.5,4.385,4.385,0,0,1-3.078.156,4.347,4.347,0,0,1-5.461-.5,4.363,4.363,0,0,1-7.074-2.387a6.752,6.752,0,0,1-.59-2.832v-.82a6.953,6.953,0,0,1,.57-2.9A4.347,4.347,0,0,1-5.48-10.863a4.329,4.329,0,0,1,2.387-.668,4.41,4.41,0,0,1,2.41.66A4.253,4.253,0,0,1,.922-8.957a7.071,7.071,0,0,1,.563,2.918ZM-.008-6.055A5.1,5.1,0,0,0-.82-9.16a2.68,2.68,0,0,0-2.273-1.082A2.651,2.651,0,0,0-5.332-9.16a5,5,0,0,0-.84,3v.836a5.107,5.107,0,0,0,.824,3.082,2.662,2.662,0,0,0,2.27,1.121A2.652,2.652,0,0,0-.828-2.176a5.079,5.079,0,0,0,.82-3.035ZM3.453-4.617a12.079,12.079,0,0,1,.473-3.391,9.85,9.85,0,0,1,1.41-2.953,6,6,0,0,1,1.945-1.875l.3.953A6.222,6.222,0,0,0,5.707-9.211a11.583,11.583,0,0,0-.8,4.023L4.9-4.523A11.643,11.643,0,0,0,6,.711,6.252,6.252,0,0,0,7.578,2.789l-.3.883A6.192,6.192,0,0,1,5.3,1.734,10.859,10.859,0,0,1,3.453-4.617ZM13.578,0H12.125V-9.633L9.211-8.562V-9.875l4.141-1.555h.227ZM21.3-4.539A12.084,12.084,0,0,1,20.84-1.2a9.876,9.876,0,0,1-1.4,2.949,6.127,6.127,0,0,1-1.973,1.922l-.3-.883A6.281,6.281,0,0,0,19.1-.074a12.387,12.387,0,0,0,.746-4.309v-.25A12.861,12.861,0,0,0,19.5-7.684a10.3,10.3,0,0,0-.957-2.527,5.838,5.838,0,0,0-1.379-1.742l.3-.883a6.1,6.1,0,0,1,1.965,1.906,9.9,9.9,0,0,1,1.4,2.945A12.363,12.363,0,0,1,21.3-4.539Z" transform="translate(733.309 4338)" fill="#12263f"/>
    <path id="Trazado_806348" data-name="Trazado 806348" d="M-43.008-2.93q.172-1.25-1.3-1.828l-1.352-.492-.453-.2q-2.281-1.039-2.133-2.922a3.056,3.056,0,0,1,.648-1.672,3.69,3.69,0,0,1,1.512-1.121,4.849,4.849,0,0,1,2-.371,4,4,0,0,1,1.84.461,2.962,2.962,0,0,1,1.23,1.223,3.333,3.333,0,0,1,.375,1.77l-1.477-.008a2.037,2.037,0,0,0-.469-1.627,2.1,2.1,0,0,0-1.562-.592,2.91,2.91,0,0,0-1.789.5,1.955,1.955,0,0,0-.828,1.409q-.156,1.166,1.43,1.769l1.164.415.586.25a2.941,2.941,0,0,1,2.039,3.016,3.012,3.012,0,0,1-.648,1.66A3.626,3.626,0,0,1-43.715-.2a5.266,5.266,0,0,1-2.074.359A4.339,4.339,0,0,1-47.746-.3a3.193,3.193,0,0,1-1.348-1.23A3.078,3.078,0,0,1-49.5-3.3l1.469.008a1.935,1.935,0,0,0,.551,1.613,2.479,2.479,0,0,0,1.754.613,3.131,3.131,0,0,0,1.867-.492A1.916,1.916,0,0,0-43.008-2.93Zm12.289-7.219h-3.539L-36.016,0h-1.461l1.758-10.148h-3.539l.219-1.227H-30.5Zm5.969,7.172h-4.609L-30.914,0h-1.57l6.18-11.375h1.289L-22.766,0h-1.445ZM-28.711-4.2h3.742l-.945-5.3ZM-12.7,0h-1.422L-18.18-8.828-19.711,0h-1.477l1.977-11.375h1.422l4.07,8.867,1.539-8.867h1.461Zm2.648,0L-8.07-11.375l2.953.008a4.1,4.1,0,0,1,2.395.7A3.835,3.835,0,0,1-1.281-8.754a5.962,5.962,0,0,1,.258,2.738l-.078.57A6.432,6.432,0,0,1-3.031-1.48,5.611,5.611,0,0,1-7.016,0ZM-6.82-10.148-8.367-1.234l1.445.008A4.061,4.061,0,0,0-4.113-2.258a4.9,4.9,0,0,0,1.5-2.828A9.2,9.2,0,0,0-2.43-7.531a2.978,2.978,0,0,0-.8-1.895,2.605,2.605,0,0,0-1.844-.715ZM6.852-2.977H2.242L.688,0H-.883L5.3-11.375H6.586L8.836,0H7.391ZM2.891-4.2H6.633l-.945-5.3ZM15.3-4.594H12.68L11.883,0H10.406l1.977-11.375,3.422.008a3.814,3.814,0,0,1,2.727.907,2.83,2.83,0,0,1,.789,2.448,3.241,3.241,0,0,1-.777,1.885A4.247,4.247,0,0,1,16.7-4.9L18.469-.1l-.008.1H16.9ZM12.891-5.828l2.156.008a3.012,3.012,0,0,0,1.9-.6,2.326,2.326,0,0,0,.906-1.6,1.837,1.837,0,0,0-.391-1.531,2.087,2.087,0,0,0-1.547-.586l-2.273-.008ZM20.047,0l1.977-11.375,2.953.008a4.1,4.1,0,0,1,2.395.7,3.835,3.835,0,0,1,1.441,1.918,5.962,5.962,0,0,1,.258,2.738l-.078.57a6.432,6.432,0,0,1-1.93,3.965A5.611,5.611,0,0,1,23.078,0Zm3.227-10.148L21.727-1.234l1.445.008A4.061,4.061,0,0,0,25.98-2.258a4.9,4.9,0,0,0,1.5-2.828,9.2,9.2,0,0,0,.188-2.445,2.978,2.978,0,0,0-.8-1.895,2.605,2.605,0,0,0-1.844-.715Zm7.609,5.531a12.079,12.079,0,0,1,.473-3.391,9.85,9.85,0,0,1,1.41-2.953,6,6,0,0,1,1.945-1.875l.3.953a6.222,6.222,0,0,0-1.871,2.672,11.583,11.583,0,0,0-.8,4.023l-.008.664A11.643,11.643,0,0,0,33.43.711a6.252,6.252,0,0,0,1.578,2.078l-.3.883a6.192,6.192,0,0,1-1.984-1.937A10.859,10.859,0,0,1,30.883-4.617Zm12.508-.234a6.61,6.61,0,0,1-.867,3.773A3.084,3.084,0,0,1,39.813.156a3.107,3.107,0,0,1-2.7-1.207,6.274,6.274,0,0,1-.906-3.605v-1.93a6.463,6.463,0,0,1,.867-3.727A3.108,3.108,0,0,1,39.8-11.531a3.136,3.136,0,0,1,2.7,1.176,6.237,6.237,0,0,1,.891,3.629ZM41.945-6.828A5.3,5.3,0,0,0,41.43-9.5a1.775,1.775,0,0,0-1.633-.84,1.751,1.751,0,0,0-1.617.836,5.171,5.171,0,0,0-.523,2.57v2.313A5.381,5.381,0,0,0,38.191-1.9a1.771,1.771,0,0,0,1.621.879,1.747,1.747,0,0,0,1.59-.828,5.186,5.186,0,0,0,.543-2.609Zm6.781,2.289A12.084,12.084,0,0,1,48.27-1.2a9.876,9.876,0,0,1-1.4,2.949A6.127,6.127,0,0,1,44.9,3.672l-.3-.883A6.281,6.281,0,0,0,46.527-.074a12.387,12.387,0,0,0,.746-4.309v-.25a12.861,12.861,0,0,0-.344-3.051,10.3,10.3,0,0,0-.957-2.527,5.838,5.838,0,0,0-1.379-1.742l.3-.883a6.1,6.1,0,0,1,1.965,1.906,9.9,9.9,0,0,1,1.4,2.945A12.363,12.363,0,0,1,48.727-4.539Z" transform="translate(593.309 4430)" fill="#12263f"/>
    <path id="Trazado_806349" data-name="Trazado 806349" d="M-11.535-4.6h-2.672V0h-1.508V-11.375h3.766a4.457,4.457,0,0,1,2.957.875A3.148,3.148,0,0,1-7.957-7.953,3.062,3.062,0,0,1-8.531-6.1a3.428,3.428,0,0,1-1.6,1.18L-7.457-.094V0H-9.066Zm-2.672-1.227h2.3a2.6,2.6,0,0,0,1.777-.579,1.959,1.959,0,0,0,.66-1.55,2.062,2.062,0,0,0-.629-1.62,2.663,2.663,0,0,0-1.816-.571h-2.3Zm14.781.57h-4.93v4.031H1.371V0H-5.855V-11.375H1.293v1.227H-4.355v3.664H.574ZM11.637-1.492A3.465,3.465,0,0,1,10.023-.254a6.517,6.517,0,0,1-2.41.41A4.674,4.674,0,0,1,5.145-.5,4.346,4.346,0,0,1,3.477-2.352a6.408,6.408,0,0,1-.605-2.789v-.992a5.982,5.982,0,0,1,1.2-3.984,4.179,4.179,0,0,1,3.371-1.414,4.316,4.316,0,0,1,2.867.91,3.965,3.965,0,0,1,1.328,2.582h-1.5A2.48,2.48,0,0,0,7.449-10.3a2.655,2.655,0,0,0-2.285,1.06,5.173,5.173,0,0,0-.785,3.069v.93A4.848,4.848,0,0,0,5.254-2.2,2.836,2.836,0,0,0,7.621-1.07,5.228,5.228,0,0,0,9.1-1.257a2.283,2.283,0,0,0,1.047-.631V-4.437H7.512V-5.664h4.125Zm2.3.734a.905.905,0,0,1,.223-.625.848.848,0,0,1,.668-.25.874.874,0,0,1,.676.25.887.887,0,0,1,.23.625.839.839,0,0,1-.23.6.89.89,0,0,1-.676.242.863.863,0,0,1-.668-.242A.855.855,0,0,1,13.941-.758ZM-45.02,15.023h-4.609L-51.184,18h-1.57l6.18-11.375h1.289L-43.035,18H-44.48ZM-48.98,13.8h3.742l-.945-5.3ZM-31.8,6.625l-1.312,7.7a4.368,4.368,0,0,1-1.531,2.824,4.5,4.5,0,0,1-3.055,1.02,3.956,3.956,0,0,1-1.941-.5,2.9,2.9,0,0,1-1.215-1.352,3.69,3.69,0,0,1-.258-1.98l1.313-7.7h1.445l-1.3,7.717a2.5,2.5,0,0,0,.406,1.88,2.031,2.031,0,0,0,1.633.715,2.812,2.812,0,0,0,2-.645A3.125,3.125,0,0,0-34.59,14.35l1.313-7.725Zm9.742,1.227H-25.6L-27.355,18h-1.461l1.758-10.148H-30.6l.219-1.227h8.539ZM-13.621,18H-15.09l.914-5.258H-19.73L-20.645,18h-1.469l1.977-11.375h1.469l-.852,4.891h5.547l.852-4.891h1.477Zm6.82.156a3.642,3.642,0,0,1-1.887-.523A3.391,3.391,0,0,1-9.949,16.16a5.548,5.548,0,0,1-.508-2.184,10.371,10.371,0,0,1,.211-2.336,8.01,8.01,0,0,1,.891-2.508A5.651,5.651,0,0,1-7.816,7.344a4.43,4.43,0,0,1,2.8-.875A3.365,3.365,0,0,1-2.395,7.621a4.792,4.792,0,0,1,1.031,3.035,11.175,11.175,0,0,1-.168,2.086,8.636,8.636,0,0,1-.711,2.352,5.869,5.869,0,0,1-1.3,1.82A4.474,4.474,0,0,1-6.8,18.156Zm3.992-7.141a3.942,3.942,0,0,0-.539-2.387A2.052,2.052,0,0,0-5.09,7.75a2.963,2.963,0,0,0-1.871.563A4.258,4.258,0,0,0-8.312,10.09a9.158,9.158,0,0,0-.668,3L-9,13.594a3.976,3.976,0,0,0,.547,2.4,2.035,2.035,0,0,0,1.727.9,3.009,3.009,0,0,0,2.449-1.066,6.057,6.057,0,0,0,1.293-3.105A13.993,13.993,0,0,0-2.809,11.016Zm7.477,2.391H2.043L1.246,18H-.23L1.746,6.625l3.422.008a3.814,3.814,0,0,1,2.727.907,2.83,2.83,0,0,1,.789,2.448,3.241,3.241,0,0,1-.777,1.885A4.247,4.247,0,0,1,6.066,13.1l1.766,4.8-.008.1H6.262ZM2.254,12.172l2.156.008a3.012,3.012,0,0,0,1.9-.6,2.326,2.326,0,0,0,.906-1.6,1.837,1.837,0,0,0-.391-1.531,2.087,2.087,0,0,0-1.547-.586L3,7.859ZM10.98,18H9.52L11.5,6.625h1.461ZM23.1,7.852H19.559L17.8,18H16.34L18.1,7.852H14.559l.219-1.227h8.539Zm4.383,4.477,3.867-5.7H33.1L28,13.836,27.27,18H25.809l.75-4.328L24.02,6.625h1.594Zm5.664,1.055a12.079,12.079,0,0,1,.473-3.391,9.85,9.85,0,0,1,1.41-2.953,6,6,0,0,1,1.945-1.875l.3.953A6.222,6.222,0,0,0,35.4,8.789a11.583,11.583,0,0,0-.8,4.023l-.008.664a11.643,11.643,0,0,0,1.1,5.234,6.252,6.252,0,0,0,1.578,2.078l-.3.883a6.192,6.192,0,0,1-1.984-1.937A10.859,10.859,0,0,1,33.145,13.383ZM43.27,18H41.816V8.367L38.9,9.438V8.125L43.043,6.57h.227Zm7.719-4.539a12.084,12.084,0,0,1-.457,3.34,9.876,9.876,0,0,1-1.4,2.949,6.127,6.127,0,0,1-1.973,1.922l-.3-.883a6.281,6.281,0,0,0,1.934-2.863,12.387,12.387,0,0,0,.746-4.309v-.25a12.861,12.861,0,0,0-.344-3.051,10.3,10.3,0,0,0-.957-2.527,5.838,5.838,0,0,0-1.379-1.742l.3-.883A6.1,6.1,0,0,1,49.125,7.07a9.9,9.9,0,0,1,1.4,2.945A12.363,12.363,0,0,1,50.988,13.461Z" transform="translate(735.309 4421)" fill="#12263f"/>
    <path id="Trazado_806350" data-name="Trazado 806350" d="M-27.922-11.375l1.992,9.266,5.219-9.266h1.93L-20.758,0h-1.461l.781-4.5.93-4.578L-25.664,0h-1.125L-28.82-9.258l-.7,4.906L-30.281,0H-31.75l1.977-11.375Zm16.961,6.117h-4.781l-.7,4.031h5.563L-11.1,0h-7.023l1.977-11.375H-9.2l-.219,1.227H-14.9l-.633,3.664h4.781ZM-5.4-11.375l1.992,9.266,5.219-9.266h1.93L1.766,0H.3l.781-4.5.93-4.578L-3.141,0H-4.266L-6.3-9.258-7-4.352-7.758,0H-9.227L-7.25-11.375ZM4.4,0,6.375-11.375l3.336.008a3.793,3.793,0,0,1,2.609.781,2.5,2.5,0,0,1,.758,2.18,2.957,2.957,0,0,1-2.055,2.461A2.117,2.117,0,0,1,12.168-4.93a2.839,2.839,0,0,1,.309,1.586A3.318,3.318,0,0,1,11.242-.9,4.456,4.456,0,0,1,8.352,0ZM6.789-5.32,6.078-1.234l2.32.008A2.78,2.78,0,0,0,10.18-1.8a2.218,2.218,0,0,0,.836-1.536,1.821,1.821,0,0,0-.32-1.435,1.745,1.745,0,0,0-1.352-.546ZM7-6.523l2.117.008a2.727,2.727,0,0,0,1.676-.509,2,2,0,0,0,.8-1.4,1.431,1.431,0,0,0-.324-1.253,2.075,2.075,0,0,0-1.41-.462l-2.234-.008ZM21.3-5.258H16.523l-.7,4.031h5.563L21.164,0H14.141l1.977-11.375h6.945l-.219,1.227H17.367l-.633,3.664h4.781Zm6.625.664H25.3L24.508,0H23.031l1.977-11.375,3.422.008a3.814,3.814,0,0,1,2.727.907,2.83,2.83,0,0,1,.789,2.448,3.241,3.241,0,0,1-.777,1.885A4.247,4.247,0,0,1,29.328-4.9L31.094-.1l-.008.1H29.523ZM25.516-5.828l2.156.008a3.012,3.012,0,0,0,1.9-.6,2.326,2.326,0,0,0,.906-1.6,1.837,1.837,0,0,0-.391-1.531,2.087,2.087,0,0,0-1.547-.586l-2.273-.008ZM-29.051,18V6.625h3.719a4.317,4.317,0,0,1,2.785.766,2.759,2.759,0,0,1,.934,2.266,2.31,2.31,0,0,1-.453,1.41,2.937,2.937,0,0,1-1.234.949,2.638,2.638,0,0,1,1.457.98,2.814,2.814,0,0,1,.535,1.723,3.042,3.042,0,0,1-.992,2.406,4.1,4.1,0,0,1-2.8.875Zm1.5-5.32v4.094h2.477a2.385,2.385,0,0,0,1.652-.543,1.907,1.907,0,0,0,.605-1.5q0-2.055-2.234-2.055Zm0-1.2h2.266a2.375,2.375,0,0,0,1.574-.493,1.654,1.654,0,0,0,.59-1.339,1.626,1.626,0,0,0-.547-1.366,2.686,2.686,0,0,0-1.664-.427h-2.219Zm17.211,1.2A7.037,7.037,0,0,1-10.9,15.6,4.261,4.261,0,0,1-12.5,17.5a4.385,4.385,0,0,1-2.406.656,4.348,4.348,0,0,1-2.383-.66A4.363,4.363,0,0,1-18.9,15.613a6.752,6.752,0,0,1-.59-2.832v-.82a6.953,6.953,0,0,1,.57-2.9A4.347,4.347,0,0,1-17.3,7.137a4.329,4.329,0,0,1,2.387-.668,4.41,4.41,0,0,1,2.41.66A4.253,4.253,0,0,1-10.9,9.043a7.071,7.071,0,0,1,.563,2.918Zm-1.492-.734a5.1,5.1,0,0,0-.812-3.105,2.68,2.68,0,0,0-2.273-1.082A2.651,2.651,0,0,0-17.156,8.84a5,5,0,0,0-.84,3v.836a5.107,5.107,0,0,0,.824,3.082,2.662,2.662,0,0,0,2.27,1.121,2.652,2.652,0,0,0,2.25-1.059,5.079,5.079,0,0,0,.82-3.035ZM-8.09,18V6.625h3.211a5.169,5.169,0,0,1,2.625.656A4.438,4.438,0,0,1-.492,9.148,6.078,6.078,0,0,1,.137,11.93v.727a6.1,6.1,0,0,1-.621,2.82,4.369,4.369,0,0,1-1.773,1.859A5.5,5.5,0,0,1-4.941,18Zm1.5-10.148v8.922h1.578a3.434,3.434,0,0,0,2.7-1.079,4.458,4.458,0,0,0,.965-3.073v-.665a4.529,4.529,0,0,0-.91-3.014A3.239,3.239,0,0,0-4.84,7.852ZM5.535,12.336,8.5,6.625h1.7L6.285,13.758V18h-1.5V13.758L.863,6.625H2.582Zm5.859,1.047a12.079,12.079,0,0,1,.473-3.391,9.85,9.85,0,0,1,1.41-2.953,6,6,0,0,1,1.945-1.875l.3.953a6.222,6.222,0,0,0-1.871,2.672,11.583,11.583,0,0,0-.8,4.023l-.008.664a11.643,11.643,0,0,0,1.1,5.234,6.252,6.252,0,0,0,1.578,2.078l-.3.883a6.192,6.192,0,0,1-1.984-1.937A10.859,10.859,0,0,1,11.395,13.383ZM24.223,18H16.77V16.961l3.938-4.375a9.354,9.354,0,0,0,1.207-1.613,2.693,2.693,0,0,0,.332-1.285,2.041,2.041,0,0,0-.539-1.461,1.885,1.885,0,0,0-1.437-.57,2.232,2.232,0,0,0-1.676.613A2.343,2.343,0,0,0,18,9.977H16.551a3.355,3.355,0,0,1,1.012-2.539,3.751,3.751,0,0,1,2.707-.969,3.6,3.6,0,0,1,2.508.832A2.838,2.838,0,0,1,23.7,9.516q0,1.68-2.141,4l-3.047,3.3h5.711Zm5.016-4.539a12.084,12.084,0,0,1-.457,3.34,9.876,9.876,0,0,1-1.4,2.949,6.127,6.127,0,0,1-1.973,1.922l-.3-.883a6.281,6.281,0,0,0,1.934-2.863,12.387,12.387,0,0,0,.746-4.309v-.25a12.861,12.861,0,0,0-.344-3.051,10.3,10.3,0,0,0-.957-2.527,5.838,5.838,0,0,0-1.379-1.742l.3-.883A6.1,6.1,0,0,1,27.375,7.07a9.9,9.9,0,0,1,1.4,2.945A12.363,12.363,0,0,1,29.238,13.461Z" transform="translate(879.309 4421)" fill="#12263f"/>
    <path id="Trazado_806351" data-name="Trazado 806351" d="M-33-2.93q.172-1.25-1.3-1.828l-1.352-.492-.453-.2q-2.281-1.039-2.133-2.922a3.056,3.056,0,0,1,.648-1.672,3.69,3.69,0,0,1,1.512-1.121,4.849,4.849,0,0,1,2-.371,4,4,0,0,1,1.84.461A2.962,2.962,0,0,1-31-9.848a3.333,3.333,0,0,1,.375,1.77L-32.1-8.086a2.037,2.037,0,0,0-.469-1.627,2.1,2.1,0,0,0-1.562-.592,2.91,2.91,0,0,0-1.789.5,1.955,1.955,0,0,0-.828,1.409q-.156,1.166,1.43,1.769l1.164.415.586.25a2.941,2.941,0,0,1,2.039,3.016,3.012,3.012,0,0,1-.648,1.66A3.626,3.626,0,0,1-33.707-.2a5.266,5.266,0,0,1-2.074.359A4.339,4.339,0,0,1-37.738-.3a3.193,3.193,0,0,1-1.348-1.23A3.078,3.078,0,0,1-39.492-3.3l1.469.008a1.935,1.935,0,0,0,.551,1.613,2.479,2.479,0,0,0,1.754.613,3.131,3.131,0,0,0,1.867-.492A1.916,1.916,0,0,0-33-2.93Zm12.289-7.219H-24.25L-26.008,0h-1.461l1.758-10.148H-29.25l.219-1.227h8.539Zm5.969,7.172h-4.609L-20.906,0h-1.57l6.18-11.375h1.289L-12.758,0H-14.2ZM-18.7-4.2h3.742l-.945-5.3ZM-2.687,0H-4.109L-8.172-8.828-9.7,0H-11.18L-9.2-11.375h1.422l4.07,8.867,1.539-8.867H-.711ZM-.039,0,1.938-11.375l2.953.008a4.1,4.1,0,0,1,2.395.7A3.835,3.835,0,0,1,8.727-8.754a5.962,5.962,0,0,1,.258,2.738l-.078.57A6.432,6.432,0,0,1,6.977-1.48,5.611,5.611,0,0,1,2.992,0ZM3.188-10.148,1.641-1.234l1.445.008A4.061,4.061,0,0,0,5.895-2.258a4.9,4.9,0,0,0,1.5-2.828,9.2,9.2,0,0,0,.188-2.445,2.978,2.978,0,0,0-.8-1.895,2.605,2.605,0,0,0-1.844-.715ZM16.859-2.977H12.25L10.7,0H9.125L15.3-11.375h1.289L18.844,0H17.4ZM12.9-4.2h3.742l-.945-5.3Zm12.414-.391H22.688L21.891,0H20.414l1.977-11.375,3.422.008a3.814,3.814,0,0,1,2.727.907,2.83,2.83,0,0,1,.789,2.448,3.241,3.241,0,0,1-.777,1.885A4.247,4.247,0,0,1,26.711-4.9L28.477-.1l-.008.1H26.906ZM22.9-5.828l2.156.008a3.012,3.012,0,0,0,1.9-.6,2.326,2.326,0,0,0,.906-1.6,1.837,1.837,0,0,0-.391-1.531,2.087,2.087,0,0,0-1.547-.586l-2.273-.008ZM30.055,0l1.977-11.375,2.953.008a4.1,4.1,0,0,1,2.395.7A3.835,3.835,0,0,1,38.82-8.754a5.962,5.962,0,0,1,.258,2.738L39-5.445A6.432,6.432,0,0,1,37.07-1.48,5.611,5.611,0,0,1,33.086,0Zm3.227-10.148L31.734-1.234l1.445.008a4.061,4.061,0,0,0,2.809-1.031,4.9,4.9,0,0,0,1.5-2.828,9.2,9.2,0,0,0,.188-2.445,2.978,2.978,0,0,0-.8-1.895,2.605,2.605,0,0,0-1.844-.715ZM-48.672,15.023h-4.766L-54.508,18h-1.547l4.344-11.375H-50.4L-46.047,18h-1.539ZM-52.984,13.8h3.867l-1.937-5.32Zm16.344-7.172v7.734a3.628,3.628,0,0,1-1.012,2.633,4.077,4.077,0,0,1-2.723,1.148l-.4.016a4.258,4.258,0,0,1-2.977-1.008,3.6,3.6,0,0,1-1.125-2.773V6.625h1.484v7.7a2.6,2.6,0,0,0,.68,1.918,2.612,2.612,0,0,0,1.938.684,2.63,2.63,0,0,0,1.949-.68,2.6,2.6,0,0,0,.676-1.914V6.625Zm5.719,6.3a7.053,7.053,0,0,1-2.809-1.363,2.6,2.6,0,0,1-.879-2,2.752,2.752,0,0,1,1.074-2.223,4.269,4.269,0,0,1,2.793-.879,4.66,4.66,0,0,1,2.09.453,3.436,3.436,0,0,1,1.422,1.25,3.2,3.2,0,0,1,.5,1.742h-1.508a2.08,2.08,0,0,0-.656-1.627A2.669,2.669,0,0,0-30.742,7.7a2.732,2.732,0,0,0-1.73.489,1.632,1.632,0,0,0-.621,1.358,1.468,1.468,0,0,0,.59,1.178,5.785,5.785,0,0,0,2.008.88,9.316,9.316,0,0,1,2.219.88A3.367,3.367,0,0,1-27.09,13.6a2.861,2.861,0,0,1,.387,1.508,2.658,2.658,0,0,1-1.078,2.215,4.6,4.6,0,0,1-2.883.832,5.347,5.347,0,0,1-2.187-.449,3.681,3.681,0,0,1-1.566-1.23,3,3,0,0,1-.551-1.773h1.508a1.959,1.959,0,0,0,.762,1.629,3.207,3.207,0,0,0,2.035.6,2.948,2.948,0,0,0,1.82-.484,1.573,1.573,0,0,0,.633-1.32,1.545,1.545,0,0,0-.586-1.293A6.755,6.755,0,0,0-30.922,12.93Zm14-5.078h-3.656V18H-22.07V7.852h-3.648V6.625h8.8Zm5.859,5.547h-2.672V18h-1.508V6.625h3.766A4.457,4.457,0,0,1-8.52,7.5a3.148,3.148,0,0,1,1.035,2.547A3.062,3.062,0,0,1-8.059,11.9a3.428,3.428,0,0,1-1.6,1.18l2.672,4.828V18H-8.594Zm-2.672-1.227h2.3a2.6,2.6,0,0,0,1.777-.579,1.959,1.959,0,0,0,.66-1.55,2.062,2.062,0,0,0-.629-1.62,2.663,2.663,0,0,0-1.816-.571h-2.3ZM.9,15.023H-3.867L-4.937,18H-6.484L-2.141,6.625H-.828L3.523,18H1.984ZM-3.414,13.8H.453l-1.937-5.32Zm9.977,2.977h5.391V18h-6.9V6.625H6.563ZM15.273,18h-1.5V6.625h1.5Zm9.164-2.977H19.672L18.6,18H17.055L21.4,6.625h1.313L27.063,18H25.523ZM20.125,13.8h3.867l-1.937-5.32Zm8.188-.414a12.079,12.079,0,0,1,.473-3.391A9.85,9.85,0,0,1,30.2,7.039a6,6,0,0,1,1.945-1.875l.3.953a6.222,6.222,0,0,0-1.871,2.672,11.583,11.583,0,0,0-.8,4.023l-.008.664a11.643,11.643,0,0,0,1.1,5.234,6.252,6.252,0,0,0,1.578,2.078l-.3.883a6.192,6.192,0,0,1-1.984-1.937A10.859,10.859,0,0,1,28.313,13.383Zm7.477-1.773h1.086a2.387,2.387,0,0,0,1.609-.539,1.8,1.8,0,0,0,.586-1.414,1.764,1.764,0,0,0-1.992-2,2.072,2.072,0,0,0-1.5.535,1.873,1.873,0,0,0-.559,1.418H33.578a2.9,2.9,0,0,1,.988-2.246,3.6,3.6,0,0,1,2.512-.895A3.558,3.558,0,0,1,39.6,7.32a3.076,3.076,0,0,1,.914,2.367,2.5,2.5,0,0,1-.48,1.438,2.9,2.9,0,0,1-1.309,1.039,2.8,2.8,0,0,1,1.449.984,2.734,2.734,0,0,1,.512,1.68,3.1,3.1,0,0,1-1,2.43,3.745,3.745,0,0,1-2.6.9,3.844,3.844,0,0,1-2.605-.867,2.877,2.877,0,0,1-1-2.289H34.93a1.859,1.859,0,0,0,.586,1.438,2.229,2.229,0,0,0,1.57.539,2.187,2.187,0,0,0,1.6-.547,2.108,2.108,0,0,0,.555-1.57,1.912,1.912,0,0,0-.609-1.523,2.655,2.655,0,0,0-1.758-.547H35.789ZM48.344,6.617V7.844h-.266a3.805,3.805,0,0,0-2.687,1,4.161,4.161,0,0,0-1.156,2.727,3.085,3.085,0,0,1,2.453-1.031,2.95,2.95,0,0,1,2.371,1.047,4.038,4.038,0,0,1,.887,2.7,4.025,4.025,0,0,1-.957,2.813,3.3,3.3,0,0,1-2.566,1.055A3.247,3.247,0,0,1,43.773,16.9a4.97,4.97,0,0,1-1.016-3.23v-.555a7.488,7.488,0,0,1,1.34-4.8,4.921,4.921,0,0,1,3.988-1.7Zm-1.9,5.125A2.429,2.429,0,0,0,44.211,13.3v.531a3.731,3.731,0,0,0,.633,2.266,1.9,1.9,0,0,0,1.578.859,1.838,1.838,0,0,0,1.535-.719,2.982,2.982,0,0,0,.559-1.883,2.983,2.983,0,0,0-.566-1.895A1.816,1.816,0,0,0,46.445,11.742Zm8.7,1.719a12.084,12.084,0,0,1-.457,3.34,9.876,9.876,0,0,1-1.4,2.949,6.127,6.127,0,0,1-1.973,1.922l-.3-.883a6.281,6.281,0,0,0,1.934-2.863,12.387,12.387,0,0,0,.746-4.309v-.25a12.861,12.861,0,0,0-.344-3.051,10.3,10.3,0,0,0-.957-2.527,5.838,5.838,0,0,0-1.379-1.742l.3-.883A6.1,6.1,0,0,1,53.277,7.07a9.9,9.9,0,0,1,1.4,2.945A12.363,12.363,0,0,1,55.141,13.461Z" transform="translate(879.309 4494.64)" fill="#12263f"/>
    <path id="Trazado_806352" data-name="Trazado 806352" d="M-60.8.156a3.642,3.642,0,0,1-1.887-.523A3.391,3.391,0,0,1-63.953-1.84a5.548,5.548,0,0,1-.508-2.184,10.371,10.371,0,0,1,.211-2.336,8.01,8.01,0,0,1,.891-2.508,5.651,5.651,0,0,1,1.539-1.789,4.43,4.43,0,0,1,2.8-.875A3.365,3.365,0,0,1-56.4-10.379a4.792,4.792,0,0,1,1.031,3.035,11.175,11.175,0,0,1-.168,2.086,8.636,8.636,0,0,1-.711,2.352,5.869,5.869,0,0,1-1.3,1.82A4.474,4.474,0,0,1-60.8.156Zm3.992-7.141a3.942,3.942,0,0,0-.539-2.387,2.052,2.052,0,0,0-1.742-.879,2.963,2.963,0,0,0-1.871.563A4.258,4.258,0,0,0-62.316-7.91a9.158,9.158,0,0,0-.668,3l-.023.508a3.976,3.976,0,0,0,.547,2.4,2.035,2.035,0,0,0,1.727.9,3.009,3.009,0,0,0,2.449-1.066,6.057,6.057,0,0,0,1.293-3.105A13.992,13.992,0,0,0-56.812-6.984Zm7.477,2.391h-2.625L-52.758,0h-1.477l1.977-11.375,3.422.008a3.814,3.814,0,0,1,2.727.907,2.83,2.83,0,0,1,.789,2.448A3.241,3.241,0,0,1-46.1-6.127,4.247,4.247,0,0,1-47.937-4.9l1.766,4.8-.008.1h-1.562ZM-51.75-5.828l2.156.008a3.012,3.012,0,0,0,1.9-.6,2.326,2.326,0,0,0,.906-1.6,1.837,1.837,0,0,0-.391-1.531,2.087,2.087,0,0,0-1.547-.586L-51-10.141ZM-36.094-1.5a3.6,3.6,0,0,1-1.66,1.238,6.49,6.49,0,0,1-2.488.418A3.9,3.9,0,0,1-42.2-.367,3.454,3.454,0,0,1-43.508-1.8a5.3,5.3,0,0,1-.547-2.121,11.28,11.28,0,0,1,.23-2.516,7.835,7.835,0,0,1,1-2.742,4.991,4.991,0,0,1,1.777-1.766,4.667,4.667,0,0,1,2.441-.586,3.59,3.59,0,0,1,2.527.941,3.847,3.847,0,0,1,1.074,2.559h-1.453a2.6,2.6,0,0,0-.648-1.662,2.166,2.166,0,0,0-1.555-.612,2.994,2.994,0,0,0-2.457,1.057A6.136,6.136,0,0,0-42.422-6l-.148,1.1-.023.595a3.9,3.9,0,0,0,.633,2.383,2.131,2.131,0,0,0,1.773.857,3.684,3.684,0,0,0,2.617-.812l.469-2.555h-2.562l.219-1.227h4ZM-27.3-2.977h-4.609L-33.469,0h-1.57l6.18-11.375h1.289L-25.32,0h-1.445ZM-31.266-4.2h3.742l-.945-5.3ZM-15.25,0h-1.422l-4.062-8.828L-22.266,0h-1.477l1.977-11.375h1.422l4.07,8.867,1.539-8.867h1.461Zm4.219,0h-1.461l1.977-11.375h1.461Zm4.094-1.227H-.672L-.891,0H-8.93l.211-1.2,7.547-8.945H-7.078l.219-1.227h7.7L.641-10.2ZM7.8-2.977H3.2L1.641,0H.07L6.25-11.375H7.539L9.789,0H8.344ZM3.844-4.2H7.586l-.945-5.3ZM19.75-10.148H16.211L14.453,0H12.992L14.75-10.148H11.211l.219-1.227h8.539ZM21.266,0H19.8l1.977-11.375h1.461Zm6.9.156a3.642,3.642,0,0,1-1.887-.523A3.391,3.391,0,0,1,25.016-1.84a5.548,5.548,0,0,1-.508-2.184,10.371,10.371,0,0,1,.211-2.336,8.01,8.01,0,0,1,.891-2.508,5.651,5.651,0,0,1,1.539-1.789,4.43,4.43,0,0,1,2.8-.875,3.365,3.365,0,0,1,2.625,1.152A4.792,4.792,0,0,1,33.6-7.344a11.175,11.175,0,0,1-.168,2.086,8.636,8.636,0,0,1-.711,2.352,5.869,5.869,0,0,1-1.3,1.82A4.474,4.474,0,0,1,28.164.156Zm3.992-7.141a3.942,3.942,0,0,0-.539-2.387,2.052,2.052,0,0,0-1.742-.879A2.963,2.963,0,0,0,28-9.687,4.258,4.258,0,0,0,26.652-7.91a9.158,9.158,0,0,0-.668,3l-.023.508a3.976,3.976,0,0,0,.547,2.4,2.035,2.035,0,0,0,1.727.9,3.009,3.009,0,0,0,2.449-1.066,6.057,6.057,0,0,0,1.293-3.105A13.992,13.992,0,0,0,32.156-6.984ZM43.234,0H41.813L37.75-8.828,36.219,0H34.742l1.977-11.375h1.422l4.07,8.867,1.539-8.867h1.461Zm3.227-4.617a12.079,12.079,0,0,1,.473-3.391,9.85,9.85,0,0,1,1.41-2.953,6,6,0,0,1,1.945-1.875l.3.953a6.222,6.222,0,0,0-1.871,2.672,11.583,11.583,0,0,0-.8,4.023l-.008.664a11.643,11.643,0,0,0,1.1,5.234,6.252,6.252,0,0,0,1.578,2.078l-.3.883A6.192,6.192,0,0,1,48.3,1.734,10.859,10.859,0,0,1,46.461-4.617Zm7.477-1.773h1.086a2.387,2.387,0,0,0,1.609-.539,1.8,1.8,0,0,0,.586-1.414,1.764,1.764,0,0,0-1.992-2,2.072,2.072,0,0,0-1.5.535,1.873,1.873,0,0,0-.559,1.418H51.727a2.9,2.9,0,0,1,.988-2.246,3.6,3.6,0,0,1,2.512-.895,3.558,3.558,0,0,1,2.523.852,3.076,3.076,0,0,1,.914,2.367,2.5,2.5,0,0,1-.48,1.438,2.9,2.9,0,0,1-1.309,1.039,2.8,2.8,0,0,1,1.449.984,2.734,2.734,0,0,1,.512,1.68,3.1,3.1,0,0,1-1,2.43,3.745,3.745,0,0,1-2.6.9,3.844,3.844,0,0,1-2.605-.867,2.877,2.877,0,0,1-1-2.289h1.453a1.859,1.859,0,0,0,.586,1.438,2.229,2.229,0,0,0,1.57.539,2.187,2.187,0,0,0,1.6-.547,2.108,2.108,0,0,0,.555-1.57,1.912,1.912,0,0,0-.609-1.523,2.655,2.655,0,0,0-1.758-.547H53.938ZM64.3-4.539a12.084,12.084,0,0,1-.457,3.34,9.876,9.876,0,0,1-1.4,2.949,6.127,6.127,0,0,1-1.973,1.922l-.3-.883A6.281,6.281,0,0,0,62.105-.074a12.387,12.387,0,0,0,.746-4.309v-.25a12.861,12.861,0,0,0-.344-3.051,10.3,10.3,0,0,0-.957-2.527,5.838,5.838,0,0,0-1.379-1.742l.3-.883a6.1,6.1,0,0,1,1.965,1.906,9.9,9.9,0,0,1,1.4,2.945A12.363,12.363,0,0,1,64.3-4.539Z" transform="translate(1030.309 4430)" fill="#fff"/>
    <path id="Trazado_806353" data-name="Trazado 806353" d="M-24.68,0V-11.375h3.211a5.169,5.169,0,0,1,2.625.656,4.438,4.438,0,0,1,1.762,1.867,6.078,6.078,0,0,1,.629,2.781v.727a6.1,6.1,0,0,1-.621,2.82A4.369,4.369,0,0,1-18.848-.664,5.5,5.5,0,0,1-21.531,0Zm1.5-10.148v8.922H-21.6a3.434,3.434,0,0,0,2.7-1.079,4.458,4.458,0,0,0,.965-3.073v-.665a4.529,4.529,0,0,0-.91-3.014,3.239,3.239,0,0,0-2.582-1.091ZM-5.437-5.32A7.037,7.037,0,0,1-6-2.4,4.261,4.261,0,0,1-7.594-.5,4.385,4.385,0,0,1-10,.156,4.347,4.347,0,0,1-12.383-.5,4.363,4.363,0,0,1-14-2.387a6.752,6.752,0,0,1-.59-2.832v-.82a6.953,6.953,0,0,1,.57-2.9A4.347,4.347,0,0,1-12.4-10.863a4.329,4.329,0,0,1,2.387-.668,4.41,4.41,0,0,1,2.41.66A4.253,4.253,0,0,1-6-8.957a7.071,7.071,0,0,1,.563,2.918ZM-6.93-6.055A5.1,5.1,0,0,0-7.742-9.16a2.68,2.68,0,0,0-2.273-1.082A2.651,2.651,0,0,0-12.254-9.16a5,5,0,0,0-.84,3v.836a5.107,5.107,0,0,0,.824,3.082A2.662,2.662,0,0,0-10-1.117,2.652,2.652,0,0,0-7.75-2.176a5.079,5.079,0,0,0,.82-3.035ZM-3.187,0V-11.375H.023a5.169,5.169,0,0,1,2.625.656A4.438,4.438,0,0,1,4.41-8.852,6.078,6.078,0,0,1,5.039-6.07v.727a6.1,6.1,0,0,1-.621,2.82A4.369,4.369,0,0,1,2.645-.664,5.5,5.5,0,0,1-.039,0Zm1.5-10.148v8.922H-.109a3.434,3.434,0,0,0,2.7-1.079,4.458,4.458,0,0,0,.965-3.073v-.665a4.529,4.529,0,0,0-.91-3.014A3.239,3.239,0,0,0,.063-10.148ZM7.023-4.617A12.079,12.079,0,0,1,7.5-8.008a9.85,9.85,0,0,1,1.41-2.953,6,6,0,0,1,1.945-1.875l.3.953A6.222,6.222,0,0,0,9.277-9.211a11.583,11.583,0,0,0-.8,4.023l-.008.664A11.643,11.643,0,0,0,9.57.711a6.252,6.252,0,0,0,1.578,2.078l-.3.883A6.192,6.192,0,0,1,8.867,1.734,10.859,10.859,0,0,1,7.023-4.617ZM18.07-11.383v1.227H17.8a3.805,3.805,0,0,0-2.687,1A4.161,4.161,0,0,0,13.961-6.43a3.085,3.085,0,0,1,2.453-1.031,2.95,2.95,0,0,1,2.371,1.047,4.038,4.038,0,0,1,.887,2.7A4.025,4.025,0,0,1,18.715-.9,3.3,3.3,0,0,1,16.148.156,3.247,3.247,0,0,1,13.5-1.1a4.97,4.97,0,0,1-1.016-3.23v-.555a7.488,7.488,0,0,1,1.34-4.8,4.921,4.921,0,0,1,3.988-1.7Zm-1.9,5.125a2.306,2.306,0,0,0-1.367.445A2.32,2.32,0,0,0,13.938-4.7v.531A3.731,3.731,0,0,0,14.57-1.9a1.9,1.9,0,0,0,1.578.859,1.838,1.838,0,0,0,1.535-.719,2.982,2.982,0,0,0,.559-1.883,2.983,2.983,0,0,0-.566-1.895A1.816,1.816,0,0,0,16.172-6.258Zm8.7,1.719A12.084,12.084,0,0,1,24.41-1.2a9.876,9.876,0,0,1-1.4,2.949,6.127,6.127,0,0,1-1.973,1.922l-.3-.883A6.281,6.281,0,0,0,22.668-.074a12.387,12.387,0,0,0,.746-4.309v-.25a12.861,12.861,0,0,0-.344-3.051,10.3,10.3,0,0,0-.957-2.527,5.838,5.838,0,0,0-1.379-1.742l.3-.883A6.1,6.1,0,0,1,23-10.93a9.9,9.9,0,0,1,1.4,2.945A12.363,12.363,0,0,1,24.867-4.539Z" transform="translate(1030.309 4503.64)" fill="#fff"/>
    <path id="Trazado_806354" data-name="Trazado 806354" d="M-44.191,0h-1.5V-11.375h1.5Zm11.484,0h-1.508l-5.727-8.766V0h-1.508V-11.375h1.508l5.742,8.8v-8.8h1.492Zm10.3-10.148h-3.656V0h-1.492V-10.148h-3.648v-1.227h8.8Zm8.117,4.891h-4.93v4.031H-13.5V0h-7.227V-11.375h7.148v1.227h-5.648v3.664h4.93Zm6.836.656h-2.672V0h-1.508V-11.375h3.766a4.457,4.457,0,0,1,2.957.875A3.148,3.148,0,0,1-3.879-7.953,3.062,3.062,0,0,1-4.453-6.1a3.428,3.428,0,0,1-1.6,1.18L-3.379-.094V0H-4.988Zm-2.672-1.227h2.3a2.6,2.6,0,0,0,1.777-.579,1.959,1.959,0,0,0,.66-1.55,2.062,2.062,0,0,0-.629-1.62,2.663,2.663,0,0,0-1.816-.571h-2.3ZM6.965,0H5.457L-.27-8.766V0H-1.777V-11.375H-.27l5.742,8.8v-8.8H6.965Zm9.094-5.258h-4.93v4.031h5.727V0H9.629V-11.375h7.148v1.227H11.129v3.664h4.93Zm10.68-4.891H23.082V0H21.59V-10.148H17.941v-1.227h8.8Zm1.406,5.531a12.079,12.079,0,0,1,.473-3.391,9.85,9.85,0,0,1,1.41-2.953,6,6,0,0,1,1.945-1.875l.3.953A6.222,6.222,0,0,0,30.4-9.211a11.583,11.583,0,0,0-.8,4.023l-.008.664a11.643,11.643,0,0,0,1.1,5.234A6.252,6.252,0,0,0,32.27,2.789l-.3.883a6.192,6.192,0,0,1-1.984-1.937A10.859,10.859,0,0,1,28.145-4.617ZM38.27,0H36.816V-9.633L33.9-8.562V-9.875l4.141-1.555h.227Zm7.719-4.539a12.084,12.084,0,0,1-.457,3.34,9.876,9.876,0,0,1-1.4,2.949A6.127,6.127,0,0,1,42.16,3.672l-.3-.883A6.281,6.281,0,0,0,43.789-.074a12.387,12.387,0,0,0,.746-4.309v-.25a12.861,12.861,0,0,0-.344-3.051,10.3,10.3,0,0,0-.957-2.527,5.838,5.838,0,0,0-1.379-1.742l.3-.883a6.1,6.1,0,0,1,1.965,1.906,9.9,9.9,0,0,1,1.4,2.945A12.363,12.363,0,0,1,45.988-4.539Z" transform="translate(1030.309 4577.279)" fill="#fff"/>
    <path id="Trazado_806355" data-name="Trazado 806355" d="M-68.227-11.375h1.508V-3.32A3.336,3.336,0,0,1-67.7-.766a3.66,3.66,0,0,1-2.613.922,3.762,3.762,0,0,1-2.641-.867,3.132,3.132,0,0,1-.945-2.43h1.5a2.086,2.086,0,0,0,.535,1.523,2.073,2.073,0,0,0,1.551.547,2.012,2.012,0,0,0,1.5-.586A2.27,2.27,0,0,0-68.227-3.3ZM-55.414-5.32A7.037,7.037,0,0,1-55.977-2.4,4.261,4.261,0,0,1-57.57-.5a4.385,4.385,0,0,1-2.406.656A4.347,4.347,0,0,1-62.359-.5a4.363,4.363,0,0,1-1.613-1.883,6.752,6.752,0,0,1-.59-2.832v-.82a6.953,6.953,0,0,1,.57-2.9,4.347,4.347,0,0,1,1.613-1.926,4.329,4.329,0,0,1,2.387-.668,4.41,4.41,0,0,1,2.41.66,4.253,4.253,0,0,1,1.605,1.914,7.071,7.071,0,0,1,.563,2.918Zm-1.492-.734a5.1,5.1,0,0,0-.812-3.105,2.68,2.68,0,0,0-2.273-1.082A2.651,2.651,0,0,0-62.23-9.16a5,5,0,0,0-.84,3v.836a5.107,5.107,0,0,0,.824,3.082,2.662,2.662,0,0,0,2.27,1.121,2.652,2.652,0,0,0,2.25-1.059,5.079,5.079,0,0,0,.82-3.035ZM-51.555,0h-1.5V-11.375h1.5ZM-40.07,0h-1.508L-47.3-8.766V0h-1.508V-11.375H-47.3l5.742,8.8v-8.8h1.492Zm10.3-10.148H-33.43V0h-1.492V-10.148H-38.57v-1.227h8.8Zm8.117,5.906h-3.812v-1.18h3.813ZM-14.453,0h-1.5V-11.375h1.5Zm6.094-5.07a7.053,7.053,0,0,1-2.809-1.363,2.6,2.6,0,0,1-.879-2,2.751,2.751,0,0,1,1.074-2.223,4.269,4.269,0,0,1,2.793-.879,4.66,4.66,0,0,1,2.09.453,3.436,3.436,0,0,1,1.422,1.25,3.2,3.2,0,0,1,.5,1.742H-5.672a2.08,2.08,0,0,0-.656-1.627A2.669,2.669,0,0,0-8.18-10.3a2.732,2.732,0,0,0-1.73.489,1.632,1.632,0,0,0-.621,1.358,1.468,1.468,0,0,0,.59,1.178,5.785,5.785,0,0,0,2.008.88,9.316,9.316,0,0,1,2.219.88A3.367,3.367,0,0,1-4.527-4.4a2.861,2.861,0,0,1,.387,1.508A2.658,2.658,0,0,1-5.219-.676,4.6,4.6,0,0,1-8.1.156a5.347,5.347,0,0,1-2.187-.449,3.681,3.681,0,0,1-1.566-1.23A3,3,0,0,1-12.406-3.3H-10.9a1.959,1.959,0,0,0,.762,1.629,3.207,3.207,0,0,0,2.035.6,2.948,2.948,0,0,0,1.82-.484,1.573,1.573,0,0,0,.633-1.32,1.545,1.545,0,0,0-.586-1.293A6.755,6.755,0,0,0-8.359-5.07ZM6.531-5.32A7.037,7.037,0,0,1,5.969-2.4,4.261,4.261,0,0,1,4.375-.5,4.385,4.385,0,0,1,1.969.156,4.347,4.347,0,0,1-.414-.5,4.363,4.363,0,0,1-2.027-2.387a6.752,6.752,0,0,1-.59-2.832v-.82a6.953,6.953,0,0,1,.57-2.9A4.347,4.347,0,0,1-.434-10.863a4.329,4.329,0,0,1,2.387-.668,4.41,4.41,0,0,1,2.41.66A4.253,4.253,0,0,1,5.969-8.957a7.071,7.071,0,0,1,.563,2.918ZM5.039-6.055A5.1,5.1,0,0,0,4.227-9.16a2.68,2.68,0,0,0-2.273-1.082A2.651,2.651,0,0,0-.285-9.16a5,5,0,0,0-.84,3v.836A5.107,5.107,0,0,0-.3-2.238a2.662,2.662,0,0,0,2.27,1.121,2.652,2.652,0,0,0,2.25-1.059,5.079,5.079,0,0,0,.82-3.035ZM15.523-4.242H11.711v-1.18h3.813Zm13.961.633A4.185,4.185,0,0,1,28.152-.824a4.365,4.365,0,0,1-2.98.98,4.008,4.008,0,0,1-3.23-1.445,5.815,5.815,0,0,1-1.215-3.867V-6.25a6.481,6.481,0,0,1,.566-2.789A4.231,4.231,0,0,1,22.9-10.887a4.47,4.47,0,0,1,2.406-.645,4.11,4.11,0,0,1,2.906,1.012,4.235,4.235,0,0,1,1.273,2.8H27.977a3.268,3.268,0,0,0-.848-1.975A2.565,2.565,0,0,0,25.3-10.3a2.684,2.684,0,0,0-2.254,1.063,4.882,4.882,0,0,0-.816,3.026v1.1a5.018,5.018,0,0,0,.773,2.948A2.5,2.5,0,0,0,25.172-1.07a2.886,2.886,0,0,0,1.918-.566,3.143,3.143,0,0,0,.887-1.973Zm10.414,0A4.185,4.185,0,0,1,38.566-.824a4.365,4.365,0,0,1-2.98.98,4.008,4.008,0,0,1-3.23-1.445,5.815,5.815,0,0,1-1.215-3.867V-6.25a6.481,6.481,0,0,1,.566-2.789,4.231,4.231,0,0,1,1.605-1.848,4.47,4.47,0,0,1,2.406-.645,4.11,4.11,0,0,1,2.906,1.012,4.235,4.235,0,0,1,1.273,2.8H38.391a3.268,3.268,0,0,0-.848-1.975,2.565,2.565,0,0,0-1.824-.611,2.684,2.684,0,0,0-2.254,1.063,4.882,4.882,0,0,0-.816,3.026v1.1a5.018,5.018,0,0,0,.773,2.948A2.5,2.5,0,0,0,35.586-1.07,2.887,2.887,0,0,0,37.5-1.637a3.143,3.143,0,0,0,.887-1.973ZM43.555,0h-1.5V-11.375h1.5ZM53.93-10.148H50.273V0H48.781V-10.148H45.133v-1.227h8.8Zm1.406,5.531a12.079,12.079,0,0,1,.473-3.391,9.85,9.85,0,0,1,1.41-2.953,6,6,0,0,1,1.945-1.875l.3.953A6.222,6.222,0,0,0,57.59-9.211a11.583,11.583,0,0,0-.8,4.023l-.008.664a11.643,11.643,0,0,0,1.1,5.234,6.252,6.252,0,0,0,1.578,2.078l-.3.883A6.192,6.192,0,0,1,57.18,1.734,10.859,10.859,0,0,1,55.336-4.617ZM68.164,0H60.711V-1.039l3.938-4.375a9.354,9.354,0,0,0,1.207-1.613,2.693,2.693,0,0,0,.332-1.285,2.041,2.041,0,0,0-.539-1.461,1.885,1.885,0,0,0-1.437-.57,2.232,2.232,0,0,0-1.676.613,2.343,2.343,0,0,0-.6,1.707H60.492A3.355,3.355,0,0,1,61.5-10.562a3.751,3.751,0,0,1,2.707-.969,3.6,3.6,0,0,1,2.508.832,2.838,2.838,0,0,1,.922,2.215q0,1.68-2.141,4l-3.047,3.3h5.711ZM73.18-4.539a12.084,12.084,0,0,1-.457,3.34,9.876,9.876,0,0,1-1.4,2.949,6.127,6.127,0,0,1-1.973,1.922l-.3-.883A6.281,6.281,0,0,0,70.98-.074a12.387,12.387,0,0,0,.746-4.309v-.25a12.861,12.861,0,0,0-.344-3.051,10.3,10.3,0,0,0-.957-2.527,5.838,5.838,0,0,0-1.379-1.742l.3-.883a6.1,6.1,0,0,1,1.965,1.906,9.9,9.9,0,0,1,1.4,2.945A12.363,12.363,0,0,1,73.18-4.539Z" transform="translate(943.309 4338)" fill="#12263f"/>
    <path id="Trazado_806172" data-name="Trazado 806172" d="M0,0H4l.016,423.75h-4Z" transform="translate(945.309 4286) rotate(90)" fill="#f9305f"/>
    <path id="Trazado_806173" data-name="Trazado 806173" d="M0,0H4l.016,440.581h-4Z" transform="translate(1032.15 4373.36) rotate(90)" fill="#f9305f"/>
    <path id="Trazado_806174" data-name="Trazado 806174" d="M0,0H4l.016,376.386h-4Z" transform="translate(1030.309 4610.36) rotate(90)" fill="#f9305f"/>
    <path id="Trazado_806175" data-name="Trazado 806175" d="M0,0H4l.016,18.1h-4Z" transform="translate(1028.301 4596.279)" fill="#f9305f"/>
    <path id="Trazado_806356" data-name="Trazado 806356" d="M4,0H76a4,4,0,0,1,4,4V36a4,4,0,0,1-4,4H4a4,4,0,0,1-4-4V4A4,4,0,0,1,4,0Z" transform="translate(693.309 4229)" fill="#1e5af9"/>
    <path id="Trazado_806357" data-name="Trazado 806357" d="M-10.748-3.9h-1.743L-13.173,0h-2.146l1.853-10.664,3.53.007a4.021,4.021,0,0,1,2.728.835A2.641,2.641,0,0,1-6.361-7.5,3.351,3.351,0,0,1-8.7-4.446L-7.2-.117V0H-9.489Zm-1.436-1.78,1.6.015a2.237,2.237,0,0,0,1.4-.458,1.812,1.812,0,0,0,.663-1.2,1.381,1.381,0,0,0-.227-1.113A1.352,1.352,0,0,0-9.8-8.877l-1.831-.007ZM-1.556-8.071a3.179,3.179,0,0,1,1.805.538A3.032,3.032,0,0,1,1.362-6.09a4.464,4.464,0,0,1,.253,2.04A4.822,4.822,0,0,1,.3-.992,3.712,3.712,0,0,1-2.531.146,3.169,3.169,0,0,1-4.318-.385,3.02,3.02,0,0,1-5.431-1.816a4.366,4.366,0,0,1-.256-2.021,4.964,4.964,0,0,1,1.333-3.12A3.636,3.636,0,0,1-1.556-8.071ZM-3.644-3.089a1.829,1.829,0,0,0,.33,1.108,1.1,1.1,0,0,0,.886.421A1.605,1.605,0,0,0-.934-2.434,4.356,4.356,0,0,0-.428-4.807,1.989,1.989,0,0,0-.769-5.93a1.077,1.077,0,0,0-.89-.435A1.607,1.607,0,0,0-3.135-5.5,4.311,4.311,0,0,0-3.644-3.089ZM6.742-8.071a3.179,3.179,0,0,1,1.805.538A3.032,3.032,0,0,1,9.661-6.09a4.464,4.464,0,0,1,.253,2.04A4.822,4.822,0,0,1,8.6-.992,3.712,3.712,0,0,1,5.768.146,3.169,3.169,0,0,1,3.981-.385,3.02,3.02,0,0,1,2.867-1.816a4.366,4.366,0,0,1-.256-2.021,4.964,4.964,0,0,1,1.333-3.12A3.636,3.636,0,0,1,6.742-8.071ZM4.655-3.089a1.829,1.829,0,0,0,.33,1.108,1.1,1.1,0,0,0,.886.421,1.605,1.605,0,0,0,1.494-.874A4.356,4.356,0,0,0,7.87-4.807,1.989,1.989,0,0,0,7.529-5.93a1.077,1.077,0,0,0-.89-.435A1.607,1.607,0,0,0,5.164-5.5,4.311,4.311,0,0,0,4.655-3.089ZM14.7-9.873l-.344,1.948H15.67L15.4-6.372H14.081L13.407-2.4a1.009,1.009,0,0,0,.059.571q.1.2.5.212.117.007.63-.037L14.447-.037A3.474,3.474,0,0,1,13.26.132a1.861,1.861,0,0,1-1.516-.637,2.3,2.3,0,0,1-.41-1.685l.681-4.182H10.895l.271-1.553h1.121l.337-1.948Z" transform="translate(733.309 4254)" fill="#fff"/>
    <path id="Trazado_806358" data-name="Trazado 806358" d="M0,0H639V70H0Z" transform="translate(467.809 4626)" fill="#e9e2ff"/>
    <path id="Trazado_806359" data-name="Trazado 806359" d="M4,0H114a4,4,0,0,1,4,4V36a4,4,0,0,1-4,4H4a4,4,0,0,1-4-4V4A4,4,0,0,1,4,0Z" transform="translate(482.809 4641)" fill="#fdb6c7"/>
    <path id="Trazado_806360" data-name="Trazado 806360" d="M4,0H146a4,4,0,0,1,4,4V36a4,4,0,0,1-4,4H4a4,4,0,0,1-4-4V4A4,4,0,0,1,4,0Z" transform="translate(710.809 4641)" fill="#fdb6c7"/>
    <path id="Trazado_806361" data-name="Trazado 806361" d="M4,0H98a4,4,0,0,1,4,4V36a4,4,0,0,1-4,4H4a4,4,0,0,1-4-4V4A4,4,0,0,1,4,0Z" transform="translate(870.809 4641)" fill="#fdb6c7"/>
    <path id="Trazado_806362" data-name="Trazado 806362" d="M4,0H104a4,4,0,0,1,4,4V36a4,4,0,0,1-4,4H4a4,4,0,0,1-4-4V4A4,4,0,0,1,4,0Z" transform="translate(982.809 4641)" fill="#fdb6c7"/>
    <path id="Trazado_806363" data-name="Trazado 806363" d="M4,0H85.1a4,4,0,0,1,4,4V36a4,4,0,0,1-4,4H4a4,4,0,0,1-4-4V4A4,4,0,0,1,4,0Z" transform="translate(610.809 4641)" fill="#1e5af9"/>
    <path id="Trazado_806364" data-name="Trazado 806364" d="M4,0H85.1a4,4,0,0,1,4,4V36a4,4,0,0,1-4,4H4a4,4,0,0,1-4-4V4A4,4,0,0,1,4,0Z" transform="translate(467.356 4728)" fill="#1e5af9"/>
    <path id="Trazado_806365" data-name="Trazado 806365" d="M4,0H99.809a4,4,0,0,1,4,4V36a4,4,0,0,1-4,4H4a4,4,0,0,1-4-4V4A4,4,0,0,1,4,0Z" transform="translate(460 4789)" fill="#1e5af9"/>
    <path id="Trazado_806366" data-name="Trazado 806366" d="M4,0H99.809a4,4,0,0,1,4,4V36a4,4,0,0,1-4,4H4a4,4,0,0,1-4-4V4A4,4,0,0,1,4,0Z" transform="translate(460 4851)" fill="#1e5af9"/>
    <path id="Trazado_806367" data-name="Trazado 806367" d="M-50.328,0l1.977-11.375,2.953.008a4.1,4.1,0,0,1,2.395.7,3.835,3.835,0,0,1,1.441,1.918A5.962,5.962,0,0,1-41.3-6.016l-.078.57a6.432,6.432,0,0,1-1.93,3.965A5.611,5.611,0,0,1-47.3,0ZM-47.1-10.148l-1.547,8.914,1.445.008a4.061,4.061,0,0,0,2.809-1.031,4.9,4.9,0,0,0,1.5-2.828,9.2,9.2,0,0,0,.188-2.445,2.978,2.978,0,0,0-.8-1.895,2.605,2.605,0,0,0-1.844-.715ZM-38.5,0h-1.461l1.977-11.375h1.461Zm7.617-4.594h-2.625L-34.3,0h-1.477L-33.8-11.375l3.422.008a3.814,3.814,0,0,1,2.727.907,2.83,2.83,0,0,1,.789,2.448,3.241,3.241,0,0,1-.777,1.885A4.247,4.247,0,0,1-29.484-4.9l1.766,4.8-.008.1h-1.562ZM-33.3-5.828l2.156.008a3.012,3.012,0,0,0,1.9-.6,2.326,2.326,0,0,0,.906-1.6,1.837,1.837,0,0,0-.391-1.531,2.087,2.087,0,0,0-1.547-.586l-2.273-.008Zm14.32.57h-4.781l-.7,4.031H-18.9L-19.117,0h-7.023l1.977-11.375h6.945l-.219,1.227h-5.477l-.633,3.664h4.781ZM-8.57-3.625a4.535,4.535,0,0,1-1.6,2.8,4.476,4.476,0,0,1-3.043.984,3.544,3.544,0,0,1-1.844-.52,3.283,3.283,0,0,1-1.227-1.43,5.34,5.34,0,0,1-.484-2.066,6.623,6.623,0,0,1,.055-1.25l.133-.937a7.076,7.076,0,0,1,1.8-4.043,4.544,4.544,0,0,1,3.488-1.441A3.4,3.4,0,0,1-8.75-10.5a4.117,4.117,0,0,1,.992,2.785H-9.219q-.1-2.391-1.875-2.578l-.258-.016a3.019,3.019,0,0,0-2.465,1.1A5.942,5.942,0,0,0-15.094-6.1l-.172,1.18-.047.688A3.867,3.867,0,0,0-14.8-1.949a1.929,1.929,0,0,0,1.66.879,2.924,2.924,0,0,0,1.965-.57A3.8,3.8,0,0,0-9.992-3.6ZM2.1-10.148H-1.437L-3.2,0H-4.656L-2.9-10.148H-6.437l.219-1.227H2.32ZM6,.156A3.642,3.642,0,0,1,4.113-.367,3.391,3.391,0,0,1,2.852-1.84a5.548,5.548,0,0,1-.508-2.184,10.371,10.371,0,0,1,.211-2.336,8.01,8.01,0,0,1,.891-2.508,5.651,5.651,0,0,1,1.539-1.789,4.43,4.43,0,0,1,2.8-.875,3.365,3.365,0,0,1,2.625,1.152,4.792,4.792,0,0,1,1.031,3.035,11.175,11.175,0,0,1-.168,2.086,8.636,8.636,0,0,1-.711,2.352,5.869,5.869,0,0,1-1.3,1.82A4.474,4.474,0,0,1,6,.156ZM9.992-6.984a3.942,3.942,0,0,0-.539-2.387,2.052,2.052,0,0,0-1.742-.879,2.963,2.963,0,0,0-1.871.563A4.258,4.258,0,0,0,4.488-7.91a9.158,9.158,0,0,0-.668,3L3.8-4.406a3.976,3.976,0,0,0,.547,2.4,2.035,2.035,0,0,0,1.727.9A3.009,3.009,0,0,0,8.52-2.176,6.057,6.057,0,0,0,9.813-5.281,13.993,13.993,0,0,0,9.992-6.984Zm7.477,2.391H14.844L14.047,0H12.57l1.977-11.375,3.422.008a3.814,3.814,0,0,1,2.727.907,2.83,2.83,0,0,1,.789,2.448,3.241,3.241,0,0,1-.777,1.885A4.247,4.247,0,0,1,18.867-4.9L20.633-.1l-.008.1H19.063ZM15.055-5.828l2.156.008a3.012,3.012,0,0,0,1.9-.6,2.326,2.326,0,0,0,.906-1.6,1.837,1.837,0,0,0-.391-1.531,2.087,2.087,0,0,0-1.547-.586L15.8-10.141Zm11.094.156,3.867-5.7h1.75l-5.1,7.211L25.938,0H24.477l.75-4.328-2.539-7.047h1.594Zm5.664,1.055a12.079,12.079,0,0,1,.473-3.391,9.85,9.85,0,0,1,1.41-2.953,6,6,0,0,1,1.945-1.875l.3.953a6.222,6.222,0,0,0-1.871,2.672,11.583,11.583,0,0,0-.8,4.023l-.008.664a11.643,11.643,0,0,0,1.1,5.234,6.252,6.252,0,0,0,1.578,2.078l-.3.883a6.192,6.192,0,0,1-1.984-1.937A10.859,10.859,0,0,1,31.813-4.617ZM41.938,0H40.484V-9.633L37.57-8.562V-9.875l4.141-1.555h.227Zm7.719-4.539A12.084,12.084,0,0,1,49.2-1.2,9.876,9.876,0,0,1,47.8,1.75a6.127,6.127,0,0,1-1.973,1.922l-.3-.883A6.281,6.281,0,0,0,47.457-.074,12.387,12.387,0,0,0,48.2-4.383v-.25a12.861,12.861,0,0,0-.344-3.051,10.3,10.3,0,0,0-.957-2.527,5.838,5.838,0,0,0-1.379-1.742l.3-.883a6.1,6.1,0,0,1,1.965,1.906,9.9,9.9,0,0,1,1.4,2.945A12.363,12.363,0,0,1,49.656-4.539Z" transform="translate(541.809 4667)" fill="#12263f"/>
    <path id="Trazado_806368" data-name="Trazado 806368" d="M-59.625-5.258h-4.93v4.031h5.727V0h-7.227V-11.375h7.148v1.227h-5.648v3.664h4.93Zm6.375-1.758,2.727-4.359h1.766l-3.594,5.641L-48.672,0h-1.781l-2.8-4.437L-56.062,0h-1.773l3.688-5.734-3.6-5.641h1.758Zm7.82,2.563V0h-1.5V-11.375h4.2a4.215,4.215,0,0,1,2.926.953A3.231,3.231,0,0,1-38.75-7.9a3.189,3.189,0,0,1-1.035,2.551,4.4,4.4,0,0,1-2.965.895Zm0-1.227h2.7a2.7,2.7,0,0,0,1.844-.567,2.075,2.075,0,0,0,.641-1.64,2.143,2.143,0,0,0-.641-1.628,2.525,2.525,0,0,0-1.758-.634H-45.43Zm15.023.422h-4.93v4.031h5.727V0h-7.227V-11.375h7.148v1.227h-5.648v3.664h4.93Zm6.836.656h-2.672V0H-27.75V-11.375h3.766a4.457,4.457,0,0,1,2.957.875,3.148,3.148,0,0,1,1.035,2.547A3.062,3.062,0,0,1-20.566-6.1a3.428,3.428,0,0,1-1.6,1.18l2.672,4.828V0H-21.1Zm-2.672-1.227h2.3a2.6,2.6,0,0,0,1.777-.579,1.959,1.959,0,0,0,.66-1.55,2.062,2.062,0,0,0-.629-1.62,2.663,2.663,0,0,0-1.816-.571h-2.3ZM-16.281,0h-1.5V-11.375h1.5Zm4.68-11.375,3.719,9.281,3.719-9.281h1.945V0h-1.5V-4.43l.141-4.781L-7.312,0H-8.461l-3.727-9.187.148,4.758V0h-1.5V-11.375ZM6.859-5.258H1.93v4.031H7.656V0H.43V-11.375H7.578v1.227H1.93v3.664h4.93ZM18.266,0H16.758L11.031-8.766V0H9.523V-11.375h1.508l5.742,8.8v-8.8h1.492Zm10.3-10.148H24.906V0H23.414V-10.148H19.766v-1.227h8.8Zm7.352,7.172H31.148L30.078,0H28.531l4.344-11.375h1.313L38.539,0H37ZM31.6-4.2h3.867l-1.937-5.32Zm9.977,2.977h5.391V0h-6.9V-11.375h1.508ZM48.4-4.617a12.079,12.079,0,0,1,.473-3.391,9.85,9.85,0,0,1,1.41-2.953,6,6,0,0,1,1.945-1.875l.3.953a6.222,6.222,0,0,0-1.871,2.672,11.583,11.583,0,0,0-.8,4.023l-.008.664a11.643,11.643,0,0,0,1.1,5.234,6.252,6.252,0,0,0,1.578,2.078l-.3.883a6.192,6.192,0,0,1-1.984-1.937A10.859,10.859,0,0,1,48.4-4.617Zm7.477-1.773h1.086A2.387,2.387,0,0,0,58.57-6.93a1.8,1.8,0,0,0,.586-1.414,1.764,1.764,0,0,0-1.992-2,2.072,2.072,0,0,0-1.5.535,1.873,1.873,0,0,0-.559,1.418H53.664a2.9,2.9,0,0,1,.988-2.246,3.6,3.6,0,0,1,2.512-.895,3.558,3.558,0,0,1,2.523.852A3.076,3.076,0,0,1,60.6-8.312a2.5,2.5,0,0,1-.48,1.438,2.9,2.9,0,0,1-1.309,1.039,2.8,2.8,0,0,1,1.449.984,2.734,2.734,0,0,1,.512,1.68,3.1,3.1,0,0,1-1,2.43,3.745,3.745,0,0,1-2.6.9,3.844,3.844,0,0,1-2.605-.867,2.877,2.877,0,0,1-1-2.289h1.453A1.859,1.859,0,0,0,55.6-1.562a2.229,2.229,0,0,0,1.57.539,2.187,2.187,0,0,0,1.6-.547,2.108,2.108,0,0,0,.555-1.57,1.912,1.912,0,0,0-.609-1.523,2.655,2.655,0,0,0-1.758-.547H55.875ZM66.242-4.539a12.084,12.084,0,0,1-.457,3.34,9.876,9.876,0,0,1-1.4,2.949,6.127,6.127,0,0,1-1.973,1.922l-.3-.883A6.281,6.281,0,0,0,64.043-.074a12.387,12.387,0,0,0,.746-4.309v-.25a12.861,12.861,0,0,0-.344-3.051,10.3,10.3,0,0,0-.957-2.527,5.838,5.838,0,0,0-1.379-1.742l.3-.883a6.1,6.1,0,0,1,1.965,1.906,9.9,9.9,0,0,1,1.4,2.945A12.363,12.363,0,0,1,66.242-4.539Z" transform="translate(785.809 4667)" fill="#12263f"/>
    <path id="Trazado_806369" data-name="Trazado 806369" d="M-37.6-4.453-38.375,0h-1.469l1.977-11.375,3.8.008a3.713,3.713,0,0,1,2.711.934,2.937,2.937,0,0,1,.82,2.48,3.541,3.541,0,0,1-1.3,2.57,4.718,4.718,0,0,1-3.059.938Zm.211-1.227,2.531.008a3.079,3.079,0,0,0,1.961-.6A2.407,2.407,0,0,0-32-7.945,1.886,1.886,0,0,0-32.4-9.5a2.005,2.005,0,0,0-1.523-.629l-2.7-.008Zm12.3,1.086h-2.625L-28.508,0h-1.477l1.977-11.375,3.422.008a3.814,3.814,0,0,1,2.727.907,2.83,2.83,0,0,1,.789,2.448,3.241,3.241,0,0,1-.777,1.885A4.247,4.247,0,0,1-23.687-4.9l1.766,4.8-.008.1h-1.562ZM-27.5-5.828l2.156.008a3.012,3.012,0,0,0,1.9-.6,2.326,2.326,0,0,0,.906-1.6,1.837,1.837,0,0,0-.391-1.531,2.087,2.087,0,0,0-1.547-.586l-2.273-.008ZM-18.773,0h-1.461l1.977-11.375H-16.8Zm6.75-2.008,4.617-9.367H-5.75L-11.625,0h-1.3l-2.3-11.375h1.539ZM-.039-2.977H-4.648L-6.2,0h-1.57l6.18-11.375H-.3L1.945,0H.5ZM-4-4.2H-.258l-.945-5.3Zm15.906-5.945H8.367L6.609,0H5.148L6.906-10.148H3.367l.219-1.227h8.539Zm7.109,4.891H14.234l-.7,4.031h5.563L18.875,0H11.852l1.977-11.375h6.945l-.219,1.227H15.078l-.633,3.664h4.781Zm2.313.641A12.079,12.079,0,0,1,21.8-8.008a9.85,9.85,0,0,1,1.41-2.953,6,6,0,0,1,1.945-1.875l.3.953a6.222,6.222,0,0,0-1.871,2.672,11.583,11.583,0,0,0-.8,4.023l-.008.664a11.643,11.643,0,0,0,1.1,5.234,6.252,6.252,0,0,0,1.578,2.078l-.3.883a6.192,6.192,0,0,1-1.984-1.937A10.859,10.859,0,0,1,21.328-4.617Zm11.477.8h1.578v1.18H32.8V0H31.352V-2.641h-5.18v-.852l5.094-7.883H32.8Zm-4.992,0h3.539V-9.4l-.172.313Zm11.359-.719a12.084,12.084,0,0,1-.457,3.34,9.876,9.876,0,0,1-1.4,2.949,6.127,6.127,0,0,1-1.973,1.922l-.3-.883A6.281,6.281,0,0,0,36.973-.074a12.387,12.387,0,0,0,.746-4.309v-.25a12.861,12.861,0,0,0-.344-3.051,10.3,10.3,0,0,0-.957-2.527,5.838,5.838,0,0,0-1.379-1.742l.3-.883a6.1,6.1,0,0,1,1.965,1.906,9.9,9.9,0,0,1,1.4,2.945A12.363,12.363,0,0,1,39.172-4.539Z" transform="translate(921.809 4667)" fill="#12263f"/>
    <path id="Trazado_806370" data-name="Trazado 806370" d="M-39.379-5.07a7.053,7.053,0,0,1-2.809-1.363,2.6,2.6,0,0,1-.879-2,2.752,2.752,0,0,1,1.074-2.223,4.269,4.269,0,0,1,2.793-.879,4.66,4.66,0,0,1,2.09.453,3.436,3.436,0,0,1,1.422,1.25,3.2,3.2,0,0,1,.5,1.742h-1.508a2.08,2.08,0,0,0-.656-1.627A2.669,2.669,0,0,0-39.2-10.3a2.732,2.732,0,0,0-1.73.489,1.632,1.632,0,0,0-.621,1.358,1.468,1.468,0,0,0,.59,1.178,5.785,5.785,0,0,0,2.008.88,9.316,9.316,0,0,1,2.219.88A3.367,3.367,0,0,1-35.547-4.4a2.861,2.861,0,0,1,.387,1.508A2.658,2.658,0,0,1-36.238-.676a4.6,4.6,0,0,1-2.883.832,5.347,5.347,0,0,1-2.187-.449,3.681,3.681,0,0,1-1.566-1.23A3,3,0,0,1-43.426-3.3h1.508a1.959,1.959,0,0,0,.762,1.629,3.207,3.207,0,0,0,2.035.6,2.948,2.948,0,0,0,1.82-.484,1.573,1.573,0,0,0,.633-1.32,1.545,1.545,0,0,0-.586-1.293A6.755,6.755,0,0,0-39.379-5.07ZM-24.5,0H-26L-31.73-8.766V0h-1.508V-11.375h1.508l5.742,8.8v-8.8H-24.5Zm4.6-11.375,3.719,9.281,3.719-9.281h1.945V0h-1.5V-4.43l.141-4.781L-15.605,0h-1.148L-20.48-9.187l.148,4.758V0h-1.5V-11.375ZM-6.363-4.453V0h-1.5V-11.375h4.2a4.215,4.215,0,0,1,2.926.953A3.231,3.231,0,0,1,.316-7.9,3.189,3.189,0,0,1-.719-5.348a4.4,4.4,0,0,1-2.965.895Zm0-1.227h2.7a2.7,2.7,0,0,0,1.844-.567,2.075,2.075,0,0,0,.641-1.64,2.143,2.143,0,0,0-.641-1.628,2.525,2.525,0,0,0-1.758-.634H-6.363ZM9.957-1.992l3.25-9.383h1.641L10.629,0H9.3L5.09-11.375H6.723ZM23.449,0H16V-1.039l3.938-4.375a9.354,9.354,0,0,0,1.207-1.613,2.693,2.693,0,0,0,.332-1.285,2.041,2.041,0,0,0-.539-1.461,1.885,1.885,0,0,0-1.437-.57,2.232,2.232,0,0,0-1.676.613,2.343,2.343,0,0,0-.6,1.707H15.777a3.355,3.355,0,0,1,1.012-2.539,3.751,3.751,0,0,1,2.707-.969A3.6,3.6,0,0,1,22-10.7a2.838,2.838,0,0,1,.922,2.215q0,1.68-2.141,4l-3.047,3.3h5.711Zm1.625-4.617a12.079,12.079,0,0,1,.473-3.391,9.85,9.85,0,0,1,1.41-2.953A6,6,0,0,1,28.9-12.836l.3.953a6.222,6.222,0,0,0-1.871,2.672,11.583,11.583,0,0,0-.8,4.023l-.008.664a11.643,11.643,0,0,0,1.1,5.234A6.252,6.252,0,0,0,29.2,2.789l-.3.883a6.192,6.192,0,0,1-1.984-1.937A10.859,10.859,0,0,1,25.074-4.617Zm11.047-6.766v1.227h-.266a3.805,3.805,0,0,0-2.687,1A4.161,4.161,0,0,0,32.012-6.43a3.085,3.085,0,0,1,2.453-1.031,2.95,2.95,0,0,1,2.371,1.047,4.038,4.038,0,0,1,.887,2.7A4.025,4.025,0,0,1,36.766-.9,3.3,3.3,0,0,1,34.2.156,3.247,3.247,0,0,1,31.551-1.1a4.97,4.97,0,0,1-1.016-3.23v-.555a7.488,7.488,0,0,1,1.34-4.8,4.921,4.921,0,0,1,3.988-1.7Zm-1.9,5.125a2.306,2.306,0,0,0-1.367.445A2.32,2.32,0,0,0,31.988-4.7v.531A3.731,3.731,0,0,0,32.621-1.9a1.9,1.9,0,0,0,1.578.859,1.838,1.838,0,0,0,1.535-.719,2.982,2.982,0,0,0,.559-1.883,2.983,2.983,0,0,0-.566-1.895A1.816,1.816,0,0,0,34.223-6.258Zm8.7,1.719a12.084,12.084,0,0,1-.457,3.34,9.876,9.876,0,0,1-1.4,2.949A6.127,6.127,0,0,1,39.09,3.672l-.3-.883A6.281,6.281,0,0,0,40.719-.074a12.387,12.387,0,0,0,.746-4.309v-.25a12.861,12.861,0,0,0-.344-3.051,10.3,10.3,0,0,0-.957-2.527,5.838,5.838,0,0,0-1.379-1.742l.3-.883a6.1,6.1,0,0,1,1.965,1.906,9.9,9.9,0,0,1,1.4,2.945A12.363,12.363,0,0,1,42.918-4.539Z" transform="translate(1036.809 4667)" fill="#12263f"/>
    <path id="Trazado_806371" data-name="Trazado 806371" d="M-30.828-11.375l3.719,9.281,3.719-9.281h1.945V0h-1.5V-4.43l.141-4.781L-26.539,0h-1.148l-3.727-9.187.148,4.758V0h-1.5V-11.375ZM-10.4-1.492A3.465,3.465,0,0,1-12.012-.254a6.517,6.517,0,0,1-2.41.41A4.674,4.674,0,0,1-16.891-.5a4.346,4.346,0,0,1-1.668-1.855,6.408,6.408,0,0,1-.605-2.789v-.992a5.982,5.982,0,0,1,1.2-3.984,4.179,4.179,0,0,1,3.371-1.414,4.316,4.316,0,0,1,2.867.91A3.965,3.965,0,0,1-10.4-8.039h-1.5A2.48,2.48,0,0,0-14.586-10.3a2.655,2.655,0,0,0-2.285,1.06,5.173,5.173,0,0,0-.785,3.069v.93A4.848,4.848,0,0,0-16.781-2.2a2.836,2.836,0,0,0,2.367,1.13,5.228,5.228,0,0,0,1.477-.187,2.283,2.283,0,0,0,1.047-.631V-4.437h-2.633V-5.664H-10.4Zm4.438-9.883,3.719,9.281,3.719-9.281H3.422V0h-1.5V-4.43l.141-4.781L-1.672,0H-2.82L-6.547-9.187-6.4-4.43V0H-7.9V-11.375ZM13.7-10.148H10.047V0H8.555V-10.148H4.906v-1.227h8.8Zm1.406,5.531a12.079,12.079,0,0,1,.473-3.391,9.85,9.85,0,0,1,1.41-2.953,6,6,0,0,1,1.945-1.875l.3.953a6.222,6.222,0,0,0-1.871,2.672,11.583,11.583,0,0,0-.8,4.023l-.008.664a11.643,11.643,0,0,0,1.1,5.234,6.252,6.252,0,0,0,1.578,2.078l-.3.883a6.192,6.192,0,0,1-1.984-1.937A10.859,10.859,0,0,1,15.109-4.617ZM27.938,0H20.484V-1.039l3.938-4.375a9.354,9.354,0,0,0,1.207-1.613,2.693,2.693,0,0,0,.332-1.285,2.041,2.041,0,0,0-.539-1.461,1.885,1.885,0,0,0-1.437-.57,2.232,2.232,0,0,0-1.676.613,2.343,2.343,0,0,0-.6,1.707H20.266a3.355,3.355,0,0,1,1.012-2.539,3.751,3.751,0,0,1,2.707-.969,3.6,3.6,0,0,1,2.508.832,2.838,2.838,0,0,1,.922,2.215q0,1.68-2.141,4l-3.047,3.3h5.711Zm5.016-4.539A12.084,12.084,0,0,1,32.5-1.2,9.876,9.876,0,0,1,31.1,1.75a6.127,6.127,0,0,1-1.973,1.922l-.3-.883A6.281,6.281,0,0,0,30.754-.074,12.387,12.387,0,0,0,31.5-4.383v-.25a12.861,12.861,0,0,0-.344-3.051,10.3,10.3,0,0,0-.957-2.527,5.838,5.838,0,0,0-1.379-1.742l.3-.883A6.1,6.1,0,0,1,31.09-10.93a9.9,9.9,0,0,1,1.4,2.945A12.363,12.363,0,0,1,32.953-4.539Z" transform="translate(654.809 4667)" fill="#fff"/>
    <path id="Trazado_806372" data-name="Trazado 806372" d="M-27.59-11.375l3.719,9.281,3.719-9.281h1.945V0h-1.5V-4.43l.141-4.781L-23.3,0h-1.148l-3.727-9.187.148,4.758V0h-1.5V-11.375ZM-13.949,0h-1.5V-11.375h1.5Zm2.742,0V-11.375h3.719a4.317,4.317,0,0,1,2.785.766A2.759,2.759,0,0,1-3.77-8.344a2.31,2.31,0,0,1-.453,1.41,2.938,2.938,0,0,1-1.234.949A2.638,2.638,0,0,1-4-5a2.814,2.814,0,0,1,.535,1.723A3.042,3.042,0,0,1-4.457-.875,4.1,4.1,0,0,1-7.262,0Zm1.5-5.32v4.094H-7.23A2.385,2.385,0,0,0-5.578-1.77a1.907,1.907,0,0,0,.605-1.5q0-2.055-2.234-2.055Zm0-1.2h2.266a2.375,2.375,0,0,0,1.574-.493,1.654,1.654,0,0,0,.59-1.339,1.626,1.626,0,0,0-.547-1.366,2.686,2.686,0,0,0-1.664-.427H-9.707ZM1.535-4.242H-2.277v-1.18H1.535ZM10.246,0H2.793V-1.039L6.73-5.414A9.354,9.354,0,0,0,7.938-7.027,2.693,2.693,0,0,0,8.27-8.312,2.041,2.041,0,0,0,7.73-9.773a1.885,1.885,0,0,0-1.437-.57,2.232,2.232,0,0,0-1.676.613,2.343,2.343,0,0,0-.6,1.707H2.574a3.355,3.355,0,0,1,1.012-2.539,3.751,3.751,0,0,1,2.707-.969A3.6,3.6,0,0,1,8.8-10.7a2.838,2.838,0,0,1,.922,2.215q0,1.68-2.141,4L4.535-1.18h5.711Zm1.625-4.617a12.079,12.079,0,0,1,.473-3.391,9.85,9.85,0,0,1,1.41-2.953A6,6,0,0,1,15.7-12.836l.3.953a6.222,6.222,0,0,0-1.871,2.672,11.583,11.583,0,0,0-.8,4.023l-.008.664a11.643,11.643,0,0,0,1.1,5.234A6.252,6.252,0,0,0,16,2.789l-.3.883a6.192,6.192,0,0,1-1.984-1.937A10.859,10.859,0,0,1,11.871-4.617ZM22,0H20.543V-9.633l-2.914,1.07V-9.875L21.77-11.43H22Zm7.719-4.539a12.084,12.084,0,0,1-.457,3.34,9.876,9.876,0,0,1-1.4,2.949,6.127,6.127,0,0,1-1.973,1.922l-.3-.883A6.281,6.281,0,0,0,27.516-.074a12.387,12.387,0,0,0,.746-4.309v-.25a12.861,12.861,0,0,0-.344-3.051,10.3,10.3,0,0,0-.957-2.527,5.838,5.838,0,0,0-1.379-1.742l.3-.883a6.1,6.1,0,0,1,1.965,1.906,9.9,9.9,0,0,1,1.4,2.945A12.363,12.363,0,0,1,29.715-4.539Z" transform="translate(511.356 4753)" fill="#fff"/>
    <path id="Trazado_806373" data-name="Trazado 806373" d="M-33.012-2.93q.172-1.25-1.3-1.828L-35.66-5.25l-.453-.2q-2.281-1.039-2.133-2.922a3.056,3.056,0,0,1,.648-1.672,3.69,3.69,0,0,1,1.512-1.121,4.849,4.849,0,0,1,2-.371,4,4,0,0,1,1.84.461,2.962,2.962,0,0,1,1.23,1.223,3.333,3.333,0,0,1,.375,1.77l-1.477-.008a2.037,2.037,0,0,0-.469-1.627,2.1,2.1,0,0,0-1.562-.592,2.91,2.91,0,0,0-1.789.5,1.955,1.955,0,0,0-.828,1.409q-.156,1.166,1.43,1.769l1.164.415.586.25a2.941,2.941,0,0,1,2.039,3.016,3.012,3.012,0,0,1-.648,1.66A3.626,3.626,0,0,1-33.719-.2a5.266,5.266,0,0,1-2.074.359A4.339,4.339,0,0,1-37.75-.3,3.193,3.193,0,0,1-39.1-1.531,3.078,3.078,0,0,1-39.5-3.3l1.469.008a1.935,1.935,0,0,0,.551,1.613,2.479,2.479,0,0,0,1.754.613,3.131,3.131,0,0,0,1.867-.492A1.916,1.916,0,0,0-33.012-2.93ZM-25.8-5.672l3.867-5.7h1.75l-5.1,7.211L-26.012,0h-1.461l.75-4.328-2.539-7.047h1.594ZM-14.449-2.93q.172-1.25-1.3-1.828L-17.1-5.25l-.453-.2q-2.281-1.039-2.133-2.922a3.056,3.056,0,0,1,.648-1.672,3.69,3.69,0,0,1,1.512-1.121,4.849,4.849,0,0,1,2-.371,4,4,0,0,1,1.84.461,2.962,2.962,0,0,1,1.23,1.223,3.333,3.333,0,0,1,.375,1.77l-1.477-.008a2.037,2.037,0,0,0-.469-1.627,2.1,2.1,0,0,0-1.562-.592,2.91,2.91,0,0,0-1.789.5A1.955,1.955,0,0,0-18.2-8.395q-.156,1.166,1.43,1.769l1.164.415.586.25A2.941,2.941,0,0,1-12.98-2.945a3.012,3.012,0,0,1-.648,1.66A3.626,3.626,0,0,1-15.156-.2,5.266,5.266,0,0,1-17.23.156,4.34,4.34,0,0,1-19.187-.3a3.193,3.193,0,0,1-1.348-1.23A3.078,3.078,0,0,1-20.941-3.3l1.469.008a1.935,1.935,0,0,0,.551,1.613,2.479,2.479,0,0,0,1.754.613A3.131,3.131,0,0,0-15.3-1.562,1.916,1.916,0,0,0-14.449-2.93ZM-2.16-10.148H-5.7L-7.457,0H-8.918L-7.16-10.148H-10.7l.219-1.227h8.539ZM4.949-5.258H.168l-.7,4.031H5.027L4.809,0H-2.215L-.238-11.375H6.707l-.219,1.227H1.012L.379-6.484H5.16Zm5.563-6.117L12.5-2.109l5.219-9.266h1.93L17.676,0H16.215L17-4.5l.93-4.578L12.77,0H11.645L9.613-9.258l-.7,4.906L8.152,0H6.684L8.66-11.375ZM20.887-4.617a12.079,12.079,0,0,1,.473-3.391,9.85,9.85,0,0,1,1.41-2.953,6,6,0,0,1,1.945-1.875l.3.953a6.222,6.222,0,0,0-1.871,2.672,11.583,11.583,0,0,0-.8,4.023l-.008.664a11.643,11.643,0,0,0,1.1,5.234,6.252,6.252,0,0,0,1.578,2.078l-.3.883A6.192,6.192,0,0,1,22.73,1.734,10.859,10.859,0,0,1,20.887-4.617ZM31.012,0H29.559V-9.633l-2.914,1.07V-9.875l4.141-1.555h.227ZM38.73-4.539a12.084,12.084,0,0,1-.457,3.34,9.876,9.876,0,0,1-1.4,2.949A6.127,6.127,0,0,1,34.9,3.672l-.3-.883A6.281,6.281,0,0,0,36.531-.074a12.387,12.387,0,0,0,.746-4.309v-.25a12.861,12.861,0,0,0-.344-3.051,10.3,10.3,0,0,0-.957-2.527A5.838,5.838,0,0,0,34.6-11.953l.3-.883a6.1,6.1,0,0,1,1.965,1.906,9.9,9.9,0,0,1,1.4,2.945A12.363,12.363,0,0,1,38.73-4.539Z" transform="translate(511.356 4815)" fill="#fff"/>
    <path id="Trazado_806374" data-name="Trazado 806374" d="M-36.531-2.242a1.064,1.064,0,0,0-.441-.91,4.249,4.249,0,0,0-1.539-.559,7.277,7.277,0,0,1-1.742-.562,2.479,2.479,0,0,1-.953-.781,1.869,1.869,0,0,1-.309-1.078,2.193,2.193,0,0,1,.879-1.758,3.432,3.432,0,0,1,2.246-.719,3.532,3.532,0,0,1,2.332.742,2.357,2.357,0,0,1,.895,1.9h-1.453a1.3,1.3,0,0,0-.5-1.023,1.888,1.888,0,0,0-1.27-.43,1.976,1.976,0,0,0-1.234.344,1.082,1.082,0,0,0-.445.9.877.877,0,0,0,.414.789,5.1,5.1,0,0,0,1.5.508,7.8,7.8,0,0,1,1.754.578,2.558,2.558,0,0,1,1,.809,1.988,1.988,0,0,1,.324,1.152,2.163,2.163,0,0,1-.906,1.816,3.8,3.8,0,0,1-2.352.684,4.257,4.257,0,0,1-1.8-.359,2.922,2.922,0,0,1-1.223-1A2.42,2.42,0,0,1-41.8-2.6h1.445a1.5,1.5,0,0,0,.582,1.152,2.258,2.258,0,0,0,1.434.426,2.331,2.331,0,0,0,1.316-.332A1.02,1.02,0,0,0-36.531-2.242Zm6.094.125,1.969-6.336h1.547L-30.32,1.3q-.789,2.109-2.508,2.109l-.273-.023-.539-.1V2.117l.391.031a1.923,1.923,0,0,0,1.145-.3A2.148,2.148,0,0,0-31.43.766l.32-.859-3.016-8.359h1.578Zm9.727-.125a1.064,1.064,0,0,0-.441-.91,4.249,4.249,0,0,0-1.539-.559,7.277,7.277,0,0,1-1.742-.562,2.479,2.479,0,0,1-.953-.781A1.869,1.869,0,0,1-25.7-6.133a2.193,2.193,0,0,1,.879-1.758,3.432,3.432,0,0,1,2.246-.719,3.532,3.532,0,0,1,2.332.742,2.357,2.357,0,0,1,.895,1.9H-20.8a1.3,1.3,0,0,0-.5-1.023,1.888,1.888,0,0,0-1.27-.43,1.976,1.976,0,0,0-1.234.344,1.082,1.082,0,0,0-.445.9.877.877,0,0,0,.414.789,5.1,5.1,0,0,0,1.5.508,7.8,7.8,0,0,1,1.754.578,2.558,2.558,0,0,1,1,.809,1.988,1.988,0,0,1,.324,1.152,2.163,2.163,0,0,1-.906,1.816,3.8,3.8,0,0,1-2.352.684A4.257,4.257,0,0,1-24.32-.2a2.922,2.922,0,0,1-1.223-1A2.42,2.42,0,0,1-25.984-2.6h1.445a1.5,1.5,0,0,0,.582,1.152,2.258,2.258,0,0,0,1.434.426,2.331,2.331,0,0,0,1.316-.332A1.02,1.02,0,0,0-20.711-2.242ZM-17.156,0V-11.375h3.211a5.169,5.169,0,0,1,2.625.656A4.438,4.438,0,0,1-9.559-8.852,6.078,6.078,0,0,1-8.93-6.07v.727a6.1,6.1,0,0,1-.621,2.82A4.369,4.369,0,0,1-11.324-.664,5.5,5.5,0,0,1-14.008,0Zm1.5-10.148v8.922h1.578a3.434,3.434,0,0,0,2.7-1.079,4.458,4.458,0,0,0,.965-3.073v-.665a4.529,4.529,0,0,0-.91-3.014,3.239,3.239,0,0,0-2.582-1.091ZM-3.383.156A3.693,3.693,0,0,1-6.18-.973a4.19,4.19,0,0,1-1.078-3.02v-.266A5.073,5.073,0,0,1-6.777-6.5,3.748,3.748,0,0,1-5.434-8.051a3.378,3.378,0,0,1,1.871-.559A3.166,3.166,0,0,1-1-7.523,4.7,4.7,0,0,1-.086-4.414v.6H-5.812a3,3,0,0,0,.73,2.02,2.3,2.3,0,0,0,1.777.77,2.517,2.517,0,0,0,1.3-.312,3.259,3.259,0,0,0,.93-.828l.883.688A3.55,3.55,0,0,1-3.383.156Zm-.18-7.578a1.928,1.928,0,0,0-1.469.637A3.1,3.1,0,0,0-5.766-5h4.234v-.109a2.753,2.753,0,0,0-.594-1.707A1.815,1.815,0,0,0-3.562-7.422Zm10.07,5.18a1.064,1.064,0,0,0-.441-.91,4.249,4.249,0,0,0-1.539-.559,7.277,7.277,0,0,1-1.742-.562,2.479,2.479,0,0,1-.953-.781,1.869,1.869,0,0,1-.309-1.078A2.193,2.193,0,0,1,2.4-7.891a3.432,3.432,0,0,1,2.246-.719,3.532,3.532,0,0,1,2.332.742,2.357,2.357,0,0,1,.895,1.9H6.422a1.3,1.3,0,0,0-.5-1.023,1.888,1.888,0,0,0-1.27-.43,1.976,1.976,0,0,0-1.234.344,1.082,1.082,0,0,0-.445.9.877.877,0,0,0,.414.789,5.1,5.1,0,0,0,1.5.508A7.8,7.8,0,0,1,6.633-4.3a2.558,2.558,0,0,1,1,.809,1.988,1.988,0,0,1,.324,1.152A2.163,2.163,0,0,1,7.047-.527,3.8,3.8,0,0,1,4.7.156,4.257,4.257,0,0,1,2.9-.2a2.922,2.922,0,0,1-1.223-1A2.42,2.42,0,0,1,1.234-2.6H2.68a1.5,1.5,0,0,0,.582,1.152A2.258,2.258,0,0,0,4.7-1.023a2.331,2.331,0,0,0,1.316-.332A1.02,1.02,0,0,0,6.508-2.242Zm6.719,1.219a2.082,2.082,0,0,0,1.352-.469,1.649,1.649,0,0,0,.641-1.172h1.367a2.621,2.621,0,0,1-.5,1.383,3.293,3.293,0,0,1-1.23,1.047,3.55,3.55,0,0,1-1.629.391A3.482,3.482,0,0,1,10.48-1a4.59,4.59,0,0,1-1.02-3.152v-.242a5.089,5.089,0,0,1,.453-2.2,3.451,3.451,0,0,1,1.3-1.492,3.7,3.7,0,0,1,2-.531,3.39,3.39,0,0,1,2.363.852,3.043,3.043,0,0,1,1,2.211H15.219A1.992,1.992,0,0,0,14.6-6.895a1.932,1.932,0,0,0-1.379-.527,2.023,2.023,0,0,0-1.707.793,3.724,3.724,0,0,0-.605,2.293v.273a3.65,3.65,0,0,0,.6,2.25A2.033,2.033,0,0,0,13.227-1.023ZM22.3-7.156a4.331,4.331,0,0,0-.711-.055A1.9,1.9,0,0,0,19.656-6V0H18.211V-8.453h1.406l.023.977a2.251,2.251,0,0,1,2.016-1.133A1.477,1.477,0,0,1,22.3-8.5ZM23.57-4.617a12.079,12.079,0,0,1,.473-3.391,9.85,9.85,0,0,1,1.41-2.953A6,6,0,0,1,27.4-12.836l.3.953a6.222,6.222,0,0,0-1.871,2.672,11.583,11.583,0,0,0-.8,4.023l-.008.664a11.643,11.643,0,0,0,1.1,5.234A6.252,6.252,0,0,0,27.7,2.789l-.3.883a6.192,6.192,0,0,1-1.984-1.937A10.859,10.859,0,0,1,23.57-4.617ZM33.7,0H32.242V-9.633l-2.914,1.07V-9.875l4.141-1.555H33.7Zm7.719-4.539a12.084,12.084,0,0,1-.457,3.34,9.876,9.876,0,0,1-1.4,2.949,6.127,6.127,0,0,1-1.973,1.922l-.3-.883A6.281,6.281,0,0,0,39.215-.074a12.387,12.387,0,0,0,.746-4.309v-.25a12.861,12.861,0,0,0-.344-3.051,10.3,10.3,0,0,0-.957-2.527,5.838,5.838,0,0,0-1.379-1.742l.3-.883a6.1,6.1,0,0,1,1.965,1.906,9.9,9.9,0,0,1,1.4,2.945A12.363,12.363,0,0,1,41.414-4.539Z" transform="translate(511.356 4877)" fill="#fff"/>
    <path id="Icon_awesome-long-arrow-alt-down-11" data-name="Icon awesome-long-arrow-alt-down" d="M6.947,46.436V22.555A.555.555,0,0,0,6.391,22H3.8a.555.555,0,0,0-.555.555V46.436H1.113a1.111,1.111,0,0,0-.785,1.9L4.31,52.315a1.111,1.111,0,0,0,1.571,0l3.983-3.983a1.111,1.111,0,0,0-.785-1.9Z" transform="translate(649.713 4588.36)" fill="#f9305f"/>
    <path id="Trazado_806176" data-name="Trazado 806176" d="M0,0H4l.016,144.27h-4Z" transform="translate(655.103 4706.081) rotate(90)" fill="#f9305f"/>
    <path id="Trazado_806179" data-name="Trazado 806179" d="M0,0H4l.016,196.239h-4Z" transform="translate(769.761 4786.992) rotate(90)" fill="#f9305f"/>
    <path id="Trazado_806180" data-name="Trazado 806180" d="M0,0H4l.016,16.248h-4Z" transform="translate(572.7 4751) rotate(90)" fill="#f9305f"/>
    <path id="Trazado_806181" data-name="Trazado 806181" d="M0,0H4l.016,40.008h-4Z" transform="translate(574.708 4791.008) rotate(180)" fill="#f9305f"/>
    <path id="Trazado_806178" data-name="Trazado 806178" d="M0,0H4l.016,551.24h-4Z" transform="translate(1107.692 4730.992) rotate(90)" fill="#f9305f"/>
    <path id="Trazado_806177" data-name="Trazado 806177" d="M0,0H4l.016,29.1h-4Z" transform="translate(653.095 4681)" fill="#f9305f"/>
    <path id="Icon_awesome-long-arrow-alt-down-12" data-name="Icon awesome-long-arrow-alt-down" d="M6.947,47.436V32.555A.555.555,0,0,0,6.391,32H3.8a.555.555,0,0,0-.555.555V47.436H1.113a1.111,1.111,0,0,0-.785,1.9L4.31,53.315a1.111,1.111,0,0,0,1.571,0l3.983-3.983a1.111,1.111,0,0,0-.785-1.9Z" transform="translate(506.809 4674.081)" fill="#f9305f"/>
    <path id="Icon_awesome-long-arrow-alt-down-13" data-name="Icon awesome-long-arrow-alt-down" d="M6.947,47.436V32.555A.555.555,0,0,0,6.391,32H3.8a.555.555,0,0,0-.555.555V47.436H1.113a1.111,1.111,0,0,0-.785,1.9L4.31,53.315a1.111,1.111,0,0,0,1.571,0l3.983-3.983a1.111,1.111,0,0,0-.785-1.9Z" transform="translate(506.809 4735.721)" fill="#f9305f"/>
    <path id="Icon_awesome-long-arrow-alt-down-14" data-name="Icon awesome-long-arrow-alt-down" d="M6.947,47.436V42.555A.555.555,0,0,0,6.391,42H3.8a.555.555,0,0,0-.555.555v4.881H1.113a1.111,1.111,0,0,0-.785,1.9L4.31,53.315a1.111,1.111,0,0,0,1.571,0l3.983-3.983a1.111,1.111,0,0,0-.785-1.9Z" transform="translate(624.809 4690.36)" fill="#f9305f"/>
    <path id="Icon_awesome-long-arrow-alt-down-15" data-name="Icon awesome-long-arrow-alt-down" d="M6.947,47.436V42.555A.555.555,0,0,0,6.391,42H3.8a.555.555,0,0,0-.555.555v4.881H1.113a1.111,1.111,0,0,0-.785,1.9L4.31,53.315a1.111,1.111,0,0,0,1.571,0l3.983-3.983a1.111,1.111,0,0,0-.785-1.9Z" transform="translate(707.809 4690.36)" fill="#f9305f"/>
    <path id="Icon_awesome-long-arrow-alt-down-16" data-name="Icon awesome-long-arrow-alt-down" d="M6.947,47.436V42.555A.555.555,0,0,0,6.391,42H3.8a.555.555,0,0,0-.555.555v4.881H1.113a1.111,1.111,0,0,0-.785,1.9L4.31,53.315a1.111,1.111,0,0,0,1.571,0l3.983-3.983a1.111,1.111,0,0,0-.785-1.9Z" transform="translate(765.809 4690.36)" fill="#f9305f"/>
    <path id="Icon_awesome-long-arrow-alt-down-17" data-name="Icon awesome-long-arrow-alt-down" d="M6.947,47.436V42.555A.555.555,0,0,0,6.391,42H3.8a.555.555,0,0,0-.555.555v4.881H1.113a1.111,1.111,0,0,0-.785,1.9L4.31,53.315a1.111,1.111,0,0,0,1.571,0l3.983-3.983a1.111,1.111,0,0,0-.785-1.9Z" transform="translate(830.809 4690.36)" fill="#f9305f"/>
    <path id="Icon_awesome-long-arrow-alt-down-18" data-name="Icon awesome-long-arrow-alt-down" d="M6.947,47.436V42.555A.555.555,0,0,0,6.391,42H3.8a.555.555,0,0,0-.555.555v4.881H1.113a1.111,1.111,0,0,0-.785,1.9L4.31,53.315a1.111,1.111,0,0,0,1.571,0l3.983-3.983a1.111,1.111,0,0,0-.785-1.9Z" transform="translate(899.809 4690.36)" fill="#f9305f"/>
    <path id="Icon_awesome-long-arrow-alt-down-19" data-name="Icon awesome-long-arrow-alt-down" d="M6.947,47.436V42.555A.555.555,0,0,0,6.391,42H3.8a.555.555,0,0,0-.555.555v4.881H1.113a1.111,1.111,0,0,0-.785,1.9L4.31,53.315a1.111,1.111,0,0,0,1.571,0l3.983-3.983a1.111,1.111,0,0,0-.785-1.9Z" transform="translate(964.809 4690.36)" fill="#f9305f"/>
    <path id="Icon_awesome-long-arrow-alt-down-20" data-name="Icon awesome-long-arrow-alt-down" d="M6.947,47.436V42.555A.555.555,0,0,0,6.391,42H3.8a.555.555,0,0,0-.555.555v4.881H1.113a1.111,1.111,0,0,0-.785,1.9L4.31,53.315a1.111,1.111,0,0,0,1.571,0l3.983-3.983a1.111,1.111,0,0,0-.785-1.9Z" transform="translate(1029.809 4690.36)" fill="#f9305f"/>
    <path id="Icon_awesome-long-arrow-alt-down-21" data-name="Icon awesome-long-arrow-alt-down" d="M6.947,47.436V42.555A.555.555,0,0,0,6.391,42H3.8a.555.555,0,0,0-.555.555v4.881H1.113a1.111,1.111,0,0,0-.785,1.9L4.31,53.315a1.111,1.111,0,0,0,1.571,0l3.983-3.983a1.111,1.111,0,0,0-.785-1.9Z" transform="translate(1100.809 4690.36)" fill="#f9305f"/>
    <path id="Icon_awesome-long-arrow-alt-down-22" data-name="Icon awesome-long-arrow-alt-down" d="M6.947,47.436V42.555A.555.555,0,0,0,6.391,42H3.8a.555.555,0,0,0-.555.555v4.881H1.113a1.111,1.111,0,0,0-.785,1.9L4.31,53.315a1.111,1.111,0,0,0,1.571,0l3.983-3.983a1.111,1.111,0,0,0-.785-1.9Z" transform="translate(644.809 4746.896)" fill="#f9305f"/>
    <path id="Icon_awesome-long-arrow-alt-down-23" data-name="Icon awesome-long-arrow-alt-down" d="M6.947,47.436V42.555A.555.555,0,0,0,6.391,42H3.8a.555.555,0,0,0-.555.555v4.881H1.113a1.111,1.111,0,0,0-.785,1.9L4.31,53.315a1.111,1.111,0,0,0,1.571,0l3.983-3.983a1.111,1.111,0,0,0-.785-1.9Z" transform="translate(762.809 4746.896)" fill="#f9305f"/>
    <path id="Icon_awesome-long-arrow-alt-down-24" data-name="Icon awesome-long-arrow-alt-down" d="M6.947,47.436V32.555A.555.555,0,0,0,6.391,32H3.8a.555.555,0,0,0-.555.555V47.436H1.113a1.111,1.111,0,0,0-.785,1.9L4.31,53.315a1.111,1.111,0,0,0,1.571,0l3.983-3.983a1.111,1.111,0,0,0-.785-1.9Z" transform="translate(506.809 4797.36)" fill="#f9305f"/>
  </g>
</svg>
