<svg id="surface1" xmlns="http://www.w3.org/2000/svg" width="78" height="78" viewBox="0 0 78 78">
  <path id="Trazado_804817" data-name="Trazado 804817" d="M74.482,12.8H58.5a1.143,1.143,0,0,0,0,2.285H74.482a1.234,1.234,0,0,1,1.233,1.233v44a1.234,1.234,0,0,1-1.233,1.233H3.518a1.234,1.234,0,0,1-1.233-1.233v-44a1.234,1.234,0,0,1,1.233-1.233h25.1v2.285H5.713A1.142,1.142,0,0,0,4.57,18.51V48.7a1.143,1.143,0,0,0,2.285,0V19.652H28.622v6.129L23.73,28.119a1.151,1.151,0,0,0-.65,1.031V47.784a1.143,1.143,0,0,0,.65,1.031l14.777,7.06a1.158,1.158,0,0,0,.985,0L47.8,51.906a1.143,1.143,0,1,0-.986-2.062l-6.672,3.188V36.93l12.492-5.968v16.1l-1.7.81a1.143,1.143,0,1,0,.985,2.062l2.348-1.121a1.143,1.143,0,0,0,.65-1.031V29.15a1.149,1.149,0,0,0-.65-1.031l-4.892-2.337V19.652H71.145V56.977H6.855v-3.4a1.143,1.143,0,0,0-2.285,0v4.545a1.142,1.142,0,0,0,1.143,1.143H72.287a1.142,1.142,0,0,0,1.143-1.143V18.51a1.142,1.142,0,0,0-1.143-1.143H49.378V15.082h4.247a1.143,1.143,0,1,0,0-2.285H49.378V10.512H59.624a1.142,1.142,0,0,0,1.143-1.143V6.659a3.428,3.428,0,1,0-2.285,0V8.227H48.236a1.142,1.142,0,0,0-1.143,1.143V12.8H40.143V6.659a3.428,3.428,0,1,0-2.285,0V12.8H30.907V9.369a1.142,1.142,0,0,0-1.143-1.143H19.519V6.659a3.428,3.428,0,1,0-2.285,0v2.71a1.142,1.142,0,0,0,1.143,1.143H28.622V12.8H3.518A3.522,3.522,0,0,0,0,16.315v44a3.522,3.522,0,0,0,3.518,3.518H28.289A10.889,10.889,0,0,1,24.2,71.145H19.348a3.428,3.428,0,1,0,0,6.855h39.3a3.428,3.428,0,1,0,0-6.855H53.8a11,11,0,0,1-4.089-7.312h24.77A3.522,3.522,0,0,0,78,60.314v-44A3.522,3.522,0,0,0,74.482,12.8ZM59.624,2.285a1.143,1.143,0,1,1-1.143,1.143A1.144,1.144,0,0,1,59.624,2.285ZM39,2.285a1.143,1.143,0,1,1-1.143,1.143A1.144,1.144,0,0,1,39,2.285Zm-20.624,0a1.143,1.143,0,1,1-1.143,1.143A1.144,1.144,0,0,1,18.376,2.285Zm12.53,17.367h6.951v1.717L30.907,24.69Zm20.22,9.5L39,34.943,26.873,29.15,39,23.356ZM25.365,30.962,37.857,36.93v16.1L25.365,47.064ZM47.093,24.69l-6.951-3.321V19.652h6.951Zm0-9.608v2.285H40.143V15.082Zm-9.236,0v2.285H30.907V15.082Zm21.938,59.49a1.144,1.144,0,0,1-1.143,1.143h-39.3a1.143,1.143,0,1,1,0-2.285h39.3A1.144,1.144,0,0,1,59.795,74.572Zm-9.271-3.428H27.477a12.886,12.886,0,0,0,3.111-7.312H47.413A12.886,12.886,0,0,0,50.523,71.145Zm0,0" fill="#fff"/>
</svg>
