<svg id="download" xmlns="http://www.w3.org/2000/svg" xmlns:xlink="http://www.w3.org/1999/xlink" width="117.241" height="109.761" viewBox="0 0 117.241 109.761">
  <defs>
    <linearGradient id="linear-gradient" x1="0.135" y1="0.93" x2="0.931" y2="0.081" gradientUnits="objectBoundingBox">
      <stop offset="0.011" stop-color="#e2faeb"/>
      <stop offset="0.894" stop-color="#f1dae9"/>
      <stop offset="1" stop-color="#f3d6e9"/>
    </linearGradient>
  </defs>
  <g id="Grupo_1068873" data-name="Grupo 1068873" transform="translate(0 0)">
    <path id="Trazado_804818" data-name="Trazado 804818" d="M117.061,44.021c-.841-15.97-14.487-28.839-29.209-27.608-9.87.825-28.4,5.68-26.247,21.219C63.36,50.3,81.267,43.387,85.792,57.659c7,22.074-37.946,55.194-55.991,37.866-5.554-5.333.732-20.014,2.776-23.319,5.14-8.306-.085-16.7-8.818-16.521C.18,56.17-.717,76.481.234,90.422c2.229,32.679,42.292,41.224,64.748,32.427,50.966-19.966,53.156-58.37,52.08-78.828Z" transform="translate(0 -16.331)" fill="url(#linear-gradient)"/>
  </g>
  <g id="Grupo_1068892" data-name="Grupo 1068892" transform="translate(11.361 2.086)">
    <g id="Grupo_1068890" data-name="Grupo 1068890">
      <g id="Grupo_1068888" data-name="Grupo 1068888">
        <path id="Trazado_804819" data-name="Trazado 804819" d="M132.772,91.038h-7.241l7.053-7.994a1.947,1.947,0,0,0-1.46-3.235h-4.56V61.474a2.29,2.29,0,0,0-2.29-2.29h-8.743a2.29,2.29,0,0,0-2.29,2.29V79.809h-4.56c-.029,0-.056.005-.085.006V56.729a2.29,2.29,0,0,0-2.29-2.29H95.215a2.29,2.29,0,0,0-2.29,2.29V79.82c-.051,0-.1-.011-.153-.011h-4.56V61.474a2.29,2.29,0,0,0-2.29-2.29H77.18a2.29,2.29,0,0,0-2.29,2.29V79.809H70.33a1.947,1.947,0,0,0-1.46,3.235l7.053,7.994H68.682a5.532,5.532,0,0,0-5.531,5.531v33.2H57a2.392,2.392,0,0,0-2.392,2.392v18.215A2.392,2.392,0,0,0,57,152.769H90.466a2.392,2.392,0,0,0,2.392-2.392v-8.339h39.914a5.525,5.525,0,0,0,5.531-5.528V96.568a5.529,5.529,0,0,0-5.531-5.531Zm-24.132-6.385H108.6V84.6Zm-15.715,0h-.112l.112-.127Z" transform="translate(-53.467 -47.798)" fill="#2a2ab5" opacity="0.1"/>
        <g id="Grupo_1068874" data-name="Grupo 1068874" transform="translate(14.912 5.89)">
          <path id="Trazado_804820" data-name="Trazado 804820" d="M115.225,75.019,126.447,87.74a1.947,1.947,0,0,0,2.92,0l11.222-12.721a1.947,1.947,0,0,0-1.46-3.235h-4.56V53.45a2.29,2.29,0,0,0-2.29-2.29h-8.743a2.29,2.29,0,0,0-2.29,2.29V71.785h-4.56A1.947,1.947,0,0,0,115.225,75.019Z" transform="translate(-114.734 -51.16)" fill="#4369fc"/>
          <path id="Trazado_804821" data-name="Trazado 804821" d="M282.708,75.019,293.93,87.74a1.947,1.947,0,0,0,2.92,0l11.222-12.721a1.947,1.947,0,0,0-1.46-3.235h-4.56V53.45a2.29,2.29,0,0,0-2.29-2.29h-8.743a2.29,2.29,0,0,0-2.29,2.29V71.785h-4.56a1.947,1.947,0,0,0-1.46,3.235Z" transform="translate(-243.866 -51.16)" fill="#4369fc"/>
        </g>
        <g id="Grupo_1068887" data-name="Grupo 1068887">
          <g id="Grupo_1068875" data-name="Grupo 1068875" transform="translate(9.683 37.744)">
            <path id="Trazado_804822" data-name="Trazado 804822" d="M167.054,195.8v39.941a5.525,5.525,0,0,1-5.531,5.528H97.433a5.528,5.528,0,0,1-5.531-5.528V195.8a5.532,5.532,0,0,1,5.531-5.531h64.091A5.529,5.529,0,0,1,167.054,195.8Z" transform="translate(-91.902 -190.269)" fill="#02ffb2"/>
            <path id="Trazado_804823" data-name="Trazado 804823" d="M167.053,195.8v4.639L131.468,223a3.87,3.87,0,0,1-4.152-.005L91.9,200.44V195.8a5.532,5.532,0,0,1,5.531-5.531h64.091A5.528,5.528,0,0,1,167.053,195.8Z" transform="translate(-91.901 -190.27)" fill="#01eba4"/>
            <path id="Trazado_804824" data-name="Trazado 804824" d="M91.9,310.868l35.584-22.557a3.87,3.87,0,0,1,4.151,0l35.415,22.552a5.531,5.531,0,0,1-5.53,5.53H97.433A5.528,5.528,0,0,1,91.9,310.868Z" transform="translate(-91.903 -265.398)" fill="#96ffd1"/>
            <path id="Trazado_804825" data-name="Trazado 804825" d="M232.817,293.181l-7.8,4.946a3.875,3.875,0,0,1-4.152,0l-7.632-4.861,7.8-4.946a3.871,3.871,0,0,1,4.152,0Z" transform="translate(-185.447 -265.4)" fill="#02ffb2"/>
            <path id="Trazado_804826" data-name="Trazado 804826" d="M167.051,195.8l-35.582,22.557a3.871,3.871,0,0,1-4.152,0L91.9,195.8a5.532,5.532,0,0,1,5.53-5.53h64.093a5.527,5.527,0,0,1,5.528,5.53Z" transform="translate(-91.9 -190.27)" fill="#dbfced"/>
            <path id="Trazado_804827" data-name="Trazado 804827" d="M218.9,192.269l-13.2,14.962a2.291,2.291,0,0,1-3.435,0l-13.2-14.962a2.239,2.239,0,0,1-.522-2h30.874A2.237,2.237,0,0,1,218.9,192.269Z" transform="translate(-166.37 -190.27)" fill="#96ffd1"/>
          </g>
          <g id="Grupo_1068885" data-name="Grupo 1068885" transform="translate(1.145 71.17)">
            <g id="Grupo_1068880" data-name="Grupo 1068880">
              <g id="Grupo_1068879" data-name="Grupo 1068879">
                <g id="Grupo_1068878" data-name="Grupo 1068878">
                  <g id="Grupo_1068877" data-name="Grupo 1068877">
                    <path id="Trazado_804828" data-name="Trazado 804828" d="M90.466,364.55H57a2.392,2.392,0,0,1-2.392-2.392V343.943A2.392,2.392,0,0,1,57,341.551H74.615l4.6-4.6a2.392,2.392,0,0,1,3.382,0l4.6,4.6h3.259a2.392,2.392,0,0,1,2.392,2.392v18.215a2.392,2.392,0,0,1-2.392,2.392Z" transform="translate(-54.612 -336.246)" fill="#02ffb2"/>
                    <path id="Trazado_804829" data-name="Trazado 804829" d="M90.466,364.55H57a2.392,2.392,0,0,1-2.392-2.392V343.943A2.392,2.392,0,0,1,57,341.551H74.615l4.6-4.6a2.392,2.392,0,0,1,3.382,0l4.6,4.6h3.259a2.392,2.392,0,0,1,2.392,2.392v18.215a2.392,2.392,0,0,1-2.392,2.392Z" transform="translate(-54.612 -336.246)" fill="#8298fd"/>
                    <g id="Grupo_1068876" data-name="Grupo 1068876" transform="translate(15.93 9.794)">
                      <path id="Trazado_804830" data-name="Trazado 804830" d="M130.947,397.528a2.088,2.088,0,0,1-.668-1.651c0-1.971,2.26-2.9,3.37-3.614a6.512,6.512,0,0,0,2.174-1.875v5.561a5.821,5.821,0,0,1-1.512,1.58h7.653V386.961a17.016,17.016,0,0,0-.318-3.71,4.7,4.7,0,0,0-1.26-2.3,5.685,5.685,0,0,0-2.559-1.452,14.692,14.692,0,0,0-6.847-.144c-1.87.38-3.939,1.083-5.073,2.724-1.449,2.1-.117,5.312,2.538,5.312a3.245,3.245,0,0,0,1.748-6.015,5.709,5.709,0,0,1,3.71-.282,2.746,2.746,0,0,1,1.921,2.609v3.346a2.028,2.028,0,0,1-1.088,1.813c-3,1.823-7.2,1.961-9.512,4.862a5.249,5.249,0,0,0-1.012,3.806h6.736Z" transform="translate(-124.178 -379.018)" fill="#9eaffd"/>
                    </g>
                  </g>
                </g>
              </g>
            </g>
            <g id="Grupo_1068884" data-name="Grupo 1068884" transform="translate(5.821 11.39)">
              <g id="Grupo_1068881" data-name="Grupo 1068881">
                <path id="Trazado_804831" data-name="Trazado 804831" d="M85.434,388.276H81.179a1.145,1.145,0,0,1,0-2.29h4.255a1.145,1.145,0,0,1,0,2.29Z" transform="translate(-80.034 -385.986)" fill="#fff"/>
              </g>
              <g id="Grupo_1068882" data-name="Grupo 1068882" transform="translate(0 4.667)">
                <path id="Trazado_804832" data-name="Trazado 804832" d="M94.594,408.658H81.179a1.145,1.145,0,0,1,0-2.29H94.594a1.145,1.145,0,0,1,0,2.29Z" transform="translate(-80.034 -406.368)" fill="#fff"/>
              </g>
              <g id="Grupo_1068883" data-name="Grupo 1068883" transform="translate(0 9.334)">
                <path id="Trazado_804833" data-name="Trazado 804833" d="M94.594,429.039H81.179a1.145,1.145,0,0,1,0-2.29H94.594a1.145,1.145,0,0,1,0,2.29Z" transform="translate(-80.034 -426.749)" fill="#fff"/>
              </g>
            </g>
          </g>
          <g id="Grupo_1068886" data-name="Grupo 1068886">
            <path id="Trazado_804834" data-name="Trazado 804834" d="M189.062,64.457l13.2,14.962a2.29,2.29,0,0,0,3.434,0l13.2-14.962a2.29,2.29,0,0,0-1.717-3.8h-5.364V32.729a2.29,2.29,0,0,0-2.29-2.29H198.433a2.29,2.29,0,0,0-2.29,2.29V60.652h-5.364a2.29,2.29,0,0,0-1.717,3.8Z" transform="translate(-156.685 -29.294)" fill="#8298fd"/>
            <path id="Trazado_804835" data-name="Trazado 804835" d="M128.918,62.039h-4.705l5.375-6.093a3.092,3.092,0,0,0-2.318-5.137h-3.416V33.619a3.439,3.439,0,0,0-3.435-3.435h-8.743a3.439,3.439,0,0,0-3.435,3.435v17.19h-2.356V28.874a3.439,3.439,0,0,0-3.435-3.435H91.361a3.439,3.439,0,0,0-3.435,3.435V50.809H85.5V33.619a3.439,3.439,0,0,0-3.435-3.435H73.326a3.439,3.439,0,0,0-3.435,3.435v17.19H66.475a3.091,3.091,0,0,0-2.318,5.137l5.375,6.093H64.826a6.682,6.682,0,0,0-6.674,6.674V100.77h-5a3.541,3.541,0,0,0-3.536,3.537v6.285a1.145,1.145,0,1,0,2.29,0v-6.285a1.248,1.248,0,0,1,1.247-1.247H70.761a1.146,1.146,0,0,0,.81-.335l4.6-4.6a1.247,1.247,0,0,1,1.763,0l4.6,4.6a1.145,1.145,0,0,0,.81.335h3.259a1.248,1.248,0,0,1,1.247,1.247v18.215a1.248,1.248,0,0,1-1.247,1.247H53.149a1.248,1.248,0,0,1-1.247-1.247v-5.063a1.145,1.145,0,1,0-2.29,0v5.063a3.54,3.54,0,0,0,3.536,3.536H86.612a3.54,3.54,0,0,0,3.536-3.536v-7.194h38.77a6.682,6.682,0,0,0,6.674-6.674V68.713a6.682,6.682,0,0,0-6.674-6.674ZM109.387,53.1a1.145,1.145,0,0,0,1.145-1.145V33.619a1.146,1.146,0,0,1,1.145-1.145h8.743a1.146,1.146,0,0,1,1.145,1.145V51.953a1.145,1.145,0,0,0,1.145,1.145h4.56a.8.8,0,0,1,.6,1.332l-6.712,7.608h-9.077l.6-.679a3.435,3.435,0,0,0-2.576-5.707h-4.219V53.1ZM90.216,28.874a1.146,1.146,0,0,1,1.145-1.145h11.091a1.146,1.146,0,0,1,1.145,1.145V56.8a1.145,1.145,0,0,0,1.145,1.145h5.364a1.145,1.145,0,0,1,.858,1.9l-13.2,14.962a1.145,1.145,0,0,1-1.717,0l-13.2-14.962a1.145,1.145,0,0,1,.858-1.9h5.364A1.145,1.145,0,0,0,90.216,56.8V28.874Zm43.087,79.78a4.389,4.389,0,0,1-4.384,4.384H90.149v-8.731a3.541,3.541,0,0,0-3.536-3.537H83.827l-4.27-4.27a3.537,3.537,0,0,0-5,0l-4.27,4.27H60.442V68.713a4.389,4.389,0,0,1,4.384-4.384H77.407a1.145,1.145,0,0,0,0-2.29H72.586l-6.712-7.608a.8.8,0,0,1,.6-1.332h4.56a1.145,1.145,0,0,0,1.145-1.145V33.619a1.146,1.146,0,0,1,1.145-1.145h8.743a1.146,1.146,0,0,1,1.145,1.145V51.953A1.145,1.145,0,0,0,84.358,53.1h3.568v2.554H83.707a3.435,3.435,0,0,0-2.576,5.707l13.2,14.962a3.435,3.435,0,0,0,5.152,0l10.58-11.993h18.856a4.389,4.389,0,0,1,4.384,4.384v39.941Z" transform="translate(-49.613 -25.439)" fill="#2a2ab5"/>
          </g>
        </g>
      </g>
      <g id="Grupo_1068889" data-name="Grupo 1068889" transform="translate(63.685 68.81)">
        <ellipse id="Elipse_8686" data-name="Elipse 8686" cx="7.375" cy="7.375" rx="7.375" ry="7.375" fill="#00d78f"/>
        <ellipse id="Elipse_8687" data-name="Elipse 8687" cx="4.564" cy="4.564" rx="4.564" ry="4.564" transform="translate(2.811 2.811)" fill="#01eba4"/>
      </g>
    </g>
    <path id="Trazado_804836" data-name="Trazado 804836" d="M396.164,45.587a1.145,1.145,0,0,1-1.145-1.145,1.452,1.452,0,0,0-1.45-1.45,1.145,1.145,0,0,1,0-2.29,1.452,1.452,0,0,0,1.45-1.45,1.145,1.145,0,1,1,2.29,0,1.452,1.452,0,0,0,1.45,1.45,1.145,1.145,0,1,1,0,2.29,1.452,1.452,0,0,0-1.45,1.45A1.145,1.145,0,0,1,396.164,45.587Z" transform="translate(-313.925 -35.206)" fill="#ff7eb7"/>
    <path id="Trazado_804837" data-name="Trazado 804837" d="M67.9,150.806a1.145,1.145,0,0,1-1.145-1.145,1.452,1.452,0,0,0-1.45-1.45,1.145,1.145,0,1,1,0-2.29,1.452,1.452,0,0,0,1.45-1.45,1.145,1.145,0,0,1,2.29,0,1.452,1.452,0,0,0,1.45,1.45,1.145,1.145,0,0,1,0,2.29,1.452,1.452,0,0,0-1.45,1.45A1.145,1.145,0,0,1,67.9,150.806Z" transform="translate(-60.826 -116.332)" fill="#8298fd"/>
    <path id="Trazado_804838" data-name="Trazado 804838" d="M55.631,321.915a1.145,1.145,0,0,1-.81-1.954l2.29-2.29a1.145,1.145,0,0,1,1.619,1.619l-2.29,2.29a1.141,1.141,0,0,1-.809.335Z" transform="translate(-53.37 -250.496)" fill="#ff7eb7"/>
    <g id="Grupo_1068891" data-name="Grupo 1068891" transform="translate(11.221 17.74)">
      <path id="Trazado_804839" data-name="Trazado 804839" d="M99.761,107.492a1.145,1.145,0,0,1-.81-1.954l2.29-2.29a1.145,1.145,0,0,1,1.619,1.619l-2.29,2.29A1.142,1.142,0,0,1,99.761,107.492Z" transform="translate(-98.616 -102.913)" fill="#02ffb2"/>
      <path id="Trazado_804840" data-name="Trazado 804840" d="M388.569,439.916a1.145,1.145,0,0,1-.809-1.954l2.29-2.29a1.145,1.145,0,0,1,1.619,1.619l-2.29,2.29A1.141,1.141,0,0,1,388.569,439.916Z" transform="translate(-321.291 -359.217)" fill="#02ffb2"/>
    </g>
  </g>
</svg>
